<?xml version="1.0" encoding="UTF-8"?>
<svg width="800px" height="525px" viewBox="0 0 800 525" version="1.1" xmlns="http://www.w3.org/2000/svg" xmlns:xlink="http://www.w3.org/1999/xlink">
    <!-- Generator: Sketch 52.6 (67491) - http://www.bohemiancoding.com/sketch -->
    <title>consensus</title>
    <desc>Created with Sketch.</desc>
    <g id="consensus" stroke="none" stroke-width="1" fill="none" fill-rule="evenodd">
        <rect fill="#FFFFFF" x="0" y="0" width="800" height="525"></rect>
        <path d="M15,-116 L193.981207,-116 C229.879716,-116 258.981207,-86.8985087 258.981207,-51 L258.981207,149.3555 C258.981207,185.114876 287.865897,214.158412 323.624735,214.354523 L741.356472,216.645477 C777.11531,216.841588 806,245.885124 806,281.6445 L806,717 C806,752.898509 776.898509,782 741,782 L15,782 C-20.8985087,782 -50,752.898509 -50,717 L-50,-51 C-50,-86.8985087 -20.8985087,-116 15,-116 Z" id="Rectangle" fill="#B3BCC3"></path>
        <path id="Line" d="M256.5,348.5 L308,348.5 L309.5,348.5 L309.5,351.5 L308,351.5 L256.5,351.5 L256.5,359.5 L237.5,350 L256.5,340.5 L256.5,348.5 Z" fill="#000000" fill-rule="nonzero"></path>
        <path id="Line" d="M543.5,351.5 L489,351.5 L487.5,351.5 L487.5,348.5 L489,348.5 L543.5,348.5 L543.5,340.5 L562.5,350 L543.5,359.5 L543.5,351.5 Z" fill="#000000" fill-rule="nonzero"></path>
        <g id="Group" transform="translate(562.000000, 258.000000)">
            <circle id="Oval" fill="#5645F5" cx="91.9332607" cy="91.9332607" r="91.9332607"></circle>
            <text id="Execution" font-family="Helvetica" font-size="25" font-weight="normal" fill="#FFFFFF">
                <tspan x="36.6049805" y="100">Execution</tspan>
            </text>
        </g>
        <g id="Group" transform="translate(54.000000, 258.000000)">
            <circle id="Oval" fill="#5645F5" cx="91.9332607" cy="91.9332607" r="91.9332607"></circle>
            <text id="Mempool" font-family="Helvetica" font-size="25" font-weight="normal" fill="#FFFFFF">
                <tspan x="40.0900879" y="100">Mempool</tspan>
            </text>
        </g>
        <g id="Group" transform="translate(308.000000, 258.000000)">
            <circle id="Oval" fill="#221B62" cx="91.9332607" cy="91.9332607" r="91.9332607"></circle>
            <text id="Consensus" font-family="Helvetica" font-size="25" font-weight="normal" fill="#FFFFFF">
                <tspan x="29.4633789" y="100">Consensus</tspan>
            </text>
        </g>
        <text id="CO.1" font-family="Helvetica-Bold, Helvetica" font-size="25" font-weight="bold" letter-spacing="-1" fill="#15112C">
            <tspan x="241.825195" y="315">CO.</tspan>
            <tspan x="283.270996" y="315">1</tspan>
        </text>
        <text id="Consensus" font-family="Helvetica" font-size="40" font-weight="normal" fill="#FFFFFF">
            <tspan x="29" y="60">Consensus</tspan>
        </text>
        <path id="Line" d="M398,229.5 L398,181.5 L386,181.5 L400.5,152.5 L415,181.5 L403,181.5 L403,229.5 L415,229.5 L400.5,258.5 L386,229.5 L398,229.5 Z" fill="#000000" fill-rule="nonzero"></path>
        <path id="Line" d="M398,229.5 L398,181.5 L386,181.5 L400.5,152.5 L415,181.5 L403,181.5 L403,229.5 L415,229.5 L400.5,258.5 L386,229.5 L398,229.5 Z" fill="#000000" fill-rule="nonzero"></path>
        <g id="Group-2" transform="translate(316.000000, 22.000000)" fill="#B3BCC3" opacity="0.75">
            <rect id="Rectangle" x="0" y="0" width="99" height="131" rx="28"></rect>
            <rect id="Rectangle" x="28" y="0" width="99" height="131" rx="28"></rect>
            <rect id="Rectangle" x="56" y="0" width="99" height="131" rx="28"></rect>
            <rect id="Rectangle" x="85" y="0" width="99" height="131" rx="28"></rect>
            <rect id="Rectangle" x="113" y="0" width="99" height="131" rx="28"></rect>
            <rect id="Rectangle" x="141" y="0" width="99" height="131" rx="28"></rect>
            <rect id="Rectangle" x="170" y="0" width="99" height="131" rx="28"></rect>
            <rect id="Rectangle" x="198" y="0" width="99" height="131" rx="28"></rect>
            <rect id="Rectangle" x="226" y="0" width="99" height="131" rx="28"></rect>
            <rect id="Rectangle" x="254" y="0" width="99" height="131" rx="28"></rect>
            <rect id="Rectangle" x="283" y="0" width="99" height="131" rx="28"></rect>
            <rect id="Rectangle" x="311" y="0" width="99" height="131" rx="28"></rect>
            <rect id="Rectangle" x="339" y="0" width="99" height="131" rx="28"></rect>
        </g>
        <text id="Other-Validators" font-family="Helvetica" font-size="25" font-weight="normal" fill="#FFFFFF">
            <tspan x="446.101807" y="96">Other Validators</tspan>
        </text>
        <text id="CO.3-&amp;-CO.4" font-family="Helvetica-Bold, Helvetica" font-size="25" font-weight="bold" line-spacing="30" letter-spacing="-1" fill="#15112C">
            <tspan x="487.825195" y="292">CO.3 &amp;</tspan>
            <tspan x="498.825195" y="325">CO.</tspan>
            <tspan x="540.270996" y="325">4</tspan>
        </text>
        <text id="CO.2-&amp;-CO.4" font-family="Helvetica-Bold, Helvetica" font-size="25" font-weight="bold" letter-spacing="-1" fill="#15112C">
            <tspan x="413.17749" y="210">CO.2 &amp; CO.</tspan>
            <tspan x="537.918701" y="210">4</tspan>
        </text>
    </g>
</svg>
