<?xml version="1.0" encoding="UTF-8"?>
<svg width="800px" height="575px" viewBox="0 0 800 575" version="1.1" xmlns="http://www.w3.org/2000/svg" xmlns:xlink="http://www.w3.org/1999/xlink">
    <!-- Generator: Sketch 52.6 (67491) - http://www.bohemiancoding.com/sketch -->
    <title>storage</title>
    <desc>Created with Sketch.</desc>
    <g id="storage" stroke="none" stroke-width="1" fill="none" fill-rule="evenodd">
        <rect fill="#B3BCC3" x="0" y="0" width="800" height="575"></rect>
        <path id="Line" d="M302.241931,369.307307 L204.187074,419.83339 L202.853684,420.520464 L201.479536,417.853684 L202.812926,417.16661 L300.867782,366.640527 L297.203386,359.529113 L318.444463,359.270975 L305.906327,376.41872 L302.241931,369.307307 Z" fill="#000000" fill-rule="nonzero"></path>
        <path id="Line" d="M297.718502,266.070225 L145.251641,178.299984 L143.951657,177.551625 L145.448375,174.951657 L146.748359,175.700016 L299.21522,263.470256 L303.206467,256.537007 L314.933328,274.249453 L293.727255,273.003474 L297.718502,266.070225 Z" fill="#000000" fill-rule="nonzero"></path>
        <g id="Group" transform="translate(54.000000, 345.000000)">
            <circle id="Oval" fill="#5645F5" cx="91.9332607" cy="91.9332607" r="91.9332607"></circle>
            <text id="Admission-Control" font-family="Helvetica" font-size="25" font-weight="normal" line-spacing="30" fill="#FFFFFF">
                <tspan x="33.8400879" y="88">Admission</tspan>
                <tspan x="51.2045898" y="118">Control</tspan>
            </text>
        </g>
        <g id="Group" transform="translate(54.000000, 85.000000)">
            <circle id="Oval" fill="#5645F5" cx="91.9332607" cy="91.9332607" r="91.9332607"></circle>
            <text id="Virtual-Machine" font-family="Helvetica" font-size="25" font-weight="normal" line-spacing="30" fill="#FFFFFF">
                <tspan x="56.7888184" y="86">Virtual</tspan>
                <tspan x="44.7526855" y="116">Machine</tspan>
            </text>
        </g>
        <g id="Group" transform="translate(308.000000, 221.000000)">
            <circle id="Oval" fill="#2A227A" cx="91.9332607" cy="91.9332607" r="91.9332607"></circle>
            <text id="Storage" font-family="Helvetica" font-size="25" font-weight="normal" line-spacing="30" fill="#FFFFFF">
                <tspan x="48.2194824" y="100">Storage</tspan>
            </text>
        </g>
        <text id="ST.1" font-family="Helvetica-Bold, Helvetica" font-size="25" font-weight="bold" letter-spacing="-1" fill="#15112C">
            <tspan x="257.987793" y="228">ST.</tspan>
            <tspan x="291.108398" y="228">1</tspan>
        </text>
        <text id="ST.4" font-family="Helvetica-Bold, Helvetica" font-size="25" font-weight="bold" letter-spacing="-1" fill="#15112C">
            <tspan x="227.987793" y="363">ST.</tspan>
            <tspan x="261.108398" y="363">4</tspan>
        </text>
        <text id="Storage" font-family="Helvetica" font-size="40" font-weight="normal" fill="#FFFFFF">
            <tspan x="30" y="61">Storage</tspan>
        </text>
        <path id="Line" d="M511.5,309.5 L563,309.5 L564.5,309.5 L564.5,312.5 L563,312.5 L511.5,312.5 L511.5,320.5 L492.5,311 L511.5,301.5 L511.5,309.5 Z" fill="#000000" fill-rule="nonzero"></path>
        <text id="ST.2-&amp;-ST.3" font-family="Helvetica-Bold, Helvetica" font-size="25" font-weight="bold" line-spacing="30" letter-spacing="-1" fill="#15112C">
            <tspan x="493.987793" y="257">ST.2 &amp;</tspan>
            <tspan x="504.987793" y="290">ST.</tspan>
            <tspan x="538.108398" y="290">3</tspan>
        </text>
        <g id="Group" transform="translate(563.000000, 221.000000)">
            <circle id="Oval" fill="#5645F5" cx="91.9332607" cy="91.9332607" r="91.9332607"></circle>
            <text id="Execution" font-family="Helvetica" font-size="25" font-weight="normal" line-spacing="30" fill="#FFFFFF">
                <tspan x="36.6049805" y="101">Execution</tspan>
            </text>
        </g>
    </g>
</svg>
