<?xml version="1.0" encoding="UTF-8"?>
<svg width="870px" height="520px" viewBox="0 0 870 520" version="1.1" xmlns="http://www.w3.org/2000/svg" xmlns:xlink="http://www.w3.org/1999/xlink">
    <!-- Generator: Sketch 52.6 (67491) - http://www.bohemiancoding.com/sketch -->
    <title>transactions</title>
    <desc>Created with Sketch.</desc>
    <g id="transactions" stroke="none" stroke-width="1" fill="none" fill-rule="evenodd">
        <rect fill="#FFFFFF" x="0" y="0" width="870" height="520"></rect>
        <g id="Group-7" transform="translate(242.000000, 129.000000)">
            <path d="M270,69 C287.296188,49.1168174 306.296188,47.7652418 327,64.9452734" id="Path-3" stroke="#000000" transform="translate(298.500000, 61.000000) scale(1, -1) translate(-298.500000, -61.000000) "></path>
            <g id="Group-5" transform="translate(241.000000, 0.000000)">
                <polygon id="Triangle" fill="#5645F5" points="27 0 54 54 0 54"></polygon>
                <g id="Group" transform="translate(15.000000, 34.000000)" fill="#FFFFFF">
                    <path d="M1.59733445,9.32730794 C1.63718469,10.0804858 1.80512246,10.692057 2.10115281,11.16204 C2.66474905,12.0417518 3.65814368,12.481601 5.08136651,12.481601 C5.71897033,12.481601 6.29963654,12.3851957 6.82338254,12.1923822 C7.83671719,11.818806 8.34337691,11.1499941 8.34337691,10.1859264 C8.34337691,9.46287566 8.12989669,8.94770974 7.70292984,8.64041317 C7.27027011,8.33914203 6.5928262,8.07704006 5.67057781,7.85409942 L3.97125825,7.44738541 C2.86114445,7.1822668 2.07553723,6.89003818 1.61441304,6.57069077 C0.817408257,6.01635187 0.418911843,5.18786865 0.418911843,4.08521627 C0.418911843,2.89218254 0.808869048,1.91306602 1.58879516,1.14783731 C2.36872127,0.382608612 3.47312561,0 4.90204133,0 C6.21709922,0 7.33431238,0.335912285 8.25371432,1.00774693 C9.17311627,1.67958158 9.63281035,2.75359709 9.63281035,4.22982569 L8.03596232,4.22982569 C7.95056895,3.5188258 7.76839916,2.97353321 7.48944749,2.59393157 C6.97139438,1.90100794 6.09185587,1.55455132 4.85080556,1.55455132 C3.84885669,1.55455132 3.12871675,1.77748862 2.69036412,2.22336992 C2.25201149,2.66925121 2.03283846,3.1874298 2.03283846,3.77792124 C2.03283846,4.42866691 2.28901472,4.90466817 2.80137494,5.20593932 C3.13725553,5.39875285 3.89724512,5.63976615 5.08136651,5.92898644 L6.84046112,6.35377663 C7.68870193,6.55864101 8.34337461,6.83881897 8.8044988,7.19431892 C9.60150359,7.81493747 10,8.71572467 10,9.89670755 C10,11.3669107 9.49476348,12.4183312 8.48427527,13.0510006 C7.47378706,13.68367 6.29964584,14 4.96181639,14 C3.40196417,14 2.1808573,13.5782267 1.29845915,12.7346675 C0.416061,11.8971338 -0.016592249,10.7613586 0.000486424858,9.32730794 L1.59733445,9.32730794 Z" id="S"></path>
                    <path d="M12,7 L13.2912088,7 L17.3681319,13.480599 L17.3681319,7 L18.4065934,7 L18.4065934,15 L17.1813187,15 L13.043956,8.52484683 L13.043956,15 L12,15 L12,7 Z M19.7362637,11.3893805 L22.4945055,11.3893805 L22.4945055,12.3968686 L19.7362637,12.3968686 L19.7362637,11.3893805 Z M24.0934066,9.47787611 L24.0934066,8.72634445 C24.8076959,8.65736294 25.3058594,8.54209293 25.5879121,8.38053097 C25.8699648,8.21896901 26.0805854,7.83685348 26.2197802,7.23417291 L27,7.23417291 L27,15 L25.9450549,15 L25.9450549,9.47787611 L24.0934066,9.47787611 Z" id="N-1"></path>
                </g>
            </g>
            <g id="Group-3" transform="translate(270.000000, 65.000000)">
                <rect id="Rectangle" fill="#0F7B63" x="0" y="0.0381621405" width="54" height="53.6899696"></rect>
                <g id="Group-2" transform="translate(14.086957, 16.068557)" fill="#FFFFFF">
                    <polygon id="T" points="16.1499023 0.28550152 16.1499023 2.59933131 9.62402344 2.59933131 9.62402344 19.7084498 6.9609375 19.7084498 6.9609375 2.59933131 0.435058594 2.59933131 0.435058594 0.28550152"></polygon>
                    <polygon id="N" points="15.4604004 10.9539096 17.3967407 10.9539096 23.5106323 20.7876862 23.5106323 10.9539096 25.0679443 10.9539096 25.0679443 23.0932523 23.230481 23.0932523 17.0259521 13.2677394 17.0259521 23.0932523 15.4604004 23.0932523"></polygon>
                </g>
            </g>
            <g id="Group-3" opacity="0.8" transform="translate(216.000000, 65.000000)" fill="#0F7B63">
                <rect id="Rectangle" x="0" y="0.0381621405" width="54" height="53.6899696"></rect>
            </g>
            <g id="Group-3" opacity="0.6" transform="translate(162.000000, 65.000000)" fill="#0F7B63">
                <rect id="Rectangle" x="0" y="0.0381621405" width="54" height="53.6899696"></rect>
            </g>
            <g id="Group-3" opacity="0.4" transform="translate(108.000000, 65.000000)" fill="#0F7B63">
                <rect id="Rectangle" x="0" y="0.0381621405" width="54" height="53.6899696"></rect>
            </g>
            <g id="Group-3" opacity="0.2" transform="translate(54.000000, 65.000000)" fill="#0F7B63">
                <rect id="Rectangle" x="0" y="0.0381621405" width="54" height="53.6899696"></rect>
            </g>
            <g id="Group-3" opacity="0.502464658" transform="translate(0.000000, 65.000000)">
                <rect id="Rectangle" fill="#1E4855" x="0" y="0" width="54" height="54"></rect>
                <g id="Group-2" transform="translate(13.200000, 15.585117)" fill="#FFFFFF">
                    <polygon id="T" points="16.2695312 0.203822265 16.2695312 2.46134735 9.6953125 2.46134735 9.6953125 19.1541328 7.0125 19.1541328 7.0125 2.46134735 0.43828125 2.46134735 0.43828125 0.203822265"></polygon>
                    <path d="M15.9069531,14.2811037 L15.9069531,13.1684663 C16.9860601,13.0663397 17.7386567,12.8956832 18.1647656,12.6564919 C18.5908745,12.4173005 18.909068,11.8515811 19.1193555,10.9593168 L20.2980664,10.9593168 L20.2980664,22.4565695 L18.7043164,22.4565695 L18.7043164,14.2811037 L15.9069531,14.2811037 Z" id="1"></path>
                </g>
            </g>
            <g id="Group-5" transform="translate(295.000000, 0.000000)">
                <polygon id="Triangle" fill="#221B62" points="27 0 54 54 0 54"></polygon>
                <g id="Group" transform="translate(18.000000, 35.000000)" fill="#FFFFFF">
                    <path d="M1.59733445,9.32730794 C1.63718469,10.0804858 1.80512246,10.692057 2.10115281,11.16204 C2.66474905,12.0417518 3.65814368,12.481601 5.08136651,12.481601 C5.71897033,12.481601 6.29963654,12.3851957 6.82338254,12.1923822 C7.83671719,11.818806 8.34337691,11.1499941 8.34337691,10.1859264 C8.34337691,9.46287566 8.12989669,8.94770974 7.70292984,8.64041317 C7.27027011,8.33914203 6.5928262,8.07704006 5.67057781,7.85409942 L3.97125825,7.44738541 C2.86114445,7.1822668 2.07553723,6.89003818 1.61441304,6.57069077 C0.817408257,6.01635187 0.418911843,5.18786865 0.418911843,4.08521627 C0.418911843,2.89218254 0.808869048,1.91306602 1.58879516,1.14783731 C2.36872127,0.382608612 3.47312561,0 4.90204133,0 C6.21709922,0 7.33431238,0.335912285 8.25371432,1.00774693 C9.17311627,1.67958158 9.63281035,2.75359709 9.63281035,4.22982569 L8.03596232,4.22982569 C7.95056895,3.5188258 7.76839916,2.97353321 7.48944749,2.59393157 C6.97139438,1.90100794 6.09185587,1.55455132 4.85080556,1.55455132 C3.84885669,1.55455132 3.12871675,1.77748862 2.69036412,2.22336992 C2.25201149,2.66925121 2.03283846,3.1874298 2.03283846,3.77792124 C2.03283846,4.42866691 2.28901472,4.90466817 2.80137494,5.20593932 C3.13725553,5.39875285 3.89724512,5.63976615 5.08136651,5.92898644 L6.84046112,6.35377663 C7.68870193,6.55864101 8.34337461,6.83881897 8.8044988,7.19431892 C9.60150359,7.81493747 10,8.71572467 10,9.89670755 C10,11.3669107 9.49476348,12.4183312 8.48427527,13.0510006 C7.47378706,13.68367 6.29964584,14 4.96181639,14 C3.40196417,14 2.1808573,13.5782267 1.29845915,12.7346675 C0.416061,11.8971338 -0.016592249,10.7613586 0.000486424858,9.32730794 L1.59733445,9.32730794 Z" id="S"></path>
                    <polygon id="Path" points="12 7 13.2912088 7 17.3681319 13.480599 17.3681319 7 18.4065934 7 18.4065934 15 17.1813187 15 13.043956 8.52484683 13.043956 15 12 15"></polygon>
                </g>
            </g>
            <polygon id="Triangle" fill="#5645F5" opacity="0.8" points="214 0 241 54 187 54"></polygon>
            <polygon id="Triangle" fill="#5645F5" opacity="0.6" points="160 0 187 54 133 54"></polygon>
            <polygon id="Triangle" fill="#5645F5" opacity="0.4" points="106 0 133 54 79 54"></polygon>
            <polygon id="Triangle" fill="#5645F5" opacity="0.5" points="52 0 79 54 25 54"></polygon>
            <g id="Group" transform="translate(44.000000, 31.000000)" fill="#FFFFFF">
                <path d="M1.82016696,9.91395749 C1.8600172,10.6671353 2.02795497,11.2787066 2.32398532,11.7486896 C2.88758156,12.6284013 3.88097619,13.0682506 5.30419902,13.0682506 C5.94180284,13.0682506 6.52246905,12.9718453 7.04621505,12.7790317 C8.0595497,12.4054555 8.56620942,11.7366436 8.56620942,10.772576 C8.56620942,10.0495252 8.3527292,9.53435929 7.92576236,9.22706272 C7.49310262,8.92579158 6.81565871,8.66368962 5.89341032,8.44074897 L4.19409077,8.03403496 C3.08397696,7.76891636 2.29836975,7.47668773 1.83724555,7.15734032 C1.04024077,6.60300142 0.641744354,5.7745182 0.641744354,4.67186582 C0.641744354,3.47883209 1.03170156,2.49971557 1.81162767,1.73448687 C2.59155378,0.969258163 3.69595812,0.586649551 5.12487384,0.586649551 C6.43993173,0.586649551 7.55714489,0.922561836 8.47654684,1.59439648 C9.39594878,2.26623113 9.85564286,3.34024665 9.85564286,4.81647524 L8.25879483,4.81647524 C8.17340146,4.10547535 7.99123167,3.56018276 7.71228,3.18058112 C7.19422689,2.48765749 6.31468838,2.14120087 5.07363807,2.14120087 C4.0716892,2.14120087 3.35154926,2.36413818 2.91319663,2.81001947 C2.474844,3.25590076 2.25567097,3.77407935 2.25567097,4.36457079 C2.25567097,5.01531646 2.51184723,5.49131772 3.02420745,5.79258887 C3.36008804,5.9854024 4.12007763,6.2264157 5.30419902,6.51563599 L7.06329364,6.94042618 C7.91153444,7.14529056 8.56620712,7.42546852 9.02733131,7.78096847 C9.8243361,8.40158702 10.2228325,9.30237422 10.2228325,10.4833571 C10.2228325,11.9535603 9.71759599,13.0049808 8.70710778,13.6376502 C7.69661957,14.2703196 6.52247835,14.5866496 5.1846489,14.5866496 C3.62479668,14.5866496 2.40368981,14.1648763 1.52129166,13.3213171 C0.638893511,12.4837833 0.206240262,11.3480081 0.223318935,9.91395749 L1.82016696,9.91395749 Z" id="S"></path>
                <path d="M12.2228325,10.89801 L12.2228325,10.1238165 C12.9600763,10.0527549 13.4742488,9.93400896 13.7653656,9.76757522 C14.0564824,9.60114147 14.2738715,9.20750352 14.4175395,8.58664955 L15.2228325,8.58664955 L15.2228325,16.5866496 L14.1339856,16.5866496 L14.1339856,10.89801 L12.2228325,10.89801 Z" id="1"></path>
            </g>
            <path id="Line" d="M331.353553,53.6464466 L328.171573,63.1923882 L321.807612,56.8284271 L331.353553,53.6464466 Z" fill="#000000" fill-rule="nonzero"></path>
        </g>
        <path id="Line" d="M720.5,112.766532 L94.5,112.766532 L93,112.766532 L93,109.766532 L94.5,109.766532 L720.5,109.766532 L720.5,101.766532 L739.5,111.266532 L720.5,120.766532 L720.5,112.766532 Z" fill="#000000" fill-rule="nonzero"></path>
        <path d="M694.486909,98 L694.486909,99.1612475 L690.962563,99.1612475 L690.962563,107.747843 L689.524345,107.747843 L689.524345,99.1612475 L686,99.1612475 L686,98 L694.486909,98 Z M695.077859,100.674187 L696.380799,100.674187 L696.380799,107.747843 L695.077859,107.747843 L695.077859,100.674187 Z M695.077859,98 L696.380799,98 L696.380799,99.3536828 L695.077859,99.3536828 L695.077859,98 Z M698.317409,100.641009 L699.58475,100.641009 L699.58475,101.649635 C699.888533,101.300153 700.163833,101.045787 700.410657,100.88653 C700.833106,100.616676 701.312507,100.481752 701.848875,100.481752 C702.456442,100.481752 702.945336,100.6211 703.315572,100.899801 C703.524423,101.059059 703.714285,101.293518 703.885163,101.603185 C704.16996,101.222736 704.504592,100.940722 704.889068,100.757133 C705.273543,100.573545 705.705479,100.481752 706.184887,100.481752 C707.210157,100.481752 707.907899,100.826805 708.278135,101.516921 C708.477493,101.888522 708.57717,102.388407 708.57717,103.016589 L708.57717,107.747843 L707.245751,107.747843 L707.245751,102.810883 C707.245751,102.337534 707.118781,102.012388 706.864837,101.835435 C706.610893,101.658482 706.301181,101.570007 705.935691,101.570007 C705.43255,101.570007 704.999428,101.72705 704.636311,102.041141 C704.273195,102.355233 704.09164,102.879448 704.09164,103.613802 L704.09164,107.747843 L702.7887,107.747843 L702.7887,103.109489 C702.7887,102.627292 702.726995,102.275604 702.603583,102.054413 C702.408972,101.722626 702.045861,101.556735 701.51424,101.556735 C701.030085,101.556735 700.589843,101.731474 700.1935,102.080956 C699.797158,102.430437 699.598989,103.063035 699.598989,103.978766 L699.598989,107.747843 L698.317409,107.747843 L698.317409,100.641009 Z M713.639412,100.481752 C714.180526,100.481752 714.70502,100.600087 715.212908,100.836762 C715.720796,101.073436 716.107639,101.379781 716.37345,101.755806 C716.629767,102.114136 716.800643,102.532181 716.886082,103.009954 C716.962028,103.337316 717,103.85932 717,104.575979 L711.410887,104.575979 C711.43462,105.297062 711.617362,105.875468 711.959118,106.311214 C712.300874,106.746961 712.830114,106.964831 713.546853,106.964831 C714.216126,106.964831 714.750113,106.759126 715.148829,106.347711 C715.376666,106.108824 715.538049,105.83234 715.632981,105.518248 L716.893202,105.518248 C716.859975,105.779254 716.749618,106.070116 716.562127,106.390843 C716.374635,106.71157 716.164601,106.973677 715.932017,107.177173 C715.542794,107.531079 715.06102,107.769962 714.486679,107.893829 C714.178149,107.96461 713.829278,108 713.440055,108 C712.490732,108 711.686192,107.678172 711.026412,107.034506 C710.366633,106.39084 710.036748,105.489499 710.036748,104.330458 C710.036748,103.189112 710.369006,102.262335 711.033532,101.5501 C711.698059,100.837864 712.566677,100.481752 713.639412,100.481752 Z M715.68282,103.627074 C715.630608,103.109486 715.509571,102.695865 715.319706,102.386198 C714.968456,101.811101 714.382258,101.523557 713.561093,101.523557 C712.972513,101.523557 712.478872,101.72152 712.080156,102.117452 C711.68144,102.513384 711.470219,103.016586 711.446486,103.627074 L715.68282,103.627074 Z" id="Time" fill="#15112C"></path>
        <g id="Group-8" transform="translate(163.000000, 277.000000)">
            <path id="Line" d="M25.5872664,160.5495 L90.6994743,47.2525825 L91.4468918,45.9520568 L94.0479432,47.4468918 L93.3005257,48.7474175 L28.1883177,162.044335 L35.1244548,166.030562 L17.4205037,177.770243 L18.6511293,156.563274 L25.5872664,160.5495 Z" fill="#000000" fill-rule="nonzero"></path>
            <path id="Line" d="M155.544483,162.66435 L90.6964029,48.7420476 L89.9543553,47.4384505 L92.5615495,45.9543553 L93.3035971,47.2579524 L158.151677,161.180255 L165.104195,157.222668 L166.247349,178.434532 L148.591965,166.621937 L155.544483,162.66435 Z" fill="#000000" fill-rule="nonzero"></path>
            <path id="Line" d="M345.524433,160.032888 L410.682417,40.2830798 L411.399337,38.9654966 L414.034503,40.3993371 L413.317583,41.7169202 L348.1596,161.466728 L355.18671,165.290303 L337.761027,177.439194 L338.497323,156.209313 L345.524433,160.032888 Z" fill="#000000" fill-rule="nonzero"></path>
            <path id="Line" d="M475.232677,162.428335 L410.679709,42.7119215 L409.967788,41.3916307 L412.608369,39.9677877 L413.320291,41.2880785 L477.873259,161.004492 L484.91481,157.207577 L485.570641,178.440097 L468.191126,166.22525 L475.232677,162.428335 Z" fill="#000000" fill-rule="nonzero"></path>
            <g id="Group-5" transform="translate(381.000000, 0.000000)">
                <polygon id="Triangle" fill="#221B62" points="30 0 60 60 0 60"></polygon>
                <g id="Group" transform="translate(20.000000, 39.000000)" fill="#FFFFFF">
                    <path d="M1.76547492,10.570949 C1.80951992,11.4245506 1.99513536,12.1176646 2.32232679,12.650312 C2.94524895,13.6473187 4.04321144,14.1458145 5.61624719,14.1458145 C6.32096721,14.1458145 6.96275617,14.0365551 7.54163333,13.8180331 C8.66163479,13.3946468 9.22162712,12.6366599 9.22162712,11.5440499 C9.22162712,10.7245924 8.98567529,10.1407377 8.51376457,9.79246826 C8.0355617,9.45102763 7.28680791,9.15397874 6.26748074,8.90131267 L4.38928544,8.44037013 C3.16231755,8.13990238 2.29401484,7.80870994 1.78435125,7.44678287 C0.903451232,6.81853211 0.463007827,5.87958447 0.463007827,4.62991177 C0.463007827,3.27780688 0.894013159,2.16814149 1.75603675,1.30088229 C2.61806035,0.433623094 3.83871778,0 5.41804568,0 C6.87153072,0 8.10634526,0.38070059 9.12252636,1.14211319 C10.1387075,1.90352579 10.6467904,3.12074337 10.6467904,4.79380245 L8.88185309,4.79380245 C8.78747095,3.98800257 8.58612539,3.3700043 8.27781038,2.93978911 C7.70522537,2.15447567 6.73310385,1.76182483 5.36141667,1.76182483 C4.2539995,1.76182483 3.45805535,2.01448711 2.97356034,2.51981924 C2.48906533,3.02515137 2.24682145,3.61242044 2.24682145,4.28164407 C2.24682145,5.01915583 2.52996364,5.55862393 3.09625651,5.90006456 C3.46749295,6.11858656 4.30748145,6.39173497 5.61624719,6.71951797 L7.56050966,7.20094685 C8.49803897,7.43312647 9.22162457,7.7506615 9.73128815,8.15356144 C10.6121882,8.85692913 11.0526316,9.8778213 11.0526316,11.2162686 C11.0526316,12.8824988 10.4942123,14.0741087 9.37735688,14.7911341 C8.26050149,15.5081594 6.96276646,15.8666667 5.48411285,15.8666667 C3.76006566,15.8666667 2.41042123,15.388657 1.43513906,14.4326232 C0.459856895,13.4834183 -0.0183388016,12.1962064 0.000537627475,10.570949 L1.76547492,10.570949 Z" id="S"></path>
                    <polygon id="Path" points="13.2631579 7.93333333 14.6902834 7.93333333 19.1963563 15.2780123 19.1963563 7.93333333 20.3441296 7.93333333 20.3441296 17 18.9898785 17 14.417004 9.66149308 14.417004 17 13.2631579 17"></polygon>
                </g>
            </g>
            <g id="Group-14" transform="translate(0.000000, 124.000000)">
                <path d="M85,69.0340909 C85,72.3289715 65.9721019,75 42.5,75 C19.0278981,75 0,72.3289715 0,69.0340909 L0,5.11363636 L85,5.11363636 L85,69.0340909 Z" id="Combined-Shape" fill="#E1E4E7"></path>
                <ellipse id="Oval" fill="#D8D8D8" cx="42.5" cy="5.96590909" rx="42.5" ry="5.96590909"></ellipse>
            </g>
            <g id="Group-4" transform="translate(17.000000, 169.000000)">
                <g id="Fill-2" transform="translate(0.000000, 2.300243)" fill="#221B62">
                    <path d="M9.63021671,1.91382789 C9.88818288,1.6271792 10.121677,1.30051187 10.3434245,0.915999415 L9.13679869,0.320509887 C8.94239872,0.636020503 8.72988942,0.90029513 8.50492995,1.10630019 C8.16694013,1.41583832 7.81068804,1.59619507 7.44611544,1.64233778 C6.74367538,1.73128831 6.25111388,1.51597588 5.53395999,1.05988463 C4.78070981,0.580873601 3.92681826,0.0379843332 2.7151451,0.191449764 C1.97966776,0.284614377 1.30613533,0.665913216 0.713207765,1.32479591 C0.455363963,1.61135365 0.221839276,1.93802098 0,2.32262439 L1.2065952,2.9180836 C1.40093399,2.60242139 1.61325975,2.33796486 1.83800509,2.13174759 C2.17058046,1.82657512 2.52686315,1.64806772 2.89694196,1.60116708 C3.00321191,1.58773658 3.10464862,1.58109713 3.20262865,1.58109713 C3.75756333,1.58109713 4.20353614,1.79337784 4.80949508,2.17873917 C5.51337287,2.62637195 6.38916692,3.18341932 7.62873823,3.02649774 C8.37779757,2.93163536 9.05117705,2.55727915 9.63021671,1.91382789 Z M9.63021671,5.49017757 C9.88815229,5.20359046 10.1216464,4.87692421 10.3434245,4.49238271 L9.13679869,3.89689514 C8.94239872,4.21240472 8.72988942,4.47664816 8.50492995,4.68265253 C8.16694013,4.99218965 7.81068804,5.1725458 7.44611544,5.21874899 C6.74367538,5.30757795 6.25111388,5.09235719 5.53395999,4.63623712 C4.7807404,4.15722768 3.9270018,3.61443116 2.7151451,3.76780513 C1.97966776,3.86096944 1.30613533,4.24229733 0.713207765,4.90117785 C0.455363963,5.18770432 0.221869866,5.51437057 0,5.89897271 L1.2065952,6.49446027 C1.40093399,6.17879911 1.61325975,5.91434346 1.83800509,5.70812686 C2.17058046,5.40292509 2.52689374,5.22441828 2.89694196,5.17751779 C3.00321191,5.16408734 3.10461803,5.1574479 3.20262865,5.1574479 C3.75753274,5.1574479 4.20350555,5.36972791 4.80949508,5.75511829 C5.51340346,6.20274959 6.38950341,6.75988608 7.62873823,6.60284374 C8.37779757,6.50795136 9.05117705,6.1336267 9.63021671,5.49017757 Z M9.63021671,8.92902121 C9.88818288,8.64237335 10.121677,8.31570697 10.3434245,7.93122594 L9.13679869,7.33573813 C8.94239872,7.65124784 8.72988942,7.9155217 8.50492995,8.12149584 C8.16694013,8.43103308 7.81068804,8.61138931 7.44611544,8.6575622 C6.74367538,8.74657311 6.25111388,8.53120067 5.53395999,8.07508042 C4.7807404,7.59610109 3.9270018,7.0532134 2.7151451,7.20664807 C1.97966776,7.29981241 1.30613533,7.68114046 0.713207765,8.34002125 C0.455333373,8.62657816 0.221839276,8.95324454 0,9.33781652 L1.2065952,9.93330433 C1.40093399,9.61761272 1.61325975,9.35315696 1.83800509,9.14697059 C2.17058046,8.84176869 2.52686315,8.66326181 2.89694196,8.61636131 C3.00321191,8.60293085 3.10461803,8.59629141 3.20262865,8.59629141 C3.75753274,8.59629141 4.20350555,8.8085715 4.80949508,9.19393173 C5.51340346,9.64159352 6.38950341,10.1986696 7.62873823,10.0416878 C8.37779757,9.94679542 9.05117705,9.57244029 9.63021671,8.92902121 Z" id="Fill-1"></path>
                </g>
                <path d="M14.9534429,3.91485536 L14.9534429,2.79543386 C16.0547833,2.69268451 16.8228861,2.52098752 17.2577744,2.28033773 C17.6926626,2.03968794 18.017412,1.47051917 18.2320321,0.572814349 L19.4350287,0.572814349 L19.4350287,12.1401699 L17.8084418,12.1401699 L17.8084418,3.91485536 L14.9534429,3.91485536 Z M23.3235881,3.91485536 L23.3235881,2.79543386 C24.4249284,2.69268451 25.1930313,2.52098752 25.6279195,2.28033773 C26.0628078,2.03968794 26.3875571,1.47051917 26.6021773,0.572814349 L27.8051739,0.572814349 L27.8051739,12.1401699 L26.178587,12.1401699 L26.178587,3.91485536 L23.3235881,3.91485536 Z M36.0058829,0.524143849 C37.575999,0.524143849 38.7112097,1.14333458 39.4115493,2.38173461 C39.9537476,3.3389259 40.2248427,4.65031237 40.2248427,6.31593338 C40.2248427,7.89502861 39.9791628,9.20100731 39.4877955,10.2339086 C38.7761602,11.7156624 37.6127103,12.4565282 35.9974111,12.4565282 C34.540253,12.4565282 33.4558726,11.8508569 32.7442373,10.6394961 C32.1512078,9.62822625 31.8546975,8.27087365 31.8546975,6.56739763 C31.8546975,5.24787969 32.0326037,4.11494993 32.3884214,3.16857436 C33.0548735,1.40561187 34.260682,0.524143849 36.0058829,0.524143849 Z M35.9889393,11.1262011 C36.7796452,11.1262011 37.4093766,10.7909188 37.8781522,10.1203441 C38.3469279,9.44976945 38.5813122,8.20057244 38.5813122,6.37271563 C38.5813122,5.05319769 38.4118777,3.967586 38.0730038,3.11584799 C37.7341298,2.26410997 37.0761594,1.83824735 36.0990728,1.83824735 C35.2010568,1.83824735 34.5444983,2.24247886 34.1293777,3.05095399 C33.7142571,3.85942911 33.5066999,5.0504925 33.5066999,6.62417988 C33.5066999,7.8085013 33.6394235,8.76027046 33.9048748,9.47951589 C34.3115236,10.5773116 35.0062048,11.1262011 35.9889393,11.1262011 Z" id="110" fill="#15112C"></path>
            </g>
            <path d="M42.7261632,153.262764 L40.5148741,147.077604 L38.1647597,153.262764 L42.7261632,153.262764 Z M39.4836003,145 L41.7147216,145 L47,159 L44.8382914,159 L43.3607933,154.806671 L37.5995423,154.806671 L36.0228833,159 L34,159 L39.4836003,145 Z" id="A" fill="#15112C"></path>
            <g id="Group-15" transform="translate(99.000000, 124.000000)">
                <path d="M85,69.0340909 C85,72.3289715 65.9721019,75 42.5,75 C19.0278981,75 0,72.3289715 0,69.0340909 L0,5.11363636 L85,5.11363636 L85,69.0340909 Z" id="Combined-Shape" fill="#E1E4E7"></path>
                <ellipse id="Oval" fill="#D8D8D8" cx="42.5" cy="5.96590909" rx="42.5" ry="5.96590909"></ellipse>
            </g>
            <g id="Group-4" transform="translate(124.000000, 171.000000)">
                <g id="Fill-2" transform="translate(0.000000, 2.230825)" fill="#221B62">
                    <path d="M9.49423163,2.06104542 C9.74855513,1.75234683 9.97875214,1.40055125 10.1973684,0.986460909 L9.00778099,0.345164493 C8.81612608,0.684945157 8.60661755,0.969548601 8.38483466,1.1914002 C8.05161749,1.52474896 7.70039591,1.71897931 7.34097132,1.76867145 C6.64845018,1.86446433 6.16284398,1.63258941 5.45581678,1.14141421 C4.713203,0.625556185 3.87136896,0.040906205 2.67680544,0.206176669 C1.95171353,0.30650779 1.28769183,0.71713731 0.703136796,1.42670329 C0.44893392,1.73530393 0.218706757,2.08709951 0,2.5012878 L1.18955727,3.14255157 C1.38115187,2.80260766 1.59047945,2.51780832 1.81205123,2.29572817 C2.13993041,1.9670809 2.49118215,1.77484216 2.85603521,1.72433378 C2.96080455,1.70987017 3.06080891,1.70271998 3.1574054,1.70271998 C3.70450403,1.70271998 4.1441794,1.93132998 4.7415818,2.3463345 C5.43552036,2.82840056 6.29894762,3.42829773 7.52101535,3.25930526 C8.25949748,3.15714578 8.92336839,2.75399293 9.49423163,2.06104542 Z M9.49423163,5.91249892 C9.74852498,5.60386665 9.97872198,5.25207223 10.1973684,4.83795061 L9.00778099,4.19665631 C8.81612608,4.53643585 8.60661755,4.82100571 8.38483466,5.04285657 C8.05161749,5.37620424 7.70039591,5.57043394 7.34097132,5.62019122 C6.64845018,5.71585318 6.16284398,5.48407698 5.45581678,4.99287075 C4.71323315,4.47701443 3.87154991,3.89246432 2.67680544,4.0576363 C1.95171353,4.15796709 1.28769183,4.5686279 0.703136796,5.27819153 C0.44893392,5.5867585 0.218736915,5.93855293 0,6.35273984 L1.18955727,6.99403414 C1.38115187,6.65409135 1.59047945,6.36929295 1.81205123,6.14721354 C2.13993041,5.81853471 2.49121231,5.6262966 2.85603521,5.57578839 C2.96080455,5.56132483 3.06077875,5.55417467 3.1574054,5.55417467 C3.70447387,5.55417467 4.14414924,5.78278391 4.7415818,6.1978197 C5.43555052,6.67988417 6.29927936,7.27987731 7.52101535,7.1107548 C8.25949748,7.00856301 8.92336839,6.60544414 9.49423163,5.91249892 Z M9.49423163,9.61586899 C9.74855513,9.3071713 9.97875214,8.95537673 10.1973684,8.54132024 L9.00778099,7.90002568 C8.81612608,8.23980536 8.60661755,8.52440798 8.38483466,8.74622629 C8.05161749,9.07957409 7.70039591,9.27380387 7.34097132,9.32352852 C6.64845018,9.41938642 6.16284398,9.18744688 5.45581678,8.69624045 C4.71323315,8.18041656 3.87154991,7.59576827 2.67680544,7.76100561 C1.95171353,7.86133644 1.28769183,8.27199742 0.703136796,8.98156135 C0.448903762,9.29016109 0.218706757,9.64195566 0,10.0561101 L1.18955727,10.6974047 C1.38115187,10.3574291 1.59047945,10.0726306 1.81205123,9.85058372 C2.13993041,9.52190474 2.49118215,9.32966656 2.85603521,9.27915833 C2.96080455,9.26469476 3.06077875,9.2575446 3.1574054,9.2575446 C3.70447387,9.2575446 4.14414924,9.48615393 4.7415818,9.90115725 C5.43555052,10.3832546 6.29927936,10.9831827 7.52101535,10.8141254 C8.25949748,10.7119335 8.92336839,10.3087819 9.49423163,9.61586899 Z" id="Fill-1"></path>
                </g>
                <path d="M15.2183645,9.63912816 C15.3185912,10.536001 15.7167077,11.1562317 16.4127262,11.4998388 C16.7690876,11.6745543 17.1811243,11.7619107 17.6488487,11.7619107 C18.5397523,11.7619107 19.1995678,11.4648989 19.6283152,10.8708662 C20.0570625,10.2768335 20.271433,9.6187484 20.271433,8.89659104 C20.271433,8.02301359 20.0166941,7.34745716 19.5072086,6.86990149 C18.9977231,6.39234582 18.3866281,6.15357156 17.6739052,6.15357156 C17.1560675,6.15357156 16.7120144,6.25839929 16.3417326,6.46805787 C15.9714508,6.67771646 15.6554632,6.96890458 15.3937603,7.34163095 L14.0908203,7.26300938 L15.0012079,0.527760922 L21.2152292,0.527760922 L21.2152292,2.04777808 L16.1287521,2.04777808 L15.6192691,5.52459895 C15.8976765,5.30329266 16.1621595,5.13731543 16.4127262,5.02666229 C16.8581779,4.83447525 17.3732238,4.73838317 17.9578793,4.73838317 C19.0548043,4.73838317 19.984671,5.10819208 20.7475072,5.84782099 C21.5103434,6.58744989 21.8917558,7.52507562 21.8917558,8.66072631 C21.8917558,9.84296779 21.5423598,10.8854212 20.8435573,11.7881179 C20.1447548,12.6908146 19.02975,13.1421562 17.4985095,13.1421562 C16.5240837,13.1421562 15.6624258,12.8553359 14.91351,12.2816867 C14.1645942,11.7080375 13.7455973,10.8271935 13.656507,9.63912816 L15.2183645,9.63912816 Z M23.1529348,12.8276699 C23.2086163,11.7502577 23.4215947,10.812632 23.7918765,10.0147646 C24.1621583,9.21689718 24.8846146,8.49183877 25.9592671,7.83956761 L27.5628855,6.86990149 C28.2811765,6.43311277 28.7850863,6.06039198 29.0746299,5.75172795 C29.531218,5.26834843 29.7595086,4.71509101 29.7595086,4.09193909 C29.7595086,3.36395789 29.5507062,2.78594948 29.1330952,2.35789653 C28.7154841,1.92984358 28.1586778,1.71582031 27.4626593,1.71582031 C26.4325521,1.71582031 25.7198399,2.12348367 25.3245014,2.93882263 C25.1129118,3.37561135 24.9959825,3.98128263 24.9737099,4.75585463 L23.4452611,4.75585463 C23.4619655,3.66679475 23.6540637,2.778671 24.0215615,2.09145674 C24.6730347,0.880096008 25.8228399,0.274424729 27.4710115,0.274424729 C28.8407758,0.274424729 29.8416352,0.661704922 30.47362,1.43627693 C31.1056047,2.21084893 31.4215923,3.07276575 31.4215923,4.02205325 C31.4215923,5.02375539 31.0847244,5.87984845 30.4109786,6.5903581 C30.0212083,7.00385143 29.3224163,7.50469499 28.3145816,8.0929038 L27.1703331,8.75681935 C26.6246546,9.07130723 26.1959137,9.37123099 25.8840975,9.65659962 C25.3272827,10.1632745 24.9764947,10.7252676 24.8317229,11.3425957 L31.3631271,11.3425957 L31.3631271,12.8276699 L23.1529348,12.8276699 Z" id="52" fill="#15112C"></path>
            </g>
            <path d="M143.407767,150.918312 C144.223305,150.918312 144.857603,150.807126 145.31068,150.584752 C146.022657,150.235306 146.378641,149.606313 146.378641,148.697754 C146.378641,147.782841 146.000004,147.166555 145.242718,146.848877 C144.815532,146.670977 144.181234,146.582029 143.339806,146.582029 L139.893204,146.582029 L139.893204,150.918312 L143.407767,150.918312 Z M144.058252,157.37985 C145.242724,157.37985 146.087376,157.043117 146.592233,156.369639 C146.909387,155.943951 147.067961,155.42932 147.067961,154.825732 C147.067961,153.809162 146.605183,153.116634 145.679612,152.748128 C145.1877,152.551168 144.537221,152.452689 143.728155,152.452689 L139.893204,152.452689 L139.893204,157.37985 L144.058252,157.37985 Z M138,145 L144.126214,145 C145.796125,145 146.983815,145.489217 147.68932,146.467665 C148.103562,147.045839 148.31068,147.712953 148.31068,148.469027 C148.31068,149.352171 148.055019,150.076466 147.543689,150.641933 C147.278316,150.940551 146.896443,151.21375 146.398058,151.461538 C147.129453,151.734742 147.676374,152.042885 148.038835,152.385977 C148.679615,152.995919 149,153.837753 149,154.911504 C149,155.81371 148.711977,156.63013 148.135922,157.36079 C147.275077,158.453602 145.906158,159 144.029126,159 L138,159 L138,145 Z" id="B" fill="#15112C"></path>
            <g id="Group-14" transform="translate(326.000000, 122.000000)">
                <path d="M85,69.0340909 C85,72.3289715 65.9721019,75 42.5,75 C19.0278981,75 0,72.3289715 0,69.0340909 L0,5.11363636 L85,5.11363636 L85,69.0340909 Z" id="Combined-Shape" fill="#E1E4E7"></path>
                <ellipse id="Oval" fill="#D8D8D8" cx="42.5" cy="5.96590909" rx="42.5" ry="5.96590909"></ellipse>
            </g>
            <g id="Group-14" transform="translate(423.000000, 122.000000)">
                <path d="M85,69.0340909 C85,72.3289715 65.9721019,75 42.5,75 C19.0278981,75 0,72.3289715 0,69.0340909 L0,5.11363636 L85,5.11363636 L85,69.0340909 Z" id="Combined-Shape" fill="#E1E4E7"></path>
                <ellipse id="Oval" fill="#D8D8D8" cx="42.5" cy="5.96590909" rx="42.5" ry="5.96590909"></ellipse>
            </g>
            <g id="Group-4" transform="translate(346.000000, 171.000000)">
                <g id="Fill-2" transform="translate(0.000000, 2.477184)" fill="#221B62">
                    <path d="M9.66377148,2.06104542 C9.92263648,1.75234683 10.1569441,1.40055125 10.3794643,0.986460909 L9.16863422,0.345164493 C8.9735569,0.684945157 8.76030715,0.969548601 8.53456385,1.1914002 C8.19539637,1.52474896 7.83790298,1.71897931 7.47206009,1.76867145 C6.76717251,1.86446433 6.27289476,1.63258941 5.55324208,1.14141421 C4.79736733,0.625556185 3.94050055,0.040906205 2.72460554,0.206176669 C1.98656555,0.30650779 1.31068632,0.71713731 0.71569281,1.42670329 C0.456950597,1.73530393 0.222612235,2.08709951 0,2.5012878 L1.21079936,3.14255157 C1.4058153,2.80260766 1.61888087,2.51780832 1.84440929,2.29572817 C2.17814346,1.9670809 2.53566755,1.77484216 2.90703583,1.72433378 C3.01367606,1.70987017 3.11546621,1.70271998 3.21378764,1.70271998 C3.77065589,1.70271998 4.21818261,1.93132998 4.8262529,2.3463345 C5.53258323,2.82840056 6.41142882,3.42829773 7.6553192,3.25930526 C8.4069885,3.15714578 9.08271425,2.75399293 9.66377148,2.06104542 Z M9.66377148,5.91249892 C9.92260578,5.60386665 10.1569134,5.25207223 10.3794643,4.83795061 L9.16863422,4.19665631 C8.9735569,4.53643585 8.76030715,4.82100571 8.53456385,5.04285657 C8.19539637,5.37620424 7.83790298,5.57043394 7.47206009,5.62019122 C6.76717251,5.71585318 6.27289476,5.48407698 5.55324208,4.99287075 C4.79739803,4.47701443 3.94068473,3.89246432 2.72460554,4.0576363 C1.98656555,4.15796709 1.31068632,4.5686279 0.71569281,5.27819153 C0.456950597,5.5867585 0.222642932,5.93855293 0,6.35273984 L1.21079936,6.99403414 C1.4058153,6.65409135 1.61888087,6.36929295 1.84440929,6.14721354 C2.17814346,5.81853471 2.53569824,5.6262966 2.90703583,5.57578839 C3.01367606,5.56132483 3.11543551,5.55417467 3.21378764,5.55417467 C3.77062519,5.55417467 4.21815191,5.78278391 4.8262529,6.1978197 C5.53261392,6.67988417 6.41176649,7.27987731 7.6553192,7.1107548 C8.4069885,7.00856301 9.08271425,6.60544414 9.66377148,5.91249892 Z M9.66377148,9.61586899 C9.92263648,9.3071713 10.1569441,8.95537673 10.3794643,8.54132024 L9.16863422,7.90002568 C8.9735569,8.23980536 8.76030715,8.52440798 8.53456385,8.74622629 C8.19539637,9.07957409 7.83790298,9.27380387 7.47206009,9.32352852 C6.76717251,9.41938642 6.27289476,9.18744688 5.55324208,8.69624045 C4.79739803,8.18041656 3.94068473,7.59576827 2.72460554,7.76100561 C1.98656555,7.86133644 1.31068632,8.27199742 0.71569281,8.98156135 C0.4569199,9.29016109 0.222612235,9.64195566 0,10.0561101 L1.21079936,10.6974047 C1.4058153,10.3574291 1.61888087,10.0726306 1.84440929,9.85058372 C2.17814346,9.52190474 2.53566755,9.32966656 2.90703583,9.27915833 C3.01367606,9.26469476 3.11543551,9.2575446 3.21378764,9.2575446 C3.77062519,9.2575446 4.21815191,9.48615393 4.8262529,9.90115725 C5.53261392,10.3832546 6.41176649,10.9831827 7.6553192,10.8141254 C8.4069885,10.7119335 9.08271425,10.3087819 9.66377148,9.61586899 Z" id="Fill-1"></path>
                </g>
                <path d="M15.0055455,4.21599808 L15.0055455,3.01046723 C16.1107233,2.89981409 16.8815024,2.71490964 17.317906,2.45574833 C17.7543095,2.19658702 18.0801904,1.58363603 18.2955584,0.616876991 L19.5027466,0.616876991 L19.5027466,13.0740291 L17.8704921,13.0740291 L17.8704921,4.21599808 L15.0055455,4.21599808 Z M27.7320295,0.564462606 C29.3076163,0.564462606 30.4467825,1.23128339 31.1495623,2.56494496 C31.6936498,3.59576635 31.9656895,5.00802871 31.9656895,6.8017744 C31.9656895,8.50233851 31.7191536,9.9087771 31.2260742,11.0211324 C30.5119593,12.6168672 29.3444556,13.4147226 27.7235282,13.4147226 C26.2612929,13.4147226 25.1731342,12.7624613 24.4590193,11.4579189 C23.8639235,10.368859 23.5663801,8.9070947 23.5663801,7.07258206 C23.5663801,5.65156274 23.7449061,4.43148454 24.1019636,3.41231085 C24.7707379,1.51373586 25.9807477,0.564462606 27.7320295,0.564462606 Z M27.7150269,11.9820628 C28.5084879,11.9820628 29.1404134,11.6209895 29.6108224,10.8988322 C30.0812314,10.1766748 30.3164324,8.83138571 30.3164324,6.86292452 C30.3164324,5.4419052 30.1464076,4.27278492 29.8063529,3.3555286 C29.4662982,2.43827228 28.8060352,1.979651 27.8255441,1.979651 C26.9243991,1.979651 26.265553,2.41497723 25.8489859,3.28564275 C25.4324189,4.15630828 25.2241385,5.43899192 25.2241385,7.13373218 C25.2241385,8.40915525 25.3573246,9.43413742 25.6237008,10.2087094 C26.0317665,11.3909509 26.7288682,11.9820628 27.7150269,11.9820628 Z M37.4150391,0.564462606 C38.9906259,0.564462606 40.1297921,1.23128339 40.8325718,2.56494496 C41.3766594,3.59576635 41.6486991,5.00802871 41.6486991,6.8017744 C41.6486991,8.50233851 41.4021631,9.9087771 40.9090838,11.0211324 C40.1949689,12.6168672 39.0274652,13.4147226 37.4065377,13.4147226 C35.9443025,13.4147226 34.8561437,12.7624613 34.1420288,11.4579189 C33.5469331,10.368859 33.2493896,8.9070947 33.2493896,7.07258206 C33.2493896,5.65156274 33.4279157,4.43148454 33.7849731,3.41231085 C34.4537474,1.51373586 35.6637573,0.564462606 37.4150391,0.564462606 Z M37.3980364,11.9820628 C38.1914974,11.9820628 38.8234229,11.6209895 39.293832,10.8988322 C39.764241,10.1766748 39.999442,8.83138571 39.999442,6.86292452 C39.999442,5.4419052 39.8294172,4.27278492 39.4893624,3.3555286 C39.1493077,2.43827228 38.4890447,1.979651 37.5085536,1.979651 C36.6074086,1.979651 35.9485625,2.41497723 35.5319955,3.28564275 C35.1154285,4.15630828 34.9071481,5.43899192 34.9071481,7.13373218 C34.9071481,8.40915525 35.0403342,9.43413742 35.3067104,10.2087094 C35.714776,11.3909509 36.4118777,11.9820628 37.3980364,11.9820628 Z" id="100" fill="#15112C"></path>
            </g>
            <path d="M369.726163,153.262764 L367.514874,147.077604 L365.16476,153.262764 L369.726163,153.262764 Z M366.4836,145 L368.714722,145 L374,159 L371.838291,159 L370.360793,154.806671 L364.599542,154.806671 L363.022883,159 L361,159 L366.4836,145 Z" id="A" fill="#15112C"></path>
            <g id="Group-4" transform="translate(449.000000, 171.000000)">
                <g id="Fill-2" transform="translate(0.000000, 2.747230)" fill="#221B62">
                    <path d="M9.49423163,1.93980745 C9.74855513,1.64926761 9.97875214,1.31816588 10.1973684,0.928433796 L9.00778099,0.324860699 C8.81612608,0.644654265 8.60661755,0.912516331 8.38483466,1.12131784 C8.05161749,1.43505785 7.70039591,1.61786288 7.34097132,1.66463196 C6.64845018,1.75478996 6.16284398,1.53655474 5.45581678,1.0742722 C4.713203,0.588758763 3.87136896,0.0384999577 2.67680544,0.19404863 C1.95171353,0.28847792 1.28769183,0.674952762 0.703136796,1.34277957 C0.44893392,1.63322723 0.218706757,1.96432895 0,2.35415322 L1.18955727,2.95769559 C1.38115187,2.63774838 1.59047945,2.36970194 1.81205123,2.16068534 C2.13993041,1.85137026 2.49118215,1.67043968 2.85603521,1.62290238 C2.96080455,1.60928957 3.06080891,1.60255999 3.1574054,1.60255999 C3.70450403,1.60255999 4.1441794,1.81772233 4.7415818,2.20831482 C5.43552036,2.66202405 6.29894762,3.22663316 7.52101535,3.06758142 C8.25949748,2.97143132 8.92336839,2.59199335 9.49423163,1.93980745 Z M9.49423163,5.56470486 C9.74852498,5.27422743 9.97872198,4.9431268 10.1973684,4.55336528 L9.00778099,3.94979417 C8.81612608,4.26958668 8.60661755,4.53741713 8.38483466,4.74621795 C8.05161749,5.05995693 7.70039591,5.24276135 7.34097132,5.28959173 C6.64845018,5.37962652 6.16284398,5.16148421 5.45581678,4.69917247 C4.71323315,4.21366064 3.87154991,3.66349584 2.67680544,3.81895181 C1.95171353,3.91338079 1.28769183,4.29988508 0.703136796,4.96770968 C0.44893392,5.25812565 0.218736915,5.58922628 0,5.97904926 L1.18955727,6.58262037 C1.38115187,6.26267422 1.59047945,5.99462866 1.81205123,5.78561275 C2.13993041,5.47626796 2.49121231,5.29533798 2.85603521,5.24780084 C2.96080455,5.23418807 3.06077875,5.22745851 3.1574054,5.22745851 C3.70447387,5.22745851 4.14414924,5.44262015 4.7415818,5.83324207 C5.43555052,6.28694981 6.29927936,6.85164923 7.52101535,6.6924751 C8.25949748,6.59629459 8.92336839,6.21688861 9.49423163,5.56470486 Z M9.49423163,9.05022964 C9.74855513,8.75969064 9.97875214,8.42858987 10.1973684,8.03888964 L9.00778099,7.43531829 C8.81612608,7.75511093 8.60661755,8.02297222 8.38483466,8.23174239 C8.05161749,8.5454815 7.70039591,8.728286 7.34097132,8.77508567 C6.64845018,8.86530487 6.16284398,8.64700882 5.45581678,8.18469689 C4.71323315,7.69921559 3.87154991,7.14895837 2.67680544,7.30447587 C1.95171353,7.39890489 1.28769183,7.78540934 0.703136796,8.45323421 C0.448903762,8.74368103 0.218706757,9.0747818 0,9.46457421 L1.18955727,10.0681456 C1.38115187,9.74816855 1.59047945,9.48012289 1.81205123,9.27113761 C2.13993041,8.9617927 2.49118215,8.78086265 2.85603521,8.73332549 C2.96080455,8.71971271 3.06077875,8.71298315 3.1574054,8.71298315 C3.70447387,8.71298315 4.14414924,8.92814487 4.7415818,9.31873623 C5.43555052,9.77247488 6.29927936,10.3371131 7.52101535,10.1780003 C8.25949748,10.0818198 8.92336839,9.70238292 9.49423163,9.05022964 Z" id="Fill-1"></path>
                </g>
                <path d="M18.1082185,0.250060233 C19.4445739,0.250060233 20.3758326,0.591264189 20.9020225,1.27368234 C21.4282124,1.95610049 21.6913035,2.65906285 21.6913035,3.38259053 L20.2046155,3.38259053 C20.1155252,2.91668256 19.9735396,2.55218355 19.7786544,2.28908258 C19.4167248,1.79576825 18.8682705,1.54911479 18.1332751,1.54911479 C17.2924848,1.54911479 16.6243172,1.93142766 16.1287521,2.69606486 C15.6331869,3.46070206 15.3575678,4.55556938 15.3018863,5.98069964 C15.6471114,5.48190405 16.0814204,5.10918326 16.6048263,4.8625261 C17.0836869,4.64327529 17.6182211,4.53365153 18.2084447,4.53365153 C19.2107112,4.53365153 20.0848972,4.84881984 20.831029,5.47916592 C21.5771607,6.109512 21.950221,7.04953575 21.950221,8.29926538 C21.950221,9.36811308 21.596649,10.3149883 20.8894942,11.1399195 C20.1823395,11.9648507 19.17452,12.3773101 17.8660053,12.3773101 C16.7468077,12.3773101 15.7807487,11.9593695 14.9677991,11.1234758 C14.1548496,10.287582 13.748381,8.88028701 13.748381,6.90154845 C13.748381,5.43804928 13.929343,4.19656019 14.2912726,3.17704392 C14.987291,1.22571171 16.2595936,0.250060233 18.1082185,0.250060233 Z M17.9996402,11.0618118 C18.7903171,11.0618118 19.3819239,10.800085 19.7744783,10.2766237 C20.1670327,9.75316243 20.3633069,9.13515847 20.3633069,8.42259334 C20.3633069,7.81965361 20.1879129,7.24549916 19.8371197,6.70011277 C19.4863264,6.15472638 18.8487831,5.88203727 17.9244706,5.88203727 C17.2785655,5.88203727 16.712015,6.09306301 16.2248021,6.51512082 C15.7375892,6.93717863 15.4939864,7.57299645 15.4939864,8.42259334 C15.4939864,9.1680461 15.715317,9.79427183 16.1579847,10.3012893 C16.6006524,10.8083068 17.2145314,11.0618118 17.9996402,11.0618118 Z M23.1529348,12.0731011 C23.2086163,11.0590661 23.4215947,10.1765948 23.7918765,9.42566078 C24.1621583,8.67472676 24.8846146,7.99231884 25.9592671,7.37841657 L27.5628855,6.46578964 C28.2811765,6.05469437 28.7850863,5.70389833 29.0746299,5.41339101 C29.531218,4.95844558 29.7595086,4.43773271 29.7595086,3.85123679 C29.7595086,3.16607801 29.5507062,2.6220701 29.1330952,2.21919673 C28.7154841,1.81632337 28.1586778,1.61488971 27.4626593,1.61488971 C26.4325521,1.61488971 25.7198399,1.99857287 25.3245014,2.76595071 C25.1129118,3.17704598 24.9959825,3.74708953 24.9737099,4.47609848 L23.4452611,4.47609848 C23.4619655,3.45110094 23.6540637,2.61521976 24.0215615,1.96842987 C24.6730347,0.828325655 25.8228399,0.258282098 27.4710115,0.258282098 C28.8407758,0.258282098 29.8416352,0.622781103 30.47362,1.35179005 C31.1056047,2.08079899 31.4215923,2.89201483 31.4215923,3.78546188 C31.4215923,4.72824036 31.0847244,5.53397501 30.4109786,6.20268998 C30.0212083,6.59186017 29.3224163,7.06324234 28.3145816,7.61685064 L27.1703331,8.24171233 C26.6246546,8.53770092 26.1959137,8.8199821 25.8840975,9.08856435 C25.3272827,9.56543486 24.9764947,10.0943695 24.8317229,10.6753842 L31.3631271,10.6753842 L31.3631271,12.0731011 L23.1529348,12.0731011 Z" id="62" fill="#15112C"></path>
            </g>
            <path d="M467.407767,150.918312 C468.223305,150.918312 468.857603,150.807126 469.31068,150.584752 C470.022657,150.235306 470.378641,149.606313 470.378641,148.697754 C470.378641,147.782841 470.000004,147.166555 469.242718,146.848877 C468.815532,146.670977 468.181234,146.582029 467.339806,146.582029 L463.893204,146.582029 L463.893204,150.918312 L467.407767,150.918312 Z M468.058252,157.37985 C469.242724,157.37985 470.087376,157.043117 470.592233,156.369639 C470.909387,155.943951 471.067961,155.42932 471.067961,154.825732 C471.067961,153.809162 470.605183,153.116634 469.679612,152.748128 C469.1877,152.551168 468.537221,152.452689 467.728155,152.452689 L463.893204,152.452689 L463.893204,157.37985 L468.058252,157.37985 Z M462,145 L468.126214,145 C469.796125,145 470.983815,145.489217 471.68932,146.467665 C472.103562,147.045839 472.31068,147.712953 472.31068,148.469027 C472.31068,149.352171 472.055019,150.076466 471.543689,150.641933 C471.278316,150.940551 470.896443,151.21375 470.398058,151.461538 C471.129453,151.734742 471.676374,152.042885 472.038835,152.385977 C472.679615,152.995919 473,153.837753 473,154.911504 C473,155.81371 472.711977,156.63013 472.135922,157.36079 C471.275077,158.453602 469.906158,159 468.029126,159 L462,159 L462,145 Z" id="B" fill="#15112C"></path>
            <path d="M99,43 C192.998775,15.2258065 290.998775,15.001821 393,42.3280437" id="Path-3" stroke="#000000" stroke-width="3" transform="translate(246.000000, 32.500000) scale(1, -1) translate(-246.000000, -32.500000) "></path>
            <g id="Group-5" transform="translate(64.000000, 0.000000)">
                <polygon id="Triangle" fill="#5645F5" points="30 0 60 60 0 60"></polygon>
                <g id="Group" transform="translate(16.000000, 38.000000)" fill="#FFFFFF">
                    <path d="M1.77481606,9.94912847 C1.8190941,10.7525182 2.00569163,11.4048608 2.33461424,11.906176 C2.96083228,12.8445352 4.06460409,13.3137078 5.64596279,13.3137078 C6.35441148,13.3137078 6.99959615,13.2108754 7.58153615,13.0052077 C8.70746354,12.6067264 9.27041879,11.893327 9.27041879,10.8649882 C9.27041879,10.093734 9.03321855,9.54422372 8.55881094,9.21644071 C8.0780779,8.89508483 7.32536245,8.6155094 6.30064201,8.37770605 L4.41250917,7.94387777 C3.17904939,7.66108459 2.30615248,7.34937406 1.79379227,7.00873682 C0.908231397,6.41744199 0.465457604,5.53372656 0.465457604,4.35756402 C0.465457604,3.08499471 0.898743387,2.04060375 1.76532795,1.2243598 C2.63191252,0.408115853 3.85902846,0 5.44671259,0 C6.90788802,0 8.14923598,0.358306438 9.17079369,1.07493006 C10.1923514,1.79155369 10.7031226,2.93717023 10.7031226,4.51181407 L8.92884702,4.51181407 C8.8339655,3.75341418 8.63155462,3.17176876 8.32160832,2.76686034 C7.74599376,2.0277418 6.76872874,1.65818808 5.38978396,1.65818808 C4.27650744,1.65818808 3.47635194,1.89598787 2.98929346,2.37159458 C2.50223498,2.84720129 2.2587094,3.39992512 2.2587094,4.02978266 C2.2587094,4.72391137 2.54334969,5.23164605 3.11263882,5.55300194 C3.48583948,5.7586697 4.33027235,6.01575056 5.64596279,6.32425221 L7.60051236,6.77736174 C8.54300214,6.99588374 9.27041623,7.29474023 9.78277645,7.67394018 C10.6683373,8.3359333 11.1111111,9.29677299 11.1111111,10.5564881 C11.1111111,12.1247048 10.5497372,13.24622 9.42697252,13.9210674 C8.30420785,14.5959147 6.99960649,14.9333333 5.51312932,14.9333333 C3.77996019,14.9333333 2.42317478,14.4834418 1.44273239,13.5836454 C0.46229,12.690276 -0.0184358323,11.4787825 0.000540472065,9.94912847 L1.77481606,9.94912847 Z" id="S"></path>
                    <path d="M13.3333333,7.46666667 L14.7680098,7.46666667 L19.2979243,14.3793057 L19.2979243,7.46666667 L20.4517705,7.46666667 L20.4517705,16 L19.0903541,16 L14.4932845,9.09316996 L14.4932845,16 L13.3333333,16 L13.3333333,7.46666667 Z M21.9291819,12.1486726 L24.993895,12.1486726 L24.993895,13.2233265 L21.9291819,13.2233265 L21.9291819,12.1486726 Z M26.7704518,10.1097345 L26.7704518,9.30810075 C27.5641065,9.23452047 28.1176216,9.1115658 28.4310134,8.93923304 C28.7444053,8.76690028 28.9784282,8.35931038 29.1330891,7.7164511 L30,7.7164511 L30,16 L28.8278388,16 L28.8278388,10.1097345 L26.7704518,10.1097345 Z" id="N-1"></path>
                </g>
            </g>
            <g id="Group-10" transform="translate(215.000000, 17.000000)">
                <rect id="Rectangle" fill="#0F7B63" x="0" y="0.322434597" width="54" height="53.3333333"></rect>
                <g id="Group-2" transform="translate(13.500000, 16.989101)" fill="#FFFFFF">
                    <polygon id="T" points="16.1499023 0.205729167 16.1499023 2.484375 9.62402344 2.484375 9.62402344 19.3333333 6.9609375 19.3333333 6.9609375 2.484375 0.435058594 2.484375 0.435058594 0.205729167"></polygon>
                    <polygon id="N" points="15.4604004 10.7119141 17.3967407 10.7119141 23.5106323 20.3961589 23.5106323 10.7119141 25.0679443 10.7119141 25.0679443 22.6666667 23.230481 22.6666667 17.0259521 12.9905599 17.0259521 22.6666667 15.4604004 22.6666667"></polygon>
                </g>
            </g>
            <path id="Line" d="M400.456906,18.7969308 L386.952802,35.1947713 L379.236171,17.8323519 L400.456906,18.7969308 Z" fill="#000000" fill-rule="nonzero"></path>
        </g>
        <g id="Group-11" transform="translate(631.000000, 157.000000)">
            <g id="Group-10" transform="translate(181.849802, 5.102804)">
                <rect id="Rectangle" fill="#0F7B63" x="0" y="0.203125984" width="34.1501976" height="33.5987077"></rect>
                <g id="Group-2" transform="translate(8.537549, 10.702722)" fill="#FFFFFF">
                    <polygon id="T" points="10.213377 0.12960439 10.213377 1.56509605 6.08633893 1.56509605 6.08633893 12.1795316 4.40217391 12.1795316 4.40217391 1.56509605 0.27513587 1.56509605 0.27513587 0.12960439"></polygon>
                    <polygon id="N" points="9.77732831 6.74824631 11.0018914 6.74824631 14.8683841 12.8490859 14.8683841 6.74824631 15.8532454 6.74824631 15.8532454 14.2794508 14.6912133 14.2794508 10.7674006 8.18373798 10.7674006 14.2794508 9.77732831 14.2794508"></polygon>
                </g>
            </g>
            <g id="Group-6" transform="translate(110.134387, 5.953271)">
                <rect id="Rectangle" fill="#5645F5" x="0" y="0.203125984" width="64.0316206" height="33.5987077"></rect>
                <g id="Group" transform="translate(18.374135, 9.904753)" fill="#FFFFFF">
                    <path d="M1.67194827,9.08936916 C1.71034462,9.77294004 1.87215537,10.3279913 2.15738536,10.7545395 C2.7004194,11.5529503 3.6575711,11.9521497 5.02886917,11.9521497 C5.64321071,11.9521497 6.20269193,11.8646539 6.70732962,11.6896598 C7.68369385,11.3506086 8.17186864,10.7436068 8.17186864,9.86863606 C8.17186864,9.21240802 7.96617701,8.74485255 7.55478759,8.46595564 C7.13791298,8.19252729 6.48518488,7.95464819 5.59658373,7.75231121 L3.95926202,7.38318478 C2.88964953,7.14256783 2.13270434,6.87734631 1.68840377,6.58751226 C0.920476848,6.08440409 0.536519147,5.33248741 0.536519147,4.33173964 C0.536519147,3.24896338 0.912249183,2.36033457 1.66372053,1.66582655 C2.41519187,0.971318544 3.47930321,0.624069747 4.85608648,0.624069747 C6.1231659,0.624069747 7.19961874,0.928937785 8.08547729,1.53868301 C8.97133585,2.14842823 9.41425848,3.12318568 9.41425848,4.4629846 L7.87566973,4.4629846 C7.79339185,3.81769369 7.61786833,3.3227958 7.34909391,2.97827608 C6.84994141,2.34939087 6.00249191,2.03495298 4.80671999,2.03495298 C3.84132615,2.03495298 3.14745973,2.23728693 2.72509993,2.64196089 C2.30274012,3.04663485 2.09156339,3.51692455 2.09156339,4.05284412 C2.09156339,4.64344936 2.33839334,5.07545967 2.83206064,5.34888802 C3.15568699,5.52388217 3.88794917,5.74262157 5.02886917,6.00511278 L6.72378511,6.39064483 C7.54107876,6.57657611 8.17186642,6.83086066 8.61616699,7.15350612 C9.38409391,7.71676852 9.76805161,8.53430702 9.76805161,9.60614616 C9.76805161,10.9404765 9.2812481,11.8947271 8.30762647,12.4689267 C7.33400484,13.0431262 6.2027009,13.3302217 4.91368071,13.3302217 C3.41073802,13.3302217 2.23418192,12.9474277 1.38397712,12.1818283 C0.533772314,11.4216975 0.116903953,10.3908881 0.13335953,9.08936916 L1.67194827,9.08936916 Z" id="S"></path>
                    <path d="M11.4950558,7.54621562 L12.7035062,7.54621562 L16.519124,13.6470552 L16.519124,7.54621562 L17.4910266,7.54621562 L17.4910266,15.0774201 L16.3442843,15.0774201 L12.4721008,8.98170728 L12.4721008,15.0774201 L11.4950558,15.0774201 L11.4950558,7.54621562 Z M18.7354734,11.6783809 L21.3169291,11.6783809 L21.3169291,12.6268308 L18.7354734,12.6268308 L18.7354734,11.6783809 Z M22.8133506,9.87888957 L22.8133506,9.17139725 C23.4818585,9.10645802 23.9480928,8.99794277 24.2120677,8.84584825 C24.4760426,8.69375373 24.6731637,8.33402995 24.803437,7.76666613 L25.5336496,7.76666613 L25.5336496,15.0774201 L24.5463199,15.0774201 L24.5463199,9.87888957 L22.8133506,9.87888957 Z" id="N-1"></path>
                </g>
            </g>
            <rect id="Rectangle" fill="#F5F6FA" x="0" y="0" width="216" height="91"></rect>
            <path d="M56.9996258,63.5643315 L56.9996258,64.763441 L49.5177866,64.763441 L49.5177866,63.5643315 L56.9996258,63.5643315 Z M56.9996258,66.6263432 L56.9996258,67.8468653 L49.5177866,67.8468653 L49.5177866,66.6263432 L56.9996258,66.6263432 Z M63.5704453,66.0482011 C63.6039213,66.6430005 63.7449964,67.1259703 63.993675,67.4971251 C64.4671207,68.1918507 65.301616,68.5392083 66.4971859,68.5392083 C67.0328012,68.5392083 67.5205865,68.4630751 67.9605562,68.3108065 C68.811802,68.015786 69.2374185,67.4876121 69.2374185,66.726269 C69.2374185,66.1552616 69.0580857,65.748425 68.6994147,65.5057468 C68.3359615,65.2678271 67.7668787,65.0608401 66.9921494,64.8847794 L65.564646,64.5635894 C64.6321015,64.35422 63.9721568,64.1234414 63.5847921,63.8712464 C62.9152729,63.4334741 62.5805184,62.7792047 62.5805184,61.9084185 C62.5805184,60.9662563 62.9080996,60.1930288 63.563272,59.5887126 C64.2184443,58.9843965 65.1461926,58.682243 66.3465449,58.682243 C67.4512515,58.682243 68.3897598,58.9475195 69.162098,59.4780805 C69.9344362,60.0086415 70.3205995,60.8568127 70.3205995,62.0226194 L68.9791767,62.0226194 C68.9074425,61.4611288 68.7544118,61.0305005 68.5200801,60.7307217 C68.0848927,60.1835063 67.3460415,59.9099027 66.3035046,59.9099027 C65.4618233,59.9099027 64.856874,60.0859606 64.4886385,60.4380818 C64.1204029,60.7902031 63.9362879,61.1994189 63.9362879,61.6657415 C63.9362879,62.1796482 64.1514873,62.5555557 64.5818925,62.7934754 C64.864047,62.9457441 65.5024717,63.136077 66.4971859,63.3644799 L67.974903,63.6999451 C68.6874627,63.8617305 69.2374166,64.0829925 69.6247812,64.3637378 C70.2943004,64.8538525 70.629055,65.5652218 70.629055,66.4978672 C70.629055,67.6589155 70.204634,68.4892429 69.3557793,68.9888743 C68.5069247,69.4885058 67.5205943,69.7383178 66.3967585,69.7383178 C65.0864139,69.7383178 64.0606303,69.4052351 63.3193769,68.7390599 C62.5781235,68.077643 62.2146757,67.1806991 62.2290226,66.0482011 L63.5704453,66.0482011 Z M75.4639156,61.6157786 C76.0090955,61.6157786 76.5375295,61.7430638 77.0492334,61.9976379 C77.5609374,62.252212 77.9506873,62.5817259 78.218495,62.9861895 C78.4767381,63.3716194 78.6488976,63.821281 78.7349786,64.3351876 C78.8114951,64.6873088 78.8497527,65.248791 78.8497527,66.0196509 L73.2186465,66.0196509 C73.2425579,66.7952692 73.4266729,67.41742 73.770997,67.8861219 C74.1153212,68.3548238 74.6485374,68.5891712 75.3706616,68.5891712 C76.0449631,68.5891712 76.5829615,68.3679092 76.984673,67.9253784 C77.2142224,67.6684251 77.3768175,67.3710299 77.4724631,67.0331839 L78.742152,67.0331839 C78.708676,67.3139292 78.5974897,67.6267889 78.4085896,67.9717726 C78.2196896,68.3167562 78.0080769,68.5986868 77.7737452,68.817573 C77.3815982,69.1982446 76.8962041,69.455194 76.3175483,69.5884291 C76.0067001,69.6645634 75.6552078,69.70263 75.2630609,69.70263 C74.3066049,69.70263 73.4960207,69.356462 72.8312838,68.6641155 C72.1665469,67.9717691 71.8341834,67.0022607 71.8341834,65.7555613 C71.8341834,64.5278955 72.168938,63.5310268 72.8384572,62.7649252 C73.5079763,61.9988237 74.3831204,61.6157786 75.4639156,61.6157786 Z M77.5226767,64.9989803 C77.4700717,64.4422482 77.3481254,63.9973449 77.1568342,63.6642573 C76.8029455,63.045666 76.2123428,62.736375 75.3850084,62.736375 C74.7920057,62.736375 74.2946561,62.94931 73.8929446,63.3751863 C73.4912331,63.8010626 73.2784248,64.3423219 73.2545134,64.9989803 L77.5226767,64.9989803 Z M80.4350706,61.78708 L81.6617192,61.78708 L81.6617192,62.8719886 C82.0251724,62.4246995 82.4101402,62.1035126 82.816634,61.9084185 C83.2231277,61.7133243 83.6750464,61.6157786 84.1724035,61.6157786 C85.2627633,61.6157786 85.9992233,61.9940653 86.3818057,62.7506501 C86.592226,63.1646304 86.6974346,63.7570417 86.6974346,64.5279016 L86.6974346,69.4314028 L85.3847053,69.4314028 L85.3847053,64.6135523 C85.3847053,64.1472296 85.3153633,63.7713221 85.1766772,63.4858184 C84.9471278,63.0099789 84.5310757,62.7720628 83.9285084,62.7720628 C83.6224425,62.7720628 83.3713766,62.8029919 83.1753032,62.864851 C82.8214144,62.9695357 82.5105709,63.1789019 82.2427633,63.492956 C82.0275607,63.7451509 81.8876811,64.0056691 81.8231203,64.2745184 C81.7585595,64.5433677 81.7262796,64.9276023 81.7262796,65.4272337 L81.7262796,69.4314028 L80.4350706,69.4314028 L80.4350706,61.78708 Z M89.4233204,65.6984609 C89.4233204,66.5169048 89.597871,67.2021033 89.9469774,67.7540771 C90.2960838,68.3060509 90.8556022,68.5820336 91.6255492,68.5820336 C92.2233342,68.5820336 92.7147061,68.3262738 93.0996796,67.8147463 C93.4846531,67.3032189 93.677137,66.5692475 93.677137,65.6128102 C93.677137,64.6468561 93.4786753,63.931918 93.0817461,63.4679745 C92.6848169,63.004031 92.1946406,62.7720628 91.6112024,62.7720628 C90.9608124,62.7720628 90.433574,63.0194956 90.0294713,63.5143686 C89.6253687,64.0092417 89.4233204,64.7372651 89.4233204,65.6984609 Z M91.3673074,61.6514664 C91.9555278,61.6514664 92.4480952,61.7751828 92.8450245,62.0226194 C93.0745739,62.1653712 93.3352042,62.4151832 93.6269233,62.7720628 L93.6269233,58.9106448 L94.8679187,58.9106448 L94.8679187,69.4314028 L93.7058305,69.4314028 L93.7058305,68.3679069 C93.4045469,68.838988 93.0482724,69.1792081 92.6369963,69.3885775 C92.2257203,69.5979469 91.7546728,69.70263 91.2238397,69.70263 C90.3678117,69.70263 89.6265694,69.3445661 89.0000908,68.6284277 C88.3736121,67.9122893 88.0603775,66.9594351 88.0603775,65.7698364 C88.0603775,64.6563721 88.3461144,63.691622 88.9175968,62.8755573 C89.4890793,62.0594927 90.3056413,61.6514664 91.3673074,61.6514664 Z M109.480101,62.1939207 L109.480101,61.2089379 C110.412646,61.1185284 111.063026,60.9674517 111.431262,60.7557031 C111.799497,60.5439545 112.074474,60.043141 112.256201,59.2532475 L113.274821,59.2532475 L113.274821,69.4314028 L111.897532,69.4314028 L111.897532,62.1939207 L109.480101,62.1939207 Z M120.218657,59.2104222 C121.548131,59.2104222 122.509354,59.7552502 123.102357,60.8449226 C123.561456,61.6871584 123.791002,62.8410518 123.791002,64.3066374 C123.791002,65.6960886 123.582976,66.8452237 123.166918,67.7540771 C122.56435,69.0578772 121.579215,69.7097675 120.211483,69.7097675 C118.977655,69.7097675 118.059471,69.1768353 117.456904,68.1109549 C116.954765,67.2211351 116.703699,66.026796 116.703699,64.5279016 C116.703699,63.3668533 116.854338,62.3699846 117.155622,61.5372655 C117.719931,59.9860289 118.740932,59.2104222 120.218657,59.2104222 Z M120.20431,68.5392083 C120.873829,68.5392083 121.407045,68.2441922 121.803975,67.6541513 C122.200904,67.0641104 122.399366,65.9649377 122.399366,64.3566003 C122.399366,63.195552 122.255899,62.2403186 121.968963,61.4908714 C121.682026,60.7414242 121.124898,60.3667063 120.297564,60.3667063 C119.537182,60.3667063 118.98125,60.722391 118.629752,61.433771 C118.278255,62.145151 118.102509,63.1931717 118.102509,64.5778645 C118.102509,65.619953 118.214891,66.4574179 118.439658,67.0902844 C118.783982,68.0562385 119.372193,68.5392083 120.20431,68.5392083 Z M129.766431,60.6236583 C129.78556,60.0907181 129.878813,59.7005356 130.046193,59.4530991 C130.347476,59.0153268 130.928515,58.7964439 131.789325,58.7964439 C131.870624,58.7964439 131.954312,58.7988231 132.040393,58.8035814 C132.126474,58.8083398 132.22451,58.8154773 132.334502,58.8249941 L132.334502,59.9955534 C132.200598,59.9860366 132.103758,59.9800887 132.04398,59.9777095 C131.984202,59.9753303 131.928011,59.9741407 131.875405,59.9741407 C131.483259,59.9741407 131.24893,60.0752551 131.172414,60.2774868 C131.095897,60.4797186 131.05764,60.9948071 131.05764,61.8227678 L132.334502,61.8227678 L132.334502,62.8363008 L131.043293,62.8363008 L131.043293,69.4314028 L129.766431,69.4314028 L129.766431,62.8363008 L128.697596,62.8363008 L128.697596,61.8227678 L129.766431,61.8227678 L129.766431,60.6236583 Z M133.561151,61.78708 L134.787799,61.78708 L134.787799,63.1075279 C134.888227,62.8505746 135.134511,62.5377148 135.526658,62.1689393 C135.918805,61.8001637 136.370723,61.6157786 136.882427,61.6157786 C136.906339,61.6157786 136.946988,61.6181578 137.004375,61.6229162 C137.061762,61.6276746 137.159797,61.6371912 137.298484,61.6514664 L137.298484,63.0076021 C137.221967,62.9933269 137.15143,62.9838103 137.086869,62.9790519 C137.022308,62.9742935 136.95177,62.9719143 136.875254,62.9719143 C136.224864,62.9719143 135.725123,63.180091 135.376017,63.5964505 C135.02691,64.0128101 134.85236,64.4922111 134.85236,65.0346681 L134.85236,69.4314028 L133.561151,69.4314028 L133.561151,61.78708 Z M141.46622,68.6034463 C142.322248,68.6034463 142.909264,68.2810699 143.227285,67.6363074 C143.545307,66.9915449 143.704315,66.2742277 143.704315,65.4843342 C143.704315,64.770575 143.589542,64.1900595 143.359993,63.7427704 C142.99654,63.038528 142.37007,62.6864121 141.480566,62.6864121 C140.69149,62.6864121 140.117625,62.9861865 139.758954,63.5857442 C139.400283,64.1853019 139.22095,64.9085671 139.22095,65.7555613 C139.22095,66.5692468 139.400283,67.2473079 139.758954,67.7897649 C140.117625,68.3322219 140.686708,68.6034463 141.46622,68.6034463 Z M141.516433,61.5658158 C142.506365,61.5658158 143.343252,61.8941401 144.027118,62.5507985 C144.710984,63.207457 145.052911,64.1733966 145.052911,65.4486464 C145.052911,66.6810706 144.751632,67.6993518 144.149065,68.5035205 C143.546498,69.3076892 142.611576,69.7097675 141.344272,69.7097675 C140.287388,69.7097675 139.448111,69.3540829 138.826414,68.6427029 C138.204718,67.9313229 137.893874,66.9760895 137.893874,65.776974 C137.893874,64.4922074 138.221456,63.4691679 138.876628,62.7078248 C139.5318,61.9464816 140.411727,61.5658158 141.516433,61.5658158 Z M146.588016,61.78708 L147.864878,61.78708 L147.864878,62.8719886 C148.170944,62.4960754 148.448312,62.2224718 148.69699,62.0511696 C149.122613,61.7609075 149.605616,61.6157786 150.146014,61.6157786 C150.758146,61.6157786 151.250713,61.7656658 151.623731,62.0654447 C151.834151,62.2367469 152.02544,62.488938 152.197602,62.8220257 C152.484538,62.4128037 152.821684,62.1094606 153.209049,61.9119872 C153.596413,61.7145139 154.031594,61.6157786 154.514605,61.6157786 C155.547577,61.6157786 156.250562,61.9869279 156.623579,62.7292374 C156.824435,63.1289426 156.924862,63.6666331 156.924862,64.3423252 L156.924862,69.4314028 L155.583439,69.4314028 L155.583439,64.1210609 C155.583439,63.6119127 155.455515,63.2621759 155.199663,63.0718401 C154.943811,62.8815044 154.631772,62.7863379 154.263536,62.7863379 C153.756615,62.7863379 153.320238,62.9552584 152.954394,63.2931044 C152.588549,63.6309504 152.40563,64.1948117 152.40563,64.9847052 L152.40563,69.4314028 L151.092901,69.4314028 L151.092901,64.442251 C151.092901,63.9235859 151.030732,63.5452992 150.906393,63.3073795 C150.710319,62.9504999 150.34448,62.7720628 149.808865,62.7720628 C149.321072,62.7720628 148.877523,62.9600165 148.478202,63.3359297 C148.078882,63.7118429 147.879225,64.3922831 147.879225,65.3772708 L147.879225,69.4314028 L146.588016,69.4314028 L146.588016,61.78708 Z M167.684937,65.1345939 L166.085273,60.5023199 L164.385181,65.1345939 L167.684937,65.1345939 Z M165.339241,58.9463326 L166.953252,58.9463326 L170.776666,69.4314028 L169.212868,69.4314028 L168.144034,66.290878 L163.976298,66.290878 L162.83573,69.4314028 L161.372359,69.4314028 L165.339241,58.9463326 Z M175.439365,59.6529507 L176.744921,59.6529507 L176.744921,61.78708 L177.97157,61.78708 L177.97157,62.8363008 L176.744921,62.8363008 L176.744921,67.8254527 C176.744921,68.0919228 176.835783,68.2703599 177.017509,68.3607694 C177.117937,68.4131117 177.285315,68.4392825 177.519646,68.4392825 C177.581816,68.4392825 177.648767,68.4380929 177.720501,68.4357137 C177.792235,68.4333345 177.875924,68.4273866 177.97157,68.4178698 L177.97157,69.4314028 C177.823319,69.4742284 177.669093,69.5051575 177.508886,69.5241911 C177.34868,69.5432246 177.175325,69.5527413 176.988816,69.5527413 C176.386249,69.5527413 175.97737,69.3992854 175.762167,69.0923689 C175.546965,68.7854525 175.439365,68.3869429 175.439365,67.8968282 L175.439365,62.8363008 L174.399224,62.8363008 L174.399224,61.78708 L175.439365,61.78708 L175.439365,59.6529507 Z M182.311467,68.6034463 C183.167495,68.6034463 183.754511,68.2810699 184.072532,67.6363074 C184.390554,66.9915449 184.549562,66.2742277 184.549562,65.4843342 C184.549562,64.770575 184.434789,64.1900595 184.20524,63.7427704 C183.841787,63.038528 183.215317,62.6864121 182.325813,62.6864121 C181.536737,62.6864121 180.962872,62.9861865 180.604201,63.5857442 C180.24553,64.1853019 180.066198,64.9085671 180.066198,65.7555613 C180.066198,66.5692468 180.24553,67.2473079 180.604201,67.7897649 C180.962872,68.3322219 181.531955,68.6034463 182.311467,68.6034463 Z M182.36168,61.5658158 C183.351612,61.5658158 184.188499,61.8941401 184.872365,62.5507985 C185.556231,63.207457 185.898159,64.1733966 185.898159,65.4486464 C185.898159,66.6810706 185.596879,67.6993518 184.994312,68.5035205 C184.391745,69.3076892 183.456823,69.7097675 182.189519,69.7097675 C181.132635,69.7097675 180.293358,69.3540829 179.671661,68.6427029 C179.049965,67.9313229 178.739122,66.9760895 178.739122,65.776974 C178.739122,64.4922074 179.066703,63.4691679 179.721875,62.7078248 C180.377047,61.9464816 181.256974,61.5658158 182.36168,61.5658158 Z M195.646787,63.3787551 C196.249354,63.3787551 196.718011,63.2954844 197.05277,63.1289406 C197.578821,62.8672289 197.841843,62.3961549 197.841843,61.7157044 C197.841843,61.0304956 197.562083,60.5689382 197.002557,60.3310185 C196.686926,60.1977835 196.21827,60.1311669 195.596573,60.1311669 L193.050022,60.1311669 L193.050022,63.3787551 L195.646787,63.3787551 Z M196.127404,68.2180183 C197.002561,68.2180183 197.626639,67.9658271 197.999657,67.4614373 C198.233989,67.1426248 198.351153,66.7572007 198.351153,66.3051532 C198.351153,65.54381 198.009225,65.0251528 197.325359,64.7491659 C196.961906,64.6016556 196.481294,64.5279016 195.883509,64.5279016 L193.050022,64.5279016 L193.050022,68.2180183 L196.127404,68.2180183 Z M191.651212,58.9463326 L196.177617,58.9463326 C197.411446,58.9463326 198.288981,59.3127235 198.810249,60.0455163 C199.116315,60.4785302 199.269346,60.9781541 199.269346,61.5444031 C199.269346,62.2058199 199.080449,62.7482688 198.702649,63.1717659 C198.506575,63.3954105 198.224425,63.6000184 197.856189,63.7855958 C198.396587,63.9902067 198.800683,64.2209854 199.068491,64.4779387 C199.541937,64.9347446 199.778656,65.5652225 199.778656,66.3693912 C199.778656,67.0450832 199.565848,67.6565278 199.140225,68.2037431 C198.504182,69.022187 197.492745,69.4314028 196.105884,69.4314028 L191.651212,69.4314028 L191.651212,58.9463326 Z" id="=-Send-10-from-A-to" fill="#15112C"></path>
            <g id="Group-10" transform="translate(128.916996, 5.953271)">
                <rect id="Rectangle" fill="#0F7B63" x="0" y="0.203125984" width="34.1501976" height="33.5987077"></rect>
                <g id="Group-2" transform="translate(8.537549, 10.702722)" fill="#FFFFFF">
                    <polygon id="T" points="10.213377 0.12960439 10.213377 1.56509605 6.08633893 1.56509605 6.08633893 12.1795316 4.40217391 12.1795316 4.40217391 1.56509605 0.27513587 1.56509605 0.27513587 0.12960439"></polygon>
                    <polygon id="N" points="9.77732831 6.74824631 11.0018914 6.74824631 14.8683841 12.8490859 14.8683841 6.74824631 15.8532454 6.74824631 15.8532454 14.2794508 14.6912133 14.2794508 10.7674006 8.18373798 10.7674006 14.2794508 9.77732831 14.2794508"></polygon>
                </g>
            </g>
            <g id="Group-10" transform="translate(9.391304, 48.476636)">
                <rect id="Rectangle" fill="#0F7B63" x="0" y="0.203125984" width="34.1501976" height="33.5987077"></rect>
                <g id="Group-2" transform="translate(8.537549, 10.702722)" fill="#FFFFFF">
                    <polygon id="T" points="10.213377 0.12960439 10.213377 1.56509605 6.08633893 1.56509605 6.08633893 12.1795316 4.40217391 12.1795316 4.40217391 1.56509605 0.27513587 1.56509605 0.27513587 0.12960439"></polygon>
                    <polygon id="N" points="9.77732831 6.74824631 11.0018914 6.74824631 14.8683841 12.8490859 14.8683841 6.74824631 15.8532454 6.74824631 15.8532454 14.2794508 14.6912133 14.2794508 10.7674006 8.18373798 10.7674006 14.2794508 9.77732831 14.2794508"></polygon>
                </g>
            </g>
            <g id="Fill-2" transform="translate(99.035573, 60.383178)" fill="#221B62">
                <path d="M8.53754941,0.644935615 L7.54159035,0.133573109 C7.38113098,0.404510366 7.20572402,0.631449933 7.02004059,0.808351889 C6.74106095,1.07416042 6.44700748,1.2290375 6.1460862,1.26866145 C5.56628628,1.34504561 5.15972188,1.16015117 4.56777704,0.768493626 C3.94603801,0.357154272 3.24122876,-0.109039007 2.24110356,0.0227457907 C1.63403439,0.102748692 1.07809507,0.430180024 0.588687678,0.99597991 C0.375861238,1.24205457 0.183108001,1.52257239 0,1.85284144 L0.995933809,2.36417791 C1.15634268,2.09311048 1.33159814,1.86601471 1.51710483,1.68893052 C1.79161534,1.4268709 2.08569406,1.27358191 2.39116022,1.2333071 C2.47887632,1.22177397 2.56260304,1.2160725 2.64347658,1.2160725 C3.10152432,1.2160725 3.46963402,1.39836352 3.96979762,1.72928343 C4.55078425,2.11367745 5.27367202,2.59202867 6.29682458,2.45727598 C6.91510445,2.37581517 7.47091753,2.05434565 7.94886173,1.50179714 C8.16178917,1.25564439 8.35451715,0.975126566 8.53754941,0.644935615 Z M8.53754941,3.71606992 L7.54159035,3.20470911 C7.38113098,3.47564547 7.20572402,3.70255825 7.02004059,3.87945962 C6.74106095,4.14526728 6.44700748,4.30014384 6.1460862,4.33981974 C5.56628628,4.4160995 5.15972188,4.23128378 4.56777704,3.83960149 C3.94606326,3.4282635 3.24138025,2.96214986 2.24110356,3.09385612 C1.63403439,3.17385876 1.07809507,3.50131504 0.588687678,4.06711306 C0.375861238,4.31316087 0.18313325,4.59367776 0,4.92394572 L0.995933809,5.43530654 C1.15634268,5.16424001 1.33159814,4.93714499 1.51710483,4.76006138 C1.79161534,4.49797659 2.08571931,4.3446881 2.39116022,4.30441343 C2.47887632,4.29288034 2.56257779,4.28717889 2.64347658,4.28717889 C3.10149907,4.28717889 3.46960877,4.46946931 3.96979762,4.80041416 C4.5508095,5.18480691 5.27394976,5.66323465 6.29682458,5.52837827 C6.91510445,5.44689169 7.47091753,5.12544927 7.94886173,4.57290259 C8.16176392,4.32680271 8.3544919,4.04628582 8.53754941,3.71606992 Z M8.53754941,6.66909497 L7.54159035,6.15773395 C7.38113098,6.42867042 7.20572402,6.65560933 7.02004059,6.83248474 C6.74106095,7.0982925 6.44700748,7.25316913 6.1460862,7.29281901 C5.56628628,7.36925501 5.15972188,7.18430904 4.56777704,6.79262659 C3.94606326,6.38131446 3.24138025,5.91512253 2.24110356,6.04688091 C1.63403439,6.12688358 1.07809507,6.45434 0.588687678,7.02013825 C0.375835989,7.2662122 0.183108001,7.5467292 0,7.87697127 L0.995933809,8.38833229 C1.15634268,8.11723962 1.33159814,7.8901445 1.51710483,7.71308685 C1.79161534,7.45100196 2.08569406,7.29771341 2.39116022,7.25743872 C2.47887632,7.24590563 2.56257779,7.24020417 2.64347658,7.24020417 C3.10149907,7.24020417 3.46960877,7.42249466 3.96979762,7.75341361 C4.5508095,8.13783256 5.27394976,8.61620843 6.29682458,8.48140406 C6.91510445,8.39991745 7.47091753,8.07844887 7.94886173,7.52592799 C8.16178917,7.27977594 8.35451715,6.99925893 8.53754941,6.66909497 Z" id="Fill-1"></path>
            </g>
            <path d="M60.4594335,21.7872719 L60.4594335,22.9835336 L52.9328063,22.9835336 L52.9328063,21.7872719 L60.4594335,21.7872719 Z M60.4594335,24.8420116 L60.4594335,26.0596351 L52.9328063,26.0596351 L52.9328063,24.8420116 L60.4594335,24.8420116 Z M66.2685752,17.1802403 L73.6220106,17.1802403 L73.6220106,18.4619493 L67.7046239,18.4619493 L67.7046239,21.6377392 L72.9075944,21.6377392 L72.9075944,22.8838451 L67.7046239,22.8838451 L67.7046239,27.6404094 L66.2685752,27.6404094 L66.2685752,17.1802403 Z M82.5125232,17.0093458 C81.7572107,18.4572094 81.2665055,19.522916 81.0403928,20.2064976 C80.6988184,21.2461111 80.5280338,22.4471079 80.5280338,23.8095238 C80.5280338,25.186181 80.7228726,26.4441421 81.1125561,27.5834446 C81.3531015,28.2860145 81.8269688,29.2971303 82.5341722,30.6168224 L81.6609968,30.6168224 C80.9586043,29.534485 80.5232237,28.8437932 80.354842,28.5447263 C80.1864602,28.2456594 80.0036485,27.8397889 79.8064012,27.3271028 C79.5369904,26.6245329 79.3493678,25.8745033 79.2435279,25.0769915 C79.1906079,24.6639944 79.1641483,24.2699915 79.1641483,23.8949711 C79.1641483,22.4898313 79.3878521,21.2389908 79.8352665,20.1424121 C80.1191101,19.4445893 80.7108428,18.4002443 81.6104825,17.0093458 L82.5125232,17.0093458 Z M125.348629,29.1286159 C125.680582,29.0716508 125.913908,28.8414202 126.048613,28.4379172 C126.120777,28.224298 126.156858,28.0178025 126.156858,27.8184246 C126.156858,27.7851949 126.155655,27.755526 126.15325,27.729417 C126.150844,27.703308 126.144831,27.6736391 126.135209,27.6404094 L125.348629,27.6404094 L125.348629,26.0881175 L126.892923,26.0881175 L126.892923,27.5264798 C126.892923,28.0913839 126.777463,28.5874478 126.546539,29.0146862 C126.315616,29.4419247 125.916316,29.7053845 125.348629,29.8050734 L125.348629,29.1286159 Z M165.695103,30.6168224 C166.460038,29.1452233 166.953148,28.0723962 167.17445,27.3983089 C167.511214,26.3776837 167.679593,25.1814339 167.679593,23.8095238 C167.679593,22.4376137 167.484754,21.1820262 167.09507,20.0427236 C166.854525,19.3401537 166.380658,18.3290379 165.673454,17.0093458 L166.54663,17.0093458 C167.28751,18.1771309 167.73612,18.8974916 167.892474,19.1704495 C168.048829,19.4434074 168.218411,19.8196089 168.401225,20.2990654 C168.632149,20.8924522 168.79692,21.4787095 168.895544,22.0578549 C168.994167,22.6370004 169.043478,23.1947755 169.043478,23.7311972 C169.043478,25.1363369 168.817369,26.3895509 168.365144,27.4908767 C168.0813,28.1981937 167.491973,29.2401652 166.597144,30.6168224 L165.695103,30.6168224 Z" id="=-F-(-,-)" fill="#15112C"></path>
            <g id="Group-6" transform="translate(84.521739, 5.102804)">
                <rect id="Rectangle" fill="#5645F5" x="0" y="0.203405003" width="37.5652174" height="37.8504673"></rect>
                <g id="Group" transform="translate(5.843478, 11.775701)" fill="#FFFFFF">
                    <path d="M1.91413043,8.72334988 C1.9521741,9.40785973 2.11249859,9.96367339 2.3951087,10.3908075 C2.93315486,11.190315 3.88151495,11.5900628 5.24021739,11.5900628 C5.84891609,11.5900628 6.40325837,11.5024468 6.90326087,11.3272123 C7.87065701,10.9876954 8.35434783,10.3798598 8.35434783,9.50368721 C8.35434783,8.84655775 8.15054552,8.37836004 7.74293478,8.09908002 C7.32988924,7.82527608 6.68315658,7.58707023 5.80271739,7.38445532 L4.18043478,7.01482185 C3.12064687,6.77387438 2.37065437,6.50828854 1.93043478,6.21805637 C1.16956141,5.71425712 0.789130435,4.96130758 0.789130435,3.95918516 C0.789130435,2.87492156 1.16140932,1.98507211 1.90597826,1.28961011 C2.6505472,0.5941481 3.70488448,0.246422313 5.06902174,0.246422313 C6.3244628,0.246422313 7.39102822,0.551709126 8.26875,1.16229191 C9.14647178,1.77287469 9.58532609,2.7489711 9.58532609,4.0906104 L8.06086957,4.0906104 C7.97934742,3.4444331 7.80543611,2.9488554 7.53913043,2.60386244 C7.04456274,1.97411338 6.20489723,1.65924357 5.0201087,1.65924357 C4.06358217,1.65924357 3.37608905,1.86185545 2.9576087,2.26708528 C2.53912834,2.67231511 2.3298913,3.14325082 2.3298913,3.67990654 C2.3298913,4.27132305 2.57445408,4.70392679 3.06358696,4.97773072 C3.38424073,5.15296525 4.10977696,5.37200511 5.24021739,5.63485689 L6.91956522,6.02091852 C7.72935187,6.20710519 8.35434562,6.46173904 8.79456522,6.78482769 C9.55543859,7.3488638 9.93586957,8.1675253 9.93586957,9.24083674 C9.93586957,10.577 9.45353743,11.5325614 8.4888587,12.1075496 C7.52417996,12.6825379 6.40326726,12.9700277 5.12608696,12.9700277 C3.63694908,12.9700277 2.47119986,12.586708 1.62880435,11.820057 C0.786408832,11.058882 0.373369484,10.0266566 0.389673913,8.72334988 L1.91413043,8.72334988 Z" id="S"></path>
                    <path d="M11.6470109,7.17807663 L12.8443614,7.17807663 L16.6249321,13.2872965 L16.6249321,7.17807663 L17.5879076,7.17807663 L17.5879076,14.7196262 L16.4516984,14.7196262 L12.6150815,8.61554012 L12.6150815,14.7196262 L11.6470109,14.7196262 L11.6470109,7.17807663 Z M18.8209239,11.315918 L21.3786685,11.315918 L21.3786685,12.2656706 L18.8209239,12.2656706 L18.8209239,11.315918 Z M22.8613451,9.5139548 L22.8613451,8.80549065 C23.5237126,8.74046222 23.9856645,8.63179791 24.2472147,8.47949447 C24.5087649,8.32719103 24.7040754,7.96697312 24.8331522,7.39882995 L25.5566576,7.39882995 L25.5566576,14.7196262 L24.5783967,14.7196262 L24.5783967,9.5139548 L22.8613451,9.5139548 Z" id="N-1"></path>
                </g>
            </g>
            <g id="Group-12" transform="translate(9.391304, 5.102804)">
                <rect id="Rectangle" fill="#221B62" x="0" y="0.203405003" width="37.5652174" height="37.8504673"></rect>
                <g id="Group" transform="translate(10.017391, 11.775701)" fill="#FFFFFF">
                    <path d="M1.91413043,8.72334988 C1.9521741,9.40785973 2.11249859,9.96367339 2.3951087,10.3908075 C2.93315486,11.190315 3.88151495,11.5900628 5.24021739,11.5900628 C5.84891609,11.5900628 6.40325837,11.5024468 6.90326087,11.3272123 C7.87065701,10.9876954 8.35434783,10.3798598 8.35434783,9.50368721 C8.35434783,8.84655775 8.15054552,8.37836004 7.74293478,8.09908002 C7.32988924,7.82527608 6.68315658,7.58707023 5.80271739,7.38445532 L4.18043478,7.01482185 C3.12064688,6.77387438 2.37065438,6.50828854 1.93043478,6.21805637 C1.16956141,5.71425712 0.789130435,4.96130758 0.789130435,3.95918516 C0.789130435,2.87492156 1.16140932,1.98507211 1.90597826,1.28961011 C2.6505472,0.5941481 3.70488448,0.246422313 5.06902174,0.246422313 C6.3244628,0.246422313 7.39102822,0.551709126 8.26875,1.16229191 C9.14647178,1.77287469 9.58532609,2.7489711 9.58532609,4.0906104 L8.06086957,4.0906104 C7.97934742,3.4444331 7.80543611,2.9488554 7.53913043,2.60386244 C7.04456274,1.97411338 6.20489723,1.65924357 5.0201087,1.65924357 C4.06358217,1.65924357 3.37608905,1.86185545 2.9576087,2.26708528 C2.53912834,2.67231511 2.3298913,3.14325082 2.3298913,3.67990654 C2.3298913,4.27132305 2.57445408,4.70392679 3.06358696,4.97773072 C3.38424073,5.15296525 4.10977696,5.37200511 5.24021739,5.63485689 L6.91956522,6.02091852 C7.72935188,6.20710519 8.35434563,6.46173904 8.79456522,6.78482769 C9.55543859,7.3488638 9.93586957,8.1675253 9.93586957,9.24083674 C9.93586957,10.577 9.45353743,11.5325614 8.4888587,12.1075496 C7.52417996,12.6825379 6.40326726,12.9700277 5.12608696,12.9700277 C3.63694908,12.9700277 2.47119986,12.586708 1.62880435,11.820057 C0.786408832,11.058882 0.373369484,10.0266566 0.389673913,8.72334988 L1.91413043,8.72334988 Z" id="S"></path>
                    <polygon id="N" points="11.6470109 7.17807663 12.8443614 7.17807663 16.6249321 13.2872965 16.6249321 7.17807663 17.5879076 7.17807663 17.5879076 14.7196262 16.4516984 14.7196262 12.6150815 8.61554012 12.6150815 14.7196262 11.6470109 14.7196262"></polygon>
                </g>
            </g>
        </g>
        <text id="Transactions-Change" font-family="Helvetica" font-size="30" font-weight="normal" fill="#15112C">
            <tspan x="235" y="61">Transactions Change State</tspan>
        </text>
    </g>
</svg>
