<?xml version="1.0" encoding="UTF-8"?>
<svg width="13px" height="13px" viewBox="0 0 13 13" version="1.1" xmlns="http://www.w3.org/2000/svg" xmlns:xlink="http://www.w3.org/1999/xlink">
    <title>Arrow-left</title>
    <defs>
        <path d="M76.0429543,95.0859087 C76.1340998,95.0859087 76.2161309,95.058565 76.2890475,95.0038776 L76.2890475,95.0038776 L76.8359212,94.4570039 C76.8906086,94.4023166 76.9179523,94.3293999 76.9179523,94.2382545 C76.9179523,94.147109 76.8906086,94.0650779 76.8359212,93.9921613 L76.8359212,93.9921613 L72.5976501,89.7538901 L81.9218466,89.7538901 C82.0129921,89.7538901 82.0904661,89.721989 82.1542679,89.6581873 C82.2180697,89.5943855 82.2499708,89.5169114 82.2499708,89.4257659 L82.2499708,89.4257659 L82.2499708,88.6601428 C82.2499708,88.5689973 82.2180697,88.4915232 82.1542679,88.4277214 C82.0904661,88.3639196 82.0129921,88.3320185 81.9218466,88.3320185 L81.9218466,88.3320185 L72.5976501,88.3320185 L76.8359212,84.0937474 C76.8906086,84.0208308 76.9179523,83.9387997 76.9179523,83.8476542 C76.9179523,83.7565088 76.8906086,83.6835921 76.8359212,83.6289048 L76.8359212,83.6289048 L76.2890475,83.0820311 C76.2161309,83.0273437 76.1340998,83 76.0429543,83 C75.9518089,83 75.8788922,83.0273437 75.8242049,83.0820311 L75.8242049,83.0820311 L70.1093747,88.8242049 C70.0364581,88.8788922 70,88.9518089 70,89.0429543 C70,89.1340998 70.0364581,89.2070165 70.1093747,89.2617038 L70.1093747,89.2617038 L75.8242049,95.0038776 C75.8788922,95.058565 75.9518089,95.0859087 76.0429543,95.0859087 Z" id="path-1"></path>
    </defs>
    <g id="---Developers" stroke="none" stroke-width="1" fill="none" fill-rule="evenodd">
        <g id="Documentation---Inline-Command---Wallet-+-App" transform="translate(-1213.000000, -247.000000)" fill-rule="nonzero">
            <g id="Group-4" transform="translate(1143.000000, 164.000000)">
                <g id="Arrow-left" transform="translate(76.124985, 89.042954) rotate(-360.000000) translate(-76.124985, -89.042954) ">
                    <use fill="#757575" xlink:href="#path-1"></use>
                    <use fill="#7E8FA5" xlink:href="#path-1"></use>
                </g>
            </g>
        </g>
    </g>
</svg>
