<?xml version="1.0" encoding="UTF-8"?>
<svg width="13px" height="13px" viewBox="0 0 13 13" version="1.1" xmlns="http://www.w3.org/2000/svg" xmlns:xlink="http://www.w3.org/1999/xlink">
    <title>a</title>
    <defs>
        <path d="M136.042954,12.7929669 C136.1341,12.7929669 136.216131,12.7656232 136.289048,12.7109358 L136.289048,12.7109358 L136.835921,12.1640621 C136.890609,12.1093747 136.917952,12.0364581 136.917952,11.9453126 C136.917952,11.8541672 136.890609,11.7721361 136.835921,11.6992195 L136.835921,11.6992195 L132.59765,7.46094832 L141.921847,7.46094832 C142.012992,7.46094832 142.090466,7.42904722 142.154268,7.36524543 C142.21807,7.30144363 142.249971,7.22396958 142.249971,7.1328241 L142.249971,7.1328241 L142.249971,6.36720093 C142.249971,6.27605545 142.21807,6.1985814 142.154268,6.13477961 C142.090466,6.07097782 142.012992,6.03907671 141.921847,6.03907671 L141.921847,6.03907671 L132.59765,6.03907671 L136.835921,1.80080557 C136.890609,1.72788893 136.917952,1.64585788 136.917952,1.5547124 C136.917952,1.46356693 136.890609,1.39065029 136.835921,1.33596293 L136.835921,1.33596293 L136.289048,0.789089229 C136.216131,0.734401859 136.1341,0.707058175 136.042954,0.707058175 C135.951809,0.707058175 135.878892,0.734401859 135.824205,0.789089229 L135.824205,0.789089229 L130.109375,6.53126304 C130.036458,6.58595041 130,6.65886704 130,6.75001252 C130,6.84115799 130.036458,6.91407463 130.109375,6.968762 L130.109375,6.968762 L135.824205,12.7109358 C135.878892,12.7656232 135.951809,12.7929669 136.042954,12.7929669 Z" id="path-1"></path>
    </defs>
    <g id="---Developers" stroke="none" stroke-width="1" fill="none" fill-rule="evenodd">
        <g id="Documentation---Wallet-/-App-Overview" transform="translate(-498.000000, -1511.000000)" fill-rule="nonzero">
            <g id="Group-4" transform="translate(368.000000, 1511.000000)">
                <g id="a" transform="translate(136.124985, 6.750013) rotate(-180.000000) translate(-136.124985, -6.750013) ">
                    <use fill="#757575" xlink:href="#path-1"></use>
                    <use fill="#7E8FA5" xlink:href="#path-1"></use>
                </g>
            </g>
        </g>
    </g>
</svg>
