<?xml version="1.0" encoding="UTF-8"?>
<svg width="12px" height="15px" viewBox="0 0 12 15" version="1.1" xmlns="http://www.w3.org/2000/svg" xmlns:xlink="http://www.w3.org/1999/xlink">
    <title>A26E11D2-472E-4DAC-88F4-69AA357F76A9</title>
    <g id="---Developers" stroke="none" stroke-width="1" fill="none" fill-rule="evenodd">
        <g id="Icons" transform="translate(-404.000000, -445.000000)" fill="#15112C" fill-rule="nonzero">
            <g id="Copy" transform="translate(404.000000, 445.000000)">
                <g id="Group" transform="translate(0.000000, 0.222222)">
                    <path d="M9.70333333,3.20103226 C9.70333333,2.59067742 9.21644444,2.09593548 8.61577778,2.09593548 L7.98155556,2.09593548 L1.16044444,2.09593548 C0.568666667,2.09593548 0.0888888889,2.58345161 0.0888888889,3.18477419 L0.0888888889,12.8549355 C0.0888888889,13.4562581 0.568666667,13.9437742 1.16044444,13.9437742 L8.63177778,13.9437742 C9.22355556,13.9437742 9.70333333,13.4562581 9.70333333,12.8549355 L9.70333333,3.81522581 L9.70333333,3.20103226 Z M8.89711111,4.2246129 L8.89711111,12.4970323 C8.89711111,12.8434194 8.62066667,13.1243226 8.27977778,13.1243226 L1.51244444,13.1243226 C1.17155556,13.1243226 0.895111111,12.8434194 0.895111111,12.4970323 L0.895111111,3.54222581 C0.895111111,3.19583871 1.17155556,2.91493548 1.51244444,2.91493548 L7.57866667,2.91493548 L8.266,2.91493548 C8.602,2.91493548 8.87622222,3.18793548 8.88311111,3.52935484 L8.89711111,4.2246129 Z" id="Shape"></path>
                    <g transform="translate(2.000000, 4.516129)" id="Path">
                        <path d="M5.40466667,0.759612903 L0.387777778,0.759612903 C0.216444444,0.759612903 0.0777777778,0.618483871 0.0777777778,0.444612903 C0.0777777778,0.270516129 0.216666667,0.129612903 0.387777778,0.129612903 L5.40466667,0.129612903 C5.576,0.129612903 5.71466667,0.270741935 5.71466667,0.444612903 C5.71466667,0.618483871 5.57577778,0.759612903 5.40466667,0.759612903 Z"></path>
                        <path d="M5.40466667,2.289 L0.387777778,2.289 C0.216444444,2.289 0.0777777778,2.14787097 0.0777777778,1.974 C0.0777777778,1.79990323 0.216666667,1.659 0.387777778,1.659 L5.40466667,1.659 C5.576,1.659 5.71466667,1.80012903 5.71466667,1.974 C5.71466667,2.14809677 5.57577778,2.289 5.40466667,2.289 Z"></path>
                        <path d="M5.40466667,3.8186129 L0.387777778,3.8186129 C0.216444444,3.8186129 0.0777777778,3.67748387 0.0777777778,3.5036129 C0.0777777778,3.32974194 0.216666667,3.1886129 0.387777778,3.1886129 L5.40466667,3.1886129 C5.576,3.1886129 5.71466667,3.32974194 5.71466667,3.5036129 C5.71466667,3.67748387 5.57577778,3.8186129 5.40466667,3.8186129 Z"></path>
                        <path d="M5.40466667,5.348 L0.387777778,5.348 C0.216444444,5.348 0.0777777778,5.20687097 0.0777777778,5.033 C0.0777777778,4.85912903 0.216666667,4.718 0.387777778,4.718 L5.40466667,4.718 C5.576,4.718 5.71466667,4.85912903 5.71466667,5.033 C5.71466667,5.20687097 5.57577778,5.348 5.40466667,5.348 Z"></path>
                        <path d="M5.40466667,6.8776129 L0.387777778,6.8776129 C0.216444444,6.8776129 0.0777777778,6.73648387 0.0777777778,6.5626129 C0.0777777778,6.38874194 0.216666667,6.2476129 0.387777778,6.2476129 L5.40466667,6.2476129 C5.576,6.2476129 5.71466667,6.38874194 5.71466667,6.5626129 C5.71466667,6.73648387 5.57577778,6.8776129 5.40466667,6.8776129 Z"></path>
                    </g>
                    <path d="M10.8235556,0.0564516129 L10.1893333,0.0564516129 L3.36822222,0.0564516129 C2.77644444,0.0564516129 2.29666667,0.543967742 2.29666667,1.14529032 L2.29666667,1.58606452 L3.10288889,1.58606452 L3.10288889,1.50296774 C3.10288889,1.15658065 3.37933333,0.875677419 3.72022222,0.875677419 L9.78644444,0.875677419 L10.4737778,0.875677419 C10.8097778,0.875677419 11.084,1.14867742 11.0908889,1.49009677 L11.1048889,2.18535484 L11.1048889,10.4577742 C11.1048889,10.8041613 10.8284444,11.0850645 10.4875556,11.0850645 L10.2051111,11.0850645 L10.2051111,11.9042903 L10.8395556,11.9042903 C11.4313333,11.9042903 11.9111111,11.4167742 11.9111111,10.8154516 L11.9111111,1.77574194 L11.9111111,1.16154839 C11.9111111,0.551193548 11.4242222,0.0564516129 10.8235556,0.0564516129 Z" id="Path"></path>
                </g>
            </g>
        </g>
    </g>
</svg>
