<?xml version="1.0" encoding="UTF-8"?>
<svg width="14px" height="14px" viewBox="0 0 14 14" version="1.1" xmlns="http://www.w3.org/2000/svg" xmlns:xlink="http://www.w3.org/1999/xlink">
    <title>C5CEF95C-2D16-4C5A-8851-7733CAF6BE06</title>
    <g id="---Developers" stroke="none" stroke-width="1" fill="none" fill-rule="evenodd">
        <g id="Icons" transform="translate(-306.000000, -127.000000)" fill="#ffffff" fill-rule="nonzero">
            <path d="M318.11462,132.246274 C318.205701,132.246274 318.287674,132.209842 318.360539,132.136977 L318.360539,132.136977 L319.617459,130.880057 C319.872486,130.62503 320,130.315354 320,129.951029 C320,129.586705 319.872486,129.277028 319.617459,129.022001 L319.617459,129.022001 L317.977999,127.382541 C317.722972,127.127514 317.413295,127 317.048971,127 C316.684646,127 316.37497,127.127514 316.119943,127.382541 L316.119943,127.382541 L314.863023,128.639461 C314.790158,128.712326 314.753726,128.794299 314.753726,128.88538 C314.753726,128.976461 314.790158,129.049326 314.863023,129.103974 L314.863023,129.103974 L317.896026,132.136977 C317.950674,132.209842 318.023539,132.246274 318.11462,132.246274 Z M306.667997,141 L306.775018,140.990064 L310.108588,140.388928 L317.267566,133.22995 C317.340431,133.157085 317.376863,133.075112 317.376863,132.984031 C317.376863,132.89295 317.340431,132.820085 317.267566,132.765437 L317.267566,132.765437 L314.234563,129.732434 C314.179915,129.659569 314.10705,129.623137 314.015969,129.623137 C313.924888,129.623137 313.842915,129.659569 313.77005,129.732434 L313.77005,129.732434 L306.611072,136.891412 L306.009936,140.224982 C305.973504,140.443577 306.03726,140.634847 306.201206,140.798794 C306.365153,140.96274 306.556423,141.026496 306.775018,140.990064 L306.667997,141 Z M307.977289,139.89709 L307.10291,139.022711 L307.430802,137.273953 L308.414478,137.273953 L308.414478,138.585522 L309.726047,138.585522 L309.726047,139.569198 L307.977289,139.89709 Z" id="Edit"></path>
        </g>
    </g>
</svg>
