<?xml version="1.0" encoding="utf-8"?>
<!-- Generator: Adobe Illustrator 24.3.0, SVG Export Plug-In . SVG Version: 6.00 Build 0)  -->
<svg version="1.1" id="Layer_1" xmlns="http://www.w3.org/2000/svg" xmlns:xlink="http://www.w3.org/1999/xlink" x="0px" y="0px"
	 viewBox="0 0 258 64.5" style="enable-background:new 0 0 258 64.5;" xml:space="preserve">
<style type="text/css">
	.st0{fill:#39298C;}
</style>
<path class="st0" d="M108.8,1.4c-0.1,0-0.2,0.1-0.2,0.2c0,0,0,0,0,0v20.7c0,0.3-0.3,0.6-0.7,0.6c-0.2,0-0.3-0.1-0.4-0.2
	c-3.3-3-7.6-4.7-12.1-4.6c-12.3,0-20.6,9.3-20.6,23.1c0,14,8.1,23.1,20.6,23.1c4.5,0,9.6-2.4,11.8-4.6c0.2-0.2,0.4-0.3,0.7-0.3
	c0.3,0,0.6,0.2,0.6,0.5l0.9,3.2c0.1,0.2,0.1,0.3,0.4,0.3h7.6c0.1,0,0.2-0.1,0.2-0.2V1.6c0-0.1-0.1-0.2-0.2-0.2c0,0,0,0,0,0H108.8z
	 M96.7,56.2c-7.9,0-12.7-5.7-12.7-15s4.9-14.9,12.7-14.9c7.5,0,11.9,5.4,11.9,14.9C108.6,50.5,104.1,56.2,96.7,56.2z"/>
<path class="st0" d="M128.6,18.1h8.8c0.1,0,0.2,0.1,0.2,0.2v44.9c0,0.1-0.1,0.2-0.2,0.2h-8.8c-0.1,0-0.2-0.1-0.2-0.2V18.3
	C128.3,18.2,128.4,18.1,128.6,18.1z"/>
<rect x="128.5" y="2.9" class="st0" width="9.1" height="9.2"/>
<path class="st0" d="M165.1,18.1c-13,0-21.5,9.1-21.5,23.1c0,13.8,8.6,23.1,21.5,23.1c10.2,0,17.9-5.2,19.9-13.6l0,0
	c-0.1-0.1-0.1-0.1-0.2-0.1h-9.2c-0.2,0-0.4,0.1-0.4,0.3c-1.8,3.5-5.2,5.3-10.1,5.3c-6.8,0-11.9-4.7-11.9-11c0-0.4,0.3-0.6,0.6-0.7
	c0,0,0,0,0.1,0H186c0.1,0,0.1,0,0.2-0.3c0.2-1,0.3-2,0.3-3C186.6,27.2,178.1,18.1,165.1,18.1z M176.7,37.3h-23.4
	c-0.5-3.3,2.9-10.9,11.8-10.9C173,26.4,177.1,32.1,176.7,37.3z"/>
<path class="st0" d="M240.2,18.1c-4.7,0-9.2,1.9-12.5,5.3c-0.2,0.2-0.4,0.3-0.6,0.3c-0.2,0-0.4-0.1-0.6-0.3c-3.4-3.8-6.8-5.3-12-5.3
	c-4,0.1-7.8,1.8-10.5,4.7c-0.2,0.2-0.4,0.3-0.7,0.3c-0.3,0-0.6-0.2-0.6-0.5l-0.9-3.3c-0.1-0.3-0.2-0.4-0.4-0.4h-7.5
	c-0.1,0-0.2,0.1-0.2,0.2c0,0,0,0,0,0v44c0,0.1,0.1,0.2,0.2,0.2c0,0,0,0,0.1,0h8.6c0.1,0,0.2-0.1,0.2-0.1V38.7c0-8,3.3-12.4,9.2-12.4
	c6.1,0,9.2,4.2,9.2,12.4v24.5c0,0.2,0.1,0.2,0.2,0.2h8.7c0.1,0,0.2-0.1,0.2-0.2V38.7c0-5.3,0.9-12.4,9.1-12.4
	c6.1,0,9.3,4.2,9.3,12.4v24.5c0,0.1,0.1,0.2,0.2,0.2c0,0,0,0,0.1,0h8.6c0.1,0,0.2,0,0.2-0.2c0,0,0-0.1,0-0.1V38.5
	C257.7,25.1,251.7,18.1,240.2,18.1z"/>
<path class="st0" d="M61.3,57c1.7-2,3.2-4.1,4.5-6.4l-7.6-3.8c-1.1,1.8-2.4,3.5-4,5c-1.8,1.8-4.2,3-6.7,3.4
	c-4.4,0.6-7.6-0.8-12.1-3.7C30.7,48.5,25.3,45,17.6,46c-4.6,0.6-8.9,3-12.7,7.2c-1.7,2-3.2,4.1-4.5,6.4l7.6,3.8c1.1-1.8,2.4-3.5,4-5
	c1.8-1.8,4.2-3,6.7-3.4c0.6-0.1,1.3-0.1,1.9-0.1c3.5,0,6.3,1.4,10.2,3.8c4.4,2.9,10,6.4,17.8,5.4C53.4,63.5,57.7,61.1,61.3,57z
	 M61.3,34.3c1.7-2,3.2-4.1,4.5-6.4l-7.6-3.8c-1.1,1.8-2.4,3.5-4,5c-1.8,1.8-4.2,3-6.7,3.4c-4.4,0.6-7.6-0.8-12.1-3.7
	c-4.8-3-10.2-6.5-17.8-5.5c-4.6,0.6-8.9,3-12.7,7.2c-1.7,2-3.2,4.1-4.5,6.4l7.6,3.8c1.1-1.8,2.4-3.5,4-5c1.8-1.8,4.2-3,6.7-3.4
	c0.6-0.1,1.3-0.1,1.9-0.1c3.5,0,6.3,1.4,10.2,3.8c4.4,2.9,10,6.4,17.8,5.4C53.4,40.7,57.7,38.4,61.3,34.3L61.3,34.3z M61.3,11.5
	c1.7-2,3.2-4.1,4.5-6.4l-7.6-3.8c-1.1,1.8-2.4,3.5-4,5c-1.8,1.8-4.2,3-6.7,3.4c-4.4,0.6-7.6-0.8-12.1-3.7C30.7,3,25.3-0.4,17.6,0.5
	c-4.6,0.6-8.9,3-12.7,7.2c-1.7,2-3.2,4.1-4.5,6.4l7.6,3.8c1.1-1.8,2.4-3.5,4-5c1.8-1.8,4.2-3,6.7-3.4c0.6-0.1,1.3-0.1,1.9-0.1
	c3.5,0,6.3,1.4,10.2,3.8c4.4,2.9,10,6.4,17.8,5.4C53.4,18,57.7,15.6,61.3,11.5z"/>
</svg>
