<?xml version="1.0" encoding="UTF-8"?>
<svg width="16px" height="12px" viewBox="0 0 16 12" version="1.1" xmlns="http://www.w3.org/2000/svg" xmlns:xlink="http://www.w3.org/1999/xlink">
    <title>e</title>
    <g id="---Developers" stroke="none" stroke-width="1" fill="none" fill-rule="evenodd">
        <g id="Documentation---Home-Page---Dark-Mode" transform="translate(-1153.000000, -2605.000000)" fill="#FFFFFF" fill-rule="nonzero">
            <g id="Group-11" transform="translate(0.000000, 2427.000000)">
                <g id="Group-15" transform="translate(1125.000000, 160.000000)">
                    <g id="Group-4">
                        <g id="Group-17" transform="translate(28.000000, 7.000000)">
                            <path d="M14.5,23 C14.9166665,23 15.2708335,22.8541665 15.5625,22.5625 C15.8541665,22.2708335 16,21.9166665 16,21.5 L16,21.5 L16,12.5 C16,12.0833335 15.8541665,11.7291665 15.5625,11.4375 C15.2708335,11.1458335 14.9166665,11 14.5,11 L14.5,11 L1.5,11 C1.08333349,11 0.729166508,11.1458335 0.4375,11.4375 C0.145833492,11.7291665 0,12.0833335 0,12.5 L0,12.5 L0,21.5 C0,21.9166665 0.145833492,22.2708335 0.4375,22.5625 C0.729166508,22.8541665 1.08333349,23 1.5,23 L1.5,23 L14.5,23 Z M8,19 C7.72916651,19 7.39583349,18.8645835 7,18.59375 C6.75,18.4479165 6.41666651,18.1979165 6,17.84375 L6,17.84375 L5.71875,17.59375 C3.30208349,15.6770835 1.72916651,14.40625 1,13.78125 L1,13.78125 L1,12.5 C1,12.3541665 1.046875,12.234375 1.140625,12.140625 C1.234375,12.046875 1.35416651,12 1.5,12 L1.5,12 L14.5,12 C14.6458335,12 14.765625,12.046875 14.859375,12.140625 C14.953125,12.234375 15,12.3541665 15,12.5 L15,12.5 L15,13.78125 C14.2708335,14.40625 12.6979165,15.6770835 10.28125,17.59375 L10.28125,17.59375 L9.96875,17.84375 C9.55208349,18.1979165 9.22916651,18.4479165 9,18.59375 C8.60416651,18.8645835 8.27083349,19 8,19 Z M14.5,22 L1.5,22 C1.35416651,22 1.234375,21.9524887 1.140625,21.8574661 C1.046875,21.7624434 1,21.6410258 1,21.4932127 L1,21.4932127 L1,15 C1.72916651,15.591252 3.09375,16.6998493 5.09375,18.3257919 L5.09375,18.3257919 L5.40625,18.5791855 C5.88541651,19.0015081 6.28125,19.3076923 6.59375,19.4977376 C7.11458349,19.8144796 7.58333349,19.9728507 8,19.9728507 C8.41666651,19.9728507 8.88541651,19.8144796 9.40625,19.4977376 C9.69791651,19.3076923 10.09375,19.0015081 10.59375,18.5791855 L10.59375,18.5791855 L10.90625,18.3257919 C12.90625,16.6998493 14.2708335,15.591252 15,15 L15,15 L15,21.4932127 C15,21.6410258 14.953125,21.7624434 14.859375,21.8574661 C14.765625,21.9524887 14.6458335,22 14.5,22 L14.5,22 Z" id="e"></path>
                        </g>
                    </g>
                </g>
            </g>
        </g>
    </g>
</svg>
