<?xml version="1.0" encoding="UTF-8"?>
<svg width="16px" height="16px" viewBox="0 0 16 16" version="1.1" xmlns="http://www.w3.org/2000/svg" xmlns:xlink="http://www.w3.org/1999/xlink">
    <title>DF3A9311-34C6-4A97-961A-27AC10F65402</title>
    <g id="---Developers" stroke="none" stroke-width="1" fill="none" fill-rule="evenodd">
        <g id="Icons" transform="translate(-146.000000, -1055.000000)" fill="#A4ACBA" fill-rule="nonzero">
            <path d="M160.90625,1071 C161.010417,1071 161.104167,1070.95833 161.1875,1070.875 L161.1875,1070.875 L161.90625,1070.1875 C161.96875,1070.10417 162,1070.01042 162,1069.90625 C162,1069.80208 161.96875,1069.71875 161.90625,1069.65625 L161.90625,1069.65625 L158.09375,1065.84375 C158.03125,1065.78125 157.947917,1065.75 157.84375,1065.75 L157.84375,1065.75 L157.40625,1065.75 C157.90625,1065.16667 158.296875,1064.51042 158.578125,1063.78125 C158.859375,1063.05208 159,1062.29167 159,1061.5 C159,1060.3125 158.708333,1059.22396 158.125,1058.23438 C157.541667,1057.24479 156.755208,1056.45833 155.765625,1055.875 C154.776042,1055.29167 153.6875,1055 152.5,1055 C151.3125,1055 150.223958,1055.29167 149.234375,1055.875 C148.244792,1056.45833 147.458333,1057.24479 146.875,1058.23438 C146.291667,1059.22396 146,1060.3125 146,1061.5 C146,1062.6875 146.291667,1063.77604 146.875,1064.76562 C147.458333,1065.75521 148.244792,1066.54167 149.234375,1067.125 C150.223958,1067.70833 151.3125,1068 152.5,1068 C153.291667,1068 154.052083,1067.85938 154.78125,1067.57812 C155.510417,1067.29688 156.166667,1066.90625 156.75,1066.40625 L156.75,1066.40625 L156.75,1066.84375 C156.75,1066.92708 156.78125,1067.01042 156.84375,1067.09375 L156.84375,1067.09375 L160.65625,1070.875 C160.71875,1070.95833 160.802083,1071 160.90625,1071 Z M152.5,1066.5 C151.604167,1066.5 150.770833,1066.27604 150,1065.82812 C149.229167,1065.38021 148.619792,1064.77083 148.171875,1064 C147.723958,1063.22917 147.5,1062.39583 147.5,1061.5 C147.5,1060.60417 147.723958,1059.77083 148.171875,1059 C148.619792,1058.22917 149.229167,1057.61979 150,1057.17188 C150.770833,1056.72396 151.604167,1056.5 152.5,1056.5 C153.395833,1056.5 154.229167,1056.72396 155,1057.17188 C155.770833,1057.61979 156.380208,1058.22917 156.828125,1059 C157.276042,1059.77083 157.5,1060.60417 157.5,1061.5 C157.5,1062.39583 157.276042,1063.22917 156.828125,1064 C156.380208,1064.77083 155.770833,1065.38021 155,1065.82812 C154.229167,1066.27604 153.395833,1066.5 152.5,1066.5 Z" id="S"></path>
        </g>
    </g>
</svg>
