<?xml version="1.0" encoding="utf-8"?>
<!-- Generator: Adobe Illustrator 24.1.2, SVG Export Plug-In . SVG Version: 6.00 Build 0)  -->
<svg version="1.1" id="Layer_1" xmlns="http://www.w3.org/2000/svg" xmlns:xlink="http://www.w3.org/1999/xlink" x="0px" y="0px"
	 viewBox="0 0 45 46" style="enable-background:new 0 0 45 46;" xml:space="preserve">
<style type="text/css">
	.st0{fill-rule:evenodd;clip-rule:evenodd;fill:#282C35;}
	.st1{fill-rule:evenodd;clip-rule:evenodd;fill:#706AAF;}
	.st2{fill-rule:evenodd;clip-rule:evenodd;fill:#42318C;}
	.st3{fill-rule:evenodd;clip-rule:evenodd;fill:#EFEFEF;}
	.st4{fill-rule:evenodd;clip-rule:evenodd;fill:#AEAEAE;}
</style>
<g transform="translate(-1)">
	<g transform="translate(6.5)">
		<g>
			<circle id="a_1_" class="st0" cx="17" cy="22.6" r="18"/>
		</g>
		<circle id="a_2_" class="st0" cx="17" cy="22.6" r="18"/>
		<path class="st1" d="M26.5,12.2L0.6,16.2l2.9,18.1c3.3,3.8,8.2,6.2,13.6,6.2c5.1,0,9.8-2.2,13-5.6L26.5,12.2z"/>
		<path class="st2" d="M29.7,10.7L3.6,13l2.1,23.6c3.1,2.5,7.1,4,11.4,4c6,0,11.4-3,14.6-7.5L29.7,10.7z"/>
		<path class="st3" d="M33.2,14.7c-0.9-1.8-2-3.4-3.4-4.8H7v27.7c2.9,1.9,6.3,3.1,10,3.1c7.1,0,13.2-4.1,16.2-10.1V14.7z"/>
		<g>
			<path class="st4" d="M10.1,16.5h11v1h-11V16.5z"/>
			<path class="st4" d="M10.2,20h15.4v1H10.2V20z"/>
			<path class="st4" d="M10.1,21.8h19.5v1H10.1V21.8z"/>
			<path class="st4" d="M10.1,23.5h8.2v1h-8.2V23.5z"/>
			<path class="st4" d="M10.1,27.5h7v1h-7V27.5z"/>
			<path class="st4" d="M10.2,29h16.3l-1,1H10.2V29z"/>
			<path class="st4" d="M10.2,34h15.3v1H10.2V34z"/>
			<path class="st4" d="M10.1,30.6h8.2v1h-8.2V30.6z"/>
			<path class="st4" d="M10.1,32.2h12.4v1H10.1V32.2z"/>
			<path class="st4" d="M19.8,30.6h9.8v1h-9.8V30.6z"/>
			<path class="st4" d="M19.8,23.5H28v1h-8.2V23.5z"/>
		</g>
	</g>
</g>
</svg>
