<?xml version="1.0" encoding="UTF-8"?>
<svg width="22px" height="22px" viewBox="0 0 22 22" version="1.1" xmlns="http://www.w3.org/2000/svg" xmlns:xlink="http://www.w3.org/1999/xlink">
    <!-- Generator: Sketch 63.1 (92452) - https://sketch.com -->
    <title>Close</title>
    <desc>Created with Sketch.</desc>
    <g id="Member-Portal" stroke="none" stroke-width="1" fill="none" fill-rule="evenodd">
        <g id="Member-Portal-Mobile-Nav---Primary-Open" transform="translate(-14.000000, -17.000000)">
            <g id="UHF---Mobile-Default">
                <g id="Close" transform="translate(14.000000, 17.000000)">
                    <circle id="Oval" fill="#D8D8D8" opacity="0.300000012" cx="11" cy="11" r="11"></circle>
                    <path d="M7.63405982,15.8540677 L10.9999881,12.4874986 L14.3662215,15.8537625 C14.5609232,16.0484337 14.8768404,16.0484337 15.0718473,15.8537625 L15.8540414,15.0715683 C16.0487126,14.8768666 16.0487126,14.5609494 15.8540414,14.3659426 L12.4874723,11.0000143 L15.8537363,7.63378088 C16.0484074,7.43907919 16.0484074,7.12316198 15.8537363,6.92815512 L15.0715421,6.14596094 C14.8768404,5.95128977 14.5609232,5.95128977 14.3659163,6.14596094 L10.9999881,9.51253006 L7.63375465,6.14626611 C7.43905297,5.95159495 7.12313575,5.95159495 6.92812889,6.14626611 L6.14623989,6.92815512 C5.95156872,7.12282628 5.95156872,7.43877402 6.14623989,7.63378088 L9.51250383,11.0000143 L6.14623989,14.3662477 C5.95156872,14.5609494 5.95156872,14.8768666 6.14623989,15.0718735 L6.92843407,15.8540677 C7.12313575,16.0487388 7.43905297,16.0487388 7.63405982,15.8540677 Z" id="ï€" fill="#39298C" fill-rule="nonzero"></path>
                </g>
            </g>
        </g>
    </g>
</svg>
