<svg width="50" height="50" viewBox="0 0 50 50" fill="none" xmlns="http://www.w3.org/2000/svg">
<path d="M35.2222 30.6192C29.8279 36.0134 21.0817 36.0134 15.6875 30.6192C15.1134 30.0451 14.602 29.4314 14.15 28.7881C14.7142 30.5037 15.6743 32.1137 17.0368 33.4796C21.6855 38.1282 29.2209 38.1282 33.8695 33.4796C35.2321 32.117 36.1921 30.5037 36.7563 28.7881C36.3043 29.4314 35.7962 30.0451 35.2222 30.6192Z" fill="#4C5062"/>
<path d="M25.4532 37.2605C32.0273 37.2605 37.3568 31.9311 37.3568 25.3569C37.3568 18.7827 32.0273 13.4533 25.4532 13.4533C18.879 13.4533 13.5496 18.7827 13.5496 25.3569C13.5496 31.9311 18.879 37.2605 25.4532 37.2605Z" stroke="#A3ACB9" stroke-width="2" stroke-miterlimit="10" stroke-linecap="round" stroke-linejoin="round"/>
<path d="M25.4532 8.90366C16.3672 8.90366 9 16.2675 9 25.3569C9 32.7406 13.8631 38.986 20.5605 41.0711" stroke="white" stroke-width="2" stroke-miterlimit="10" stroke-linecap="round" stroke-linejoin="round"/>
<path d="M30.8937 19.9165L20.0161 30.794" stroke="#8E8E8E" stroke-width="2" stroke-miterlimit="10" stroke-linecap="round" stroke-linejoin="round"/>
<path d="M30.8937 30.794L20.0161 19.9165" stroke="#8E8E8E" stroke-width="2" stroke-miterlimit="10" stroke-linecap="round" stroke-linejoin="round"/>
<path d="M23.8367 7L26.1494 8.94324L23.9455 11.1471" stroke="white" stroke-width="2" stroke-miterlimit="10" stroke-linecap="round" stroke-linejoin="round"/>
<path d="M25.4532 41.8069C34.5393 41.8069 41.9065 34.4397 41.9065 25.3536C41.9065 17.9568 37.0236 11.6981 30.3064 9.62952" stroke="white" stroke-width="2" stroke-miterlimit="10" stroke-linecap="round" stroke-linejoin="round"/>
<path d="M27.0698 43.7105L24.7604 41.7672L26.9643 39.5667" stroke="white" stroke-width="2" stroke-miterlimit="10" stroke-linecap="round" stroke-linejoin="round"/>
</svg>
