<svg width="50" height="50" viewBox="0 0 50 50" fill="none" xmlns="http://www.w3.org/2000/svg">
<path d="M36.874 19.4952C36.874 22.4506 36.874 24.84 36.874 24.84C36.874 24.84 36.874 27.2294 36.874 30.1848C36.874 36.1552 42.2345 37.68 42.2345 37.68V24.8369V12C42.2345 12 36.874 13.5248 36.874 19.4952Z" fill="#4C5062"/>
<path d="M42.2345 12H7V37.6737H42.2345V12Z" stroke="#A3ACB9" stroke-width="2" stroke-miterlimit="10" stroke-linecap="round" stroke-linejoin="round"/>
<path d="M18.6327 25.582C20.9664 25.582 22.8582 23.6902 22.8582 21.3565C22.8582 19.0228 20.9664 17.131 18.6327 17.131C16.299 17.131 14.4072 19.0228 14.4072 21.3565C14.4072 23.6902 16.299 25.582 18.6327 25.582Z" stroke="white" stroke-width="2" stroke-miterlimit="10" stroke-linecap="round" stroke-linejoin="round"/>
<path d="M11.7663 32.4453C11.7663 28.6537 14.8411 25.582 18.6296 25.582C22.4181 25.582 25.4929 28.6568 25.4929 32.4453" stroke="white" stroke-width="2" stroke-miterlimit="10" stroke-linecap="round" stroke-linejoin="round"/>
<path d="M30.1302 17.8384H37.5029" stroke="#A3ACB9" stroke-width="2" stroke-miterlimit="10" stroke-linecap="round" stroke-linejoin="round"/>
<path d="M30.1302 24.8369H37.5029" stroke="#8E8E8E" stroke-width="2" stroke-miterlimit="10" stroke-linecap="round" stroke-linejoin="round"/>
<path d="M30.1302 31.8353H37.5029" stroke="#A3ACB9" stroke-width="2" stroke-miterlimit="10" stroke-linecap="round" stroke-linejoin="round"/>
</svg>
