<svg width="50" height="50" viewBox="0 0 50 50" fill="none" xmlns="http://www.w3.org/2000/svg">
<path d="M31.2661 38.8979C27.6675 38.8979 24.758 38.8979 24.758 38.8979C24.758 38.8979 21.8484 38.8979 18.2498 38.8979C10.9774 38.8979 9.12097 41.4946 9.12097 41.4946H24.758H40.395C40.395 41.4946 38.5385 38.8979 31.2661 38.8979Z" fill="#4C5062"/>
<path d="M20.2987 29.1582L18.8936 42" stroke="#8E8E8E" stroke-width="2" stroke-miterlimit="10" stroke-linecap="round" stroke-linejoin="round"/>
<path d="M29.3492 29.1582L30.7544 42" stroke="#8E8E8E" stroke-width="2" stroke-miterlimit="10" stroke-linecap="round" stroke-linejoin="round"/>
<path d="M11.1218 35.5792H38" stroke="#8E8E8E" stroke-width="2" stroke-miterlimit="10" stroke-linecap="round" stroke-linejoin="round"/>
<path d="M24.9022 20.6372C27.1522 20.6372 28.9762 18.8132 28.9762 16.5632C28.9762 14.3132 27.1522 12.4892 24.9022 12.4892C22.6522 12.4892 20.8282 14.3132 20.8282 16.5632C20.8282 18.8132 22.6522 20.6372 24.9022 20.6372Z" stroke="white" stroke-width="2" stroke-miterlimit="10" stroke-linecap="round" stroke-linejoin="round"/>
<path d="M33.4624 16.5632C33.4624 23.7694 24.8992 32.835 24.8992 32.835C24.8992 32.835 16.339 24.0612 16.339 16.5632C16.339 11.8333 20.1723 8 24.9022 8C29.6321 8 33.4624 11.8333 33.4624 16.5632Z" stroke="#A3ACB9" stroke-width="2" stroke-miterlimit="10" stroke-linecap="round" stroke-linejoin="round"/>
<path d="M21.6619 29.1582H14.546C14.0736 29.1582 13.532 29.5464 13.3364 30.0428L9.2534 40.2489C8.87428 41.1966 9.11198 42 9.80402 42H39.8444C40.5364 42 40.7771 41.1966 40.395 40.2489L36.312 30.0428C36.1134 29.5464 35.5748 29.1582 35.1024 29.1582H27.9323" stroke="#A3ACB9" stroke-width="2" stroke-miterlimit="10" stroke-linecap="round" stroke-linejoin="round"/>
</svg>
