<svg fill="none" height="50" viewBox="0 0 50 50" width="50" xmlns="http://www.w3.org/2000/svg"><path d="m34 35.5c-2.4 0-5-1.6667-6-2.5l3 4 4 2 2.5-1 1-2.5v-2.5c-.5.8333-2.1 2.5-4.5 2.5z" fill="#92b5d8"/><g stroke-linecap="round" stroke-linejoin="round" stroke-miterlimit="10" stroke-width="2"><path d="m34.9167 29.0871 2.8255 2.55c.4347.3927.7851.8698 1.0297 1.4022.2446.5323.3784 1.1089.3933 1.6946.0148.5857-.0896 1.1683-.307 1.7123-.2173.5441-.543 1.0383-.9573 1.4526-.4143.4143-.9085.74-1.4526.9573-.544.2174-1.1266.3218-1.7123.307-.5857-.0149-1.1623-.1487-1.6946-.3933-.5324-.2446-1.0094-.595-1.4022-1.0297l-3.8314-4.2401" stroke="#402b91"/><path d="m23.7427 21.2388-5.1177-5.1185v-1.7453l-4.25-4.25-4.25 4.25 4.25 4.25h1.7453l4.9909 4.9909" stroke="#402b91"/><path d="m39.5309 15.3607-4.0644 4.0637-4.8875-4.8875 4.0637-4.0644c-.9404-.2772-1.9223-.3866-2.9006-.323-1.8057.1494-3.4997.9344-4.7809 2.2155s-2.0665 2.9751-2.2161 4.7807c-.064.9795.0456 1.9627.3238 2.9041l-14.2354 12.852c-.2155.1949-.3892.4315-.5105.6955-.1212.264-.1875.5499-.1949.8403-.0074.2905.0444.5794.1522.8492.1077.2698.2692.5149.4746.7204l3.2406 3.2406c.2056.2049.4506.3659.7203.4733s.5584.1588.8486.1513c.2902-.0076.5758-.074.8395-.1952.2638-.1213.5001-.2948.6948-.5102l12.8598-14.2325c.9414.2781 1.9246.3877 2.9041.3237 1.8057-.1496 3.4997-.9348 4.7807-2.216 1.2811-1.2812 2.0661-2.9753 2.2156-4.7809.0619-.9786-.0492-1.9605-.328-2.9006z" fill="#94d1be" stroke="#074957"/></g></svg>
