<svg fill="none" height="50" viewBox="0 0 50 50" width="50" xmlns="http://www.w3.org/2000/svg"><path d="m34 35.5c-2.4 0-5-1.6667-6-2.5l3 4 4 2 2.5-1 1-2.5v-2.5c-.5.8333-2.1 2.5-4.5 2.5z" fill="#e5e5e5" fill-opacity=".25"/><g stroke-linecap="round" stroke-linejoin="round" stroke-miterlimit="10" stroke-width="2"><path d="m34.9167 29.0871 2.8255 2.55c.4347.3927.7851.8698 1.0297 1.4021.2446.5324.3784 1.109.3933 1.6947.0148.5856-.0896 1.1682-.307 1.7123-.2173.5441-.543 1.0383-.9573 1.4525-.4143.4143-.9085.7401-1.4526.9574-.544.2173-1.1266.3218-1.7123.3069-.5857-.0148-1.1623-.1486-1.6946-.3932-.5324-.2447-1.0094-.595-1.4022-1.0297l-3.8314-4.2401" stroke="#a3acb9"/><path d="m23.7427 21.2388-5.1177-5.1185v-1.7453l-4.25-4.25-4.25 4.25 4.25 4.25h1.7453l4.9909 4.9909" stroke="#a3acb9"/><path d="m39.5576 14.944-4.0644 4.0637-4.8875-4.8875 4.0637-4.0644c-.9404-.27717-1.9223-.38651-2.9006-.32299-1.8056.1494-3.4997.93449-4.7809 2.21549-1.2812 1.2811-2.0664 2.9751-2.216 4.7807-.064.9796.0456 1.9628.3237 2.9042l-14.2354 12.852c-.2155.1948-.3892.4314-.5104.6954-.1213.264-.1876.5499-.195.8404-.0073.2904.0444.5793.1522.8491.1077.2698.2692.5149.4746.7204l3.2406 3.2406c.2056.205.4507.366.7204.4734.2697.1073.5583.1588.8485.1512.2902-.0075.5758-.0739.8396-.1952.2637-.1212.5001-.2948.6947-.5101l12.8598-14.2326c.9414.2782 1.9246.3878 2.9042.3238 1.8056-.1496 3.4996-.9349 4.7807-2.2161 1.281-1.2812 2.0661-2.9752 2.2155-4.7809.0619-.9786-.0491-1.9605-.328-2.9006z" fill="#a3acb9" stroke="#d8d8d8"/></g></svg>
