<svg width="50" height="50" viewBox="0 0 50 50" fill="none" xmlns="http://www.w3.org/2000/svg">
<path d="M30.5581 36.6378C27.054 36.6378 24.2224 36.6378 24.2224 36.6378C24.2224 36.6378 21.3907 36.6378 17.8867 36.6378C10.8076 36.6378 9 40.2838 9 40.2838H24.2224H39.4448C39.4479 40.2838 37.6372 36.6378 30.5581 36.6378Z" fill="#4C5062"/>
<path d="M40 9H9V40H40V9Z" stroke="#A3ACB9" stroke-width="2" stroke-miterlimit="10" stroke-linecap="round" stroke-linejoin="round"/>
<path d="M9 17.6152H23.553L26.215 14.9532H40" stroke="#A3ACB9" stroke-width="2" stroke-miterlimit="10" stroke-linecap="round" stroke-linejoin="round"/>
<path d="M12.8218 14.6109C13.5492 14.6109 14.1389 14.0212 14.1389 13.2937C14.1389 12.5663 13.5492 11.9766 12.8218 11.9766C12.0943 11.9766 11.5046 12.5663 11.5046 13.2937C11.5046 14.0212 12.0943 14.6109 12.8218 14.6109Z" fill="white"/>
<path d="M17.1927 14.6109C17.9201 14.6109 18.5098 14.0212 18.5098 13.2937C18.5098 12.5663 17.9201 11.9766 17.1927 11.9766C16.4653 11.9766 15.8756 12.5663 15.8756 13.2937C15.8756 14.0212 16.4653 14.6109 17.1927 14.6109Z" fill="white"/>
<path d="M21.5633 14.6109C22.2908 14.6109 22.8804 14.0212 22.8804 13.2937C22.8804 12.5663 22.2908 11.9766 21.5633 11.9766C20.8359 11.9766 20.2462 12.5663 20.2462 13.2937C20.2462 14.0212 20.8359 14.6109 21.5633 14.6109Z" fill="white"/>
<path fill-rule="evenodd" clip-rule="evenodd" d="M24.4974 30.4539C22.8668 30.4539 21.543 29.1316 21.543 27.4995C21.543 25.8673 22.8668 24.5451 24.4974 24.5451C26.128 24.5451 27.4518 25.8673 27.4518 27.4995C27.4518 29.1316 26.128 30.4539 24.4974 30.4539ZM30.9986 28.7995V26.2007L29.4384 25.8095C29.374 25.6146 29.3095 25.4198 29.1791 25.225L30.0244 23.7952L28.2034 21.9757L26.7736 22.8195C26.5773 22.755 26.384 22.6246 26.1891 22.5602L25.7995 21H23.1976L22.8079 22.5602C22.6131 22.6891 22.4198 22.755 22.225 22.8195L20.7936 21.9757L18.9726 23.7952L19.8179 25.225C19.7535 25.4198 19.6231 25.6146 19.5587 25.8095L18 26.2007V28.7995L19.5587 29.1891C19.6231 29.3855 19.6891 29.5803 19.8179 29.7752L18.9726 31.205L20.7936 33.0244L22.225 32.1807C22.4198 32.2451 22.6131 32.374 22.8079 32.4399L23.1976 34.0001H25.7995L26.1891 32.4399C26.384 32.374 26.5773 32.3095 26.7736 32.1807L28.2034 33.0244L30.0244 31.205L29.1791 29.7752C29.2436 29.5803 29.374 29.3855 29.4384 29.1891L30.9986 28.7995Z" fill="#8E8E8E"/>
</svg>
