<svg width="50" height="50" viewBox="0 0 50 50" fill="none" xmlns="http://www.w3.org/2000/svg">
<path d="M21.1452 11.4238C23.2449 11.4238 25.2414 11.8585 27.05 12.6394C24.7994 10.3924 21.6941 9 18.261 9C11.3948 9 5.8252 14.5659 5.8252 21.4358C5.8252 22.5888 5.98727 23.7086 6.28196 24.7694C7.0813 17.266 13.4281 11.4238 21.1452 11.4238Z" fill="#4C5062"/>
<path d="M11.5313 23.6496C12.5505 23.6496 13.3767 22.8234 13.3767 21.8041C13.3767 20.7849 12.5505 19.9586 11.5313 19.9586C10.512 19.9586 9.68579 20.7849 9.68579 21.8041C9.68579 22.8234 10.512 23.6496 11.5313 23.6496Z" stroke="#8E8E8E" stroke-width="2" stroke-miterlimit="10" stroke-linecap="round" stroke-linejoin="round"/>
<path d="M18.261 23.6496C19.2802 23.6496 20.1065 22.8234 20.1065 21.8041C20.1065 20.7849 19.2802 19.9586 18.261 19.9586C17.2418 19.9586 16.4155 20.7849 16.4155 21.8041C16.4155 22.8234 17.2418 23.6496 18.261 23.6496Z" stroke="white" stroke-width="2" stroke-miterlimit="10" stroke-linecap="round" stroke-linejoin="round"/>
<path d="M24.991 23.6496C26.0102 23.6496 26.8365 22.8234 26.8365 21.8041C26.8365 20.7849 26.0102 19.9586 24.991 19.9586C23.9718 19.9586 23.1455 20.7849 23.1455 21.8041C23.1455 22.8234 23.9718 23.6496 24.991 23.6496Z" stroke="#8E8E8E" stroke-width="2" stroke-miterlimit="10" stroke-linecap="round" stroke-linejoin="round"/>
<path d="M30.0596 16.8829C30.6085 16.8093 31.1721 16.7687 31.7394 16.7687C38.6093 16.7687 44.1752 22.3383 44.1752 29.2045C44.1752 32.0335 43.2285 34.6415 41.6372 36.7301L43.7294 41.1025L39.5375 38.8887C37.4047 40.6089 34.6936 41.6403 31.7394 41.6403C26.6744 41.6403 22.3167 38.6124 20.3755 34.2658" stroke="#A3ACB9" stroke-width="2" stroke-miterlimit="10" stroke-linecap="round" stroke-linejoin="round"/>
<path d="M38.4695 31.3557C39.4887 31.3557 40.315 30.5294 40.315 29.5102C40.315 28.491 39.4887 27.6647 38.4695 27.6647C37.4503 27.6647 36.624 28.491 36.624 29.5102C36.624 30.5294 37.4503 31.3557 38.4695 31.3557Z" stroke="#A3ACB9" stroke-width="2" stroke-miterlimit="10" stroke-linecap="round" stroke-linejoin="round"/>
<path d="M31.7395 31.3557C32.7588 31.3557 33.585 30.5294 33.585 29.5102C33.585 28.491 32.7588 27.6647 31.7395 27.6647C30.7203 27.6647 29.894 28.491 29.894 29.5102C29.894 30.5294 30.7203 31.3557 31.7395 31.3557Z" stroke="white" stroke-width="2" stroke-miterlimit="10" stroke-linecap="round" stroke-linejoin="round"/>
<path d="M18.261 9.06262C11.3948 9.06262 5.8252 14.6322 5.8252 21.4984C5.8252 24.3274 6.77188 26.9354 8.36319 29.024L6.27091 33.4001L10.4628 31.1863C12.5956 32.9065 15.3068 33.9379 18.261 33.9379C25.1309 33.9379 30.6968 28.3683 30.6968 21.5021C30.6968 14.6359 25.1309 9.06262 18.261 9.06262Z" stroke="#A3ACB9" stroke-width="2" stroke-miterlimit="10" stroke-linecap="round" stroke-linejoin="round"/>
</svg>
