<svg width="50" height="50" viewBox="0 0 50 50" fill="none" xmlns="http://www.w3.org/2000/svg">
<path d="M25.2827 39.5421C26.1428 39.8879 27.0361 40.1586 27.9443 40.3451L28.5037 42.6668H33.5261L34.0855 40.3451C35.9982 39.9541 37.8298 39.1962 39.4568 38.1196L41.4928 39.3646L45.0446 35.8129L43.7996 33.7768C44.8732 32.1498 45.6341 30.3183 46.0251 28.4055L48.3468 27.8461V22.8237L46.0251 22.2643C45.6341 20.3486 44.8762 18.517 43.7996 16.89L45.0446 14.854L41.4928 11.3022L39.4568 12.5473C37.8298 11.4736 35.9982 10.7127 34.0855 10.3217L33.5261 8H28.5037L27.9443 10.3217C27.1233 10.4902 26.3143 10.7247 25.5323 11.0255" stroke="#736DB1" stroke-width="2" stroke-miterlimit="10" stroke-linecap="round" stroke-linejoin="round"/>
<path d="M32.5276 15.6509C37.2222 16.3787 40.8131 20.4358 40.8131 25.3319C40.8131 30.21 37.2463 34.258 32.5787 35.0068" stroke="#736DB1" stroke-width="2" stroke-miterlimit="10" stroke-linecap="round" stroke-linejoin="round"/>
<path d="M33.9921 22.2641C33.6012 20.3484 32.8433 18.5169 31.7666 16.8898L33.0117 14.8538L29.4629 11.305L27.4269 12.5501C25.7999 11.4764 23.9683 10.7156 22.0556 10.3246L21.4962 8.00284H16.4738L15.9144 10.3246C14.0016 10.7156 12.1671 11.4734 10.5431 12.5501L8.50704 11.305L4.95525 14.8568L6.20033 16.8928C5.12668 18.5199 4.36579 20.3514 3.97482 22.2672L1.65308 22.8265V27.849L3.97482 28.4084C4.36579 30.3211 5.12367 32.1556 6.20033 33.7796L4.95525 35.8157L8.50704 39.3675L10.5431 38.1224C12.1701 39.1991 14.0016 39.9569 15.9144 40.3479L16.4738 42.6697H21.4962L22.0556 40.3479C23.9683 39.9569 25.7999 39.1991 27.4269 38.1224L29.4629 39.3675L33.0147 35.8157L31.7696 33.7796C32.8433 32.1526 33.6042 30.3211 33.9951 28.4084L36.3169 27.849V22.8265L33.9921 22.2641Z" stroke="#402B91" stroke-width="2" stroke-miterlimit="10" stroke-linecap="round" stroke-linejoin="round"/>
<path d="M18.9853 35.1331C24.3967 35.1331 28.7835 30.7463 28.7835 25.3349C28.7835 19.9235 24.3967 15.5366 18.9853 15.5366C13.5738 15.5366 9.18701 19.9235 9.18701 25.3349C9.18701 30.7463 13.5738 35.1331 18.9853 35.1331Z" stroke="#736DB1" stroke-width="2" stroke-miterlimit="10" stroke-linecap="round" stroke-linejoin="round"/>
<path d="M14.167 27.6837L18.0195 30.0145L23.0901 21.6267" stroke="#94D1BE" stroke-width="2" stroke-miterlimit="10" stroke-linecap="round" stroke-linejoin="round"/>
</svg>
