<svg height="16" viewBox="0 0 19 16" width="19" xmlns="http://www.w3.org/2000/svg"><g fill="none" fill-rule="evenodd" transform="translate(1.23291 1.093262)"><g stroke="#fff" stroke-linecap="round"><path d="m9.386719 5.266113-2 5.103028"/><path d="m5.38671875 5.26611328-1.76137569 2.24708708c-.14051361.1792612-.14211743.43083271-.00390079.61187086l1.71327275 2.24406938"/><path d="m13.3867188 5.26611328-1.7613757 2.24708708c-.1405137.1792612-.1421175.43083271-.0039008.61187086l1.7132727 2.24406938" transform="matrix(-1 0 0 -1 24.773438 15.635254)"/></g><path d="m0 0v2h5c1.1045695 0 2-.8954305 2-2" fill="#fff"/><path d="m0 1v12c0 .5522847.44771525 1 1 1h15c.5522847 0 1-.4477153 1-1v-12c0-.55228475-.4477153-1-1-1h-15c-.55228475 0-1 .44771525-1 1z" stroke="#979797"/><path d="m0 2.5h17" stroke="#979797"/></g></svg>
