<svg width="50" height="50" viewBox="0 0 50 50" fill="none" xmlns="http://www.w3.org/2000/svg">
<path fill-rule="evenodd" clip-rule="evenodd" d="M19.1851 16.0195L7.00001 16.0195V11L24.2046 11C24.2046 13.7722 21.9573 16.0195 19.1851 16.0195Z" fill="#92B5D8"/>
<path d="M41.9732 11H8C7.44772 11 7 11.4477 7 12V38.3193C7 38.8716 7.44772 39.3193 8 39.3193H41.9732C42.5255 39.3193 42.9732 38.8716 42.9732 38.3193V12C42.9732 11.4477 42.5255 11 41.9732 11Z" stroke="#402B91" stroke-width="2"/>
<path d="M7 15.6546H42.9732" stroke="#402B91" stroke-width="2"/>
<path d="M20.404 30.0624L23.1726 27.4098C23.4329 27.1604 23.4417 26.7472 23.1923 26.4868C23.1912 26.4857 23.1902 26.4847 23.1891 26.4836L20.6282 23.8477" stroke="#94D1BE" stroke-width="2" stroke-linecap="round"/>
<path d="M24.83 30.4706C24.2777 30.4706 23.83 30.9183 23.83 31.4706C23.83 32.0229 24.2777 32.4706 24.83 32.4706V30.4706ZM30.0372 32.4706C30.5895 32.4706 31.0372 32.0229 31.0372 31.4706C31.0372 30.9183 30.5895 30.4706 30.0372 30.4706V32.4706ZM24.83 32.4706H30.0372V30.4706H24.83V32.4706Z" fill="#94D1BE"/>
<rect x="17.0588" y="20" width="15.8824" height="15" stroke="#736DB1" stroke-width="2" stroke-linecap="round" stroke-linejoin="round"/>
</svg>
