<svg fill="none" height="50" viewBox="0 0 50 50" width="50" xmlns="http://www.w3.org/2000/svg"><path d="m18 35h14c6.5 0 8 5 8 5h-30s1.5-5 8-5z" fill="#92b5d8"/><path d="m15.0833 40.5833h-5.66664v-9.2083h4.25004" stroke="#402b91" stroke-linecap="round" stroke-linejoin="round" stroke-miterlimit="10" stroke-width="2"/><path d="m34.9167 40.5833h5.6666v-9.2083h-4.25" stroke="#402b91" stroke-linecap="round" stroke-linejoin="round" stroke-miterlimit="10" stroke-width="2"/><path d="m25 16.5v-7.08334" stroke="#074957" stroke-linecap="round" stroke-linejoin="round" stroke-miterlimit="10" stroke-width="2"/><path d="m25 13.6666h4.25v-2.8333h-4.25" fill="#94d1be"/><path d="m25 13.6666h4.25v-2.8333h-4.25" stroke="#074957" stroke-linecap="round" stroke-linejoin="round" stroke-miterlimit="10" stroke-width="2"/><path d="m27.125 40.5833v-5.6666h-4.25v5.6666" fill="#fff"/><g stroke-linecap="round" stroke-linejoin="round" stroke-miterlimit="10" stroke-width="2"><path d="m27.125 40.5833v-5.6666h-4.25v5.6666" stroke="#402b91"/><path d="m22.875 31.375h4.25" stroke="#736bb6"/><path d="m17.9167 40.5833v-12.75" stroke="#736bb6"/><path d="m32.0833 40.5833v-12.75" stroke="#736bb6"/><path d="m13.6667 23.5833h22.6666" stroke="#402b91"/><path d="m36.3333 23.5833v17h-22.6666v-17l11.3333-7.0833z" stroke="#402b91"/><path d="m13.6667 27.8333h22.6666" stroke="#402b91"/></g></svg>
