<svg width="50" height="50" viewBox="0 0 50 50" fill="none" xmlns="http://www.w3.org/2000/svg">
<path d="M30.7121 36.8604C27.3568 36.8604 24.642 36.8604 24.642 36.8604C24.642 36.8604 21.9303 36.8604 18.572 36.8604C11.7927 36.8604 10.062 40.35 10.062 40.35H24.642H39.222C39.222 40.35 37.4913 36.8604 30.7121 36.8604Z" fill="#4C5062"/>
<path d="M38.1005 40.35H11.2492C10.0121 40.35 8.99988 39.3378 8.99988 38.1007V11.2493C8.99988 10.0122 10.0121 9 11.2492 9H38.0974C39.3346 9 40.3467 10.0122 40.3467 11.2493V38.0975C40.3499 39.3378 39.3377 40.35 38.1005 40.35Z" stroke="#A3ACB9" stroke-width="2" stroke-miterlimit="10" stroke-linecap="round" stroke-linejoin="round"/>
<path d="M35.4169 18.644H25.6949C25.0763 18.644 24.5702 18.1379 24.5702 17.5194V13.8705C24.5702 13.2519 25.0763 12.7458 25.6949 12.7458H35.4169C36.0355 12.7458 36.5416 13.2519 36.5416 13.8705V17.5194C36.5416 18.1379 36.0355 18.644 35.4169 18.644Z" stroke="#8E8E8E" stroke-width="2" stroke-miterlimit="10" stroke-linecap="round" stroke-linejoin="round"/>
<path d="M27.6663 15.6949H33.4427" stroke="white" stroke-width="2" stroke-miterlimit="10" stroke-linecap="round" stroke-linejoin="round"/>
<path d="M35.3607 27.6257H25.6386C25.02 27.6257 24.5139 27.1196 24.5139 26.501V22.8521C24.5139 22.2336 25.02 21.7275 25.6386 21.7275H35.3607C35.9792 21.7275 36.4853 22.2336 36.4853 22.8521V26.501C36.4853 27.1196 35.9792 27.6257 35.3607 27.6257Z" stroke="#8E8E8E" stroke-width="2" stroke-miterlimit="10" stroke-linecap="round" stroke-linejoin="round"/>
<path d="M27.613 24.6766H33.3894" stroke="white" stroke-width="2" stroke-miterlimit="10" stroke-linecap="round" stroke-linejoin="round"/>
<path d="M35.3077 36.6074H25.5856C24.967 36.6074 24.4609 36.1013 24.4609 35.4827V31.8307C24.4609 31.2121 24.967 30.706 25.5856 30.706H35.3077C35.9263 30.706 36.4324 31.2121 36.4324 31.8307V35.4796C36.4324 36.1013 35.9263 36.6074 35.3077 36.6074Z" stroke="#8E8E8E" stroke-width="2" stroke-miterlimit="10" stroke-linecap="round" stroke-linejoin="round"/>
<path d="M27.5569 33.6582H33.3333" stroke="white" stroke-width="2" stroke-miterlimit="10" stroke-linecap="round" stroke-linejoin="round"/>
<path d="M30.4998 19.1376V21.2308" stroke="#8E8E8E" stroke-width="2" stroke-miterlimit="10" stroke-linecap="round" stroke-linejoin="round"/>
<path d="M30.4998 28.1193V30.2124" stroke="#8E8E8E" stroke-width="2" stroke-miterlimit="10" stroke-linecap="round" stroke-linejoin="round"/>
<path d="M21.0556 15.6574H17.5723C15.098 15.6574 13.0736 17.5224 13.0736 19.7999V29.5126C13.0736 31.7932 15.098 33.6551 17.5723 33.6551H21.0556" stroke="#8E8E8E" stroke-width="2" stroke-miterlimit="10" stroke-linecap="round" stroke-linejoin="round"/>
<path d="M18.5408 13.1363L21.0994 15.6949L18.5408 18.2504" stroke="#8E8E8E" stroke-width="2" stroke-miterlimit="10" stroke-linecap="round" stroke-linejoin="round"/>
</svg>
