<svg width="50" height="50" viewBox="0 0 50 50" fill="none" xmlns="http://www.w3.org/2000/svg">
<path fill-rule="evenodd" clip-rule="evenodd" d="M18.6336 15.2043L6.00005 15.2043V10L23.8379 10C23.8379 12.8743 21.5079 15.2043 18.6336 15.2043Z" fill="#92B5D8"/>
<path d="M6 14.8259H43.2973" stroke="#402B91" stroke-width="2"/>
<path fill-rule="evenodd" clip-rule="evenodd" d="M5 11C5 9.89543 5.89543 9 7 9H42.2973C43.4019 9 44.2973 9.89543 44.2973 11V38.3617C44.2973 39.4663 43.4019 40.3617 42.2973 40.3617H35C34.4477 40.3617 34 39.914 34 39.3617C34 38.8094 34.4477 38.3617 35 38.3617H42.2973V11H7V38.3617H14C14.5523 38.3617 15 38.8094 15 39.3617C15 39.914 14.5523 40.3617 14 40.3617H7C5.89543 40.3617 5 39.4663 5 38.3617V11Z" fill="#402B91"/>
<path d="M25 39.5L25 31.5" stroke="#736DB1" stroke-width="2" stroke-linecap="round"/>
<circle cx="15" cy="23" r="2" stroke="#94D1BE" stroke-width="2"/>
<path d="M19.5 39.5V35L15 30.5V25.5" stroke="#94D1BE" stroke-width="2" stroke-linecap="round" stroke-linejoin="round"/>
<circle r="2" transform="matrix(-1 0 0 1 35.5 23)" stroke="#94D1BE" stroke-width="2"/>
<path d="M31 39.5V35L35.5 30.5V25.5" stroke="#94D1BE" stroke-width="2" stroke-linecap="round" stroke-linejoin="round"/>
<path fill-rule="evenodd" clip-rule="evenodd" d="M24.999 29.7283C23.4936 29.7283 22.2713 28.5075 22.2713 27.0007C22.2713 25.4938 23.4936 24.273 24.999 24.273C26.5045 24.273 27.7267 25.4938 27.7267 27.0007C27.7267 28.5075 26.5045 29.7283 24.999 29.7283ZM30.9998 28.2001V25.801L29.5595 25.4399C29.5 25.26 29.4405 25.0802 29.3201 24.9003L30.1005 23.5804L28.4194 21.9007L27.0995 22.6797C26.9182 22.6202 26.7397 22.4998 26.5599 22.4403L26.2001 21H23.7982L23.4385 22.4403C23.2586 22.5593 23.0802 22.6202 22.9003 22.6797L21.579 21.9007L19.8979 23.5804L20.6782 24.9003C20.6188 25.0802 20.4984 25.26 20.4389 25.4399L19 25.801V28.2001L20.4389 28.5599C20.4984 28.7411 20.5593 28.921 20.6782 29.1009L19.8979 30.4208L21.579 32.1005L22.9003 31.3215C23.0802 31.381 23.2586 31.5 23.4385 31.5609L23.7982 33.0012H26.2001L26.5599 31.5609C26.7397 31.5 26.9182 31.4405 27.0995 31.3215L28.4194 32.1005L30.1005 30.4208L29.3201 29.1009C29.3796 28.921 29.5 28.7411 29.5595 28.5599L30.9998 28.2001Z" fill="#706AB1"/>
</svg>
