<?xml version="1.0" encoding="UTF-8"?>
<svg width="30px" height="30px" viewBox="0 0 30 30" version="1.1" xmlns="http://www.w3.org/2000/svg" xmlns:xlink="http://www.w3.org/1999/xlink">
    <title>54B78E5C-9904-4A8A-962D-B8E6441ACFA5</title>
    <g id="---Developers" stroke="none" stroke-width="1" fill="none" fill-rule="evenodd">
        <g id="Icons" transform="translate(-196.000000, -288.000000)">
            <g id="Icon/Home" transform="translate(196.000000, 288.000000)">
                <g id="Core-Contributors" transform="translate(4.000000, 7.000000)">
                    <g id="Group-17" transform="translate(0.617647, 0.000000)">
                        <path d="M9.73076923,0.447368421 L0.423076923,0.447368421 L0.423076923,3.13157895 L7.19230769,3.13157895 C8.59438462,3.13157895 9.73076923,1.92994737 9.73076923,0.447368421" id="Fill-3" fill="#91B6D8"></path>
                        <path d="M20.9546615,17 L1.04550769,17 C0.701123077,17 0.422738462,16.7056316 0.422738462,16.3423684 L0.422738462,1.105 C0.422738462,0.741736842 0.701123077,0.447368421 1.04550769,0.447368421 L20.9546615,0.447368421 C21.2982,0.447368421 21.5765846,0.741736842 21.5765846,1.105 L21.5765846,16.3423684 C21.5765846,16.7056316 21.2982,17 20.9546615,17 Z" id="Stroke-5" stroke="#3E2E8B"></path>
                        <g id="Group-10" transform="translate(0.000000, 3.086842)">
                            <line x1="0.423076923" y1="0.542344737" x2="21.5769231" y2="0.542344737" id="Fill-7" fill="#FFFFFF"></line>
                            <line x1="0.423076923" y1="0.542344737" x2="21.5769231" y2="0.542344737" id="Stroke-9" stroke="#3E2E8B"></line>
                        </g>
                        <path d="M11.0115923,11.7949579 C10.1121308,11.7949579 9.3819,11.0236947 9.3819,10.0716947 C9.3819,9.11969474 10.1121308,8.34843158 11.0115923,8.34843158 C11.9110538,8.34843158 12.6412846,9.11969474 12.6412846,10.0716947 C12.6412846,11.0236947 11.9110538,11.7949579 11.0115923,11.7949579 L11.0115923,11.7949579 Z M14.5967462,10.8295368 L14.5967462,9.31385263 L13.7362077,9.08569474 C13.7006692,8.97206316 13.6651308,8.85843158 13.5932077,8.7448 L14.0594385,7.91090526 L13.0550538,6.84974737 L12.2664385,7.34185263 C12.1581308,7.30427368 12.0515154,7.22822105 11.9440538,7.19064211 L11.7291308,6.28069474 L10.2940538,6.28069474 L10.0791308,7.19064211 C9.97166923,7.2658 9.86505385,7.30427368 9.75759231,7.34185263 L8.96813077,6.84974737 L7.96374615,7.91090526 L8.42997692,8.7448 C8.39443846,8.85843158 8.32251538,8.97206316 8.28697692,9.08569474 L7.42728462,9.31385263 L7.42728462,10.8295368 L8.28697692,11.0568 C8.32251538,11.1713263 8.3589,11.2849579 8.42997692,11.3985895 L7.96374615,12.2324842 L8.96813077,13.2936421 L9.75759231,12.8015368 C9.86505385,12.8391158 9.97166923,12.9142737 10.0791308,12.9527474 L10.2940538,13.8626947 L11.7291308,13.8626947 L11.9440538,12.9527474 C12.0515154,12.9142737 12.1581308,12.8766947 12.2664385,12.8015368 L13.0550538,13.2936421 L14.0594385,12.2324842 L13.5932077,11.3985895 C13.6287462,11.2849579 13.7006692,11.1713263 13.7362077,11.0568 L14.5967462,10.8295368 Z" id="Fill-11" fill="#BBE2D5"></path>
                        <path d="M6.5065,6.99013158 L3.8995,9.74681579 C3.7345,9.92218421 3.7345,10.2058158 3.8995,10.3820789 L6.5065,13.1378684" id="Stroke-13" stroke="#BBE2D5" stroke-linecap="round"></path>
                        <path d="M15.4613462,13.1379579 L18.0683462,10.3812737 C18.2333462,10.2059053 18.2333462,9.92227368 18.0683462,9.74690526 L15.4613462,6.99022105" id="Stroke-15" stroke="#BBE2D5" stroke-linecap="round"></path>
                    </g>
                </g>
            </g>
        </g>
    </g>
</svg>
