<svg width="50" height="50" viewBox="0 0 50 50" fill="none" xmlns="http://www.w3.org/2000/svg">
<path fill-rule="evenodd" clip-rule="evenodd" d="M22.334 10H4.00067V15H17.334C20.0957 15 22.334 12.7617 22.334 10Z" fill="#8ECFBA"/>
<path fill-rule="evenodd" clip-rule="evenodd" d="M44.4417 40.8333H5.22667C4.54833 40.8333 4 40.285 4 39.6083V11.225C4 10.5483 4.54833 10 5.22667 10H44.4417C45.1183 10 45.6667 10.5483 45.6667 11.225V39.6083C45.6667 40.285 45.1183 40.8333 44.4417 40.8333Z" stroke="#074957" stroke-width="1.81985"/>
<path d="M4.00067 15.8147H45.6673" stroke="#074957" stroke-width="1.81985"/>
<path fill-rule="evenodd" clip-rule="evenodd" d="M24.8568 31.1377C23.0851 31.1377 21.6468 29.701 21.6468 27.9277C21.6468 26.1544 23.0851 24.7177 24.8568 24.7177C26.6285 24.7177 28.0668 26.1544 28.0668 27.9277C28.0668 29.701 26.6285 31.1377 24.8568 31.1377ZM31.9185 29.3394V26.516L30.2235 26.091C30.1535 25.8794 30.0835 25.6677 29.9418 25.456L30.8601 23.9027L28.8818 21.926L27.3285 22.8427C27.1151 22.7727 26.9051 22.631 26.6935 22.561L26.2701 20.866H23.4435L23.0201 22.561C22.8085 22.701 22.5985 22.7727 22.3868 22.8427L20.8318 21.926L18.8535 23.9027L19.7718 25.456C19.7018 25.6677 19.5601 25.8794 19.4901 26.091L17.7968 26.516V29.3394L19.4901 29.7627C19.5601 29.976 19.6318 30.1877 19.7718 30.3994L18.8535 31.9527L20.8318 33.9294L22.3868 33.0127C22.5985 33.0827 22.8085 33.2227 23.0201 33.2944L23.4435 34.9894H26.2701L26.6935 33.2944C26.9051 33.2227 27.1151 33.1527 27.3285 33.0127L28.8818 33.9294L30.8601 31.9527L29.9418 30.3994C30.0118 30.1877 30.1535 29.976 30.2235 29.7627L31.9185 29.3394Z" fill="#706AB1"/>
<path d="M15.9832 22.1875L10.8482 27.3225C10.5232 27.6492 10.5232 28.1775 10.8482 28.5058L15.9832 33.6392" stroke="#BBE2D5" stroke-width="1.81985" stroke-linecap="round"/>
<path d="M33.6215 33.6393L38.7565 28.5043C39.0815 28.1777 39.0815 27.6493 38.7565 27.3227L33.6215 22.1877" stroke="#BBE2D5" stroke-width="1.81985" stroke-linecap="round"/>
</svg>
