<?xml version="1.0" encoding="UTF-8"?>
<svg width="26px" height="20px" viewBox="0 0 26 20" version="1.1" xmlns="http://www.w3.org/2000/svg" xmlns:xlink="http://www.w3.org/1999/xlink">
    <title>Group 2</title>
    <g id="---Developers" stroke="none" stroke-width="1" fill="none" fill-rule="evenodd">
        <g id="Documentation---Core-Contributors---Coding-Guidelines-Dark-Mode" transform="translate(-67.000000, -1183.000000)">
            <g id="Left-Rail" transform="translate(0.000000, 1013.000000)">
                <g id="Group-2" transform="translate(67.000000, 170.000000)">
                    <g id="E5E5E5-Core-Contributors">
                        <g id="Group-17">
                            <path d="M11.5,0.5 L0.5,0.5 L0.5,3.5 L8.5,3.5 C10.157,3.5 11.5,2.157 11.5,0.5" id="Fill-3" fill="#A3ACBB"></path>
                            <path d="M24.7646,19 L1.2356,19 C0.8286,19 0.4996,18.671 0.4996,18.265 L0.4996,1.235 C0.4996,0.829 0.8286,0.5 1.2356,0.5 L24.7646,0.5 C25.1706,0.5 25.4996,0.829 25.4996,1.235 L25.4996,18.265 C25.4996,18.671 25.1706,19 24.7646,19 Z" id="Stroke-5" stroke="#A3ACBA"></path>
                            <g id="Group-10" transform="translate(0.000000, 2.500000)">
                                <line x1="0.5" y1="1.4888" x2="25.5" y2="1.4888" id="Fill-7" fill="#FFFFFF"></line>
                                <line x1="0.5" y1="1.4888" x2="25.5" y2="1.4888" id="Stroke-9" stroke="#A3ACBA"></line>
                            </g>
                            <path d="M7.6895,7.8125 L4.6085,10.8935 C4.4135,11.0895 4.4135,11.4065 4.6085,11.6035 L7.6895,14.6835" id="Stroke-13" stroke="#A3ACBA" stroke-linecap="round"></path>
                            <path d="M18.2725,14.6836 L21.3535,11.6026 C21.5485,11.4066 21.5485,11.0896 21.3535,10.8936 L18.2725,7.8126" id="Stroke-15" stroke="#A3ACBA" stroke-linecap="round"></path>
                        </g>
                    </g>
                    <path d="M13.0137,13.1826 C11.9507,13.1826 11.0877,12.3206 11.0877,11.2566 C11.0877,10.1926 11.9507,9.3306 13.0137,9.3306 C14.0767,9.3306 14.9397,10.1926 14.9397,11.2566 C14.9397,12.3206 14.0767,13.1826 13.0137,13.1826 L13.0137,13.1826 Z M17.2507,12.1036 L17.2507,10.4096 L16.2337,10.1546 C16.1917,10.0276 16.1497,9.9006 16.0647,9.7736 L16.6157,8.8416 L15.4287,7.6556 L14.4967,8.2056 C14.3687,8.1636 14.2427,8.0786 14.1157,8.0366 L13.8617,7.0196 L12.1657,7.0196 L11.9117,8.0366 C11.7847,8.1206 11.6587,8.1636 11.5317,8.2056 L10.5987,7.6556 L9.4117,8.8416 L9.9627,9.7736 C9.9207,9.9006 9.8357,10.0276 9.7937,10.1546 L8.7777,10.4096 L8.7777,12.1036 L9.7937,12.3576 C9.8357,12.4856 9.8787,12.6126 9.9627,12.7396 L9.4117,13.6716 L10.5987,14.8576 L11.5317,14.3076 C11.6587,14.3496 11.7847,14.4336 11.9117,14.4766 L12.1657,15.4936 L13.8617,15.4936 L14.1157,14.4766 C14.2427,14.4336 14.3687,14.3916 14.4967,14.3076 L15.4287,14.8576 L16.6157,13.6716 L16.0647,12.7396 C16.1067,12.6126 16.1917,12.4856 16.2337,12.3576 L17.2507,12.1036 Z" id="Fill-11" fill="#FFFFFF"></path>
                </g>
            </g>
        </g>
    </g>
</svg>
