<svg width="50" height="50" viewBox="0 0 50 50" fill="none" xmlns="http://www.w3.org/2000/svg">
<path d="M15.5082 28.2728C18.1661 28.2728 20.3207 26.1182 20.3207 23.4602C20.3207 20.8023 18.1661 18.6476 15.5082 18.6476C12.8502 18.6476 10.6956 20.8023 10.6956 23.4602C10.6956 26.1182 12.8502 28.2728 15.5082 28.2728Z" stroke="#A3ACB9" stroke-width="2" stroke-miterlimit="10" stroke-linecap="round" stroke-linejoin="round"/>
<path d="M11.5457 29.4468L15.4542 33.3508L19.4167 29.3883" stroke="#8E8E8E" stroke-width="2" stroke-miterlimit="10" stroke-linecap="round" stroke-linejoin="round"/>
<path d="M23.2894 32.3163C21.5667 29.8695 18.7241 28.2728 15.5082 28.2728C10.2549 28.2728 6 32.5322 6 37.7811H18.7106" stroke="#A3ACB9" stroke-width="2" stroke-miterlimit="10" stroke-linecap="round" stroke-linejoin="round"/>
<path d="M34.9339 28.2728C37.5919 28.2728 39.7465 26.1182 39.7465 23.4602C39.7465 20.8023 37.5919 18.6476 34.9339 18.6476C32.276 18.6476 30.1213 20.8023 30.1213 23.4602C30.1213 26.1182 32.276 28.2728 34.9339 28.2728Z" stroke="#A3ACB9" stroke-width="2" stroke-miterlimit="10" stroke-linecap="round" stroke-linejoin="round"/>
<path d="M30.9714 29.4468L34.88 33.3508L38.8425 29.3883" stroke="#8E8E8E" stroke-width="2" stroke-miterlimit="10" stroke-linecap="round" stroke-linejoin="round"/>
<path d="M31.9699 37.7811H44.4422C44.4422 32.5277 40.1828 28.2728 34.934 28.2728C31.6866 28.2728 28.817 29.901 27.0989 32.3883" stroke="#A3ACB9" stroke-width="2" stroke-miterlimit="10" stroke-linecap="round" stroke-linejoin="round"/>
<path d="M25.4212 15.6252C28.0792 15.6252 30.2338 13.4705 30.2338 10.8126C30.2338 8.15467 28.0792 6 25.4212 6C22.7633 6 20.6086 8.15467 20.6086 10.8126C20.6086 13.4705 22.7633 15.6252 25.4212 15.6252Z" stroke="#A3ACB9" stroke-width="2" stroke-miterlimit="10" stroke-linecap="round" stroke-linejoin="round"/>
<path d="M21.4633 16.7991L25.3673 20.7076L29.3298 16.7451" stroke="#8E8E8E" stroke-width="2" stroke-miterlimit="10" stroke-linecap="round" stroke-linejoin="round"/>
<path d="M32.8066 19.1424C31.0614 16.997 28.4033 15.6252 25.4213 15.6252C22.4662 15.6252 19.8261 16.9745 18.0809 19.084" stroke="#A3ACB9" stroke-width="2" stroke-miterlimit="10"/>
<path d="M25.3178 45C28.8699 45 31.7496 42.1204 31.7496 38.5682C31.7496 35.016 28.8699 32.1364 25.3178 32.1364C21.7656 32.1364 18.886 35.016 18.886 38.5682C18.886 42.1204 21.7656 45 25.3178 45Z" stroke="#A3ACB9" stroke-width="2" stroke-miterlimit="10" stroke-linecap="round" stroke-linejoin="round"/>
<path d="M22.4707 38.1544L25.2323 35.3883L28.0119 38.1679" stroke="white" stroke-width="2" stroke-miterlimit="10" stroke-linecap="round" stroke-linejoin="round"/>
<path d="M25.2323 35.3883V41.901" stroke="white" stroke-width="2" stroke-miterlimit="10" stroke-linecap="round" stroke-linejoin="round"/>
</svg>
