<svg fill="none" height="50" viewBox="0 0 50 50" width="50" xmlns="http://www.w3.org/2000/svg"><path d="m17.3448 18.5117v6.2356" stroke="#402b91" stroke-linecap="round" stroke-linejoin="round" stroke-miterlimit="10" stroke-width="2"/><path d="m30.5 13.5c-8.5-2 4.6077.7275 4.6077.7275 2.4711.3953 4.1315 2.7483 3.6758 5.209l-3.6229 19.5635h-5.6606s9.5-23.5 1-25.5z" fill="#92b5d8"/><path d="m35.1077 14.2275-13.6368-2.1819c-2.1649-.3464-4.1261 1.3259-4.1261 3.5184v2.9477h-2.6724c-1.4759 0-2.6724 1.1965-2.6724 2.6724v7.1264c0 3.6374 4.454 6.5974 4.454 10.6895h18.7066l3.6229-19.5635c.4557-2.4607-1.2048-4.8137-3.6758-5.209z" stroke="#402b91" stroke-linecap="round" stroke-linejoin="round" stroke-miterlimit="10" stroke-width="2"/></svg>
