<svg width="50" height="51" viewBox="0 0 50 51" fill="none" xmlns="http://www.w3.org/2000/svg">
<path d="M36.4297 6.25147H18.3555C24.5614 7.40342 29.879 9.40311 34.2799 11.6299H39.8774L36.4297 6.25147Z" fill="#92B5D8"/>
<path d="M40.2099 22.2774H9.63057C8.73416 22.2774 8 21.5473 8 20.6468V13.5242C8 12.6278 8.73416 11.8936 9.63057 11.8936H40.2099C41.1063 11.8936 41.8405 12.6278 41.8405 13.5242V20.6468C41.8405 21.5473 41.1063 22.2774 40.2099 22.2774Z" stroke="#402B91" stroke-width="2" stroke-miterlimit="10" stroke-linecap="round" stroke-linejoin="round"/>
<path d="M13.6664 19.0365C14.7439 19.0365 15.6174 18.163 15.6174 17.0855C15.6174 16.008 14.7439 15.1345 13.6664 15.1345C12.5889 15.1345 11.7154 16.008 11.7154 17.0855C11.7154 18.163 12.5889 19.0365 13.6664 19.0365Z" stroke="#94D1BE" stroke-width="2" stroke-miterlimit="10" stroke-linecap="round" stroke-linejoin="round"/>
<path d="M24.3423 15.6658H36.7054" stroke="#736DB1" stroke-width="2" stroke-miterlimit="10" stroke-linecap="round" stroke-linejoin="round"/>
<path d="M24.3423 18.5051H36.7054" stroke="#736DB1" stroke-width="2" stroke-miterlimit="10" stroke-linecap="round" stroke-linejoin="round"/>
<path d="M40.2099 32.7179H9.63057C8.73416 32.7179 8 31.9837 8 31.0873V23.9647C8 23.0683 8.73416 22.3341 9.63057 22.3341H40.2099C41.1063 22.3341 41.8405 23.0683 41.8405 23.9647V31.0873C41.8405 31.9837 41.1063 32.7179 40.2099 32.7179Z" stroke="#402B91" stroke-width="2" stroke-miterlimit="10" stroke-linecap="round" stroke-linejoin="round"/>
<path d="M13.6664 29.477C14.7439 29.477 15.6174 28.6036 15.6174 27.526C15.6174 26.4485 14.7439 25.575 13.6664 25.575C12.5889 25.575 11.7154 26.4485 11.7154 27.526C11.7154 28.6036 12.5889 29.477 13.6664 29.477Z" stroke="#402B91" stroke-width="2" stroke-miterlimit="10" stroke-linecap="round" stroke-linejoin="round"/>
<path d="M24.3423 26.1064H36.7054" stroke="#736DB1" stroke-width="2" stroke-miterlimit="10" stroke-linecap="round" stroke-linejoin="round"/>
<path d="M24.3423 28.9457H36.7054" stroke="#736DB1" stroke-width="2" stroke-miterlimit="10" stroke-linecap="round" stroke-linejoin="round"/>
<path d="M40.2099 43.1544H9.63057C8.73416 43.1544 8 42.4243 8 41.5279V34.4012C8 33.5048 8.73416 32.7706 9.63057 32.7706H40.2099C41.1063 32.7706 41.8405 33.5048 41.8405 34.4012V41.5238C41.8405 42.4243 41.1063 43.1544 40.2099 43.1544Z" stroke="#402B91" stroke-width="2" stroke-miterlimit="10" stroke-linecap="round" stroke-linejoin="round"/>
<path d="M13.6664 39.9135C14.7439 39.9135 15.6174 39.04 15.6174 37.9625C15.6174 36.885 14.7439 36.0115 13.6664 36.0115C12.5889 36.0115 11.7154 36.885 11.7154 37.9625C11.7154 39.04 12.5889 39.9135 13.6664 39.9135Z" stroke="#94D1BE" stroke-width="2" stroke-miterlimit="10" stroke-linecap="round" stroke-linejoin="round"/>
<path d="M24.3423 36.5429H36.7054" stroke="#736DB1" stroke-width="2" stroke-miterlimit="10" stroke-linecap="round" stroke-linejoin="round"/>
<path d="M24.3423 39.3822H36.7054" stroke="#736DB1" stroke-width="2" stroke-miterlimit="10" stroke-linecap="round" stroke-linejoin="round"/>
<path d="M41.4187 12.4817L36.4499 6H24.898H13.3501L8.38135 12.4817" stroke="#402B91" stroke-width="2" stroke-miterlimit="10" stroke-linecap="round" stroke-linejoin="round"/>
</svg>
