<svg width="50" height="51" viewBox="0 0 50 51" fill="none" xmlns="http://www.w3.org/2000/svg">
<path d="M28.3361 25.2435C20.8379 25.2435 14.7565 19.1621 14.7565 11.6639C14.7565 10.7484 14.8476 9.85358 15.0216 8.98776C13.7498 10.8395 13 13.0848 13 15.5C13 21.8548 18.1493 27.0042 24.5 27.0042C26.9193 27.0042 29.1646 26.2543 31.0164 24.9784C30.1506 25.1524 29.2558 25.2435 28.3361 25.2435Z" fill="#92B5D8"/>
<path d="M24.5 15.5041C26.6186 15.5041 28.3361 13.7866 28.3361 11.668C28.3361 9.54939 26.6186 7.83191 24.5 7.83191C22.3814 7.83191 20.6639 9.54939 20.6639 11.668C20.6639 13.7866 22.3814 15.5041 24.5 15.5041Z" stroke="#736DB1" stroke-width="2" stroke-miterlimit="10" stroke-linecap="round" stroke-linejoin="round"/>
<path d="M24.5 27C30.8513 27 36 21.8513 36 15.5C36 9.14873 30.8513 4 24.5 4C18.1487 4 13 9.14873 13 15.5C13 21.8513 18.1487 27 24.5 27Z" stroke="#402B91" stroke-width="2" stroke-miterlimit="10" stroke-linecap="round" stroke-linejoin="round"/>
<path d="M20 26.5014V42.6119L24.0687 45.5014H25.9616L30 42.6332V39.9659H26.3099V38.6708L30 37.0208V34.4262H26.3099V33.0797L30 31.434V28.8864H26.1686V27.5442" stroke="#402B91" stroke-width="2" stroke-miterlimit="10" stroke-linecap="round" stroke-linejoin="round"/>
<path d="M23.0567 30.5014V39.5812" stroke="#94D1BE" stroke-width="2" stroke-miterlimit="10" stroke-linecap="round" stroke-linejoin="round"/>
</svg>
