<svg width="50" height="50" viewBox="0 0 50 50" fill="none" xmlns="http://www.w3.org/2000/svg">
<path d="M8 31.8499L8.23562 43L14.0842 42.9916L15.317 42.9243C15.2581 42.8696 15.1992 42.8191 15.1318 42.7644C8.22721 36.9243 9.19916 29.0687 9.19916 29.0687L8 31.8499Z" fill="#4C5062"/>
<path d="M15.3549 27.5792V10.366H38.0126V36.1206H17.972" stroke="#A3ACB9" stroke-width="2" stroke-miterlimit="10" stroke-linecap="round" stroke-linejoin="round"/>
<path d="M18.7209 24.2132V7H41.3787V32.7546H19.8444" stroke="#8E8E8E" stroke-width="2" stroke-miterlimit="10" stroke-linecap="round" stroke-linejoin="round"/>
<path d="M15.3549 22.1178C15.3549 22.1178 13.6761 23.3506 11.7574 24.7686C9.83875 26.1865 8.23987 29.0182 8.23987 32.7209C8.23987 36.4236 8.23987 43 8.23987 43H20.9425V40.3492C20.9425 40.3492 24.5063 39.9789 24.5063 36.1206" stroke="#A3ACB9" stroke-width="2" stroke-miterlimit="10" stroke-linecap="round" stroke-linejoin="round"/>
<path d="M12.1697 30.6171L20.8499 22.8962C22.5161 24.4025 22.1963 27.1248 21.1234 28.1977C20.0505 29.2707 18.885 30.2552 18.885 30.2552C18.885 30.2552 20.589 34.4123 16.3773 37.8415" stroke="#A3ACB9" stroke-width="2" stroke-miterlimit="10" stroke-linecap="round" stroke-linejoin="round"/>
<path d="M22.0112 17.1445H31.4067V25.9846H26.425" stroke="white" stroke-width="2" stroke-miterlimit="10" stroke-linecap="round" stroke-linejoin="round"/>
<path d="M24.5105 14.0603V16.791" stroke="white" stroke-width="2" stroke-miterlimit="10" stroke-linecap="round" stroke-linejoin="round"/>
<path d="M28.2847 14.0603V16.791" stroke="white" stroke-width="2" stroke-miterlimit="10" stroke-linecap="round" stroke-linejoin="round"/>
<path d="M28.2847 26.338V29.0687" stroke="white" stroke-width="2" stroke-miterlimit="10" stroke-linecap="round" stroke-linejoin="round"/>
<path d="M34.4404 19.3661H31.7097" stroke="white" stroke-width="2" stroke-miterlimit="10" stroke-linecap="round" stroke-linejoin="round"/>
<path d="M34.4404 23.1403H31.7097" stroke="white" stroke-width="2" stroke-miterlimit="10" stroke-linecap="round" stroke-linejoin="round"/>
</svg>
