<?xml version="1.0" encoding="UTF-8"?>
<svg width="430px" height="360px" viewBox="0 0 430 360" version="1.1" xmlns="http://www.w3.org/2000/svg" xmlns:xlink="http://www.w3.org/1999/xlink">
    <!-- Generator: sketchtool 55.1 (78136) - https://sketchapp.com -->
    <title>D7F1CDE5-76B6-47B3-B394-D962F26E8175@2x</title>
    <desc>Created with sketchtool.</desc>
    <g id="Diem---Form" stroke="none" stroke-width="1" fill="none" fill-rule="evenodd" opacity="0.100000001">
        <g id="Diem---Form-Success" transform="translate(-874.000000, 0.000000)">
            <g id="BG" transform="translate(-107.000000, -166.000000)">
                <g id="Form-Icon" transform="translate(1244.500000, 265.500000) rotate(-20.000000) translate(-1244.500000, -265.500000) translate(1030.000000, 62.000000)">
                    <path d="M318.933489,400.216667 C318.933489,403.952791 315.758534,407 311.865783,407 L15.022104,407 C11.1293526,407 7.95439739,403.952791 7.95439739,400.216667 L7.95439739,6.78333333 C7.95439739,3.047209 11.1293526,0 15.022104,0 L311.865783,0 C315.758534,0 318.933489,3.047209 318.933489,6.78333333 L318.933489,400.216667 Z" id="Path" fill="#16102C"></path>
                    <rect id="Rectangle" fill="#706BB0" x="0" y="23.8631922" width="3.9771987" height="335.020206" rx="1.98859935"></rect>
                    <polygon id="Path" fill="#42318C" points="50.3606372 88.1833333 276.527249 88.1833333 276.527249 47.4833333 50.3606372 47.4833333"></polygon>
                    <polygon id="Path" fill="#706BAF" points="50.3606372 142.45 276.527249 142.45 276.527249 101.75 50.3606372 101.75"></polygon>
                    <polygon id="Path" fill="#706BAF" points="50.3606372 196.716667 276.527249 196.716667 276.527249 156.016667 50.3606372 156.016667"></polygon>
                    <polygon id="Path" fill="#706BAF" points="50.3606372 250.983333 219.985596 250.983333 219.985596 210.283333 50.3606372 210.283333"></polygon>
                    <polygon id="Path" fill="#92B4D8" points="314.096125 235.288295 292.893005 214.938295 222.215938 282.771628 243.419058 303.121628"></polygon>
                    <polygon id="Path" fill="#92B4D8" points="299.960711 208.154962 321.163831 228.504962 420.111724 133.538295 398.908604 113.188295"></polygon>
                    <path d="M209.51527,311.200578 C208.852672,313.69135 211.199363,315.943621 213.794554,315.307683 L236.350433,309.90218 L215.147313,289.55218 L209.51527,311.200578 Z" id="Path" fill="#92B4D8"></path>
                </g>
            </g>
        </g>
    </g>
</svg>
