<svg width="50" height="50" viewBox="0 0 50 50" fill="none" xmlns="http://www.w3.org/2000/svg">
<path d="M30.5581 36.6378C27.054 36.6378 24.2224 36.6378 24.2224 36.6378C24.2224 36.6378 21.3907 36.6378 17.8867 36.6378C10.8076 36.6378 9 40.2838 9 40.2838H24.2224H39.4448C39.4479 40.2838 37.6372 36.6378 30.5581 36.6378Z" fill="#4C5062"/>
<path d="M40 9H9V40H40V9Z" stroke="#A3ACB9" stroke-width="2" stroke-miterlimit="10" stroke-linecap="round" stroke-linejoin="round"/>
<path d="M9 17.6152H23.553L26.215 14.9532H40" stroke="#A3ACB9" stroke-width="2" stroke-miterlimit="10" stroke-linecap="round" stroke-linejoin="round"/>
<path d="M12.8218 14.6109C13.5492 14.6109 14.1389 14.0212 14.1389 13.2937C14.1389 12.5663 13.5492 11.9766 12.8218 11.9766C12.0943 11.9766 11.5046 12.5663 11.5046 13.2937C11.5046 14.0212 12.0943 14.6109 12.8218 14.6109Z" fill="white"/>
<path d="M17.1927 14.6109C17.9201 14.6109 18.5098 14.0212 18.5098 13.2937C18.5098 12.5663 17.9201 11.9766 17.1927 11.9766C16.4653 11.9766 15.8756 12.5663 15.8756 13.2937C15.8756 14.0212 16.4653 14.6109 17.1927 14.6109Z" fill="white"/>
<path d="M21.5633 14.6109C22.2908 14.6109 22.8804 14.0212 22.8804 13.2937C22.8804 12.5663 22.2908 11.9766 21.5633 11.9766C20.8359 11.9766 20.2462 12.5663 20.2462 13.2937C20.2462 14.0212 20.8359 14.6109 21.5633 14.6109Z" fill="white"/>
<path d="M17.3498 23.6517L14.222 26.7795L17.6706 30.2281" stroke="#8E8E8E" stroke-width="2" stroke-miterlimit="10" stroke-linecap="round" stroke-linejoin="round"/>
<path d="M31.178 23.6517L34.3057 26.7795L30.8572 30.2281" stroke="#8E8E8E" stroke-width="2" stroke-miterlimit="10" stroke-linecap="round" stroke-linejoin="round"/>
<path d="M26.7333 22.0879L21.9491 32.85" stroke="#8E8E8E" stroke-width="2" stroke-miterlimit="10" stroke-linecap="round" stroke-linejoin="round"/>
</svg>
