<svg width="50" height="50" viewBox="0 0 50 50" fill="none" xmlns="http://www.w3.org/2000/svg">
<path d="M23.6947 24.86H34.1111" stroke="#A3ACB9" stroke-width="2" stroke-miterlimit="10" stroke-linecap="round" stroke-linejoin="round"/>
<path d="M21.6367 37.6201C19.582 37.6201 17.9233 37.6201 17.9233 37.6201C17.9233 37.6201 16.2646 37.6201 14.2098 37.6201C10.0614 37.6201 9 40.3694 9 40.3694H17.9233H26.8466C26.8466 40.3694 25.7851 37.6201 21.6367 37.6201Z" fill="#4C5062"/>
<path d="M17.9232 22.393V27.327" stroke="white" stroke-width="2" stroke-miterlimit="10" stroke-linecap="round" stroke-linejoin="round"/>
<path d="M20.3902 24.86H15.4563" stroke="white" stroke-width="2" stroke-miterlimit="10" stroke-linecap="round" stroke-linejoin="round"/>
<path d="M20.6403 19.9488L33.9164 12.6907" stroke="#8E8E8E" stroke-width="2" stroke-miterlimit="10" stroke-linecap="round" stroke-linejoin="round"/>
<path d="M39.9475 15.703H35.5817C34.9389 15.703 34.4131 15.1772 34.4131 14.5344V10.1686C34.4131 9.52585 34.9389 9 35.5817 9H39.9475C40.5902 9 41.1161 9.52585 41.1161 10.1686V14.5344C41.1161 15.1772 40.5902 15.703 39.9475 15.703Z" stroke="#A3ACB9" stroke-width="2" stroke-miterlimit="10" stroke-linecap="round" stroke-linejoin="round"/>
<path d="M25.678 40.72H10.1686C9.52585 40.72 9 40.1941 9 39.5514V10.1686C9 9.52585 9.52585 9 10.1686 9H25.6747C26.3175 9 26.8433 9.52585 26.8433 10.1686V39.5482C26.8466 40.1941 26.3207 40.72 25.678 40.72Z" stroke="#A3ACB9" stroke-width="2" stroke-miterlimit="10" stroke-linecap="round" stroke-linejoin="round"/>
<path d="M20.6403 29.7712L33.9164 37.0325" stroke="#8E8E8E" stroke-width="2" stroke-miterlimit="10" stroke-linecap="round" stroke-linejoin="round"/>
<path d="M39.9475 34.017H35.5817C34.9389 34.017 34.4131 34.5429 34.4131 35.1856V39.5514C34.4131 40.1942 34.9389 40.72 35.5817 40.72H39.9475C40.5902 40.72 41.1161 40.1942 41.1161 39.5514V35.1856C41.1161 34.5429 40.5902 34.017 39.9475 34.017Z" stroke="#A3ACB9" stroke-width="2" stroke-miterlimit="10" stroke-linecap="round" stroke-linejoin="round"/>
<path d="M39.9475 21.5101H35.5817C34.9389 21.5101 34.4131 22.036 34.4131 22.6787V27.0445C34.4131 27.6873 34.9389 28.2131 35.5817 28.2131H39.9475C40.5902 28.2131 41.1161 27.6873 41.1161 27.0445V22.6787C41.1161 22.036 40.5902 21.5101 39.9475 21.5101Z" stroke="#A3ACB9" stroke-width="2" stroke-miterlimit="10" stroke-linecap="round" stroke-linejoin="round"/>
<path d="M17.9233 30.3036C20.9297 30.3036 23.3668 27.8664 23.3668 24.86C23.3668 21.8536 20.9297 19.4164 17.9233 19.4164C14.9169 19.4164 12.4797 21.8536 12.4797 24.86C12.4797 27.8664 14.9169 30.3036 17.9233 30.3036Z" stroke="#A3ACB9" stroke-width="2" stroke-miterlimit="10" stroke-linecap="round" stroke-linejoin="round"/>
<path d="M37.7661 13.7814C38.5549 13.7814 39.1944 13.1419 39.1944 12.3531C39.1944 11.5643 38.5549 10.9249 37.7661 10.9249C36.9773 10.9249 36.3379 11.5643 36.3379 12.3531C36.3379 13.1419 36.9773 13.7814 37.7661 13.7814Z" fill="#8E8E8E"/>
<path d="M37.7661 26.2882C38.5549 26.2882 39.1944 25.6488 39.1944 24.86C39.1944 24.0712 38.5549 23.4318 37.7661 23.4318C36.9773 23.4318 36.3379 24.0712 36.3379 24.86C36.3379 25.6488 36.9773 26.2882 37.7661 26.2882Z" fill="#8E8E8E"/>
<path d="M37.7661 38.7951C38.5549 38.7951 39.1944 38.1557 39.1944 37.3669C39.1944 36.5781 38.5549 35.9386 37.7661 35.9386C36.9773 35.9386 36.3379 36.5781 36.3379 37.3669C36.3379 38.1557 36.9773 38.7951 37.7661 38.7951Z" fill="#8E8E8E"/>
</svg>
