<svg width="50" height="50" viewBox="0 0 50 50" fill="none" xmlns="http://www.w3.org/2000/svg">
<path d="M21.2578 23.3744C20.9532 24.3456 20.3403 25.5211 19.2401 27.3237C17.2798 30.5348 19.5125 34.4411 22.6949 35.0109C23.1966 31.7067 23.6517 25.9081 21.2578 23.3744Z" fill="#4C5062"/>
<path d="M24.0101 35.4517C24.0066 35.4552 24.0066 35.4552 24.0101 35.4517C24.0496 35.4552 24.0926 35.4552 24.132 35.4552C24.089 35.4588 24.0496 35.4552 24.0101 35.4517Z" fill="#4C5062"/>
<path d="M32.4894 24.6609C33.6971 21.4176 33.181 18.8838 32.4571 17.2389C32.0557 19.2781 31.4572 23.3851 28.9773 26.1159C30.0166 30.7927 28.0598 35.4552 24.1284 35.4552C36.8293 35.4588 36.8293 23.4962 36.8293 23.4962C34.9263 25.2092 32.4894 24.6609 32.4894 24.6609Z" fill="#4C5062"/>
<path d="M25.9776 8C14.6529 11.4619 16.7064 24.0159 16.7064 24.0159C15.0686 23.9836 13.0688 21.4356 13.0688 21.4356C13.0688 21.4356 11.4311 35.4589 24.132 35.4589C36.8329 35.4589 36.8293 23.4962 36.8293 23.4962C34.9263 25.2093 32.4893 24.661 32.4893 24.661C34.7184 18.6761 31.0809 15.0959 31.0809 15.0959C31.0809 15.0959 29.3499 19.5828 26.0923 17.1494C22.8346 14.716 25.9776 8 25.9776 8Z" stroke="#A3ACB9" stroke-width="2" stroke-miterlimit="10" stroke-linecap="round" stroke-linejoin="round"/>
<path d="M24.0997 35.4589C20.0716 35.4589 16.9537 30.6494 19.3297 26.7503C21.4585 23.2633 21.971 21.8656 21.8563 20.131C21.8563 20.131 25.8916 21.475 25.8558 26.2055C27.2499 25.6393 28.196 24.471 28.196 24.471C30.9877 28.6533 28.1279 35.4589 24.0997 35.4589Z" stroke="#8E8E8E" stroke-width="2" stroke-miterlimit="10" stroke-linecap="round" stroke-linejoin="round"/>
<path d="M34.6253 38.2005H14.2264V41.9204H34.6253V38.2005Z" stroke="white" stroke-width="2" stroke-miterlimit="10" stroke-linecap="round" stroke-linejoin="round"/>
</svg>
