<?xml version="1.0" encoding="UTF-8"?>
<svg width="40px" height="40px" viewBox="0 0 40 40" version="1.1" xmlns="http://www.w3.org/2000/svg" xmlns:xlink="http://www.w3.org/1999/xlink">
    <title>A478ECB3-3797-48FA-809C-D4C69FD00DB0</title>
    <g id="---Developers" stroke="none" stroke-width="1" fill="none" fill-rule="evenodd">
        <g id="Documentation---Home-Page---Dark-Mode" transform="translate(-387.000000, -1188.000000)" fill="#FFFFFF" fill-rule="nonzero">
            <g id="Content" transform="translate(307.000000, 194.000000)">
                <g id="Projects-on-Git" transform="translate(60.000000, 920.000000)">
                    <g id="Projects" transform="translate(0.000000, 54.000000)">
                        <g id="Icon-Copy" transform="translate(20.000000, 20.000000)">
                            <path d="M37.3171343,10.2106855 C35.5286789,7.06954026 33.1027532,4.58269119 30.0387189,2.74957732 C26.9742285,0.916369942 23.6287185,0 19.9998176,0 C16.3713727,0 13.0247682,0.916650435 9.9609163,2.74957732 C6.89660834,4.58259769 4.47077388,7.06954026 2.68231839,10.2106855 C0.894136533,13.3517373 0,16.7817901 0,20.5007505 C0,24.9680656 1.27147437,28.9851899 3.81506159,32.5531516 C6.35837518,36.1213939 9.64395981,38.5904784 13.6715419,39.9606857 C14.1403638,40.0498824 14.4874198,39.9871455 14.7130746,39.7740645 C14.9388206,39.560703 15.0515567,39.2934869 15.0515567,38.9735381 C15.0515567,38.920151 15.0470874,38.4398538 15.0384224,37.5320856 C15.0294838,36.6243175 15.0252881,35.8323928 15.0252881,35.1566857 L14.4263088,35.262899 C14.0444104,35.3346116 13.5626365,35.3649984 12.9809872,35.3563966 C12.3996114,35.3480753 11.7960716,35.2856189 11.1711884,35.1694949 C10.5460317,35.0543993 9.96456472,34.7874637 9.42633156,34.369249 C8.88837203,33.9510342 8.50647367,33.4036058 8.28072768,32.7278051 L8.0203217,32.1135259 C7.84674812,31.7045675 7.57348146,31.2502626 7.20015688,30.7522944 C6.8268323,30.2538587 6.44931204,29.9159584 6.06741368,29.7380325 L5.88508389,29.6042374 C5.7635915,29.5153212 5.65085533,29.4080795 5.54660172,29.2836342 C5.44243933,29.1591889 5.36445436,29.0346501 5.31237316,28.9099243 C5.26020075,28.785105 5.30343453,28.6827251 5.44253054,28.6024107 C5.58162656,28.5220963 5.8330027,28.4831078 6.19775349,28.4831078 L6.71838302,28.5628612 C7.06562139,28.6341999 7.49513164,28.8472809 8.00746102,29.2034133 C8.51951677,29.5592651 8.94045322,30.0218912 9.2703616,30.5911046 C9.66986359,31.3209468 10.1511814,31.8770705 10.7156832,32.2597562 C11.2797289,32.6424418 11.8484264,32.8334574 12.4212283,32.8334574 C12.9940303,32.8334574 13.488756,32.7889526 13.905588,32.7004104 C14.3219639,32.6114006 14.7126185,32.4776056 15.0773693,32.2997732 C15.2336129,31.1069308 15.6590187,30.1905609 16.3532218,29.5500088 C15.3637703,29.4434216 14.4741943,29.2828862 13.6840377,29.0694312 C12.8943372,28.8556957 12.0782769,28.5088196 11.2364039,28.027868 C10.394075,27.5475708 9.69531132,26.9511497 9.13993059,26.2396329 C8.58445864,25.5277422 8.12858856,24.5931403 7.77295882,23.4366685 C7.41714666,22.2797292 7.23919498,20.9451446 7.23919498,19.4325404 C7.23919498,17.2788233 7.92509794,15.4460834 9.29663023,13.9332923 C8.65414346,12.3141009 8.71479845,10.4989386 9.4787776,8.48799229 C9.98225956,8.32764392 10.7289087,8.44797532 11.7183602,8.84823853 C12.7079941,9.24868874 13.4325704,9.59173142 13.8928185,9.87615111 C14.3530667,10.1604773 14.7218308,10.4014206 14.999658,10.5968306 C16.6145399,10.134298 18.2810469,9.90298492 19.9996352,9.90298492 C21.7182234,9.90298492 23.3850953,10.134298 25.0000684,10.5968306 L25.9896111,9.95646554 C26.6663018,9.52918153 27.465397,9.13761359 28.3849813,8.78166824 C29.3051128,8.42590989 30.0087106,8.32792441 30.495045,8.48827279 C31.2759893,10.4993126 31.3455829,12.3143814 30.7029137,13.9335728 C32.0743548,15.4463639 32.7605314,17.2795713 32.7605314,19.4328209 C32.7605314,20.945425 32.5819412,22.2842171 32.2266763,23.4500387 C31.8709554,24.6160472 31.4111633,25.5497142 30.8471175,26.2530031 C30.2824333,26.9561985 29.5792004,27.5479448 28.7373274,28.0281485 C27.8952721,28.5087261 27.0789381,28.8556022 26.2892376,29.0693377 C25.4991723,29.2830732 24.6095963,29.4437021 23.6201448,29.5504763 C24.5225814,30.3510028 24.973891,31.6146228 24.973891,33.3407754 L24.973891,38.9727901 C24.973891,39.2927389 25.0824315,39.5598615 25.2996949,39.7733165 C25.5166847,39.9863975 25.8593625,40.0491344 26.3281845,39.9598442 C30.3563138,38.589824 33.6418985,36.1206459 36.1851208,32.5524037 C38.7280696,28.9844419 40,24.9673177 40,20.5 C39.9990879,16.7815096 39.1044953,13.3517373 37.3171343,10.2106855 Z" id="Path"></path>
                        </g>
                    </g>
                </g>
            </g>
        </g>
    </g>
</svg>
