<svg width="50" height="51" viewBox="0 0 50 51" fill="none" xmlns="http://www.w3.org/2000/svg">
<path fill-rule="evenodd" clip-rule="evenodd" d="M19.1851 16.0195L7.00001 16.0195V11L24.2046 11C24.2046 13.7722 21.9573 16.0195 19.1851 16.0195Z" fill="#92B5D8"/>
<path d="M41.9732 11H8C7.44772 11 7 11.4477 7 12V38.3193C7 38.8716 7.44772 39.3193 8 39.3193H41.9732C42.5255 39.3193 42.9732 38.8716 42.9732 38.3193V12C42.9732 11.4477 42.5255 11 41.9732 11Z" stroke="#402B91" stroke-width="2"/>
<path d="M7 15.6546H42.9732" stroke="#402B91" stroke-width="2"/>
<path d="M36.2969 30.491L39.1149 27.791C39.3798 27.5372 39.3888 27.1166 39.135 26.8516C39.1339 26.8505 39.1328 26.8494 39.1318 26.8483L36.525 24.1653" stroke="#94D1BE" stroke-width="2" stroke-linecap="round"/>
<path d="M13.3196 30.491L10.5016 27.791C10.2366 27.5372 10.2276 27.1166 10.4815 26.8516C10.4826 26.8505 10.4836 26.8494 10.4847 26.8483L13.0914 24.1653" stroke="#94D1BE" stroke-width="2" stroke-linecap="round"/>
<path d="M32.5992 26.6143C32.39 25.3718 31.634 24.6107 30.4693 24.2205C30.0004 24.0634 29.5125 24.0601 29.0247 24.1186C28.5681 24.1733 28.125 24.2807 27.7014 24.4636C27.1505 24.7014 26.6956 25.0631 26.3158 25.5232C25.9988 25.907 25.7426 26.326 25.5863 26.801C25.5685 26.8553 25.5358 26.854 25.4932 26.8539C24.5687 26.8534 23.6443 26.8565 22.7198 26.8507C22.5539 26.8497 22.4565 26.9122 22.3858 27.0579C22.2414 27.3553 22.1 27.6537 21.9686 27.9568C21.9646 27.9663 21.9604 27.9758 21.9567 27.9855C21.8887 28.162 21.9506 28.2562 22.1408 28.2567C22.6845 28.2583 23.2284 28.2573 23.7721 28.2573C23.8024 28.2573 23.8326 28.2573 23.8763 28.2573C23.7409 28.4673 23.6015 28.6536 23.4197 28.8059C22.9873 29.1682 22.4934 29.2864 21.9464 29.1626C21.3593 29.0297 20.9297 28.5195 20.8762 27.9016C20.7704 26.6806 21.644 25.956 22.405 25.7824C22.957 25.6566 23.4489 25.7967 23.8332 26.2272C23.9362 26.3425 24.0267 26.3778 24.1807 26.3339C24.6577 26.1977 25.1397 26.0795 25.6198 25.954C25.6472 25.9468 25.6745 25.9384 25.701 25.9282C25.7604 25.9051 25.777 25.8669 25.7503 25.8058C25.3762 24.9513 24.7404 24.3894 23.8482 24.12C23.371 23.976 22.8836 23.9733 22.3946 24.0503C21.7318 24.1548 21.1205 24.3901 20.5865 24.7995C19.8253 25.3829 19.2744 26.119 19.0446 27.0605C18.8494 27.8604 18.9136 28.644 19.3107 29.3774C19.6609 30.0243 20.2051 30.4601 20.8838 30.7291C21.4804 30.9657 22.0996 30.9913 22.7245 30.8797C23.9852 30.6545 24.8754 29.925 25.4918 28.83C25.503 28.8099 25.5137 28.7895 25.5313 28.757C25.5548 28.8261 25.5733 28.8849 25.5946 28.9426C25.8912 29.7456 26.4522 30.2999 27.2206 30.6546C27.6713 30.8627 28.1516 30.9652 28.6445 30.9554C29.2277 30.9437 29.7955 30.8266 30.3279 30.5755C31.2904 30.1215 32.0052 29.4247 32.4135 28.4332C32.5353 28.1376 32.5984 27.8264 32.6255 27.508C32.6269 27.491 32.6205 27.471 32.6404 27.4593C32.6404 27.4231 32.6404 27.387 32.6404 27.3508C32.6404 27.2215 32.6404 27.0923 32.6404 26.963C32.6404 26.9423 32.6404 26.9217 32.6404 26.901C32.6076 26.8084 32.6154 26.7097 32.5992 26.6143ZM30.3385 28.5111C30.017 28.8685 29.6246 29.1168 29.1465 29.2036C28.321 29.3533 27.3866 28.8496 27.3147 27.8296C27.2597 27.0484 27.7353 26.2823 28.4513 25.9554C28.828 25.7834 29.2198 25.695 29.6355 25.7835C30.301 25.9252 30.7494 26.4797 30.806 27.1397C30.81 27.1861 30.8108 27.2326 30.8131 27.2791C30.7918 27.7422 30.6522 28.1625 30.3385 28.5111Z" fill="#736DB1"/>
<path d="M18.4332 26.6081C18.4103 26.6052 18.3867 26.607 18.3634 26.607C17.0849 26.607 15.8065 26.6058 14.5279 26.6077C14.1666 26.6081 14.2721 26.5625 14.0509 26.8402C14.0301 26.8663 13.9848 26.891 14.005 26.9288C14.022 26.9602 14.0669 26.9445 14.0996 26.9445C14.7957 26.9451 15.4919 26.945 16.188 26.945C16.188 26.9417 16.188 26.9385 16.188 26.9352C16.6358 26.9352 17.0834 26.9353 17.5311 26.9352C17.7873 26.935 18.0436 26.9339 18.2997 26.9338C18.3458 26.9338 18.3893 26.9302 18.4072 26.8781C18.4305 26.8098 18.4526 26.7409 18.4756 26.6725C18.4892 26.6322 18.4704 26.6129 18.4332 26.6081Z" fill="#736DB1"/>
<path d="M18.8819 25.7728C18.8612 25.7731 18.8405 25.7728 18.8197 25.7728C17.8487 25.7728 16.8778 25.7714 15.9067 25.7735C15.5314 25.7743 15.6455 25.7275 15.4116 26.0183C15.3939 26.0404 15.3566 26.0619 15.376 26.0955C15.3919 26.1232 15.4286 26.1092 15.4558 26.1093C15.984 26.1099 16.5121 26.1098 17.0405 26.1098C17.0405 26.1129 17.0405 26.116 17.0405 26.1191C17.5686 26.1191 18.0968 26.1188 18.625 26.1196C18.687 26.1197 18.7449 26.1146 18.7828 26.0575C18.83 25.9864 18.8769 25.9152 18.9231 25.8437C18.9548 25.7941 18.9376 25.772 18.8819 25.7728Z" fill="#736DB1"/>
<path d="M18.1796 27.4428C17.6645 27.4426 17.1496 27.4409 16.6344 27.4434C16.3094 27.445 16.3892 27.396 16.2215 27.6874C16.177 27.7647 16.1858 27.7783 16.2775 27.7784C16.5906 27.779 16.9038 27.7786 17.2169 27.7786C17.2169 27.7811 17.2169 27.7834 17.2169 27.7859C17.5301 27.7859 17.8432 27.7843 18.1564 27.7871C18.2325 27.7878 18.2756 27.7675 18.2742 27.6842C18.2734 27.6405 18.2821 27.5968 18.2844 27.5529C18.29 27.4486 18.2843 27.4428 18.1796 27.4428Z" fill="#736DB1"/>
</svg>
