<?xml version="1.0" encoding="UTF-8"?>
<svg width="26px" height="26px" viewBox="0 0 26 26" version="1.1" xmlns="http://www.w3.org/2000/svg" xmlns:xlink="http://www.w3.org/1999/xlink">
    <title>Icon/Home</title>
    <g id="---Developers" stroke="none" stroke-width="1" fill="none" fill-rule="evenodd">
        <g id="Documentation---Home-Page" transform="translate(-32.000000, -228.000000)">
            <g id="Group">
                <g id="Left-Rail" transform="translate(0.000000, 140.000000)">
                    <g id="Left-TOC" transform="translate(30.000000, 84.000000)">
                        <g id="Home">
                            <g id="Icon/Home" transform="translate(0.000000, 2.000000)">
                                <g id="Home" transform="translate(3.000000, 2.500000)">
                                    <path d="M7.13351028,7.4896241 C9.65010716,10.006221 13.7303169,10.006221 16.2469138,7.4896241 L16.2469138,7.4896241 L16.2469138,7.4896241 L11.8544993,4.04632584 L7.13351028,7.4896241 Z" id="Path-26" fill="#92B1DE"></path>
                                    <line x1="2.61293405" y1="21.7907388" x2="8.56395418" y2="21.7907388" id="Path-23" stroke="#91D0BC"></line>
                                    <line x1="15.1878519" y1="21.7907388" x2="20.6974757" y2="21.7907388" id="Path-23" stroke="#91D0BC"></line>
                                    <polygon id="Path-19" stroke="#473490" points="0 9.57591008 0 13.715322 11.8267999 4.47289961 23.5963887 13.715322 23.5963887 9.57591008 11.8267999 -5.68434189e-14"></polygon>
                                    <polyline id="Path-24" stroke="#7167B1" points="8.33540552 24.1737762 8.33540552 14.7067751 15.3354055 14.7067751 15.3354055 24.1737762"></polyline>
                                    <polyline id="Path-22" stroke="#47378E" points="2.61293405 12.0463258 2.61293405 24.1737762 20.76749 24.1737762 20.76749 11.5136159"></polyline>
                                    <path d="" id="Path-25" stroke="#979797"></path>
                                </g>
                            </g>
                        </g>
                    </g>
                </g>
            </g>
        </g>
    </g>
</svg>
