<svg width="50" height="50" viewBox="0 0 50 50" fill="none" xmlns="http://www.w3.org/2000/svg">
<path d="M10.0103 16.6696C9.98715 16.8617 10.0103 17.8635 10.0103 18.0602C10.0103 20.8436 12.287 23.1204 15.0705 23.1204L30.5078 22.7872C24.1427 22.2018 15.0705 23.1204 10.0103 16.6696Z" fill="#92B5D8"/>
<path d="M35.0575 23.1204H15.0713C12.2878 23.1204 10.0111 20.8436 10.0111 18.0602C10.0111 15.2767 12.2878 13 15.0713 13H35.0575C37.8409 13 40.1177 15.2767 40.1177 18.0602C40.12 20.8436 37.8409 23.1204 35.0575 23.1204Z" stroke="#402B91" stroke-width="2" stroke-miterlimit="10" stroke-linecap="round" stroke-linejoin="round"/>
<path d="M34.7651 20.4365C36.0775 20.4365 37.1414 19.3726 37.1414 18.0602C37.1414 16.7479 36.0775 15.684 34.7651 15.684C33.4528 15.684 32.3889 16.7479 32.3889 18.0602C32.3889 19.3726 33.4528 20.4365 34.7651 20.4365Z" stroke="#94D1BE" stroke-width="2" stroke-miterlimit="10" stroke-linecap="round" stroke-linejoin="round"/>
<path d="M26.8687 19.4507C27.6367 19.4507 28.2593 18.8282 28.2593 18.0602C28.2593 17.2922 27.6367 16.6696 26.8687 16.6696C26.1007 16.6696 25.4781 17.2922 25.4781 18.0602C25.4781 18.8282 26.1007 19.4507 26.8687 19.4507Z" fill="#736DB1"/>
<path d="M22.232 19.4507C23 19.4507 23.6226 18.8282 23.6226 18.0602C23.6226 17.2922 23 16.6696 22.232 16.6696C21.464 16.6696 20.8414 17.2922 20.8414 18.0602C20.8414 18.8282 21.464 19.4507 22.232 19.4507Z" fill="#736DB1"/>
<path d="M17.5952 19.4507C18.3631 19.4507 18.9857 18.8282 18.9857 18.0602C18.9857 17.2922 18.3631 16.6696 17.5952 16.6696C16.8272 16.6696 16.2046 17.2922 16.2046 18.0602C16.2046 18.8282 16.8272 19.4507 17.5952 19.4507Z" fill="#736DB1"/>
<path d="M40.1075 31.0292C40.1307 31.2213 40.1075 32.2231 40.1075 32.4198C40.1075 35.2032 37.8308 37.48 35.0473 37.48L19.61 37.1468C25.9774 36.5614 35.0473 37.48 40.1075 31.0292Z" fill="#92B5D8"/>
<path d="M15.0612 37.48H35.0473C37.8308 37.48 40.1075 35.2032 40.1075 32.4198C40.1075 29.6364 37.8308 27.3596 35.0473 27.3596H15.0612C12.2777 27.3596 10.001 29.6364 10.001 32.4198C10.001 35.2032 12.2777 37.48 15.0612 37.48Z" stroke="#402B91" stroke-width="2" stroke-miterlimit="10" stroke-linecap="round" stroke-linejoin="round"/>
<path d="M15.3528 34.796C16.6651 34.796 17.729 33.7322 17.729 32.4198C17.729 31.1075 16.6651 30.0436 15.3528 30.0436C14.0404 30.0436 12.9766 31.1075 12.9766 32.4198C12.9766 33.7322 14.0404 34.796 15.3528 34.796Z" stroke="#94D1BE" stroke-width="2" stroke-miterlimit="10" stroke-linecap="round" stroke-linejoin="round"/>
<path d="M23.2513 33.8104C24.0193 33.8104 24.6418 33.1878 24.6418 32.4198C24.6418 31.6518 24.0193 31.0292 23.2513 31.0292C22.4833 31.0292 21.8607 31.6518 21.8607 32.4198C21.8607 33.1878 22.4833 33.8104 23.2513 33.8104Z" fill="#736DB1"/>
<path d="M27.8882 33.8104C28.6562 33.8104 29.2788 33.1878 29.2788 32.4198C29.2788 31.6518 28.6562 31.0292 27.8882 31.0292C27.1203 31.0292 26.4977 31.6518 26.4977 32.4198C26.4977 33.1878 27.1203 33.8104 27.8882 33.8104Z" fill="#736DB1"/>
<path d="M32.5226 33.8104C33.2906 33.8104 33.9132 33.1878 33.9132 32.4198C33.9132 31.6518 33.2906 31.0292 32.5226 31.0292C31.7547 31.0292 31.1321 31.6518 31.1321 32.4198C31.1321 33.1878 31.7547 33.8104 32.5226 33.8104Z" fill="#736DB1"/>
</svg>
