<svg width="50" height="50" viewBox="0 0 50 50" fill="none" xmlns="http://www.w3.org/2000/svg">
<path d="M12.699 36.9132V39.341H22.19V36.738H27.5416V39.341H36.9133V36.9132H37.3795C36.0817 35.9548 34.0679 35.0784 31.0173 35.0784C27.6908 35.0784 24.9982 35.0784 24.9982 35.0784C24.9982 35.0784 22.3094 35.0784 18.9791 35.0784C15.9286 35.0784 13.9147 35.9548 12.6169 36.9132H12.699Z" fill="#92B5D8"/>
<path d="M24.9981 33.9447C30.003 33.9447 34.0603 29.8874 34.0603 24.8825C34.0603 19.8776 30.003 15.8203 24.9981 15.8203C19.9932 15.8203 15.9359 19.8776 15.9359 24.8825C15.9359 29.8874 19.9932 33.9447 24.9981 33.9447Z" stroke="#402B91" stroke-width="2" stroke-miterlimit="10" stroke-linecap="round" stroke-linejoin="round"/>
<path d="M15.9359 24.8825H34.0603" stroke="#402B91" stroke-width="2" stroke-miterlimit="10" stroke-linecap="round" stroke-linejoin="round"/>
<path d="M23.3647 16.0814C23.3647 16.0814 20.426 19.6093 20.426 24.9273C20.426 30.2453 23.3647 33.7732 23.3647 33.7732" stroke="#402B91" stroke-width="2" stroke-miterlimit="10" stroke-linecap="round" stroke-linejoin="round"/>
<path d="M24.9423 15.8203V33.9447" stroke="#402B91" stroke-width="2" stroke-miterlimit="10" stroke-linecap="round" stroke-linejoin="round"/>
<path d="M26.5757 16.0814C26.5757 16.0814 29.5144 19.6093 29.5144 24.9273C29.5144 30.2453 26.5757 33.7732 26.5757 33.7732" stroke="#402B91" stroke-width="2" stroke-miterlimit="10" stroke-linecap="round" stroke-linejoin="round"/>
<path d="M10.5433 22.4585V13.0868" stroke="#402B91" stroke-width="2" stroke-miterlimit="10" stroke-linecap="round" stroke-linejoin="round"/>
<path d="M10.5433 36.9132V27.5415" stroke="#402B91" stroke-width="2" stroke-miterlimit="10" stroke-linecap="round" stroke-linejoin="round"/>
<path d="M22.4584 39.4566H13.0867" stroke="#402B91" stroke-width="2" stroke-miterlimit="10" stroke-linecap="round" stroke-linejoin="round"/>
<path d="M36.9132 39.4566H27.5415" stroke="#402B91" stroke-width="2" stroke-miterlimit="10" stroke-linecap="round" stroke-linejoin="round"/>
<path d="M39.4567 27.5415V36.9132" stroke="#402B91" stroke-width="2" stroke-miterlimit="10" stroke-linecap="round" stroke-linejoin="round"/>
<path d="M39.4567 13.0868V22.4585" stroke="#402B91" stroke-width="2" stroke-miterlimit="10" stroke-linecap="round" stroke-linejoin="round"/>
<path d="M27.5415 10.5434H36.9132" stroke="#402B91" stroke-width="2" stroke-miterlimit="10" stroke-linecap="round" stroke-linejoin="round"/>
<path d="M13.0867 10.5434H22.4584" stroke="#402B91" stroke-width="2" stroke-miterlimit="10" stroke-linecap="round" stroke-linejoin="round"/>
<path d="M27.5453 8H22.4585V13.0868H27.5453V8Z" stroke="#402B91" stroke-width="2" stroke-miterlimit="10" stroke-linecap="round" stroke-linejoin="round"/>
<path d="M13.0868 8H8V13.0868H13.0868V8Z" stroke="#736DB1" stroke-width="2" stroke-miterlimit="10" stroke-linecap="round" stroke-linejoin="round"/>
<path d="M42.0001 8H36.9133V13.0868H42.0001V8Z" stroke="#94D1BE" stroke-width="2" stroke-miterlimit="10" stroke-linecap="round" stroke-linejoin="round"/>
<path d="M13.0868 36.9132H8V42H13.0868V36.9132Z" stroke="#94D1BE" stroke-width="2" stroke-miterlimit="10" stroke-linecap="round" stroke-linejoin="round"/>
<path d="M42.0001 36.9132H36.9133V42H42.0001V36.9132Z" stroke="#736DB1" stroke-width="2" stroke-miterlimit="10" stroke-linecap="round" stroke-linejoin="round"/>
<path d="M27.5453 36.9132H22.4585V42H27.5453V36.9132Z" stroke="#402B91" stroke-width="2" stroke-miterlimit="10" stroke-linecap="round" stroke-linejoin="round"/>
<path d="M8.00098 22.4563V27.5431H13.0877V22.4563H8.00098Z" stroke="#402B91" stroke-width="2" stroke-miterlimit="10" stroke-linecap="round" stroke-linejoin="round"/>
<path d="M36.916 22.4581V27.5448H42.0028V22.4581H36.916Z" stroke="#402B91" stroke-width="2" stroke-miterlimit="10" stroke-linecap="round" stroke-linejoin="round"/>
</svg>
