<svg width="50" height="50" viewBox="0 0 50 50" fill="none" xmlns="http://www.w3.org/2000/svg">
<path d="M25.0501 26.9155C26.12 26.9155 26.9874 26.0481 26.9874 24.9782C26.9874 23.9082 26.12 23.0409 25.0501 23.0409C23.9801 23.0409 23.1128 23.9082 23.1128 24.9782C23.1128 26.0481 23.9801 26.9155 25.0501 26.9155Z" fill="white"/>
<path d="M25.05 20.1465V13.9189" stroke="#8E8E8E" stroke-width="2" stroke-miterlimit="10" stroke-linecap="round" stroke-linejoin="round"/>
<path d="M22.479 16.49L25.0501 13.9189L27.6186 16.49" stroke="#8E8E8E" stroke-width="2" stroke-miterlimit="10" stroke-linecap="round" stroke-linejoin="round"/>
<path d="M33.6151 27.3773C31.9088 29.0836 30.5309 30.4615 30.5309 30.4615C30.5309 30.4615 29.153 31.8394 27.4466 33.5458C24.0005 36.9919 25.7479 40.4969 25.7479 40.4969L33.1584 33.0891L40.5663 25.6812C40.5663 25.6786 37.0612 23.9338 33.6151 27.3773Z" fill="#4C5062"/>
<path d="M25.05 29.815V36.0425" stroke="#8E8E8E" stroke-width="2" stroke-miterlimit="10" stroke-linecap="round" stroke-linejoin="round"/>
<path d="M22.479 33.4715L25.0501 36.0425L27.6186 33.4715" stroke="#8E8E8E" stroke-width="2" stroke-miterlimit="10" stroke-linecap="round" stroke-linejoin="round"/>
<path d="M29.8817 24.9807H36.1118" stroke="#8E8E8E" stroke-width="2" stroke-miterlimit="10" stroke-linecap="round" stroke-linejoin="round"/>
<path d="M33.5408 22.4096L36.1119 24.9807L33.5408 27.5518" stroke="#8E8E8E" stroke-width="2" stroke-miterlimit="10" stroke-linecap="round" stroke-linejoin="round"/>
<path d="M20.2157 24.9807H13.9882" stroke="#8E8E8E" stroke-width="2" stroke-miterlimit="10" stroke-linecap="round" stroke-linejoin="round"/>
<path d="M16.5567 22.4096L13.9882 24.9807L16.5567 27.5518" stroke="#8E8E8E" stroke-width="2" stroke-miterlimit="10" stroke-linecap="round" stroke-linejoin="round"/>
<path d="M9.53885 23.7465L23.7465 9.53885C24.465 8.82038 25.6325 8.82038 26.3535 9.53885L40.5612 23.7465C41.2796 24.465 41.2796 25.6325 40.5612 26.3535L26.3535 40.5612C25.635 41.2796 24.4675 41.2796 23.7465 40.5612L9.53885 26.3509C8.82038 25.6325 8.82038 24.465 9.53885 23.7465Z" stroke="#A3ACB9" stroke-width="2" stroke-miterlimit="10" stroke-linecap="round" stroke-linejoin="round"/>
</svg>
