<svg width="50" height="50" viewBox="0 0 50 50" fill="none" xmlns="http://www.w3.org/2000/svg">
<path d="M25.6917 37.7603C23.0828 37.7603 20.9733 37.7603 20.9733 37.7603C20.9733 37.7603 18.8639 37.7603 16.255 37.7603C10.9813 37.7603 9.63745 41.4371 9.63745 41.4371H20.9766H32.3158C32.3092 41.4371 30.9653 37.7603 25.6917 37.7603Z" fill="#4C5062"/>
<path d="M33.4789 19.7477V14.2868L28.1921 9H11.2179C9.99887 9 9 9.99887 9 11.2179V39.7383C9 40.9573 9.99887 41.9562 11.2179 41.9562H31.261C32.4801 41.9562 33.4789 40.9573 33.4789 39.7383V36.0188" stroke="#A3ACB9" stroke-width="2" stroke-miterlimit="10" stroke-linecap="round" stroke-linejoin="round"/>
<path d="M27.4102 9V14.7337H33.479" stroke="#A3ACB9" stroke-width="2" stroke-miterlimit="10" stroke-linecap="round" stroke-linejoin="round"/>
<path d="M12.9562 19.36H15.4895" stroke="#8E8E8E" stroke-width="2" stroke-miterlimit="10" stroke-linecap="round" stroke-linejoin="round"/>
<path d="M12.9562 14.7336H23.1913" stroke="#8E8E8E" stroke-width="2" stroke-miterlimit="10" stroke-linecap="round" stroke-linejoin="round"/>
<path d="M12.9562 27.4791H15.4895" stroke="#8E8E8E" stroke-width="2" stroke-miterlimit="10" stroke-linecap="round" stroke-linejoin="round"/>
<path d="M12.9562 23.6906H15.4895" stroke="#8E8E8E" stroke-width="2" stroke-miterlimit="10" stroke-linecap="round" stroke-linejoin="round"/>
<path d="M12.9562 31.537H15.4895" stroke="#8E8E8E" stroke-width="2" stroke-miterlimit="10" stroke-linecap="round" stroke-linejoin="round"/>
<path d="M27.3708 35.5884C32.3176 35.5884 36.3278 31.5782 36.3278 26.6314C36.3278 21.6846 32.3176 17.6744 27.3708 17.6744C22.424 17.6744 18.4138 21.6846 18.4138 26.6314C18.4138 31.5782 22.424 35.5884 27.3708 35.5884Z" stroke="#A3ACB9" stroke-width="2" stroke-miterlimit="10" stroke-linecap="round" stroke-linejoin="round"/>
<path d="M34.8523 32.2764L40.0997 37.5237C40.7305 38.1546 40.7305 39.1896 40.0997 39.8205C39.4688 40.4513 38.4338 40.4513 37.8029 39.8205L32.5555 34.5731" stroke="#A3ACB9" stroke-width="2" stroke-miterlimit="10" stroke-linecap="round" stroke-linejoin="round"/>
<path d="M29.3455 22.4026C27.8998 22.4026 26.7235 23.579 26.7235 25.0247C26.7235 25.2153 26.7432 25.4026 26.7826 25.5866C26.7103 25.5866 26.6413 25.6128 26.5855 25.6687L23.5166 28.6686C23.4607 28.7212 23.4312 28.7935 23.4312 28.8723V30.5809C23.4312 30.7386 23.5593 30.8635 23.7137 30.8635H25.4683C25.626 30.8635 25.7509 30.7353 25.7509 30.5809V29.8942H26.3686C26.5263 29.8942 26.6512 29.766 26.6512 29.6116V28.9709H27.5449C27.6205 28.9709 27.6961 28.938 27.7486 28.8822L28.9611 27.6204C29.0892 27.6402 29.2141 27.65 29.3422 27.65C30.788 27.65 31.9643 26.4737 31.9643 25.028C31.9643 23.5822 30.7913 22.4026 29.3455 22.4026Z" fill="white"/>
</svg>
