<svg width="50" height="50" viewBox="0 0 50 50" fill="none" xmlns="http://www.w3.org/2000/svg">
<path d="M17.5 17C13 13.5 26 14.5 26 14.5V19L23.5 21.5V35.5L19 36.5C19 36.5 22 20.5 17.5 17Z" fill="#8AB5DC"/>
<path d="M18.625 16.5C22.9282 16.5 26.4167 14.9143 26.4167 12.9583C26.4167 11.0023 22.9282 9.41666 18.625 9.41666C14.3218 9.41666 10.8333 11.0023 10.8333 12.9583C10.8333 14.9143 14.3218 16.5 18.625 16.5Z" fill="#92B5D8" stroke="#402B91" stroke-width="2" stroke-miterlimit="10" stroke-linecap="round" stroke-linejoin="round"/>
<path d="M26.4167 12.9583V17.9166C26.4167 19.8724 22.9281 21.4583 18.625 21.4583C14.3219 21.4583 10.8333 19.8724 10.8333 17.9166V12.9583" stroke="#402B91" stroke-width="2" stroke-miterlimit="10" stroke-linecap="round" stroke-linejoin="round"/>
<path d="M23.5833 25.607C22.2361 26.1128 20.5085 26.4167 18.625 26.4167C14.3219 26.4167 10.8333 24.8307 10.8333 22.875V17.9167" stroke="#402B91" stroke-width="2" stroke-miterlimit="10" stroke-linecap="round" stroke-linejoin="round"/>
<path d="M23.5826 30.5654C22.2361 31.0711 20.5085 31.375 18.625 31.375C14.3219 31.375 10.8333 29.789 10.8333 27.8333V22.875" stroke="#402B91" stroke-width="2" stroke-miterlimit="10" stroke-linecap="round" stroke-linejoin="round"/>
<path d="M23.5833 35.5237C22.2361 36.0294 20.5085 36.3333 18.625 36.3333C14.3219 36.3333 10.8333 34.7474 10.8333 32.7916V27.8333" stroke="#402B91" stroke-width="2" stroke-miterlimit="10" stroke-linecap="round" stroke-linejoin="round"/>
<path d="M31.375 25.7083C35.6782 25.7083 39.1667 24.1227 39.1667 22.1667C39.1667 20.2107 35.6782 18.625 31.375 18.625C27.0718 18.625 23.5833 20.2107 23.5833 22.1667C23.5833 24.1227 27.0718 25.7083 31.375 25.7083Z" fill="#94D1BE" stroke="#074957" stroke-width="2" stroke-miterlimit="10" stroke-linecap="round" stroke-linejoin="round"/>
<path d="M39.1667 22.1667V27.125C39.1667 29.0807 35.6781 30.6667 31.375 30.6667C27.0719 30.6667 23.5833 29.0807 23.5833 27.125V22.1667" stroke="#074957" stroke-width="2" stroke-miterlimit="10" stroke-linecap="round" stroke-linejoin="round"/>
<path d="M39.1667 27.125V32.0833C39.1667 34.039 35.6781 35.625 31.375 35.625C27.0719 35.625 23.5833 34.039 23.5833 32.0833V27.125" stroke="#074957" stroke-width="2" stroke-miterlimit="10" stroke-linecap="round" stroke-linejoin="round"/>
<path d="M39.1667 32.0833V37.0416C39.1667 38.9974 35.6781 40.5833 31.375 40.5833C27.0719 40.5833 23.5833 38.9974 23.5833 37.0416V32.0833" stroke="#074957" stroke-width="2" stroke-miterlimit="10" stroke-linecap="round" stroke-linejoin="round"/>
</svg>
