<svg width="50" height="50" viewBox="0 0 50 50" fill="none" xmlns="http://www.w3.org/2000/svg">
<path d="M22.0653 35.5191C23.7354 37.6044 24.9999 38.9005 24.9999 38.9005C24.9999 38.9005 36 27.254 36 17.9969C36 17.5405 35.9683 17.0905 35.9144 16.6469C33.0242 26.6835 27.2405 32.3499 22.0653 35.5191Z" fill="#92B5D8"/>
<path d="M35.997 18.0001C35.997 27.254 24.9969 38.9037 24.9969 38.9037C24.9969 38.9037 14 27.6311 14 18.0001C14 11.9248 18.9248 7 25.0001 7C31.0753 7 35.997 11.9248 35.997 18.0001Z" stroke="#402B91" stroke-width="2" stroke-miterlimit="10" stroke-linecap="round" stroke-linejoin="round"/>
<path d="M23.295 15.433H19.4762V23.6855H23.295V15.433Z" stroke="#94D1BE" stroke-width="2" stroke-miterlimit="10" stroke-linecap="round" stroke-linejoin="round"/>
<path d="M30.9326 17.8796H27.1138V23.6823H30.9326V17.8796Z" stroke="#94D1BE" stroke-width="2" stroke-miterlimit="10" stroke-linecap="round" stroke-linejoin="round"/>
<path d="M27.1139 12.077H23.295V23.6823H27.1139V12.077Z" stroke="#94D1BE" stroke-width="2" stroke-miterlimit="10" stroke-linecap="round" stroke-linejoin="round"/>
<path d="M17.5145 42.1711H32.4855" stroke="#736DB1" stroke-width="2" stroke-miterlimit="10" stroke-linecap="round" stroke-linejoin="round"/>
</svg>
