<svg width="50" height="50" viewBox="0 0 50 50" fill="none" xmlns="http://www.w3.org/2000/svg">
<path d="M25.5199 9C34.6222 9 41.9999 16.3778 41.9999 25.4801C41.9999 34.5824 34.6222 41.9601 25.5199 41.9601C16.4176 41.9601 9.03979 34.5856 9.03979 25.4833" stroke="#402B91" stroke-width="2" stroke-miterlimit="10" stroke-linecap="round" stroke-linejoin="round"/>
<path d="M25.5199 13.5659C32.0994 13.5659 37.4373 18.9005 37.4373 25.4833C37.4373 32.0662 32.1027 37.3975 25.5199 37.3975" stroke="#736DB1" stroke-width="2" stroke-miterlimit="10" stroke-linecap="round" stroke-linejoin="round"/>
<path d="M25.52 17.9939C29.6556 17.9939 33.0094 21.3477 33.0094 25.4833C33.0094 29.619 29.6556 32.9728 25.52 32.9728C21.3843 32.9728 18.0305 29.619 18.0305 25.4833" stroke="#94D1BE" stroke-width="2" stroke-miterlimit="10" stroke-linecap="round" stroke-linejoin="round"/>
<path d="M7 26.2126L9.09901 23.9099L11.0798 26.2126" stroke="#402B91" stroke-width="2" stroke-miterlimit="10" stroke-linecap="round" stroke-linejoin="round"/>
<path d="M15.9939 26.2126L18.0896 23.9099L20.0737 26.2126" stroke="#94D1BE" stroke-width="2" stroke-miterlimit="10" stroke-linecap="round" stroke-linejoin="round"/>
<path d="M26.0126 39.4373L23.71 37.3416L26.0126 35.3575" stroke="#736DB1" stroke-width="2" stroke-miterlimit="10" stroke-linecap="round" stroke-linejoin="round"/>
</svg>
