<svg width="50" height="50" viewBox="0 0 50 50" fill="none" xmlns="http://www.w3.org/2000/svg">
<path fill-rule="evenodd" clip-rule="evenodd" d="M18.8882 15.8542L6.70318 15.8542V10.8347L23.9078 10.8347C23.9078 13.6069 21.6604 15.8542 18.8882 15.8542Z" fill="#E5E5E5" fill-opacity="0.25"/>
<path d="M41.6764 10.8347H7.70317C7.15089 10.8347 6.70317 11.2824 6.70317 11.8347V38.1541C6.70317 38.7063 7.15089 39.1541 7.70317 39.1541H41.6764C42.2287 39.1541 42.6764 38.7063 42.6764 38.1541V11.8347C42.6764 11.2824 42.2287 10.8347 41.6764 10.8347Z" stroke="#A3ACB9" stroke-width="2"/>
<path d="M6.70317 15.4893H42.6764" stroke="#A3ACB9" stroke-width="2"/>
<path d="M37.8524 24.2031C37.7402 24.074 37.5788 24.0002 37.4093 24.0003H23.0242C21.6873 21.6487 18.9616 20.5022 16.3788 21.205C13.796 21.9078 12 24.2846 12 27C12 29.7154 13.796 32.0922 16.3788 32.795C18.9616 33.4978 21.6873 32.3513 23.0242 29.9997H25.3047L27.0534 31.109C27.2512 31.2341 27.503 31.2294 27.6962 31.097L29.299 29.9997H30.031L31.7797 31.109C31.9775 31.2341 32.2293 31.2294 32.4225 31.097L34.0253 29.9997H36.8185C37.1164 29.9996 37.3677 29.7744 37.4046 29.4742L37.9954 24.6746C38.0165 24.5039 37.9645 24.3321 37.8524 24.2031ZM16 29C14.8954 29 14 28.1046 14 27C14 25.8954 14.8954 25 16 25C17.1046 25 18 25.8954 18 27C18 28.1046 17.1046 29 16 29Z" fill="#A3ACB9"/>
</svg>
