<svg width="50" height="51" viewBox="0 0 50 51" fill="none" xmlns="http://www.w3.org/2000/svg">
<path d="M28.3361 25.2435C20.8379 25.2435 14.7565 19.1621 14.7565 11.6639C14.7565 10.7484 14.8476 9.85358 15.0216 8.98776C13.7498 10.8395 13 13.0848 13 15.5C13 21.8548 18.1493 27.0042 24.5 27.0042C26.9193 27.0042 29.1646 26.2543 31.0164 24.9784C30.1506 25.1524 29.2558 25.2435 28.3361 25.2435Z" fill="#4C5062"/>
<path d="M24.5 27C18.1487 27 13 21.8513 13 15.5C13 9.14873 18.1487 4 24.5 4C30.8513 4 36 9.14873 36 15.5C36 21.8513 30.8513 27 24.5 27Z" stroke="#A3ACB9" stroke-width="2" stroke-miterlimit="10" stroke-linecap="round" stroke-linejoin="round"/>
<path d="M29 26.5014V42.6119L24.9313 45.5014H23.0384L19 42.6332V39.9659H22.6901V38.6708L19 37.0208V34.4262H22.6901V33.0797L19 31.434V28.8864H22.8314V27.5442" stroke="#A3ACB9" stroke-width="2" stroke-miterlimit="10" stroke-linecap="round" stroke-linejoin="round"/>
<path d="M25.9433 30.5014V39.5812" stroke="white" stroke-width="2" stroke-miterlimit="10" stroke-linecap="round" stroke-linejoin="round"/>
<path fill-rule="evenodd" clip-rule="evenodd" d="M27.571 9.80524C27.7653 10.0178 27.9362 10.2508 28.0806 10.5C28.2242 10.7497 28.3405 11.0141 28.4275 11.2887L30.1164 11.5001L30.1164 13.5L28.424 13.7116C28.2506 14.2623 27.9597 14.7688 27.5716 15.1962L28.2326 16.7631L26.5005 17.7631L25.474 16.4072C24.9098 16.5297 24.3258 16.5283 23.7621 16.4031L22.7327 17.763L21.0007 16.7631L21.6621 15.1947C21.2716 14.7688 20.9792 14.2624 20.8056 13.7112L19.1167 13.4999L19.1167 11.4999L20.8091 11.2884C20.9825 10.7377 21.2734 10.2311 21.6615 9.80377L21.0005 8.23685L22.7326 7.23685L23.7591 8.59277C24.3233 8.47028 24.9073 8.47168 25.471 8.59686L26.5004 7.23694L28.2324 8.2369L27.571 9.80524ZM26.1321 11.625C26.6153 12.462 26.3285 13.5323 25.4915 14.0155C24.6545 14.4988 23.5842 14.212 23.101 13.375C22.6177 12.538 22.9045 11.4677 23.7415 10.9845C24.5785 10.5012 25.6488 10.788 26.1321 11.625Z" fill="#8E8E8E"/>
</svg>
