<?xml version="1.0" encoding="UTF-8"?>
<svg width="23px" height="23px" viewBox="0 0 23 23" version="1.1" xmlns="http://www.w3.org/2000/svg" xmlns:xlink="http://www.w3.org/1999/xlink">
    <title>D7E39F2A-15DA-4DBC-B55A-FAAF7A791B65</title>
    <g id="---Developers" stroke="none" stroke-width="1" fill="none" fill-rule="evenodd">
        <g id="Icons" transform="translate(-299.000000, -233.000000)">
            <g id="Merchant-Solutions" transform="translate(300.000000, 234.000000)">
                <g>
                    <path d="M3.1089986,0.496187629 L18.0393925,0.496187629 C18.5916773,0.496187629 19.0393925,0.943902879 19.0393925,1.49618763 C19.0393925,1.6695991 18.9942977,1.84003011 18.908535,1.99074939 L18.0519066,3.49618763 L18.0519066,3.49618763 L3.05190656,3.49618763 L2.22894698,1.97106566 C1.96667908,1.48502657 2.14808148,0.878403901 2.63412057,0.616136007 C2.7800229,0.53740675 2.94321022,0.496187629 3.1089986,0.496187629 Z" id="Rectangle" fill="#93B3DE" transform="translate(10.596037, 1.996188) rotate(-180.000000) translate(-10.596037, -1.996188) "></path>
                    <path d="M7.1401671,21.3444741 L7.1401671,15.3444741 C7.1401671,14.7921893 7.58788235,14.3444741 8.1401671,14.3444741 L13.1401671,14.3444741 C13.6924518,14.3444741 14.1401671,14.7921893 14.1401671,15.3444741 L14.1401671,21.3444741 L14.1401671,21.3444741" id="Path-10" stroke="#8FD0BB"></path>
                    <path d="M1.1401671,5.49618763 L7.1401671,5.49618763 L7.1401671,5.49618763 L7.1401671,7.99618763 C7.1401671,9.92918425 5.57316372,11.4961876 3.6401671,11.4961876 L3.1401671,11.4961876 C1.48331285,11.4961876 0.1401671,10.1530419 0.1401671,8.49618763 L0.1401671,6.49618763 C0.1401671,5.94390288 0.58788235,5.49618763 1.1401671,5.49618763 Z" id="Rectangle" stroke="#7169AF"></path>
                    <path d="M7.1401671,5.49618763 L14.1401671,5.49618763 L14.1401671,7.99618763 C14.1401671,9.92918425 12.5731637,11.4961876 10.6401671,11.4961876 C8.70717048,11.4961876 7.1401671,9.92918425 7.1401671,7.99618763 L7.1401671,5.49618763 L7.1401671,5.49618763 Z" id="Rectangle" stroke="#7169AF"></path>
                    <path d="M14.1401671,5.49618763 L20.1401671,5.49618763 C20.6924518,5.49618763 21.1401671,5.94390288 21.1401671,6.49618763 L21.1401671,8.49618763 C21.1401671,10.1530419 19.7970213,11.4961876 18.1401671,11.4961876 L17.6401671,11.4961876 C15.7071705,11.4961876 14.1401671,9.92918425 14.1401671,7.99618763 L14.1401671,5.49618763 L14.1401671,5.49618763 Z" id="Rectangle" stroke="#7169AF"></path>
                    <path d="" id="Path-11" stroke="#979797"></path>
                    <line x1="7.1401671" y1="5.49618763" x2="8.05548339" y2="0" id="Path-13" stroke="#4E3D95"></line>
                    <line x1="14.1401671" y1="5.49618763" x2="13.222844" y2="0" id="Path-14" stroke="#4E3D95"></line>
                    <rect id="Rectangle" stroke="#4E4093" x="0.1401671" y="5.49618763" width="21" height="16" rx="1"></rect>
                    <polyline id="Path-12" stroke="#4E3D95" points="0.315750112 5.93782199 3.25601265 0 18.116062 0 20.9945658 5.98331293"></polyline>
                </g>
            </g>
        </g>
    </g>
</svg>
