<svg width="50" height="50" viewBox="0 0 50 50" fill="none" xmlns="http://www.w3.org/2000/svg">
<path d="M30.436 34.6635C27.4306 34.6635 25.0019 34.6635 25.0019 34.6635C25.0019 34.6635 22.5731 34.6635 19.5677 34.6635C13.4958 34.6635 11.9453 37.7911 11.9453 37.7911H25.0019H38.0584C38.0584 37.7911 36.508 34.6635 30.436 34.6635Z" fill="#4C5062"/>
<path d="M38.0583 31.513V36.6187C38.0583 37.413 37.4091 38.0622 36.6148 38.0622H13.3849C12.5906 38.0622 11.9414 37.413 11.9414 36.6187V13.385C11.9414 12.5907 12.5906 11.9415 13.3849 11.9415H36.6148C37.4091 11.9415 38.0583 12.5907 38.0583 13.385V25.0019" stroke="#A3ACB9" stroke-width="2" stroke-miterlimit="10" stroke-linecap="round" stroke-linejoin="round"/>
<path d="M25.0017 11.9416V7" stroke="#A3ACB9" stroke-width="2.03493" stroke-miterlimit="10" stroke-linecap="round" stroke-linejoin="round"/>
<path d="M18.697 11.9416V7" stroke="#A3ACB9" stroke-width="2.03493" stroke-miterlimit="10" stroke-linecap="round" stroke-linejoin="round"/>
<path d="M31.303 11.9416V7" stroke="#A3ACB9" stroke-width="2.03493" stroke-miterlimit="10" stroke-linecap="round" stroke-linejoin="round"/>
<path d="M38.0586 25.0019H43.0001" stroke="#A3ACB9" stroke-width="2" stroke-miterlimit="10" stroke-linecap="round" stroke-linejoin="round"/>
<path d="M38.0586 18.697H43.0001" stroke="#A3ACB9" stroke-width="2" stroke-miterlimit="10" stroke-linecap="round" stroke-linejoin="round"/>
<path d="M38.0586 31.303H43.0001" stroke="#A3ACB9" stroke-width="2" stroke-miterlimit="10" stroke-linecap="round" stroke-linejoin="round"/>
<path d="M25.0017 11.9416V7" stroke="#A3ACB9" stroke-width="2" stroke-miterlimit="10" stroke-linecap="round" stroke-linejoin="round"/>
<path d="M31.303 11.9416V7" stroke="#A3ACB9" stroke-width="2" stroke-miterlimit="10" stroke-linecap="round" stroke-linejoin="round"/>
<path d="M18.697 11.9416V7" stroke="#A3ACB9" stroke-width="2" stroke-miterlimit="10" stroke-linecap="round" stroke-linejoin="round"/>
<path d="M25.0017 38.0584V43" stroke="#A3ACB9" stroke-width="2.03493" stroke-miterlimit="10" stroke-linecap="round" stroke-linejoin="round"/>
<path d="M18.697 38.0584V43" stroke="#A3ACB9" stroke-width="2.03493" stroke-miterlimit="10" stroke-linecap="round" stroke-linejoin="round"/>
<path d="M31.303 38.0584V43" stroke="#A3ACB9" stroke-width="2.03493" stroke-miterlimit="10" stroke-linecap="round" stroke-linejoin="round"/>
<path d="M25.0017 38.0584V43" stroke="#A3ACB9" stroke-width="2" stroke-miterlimit="10" stroke-linecap="round" stroke-linejoin="round"/>
<path d="M31.303 38.0584V43" stroke="#A3ACB9" stroke-width="2" stroke-miterlimit="10" stroke-linecap="round" stroke-linejoin="round"/>
<path d="M18.697 38.0584V43" stroke="#A3ACB9" stroke-width="2" stroke-miterlimit="10" stroke-linecap="round" stroke-linejoin="round"/>
<path d="M11.9416 25.0019H7" stroke="#A3ACB9" stroke-width="2" stroke-miterlimit="10" stroke-linecap="round" stroke-linejoin="round"/>
<path d="M11.9416 18.697H7" stroke="#A3ACB9" stroke-width="2" stroke-miterlimit="10" stroke-linecap="round" stroke-linejoin="round"/>
<path d="M11.9416 31.303H7" stroke="#A3ACB9" stroke-width="2" stroke-miterlimit="10" stroke-linecap="round" stroke-linejoin="round"/>
<path d="M18.9033 18.8727H31.0968" stroke="#8E8E8E" stroke-width="2" stroke-miterlimit="10" stroke-linecap="round" stroke-linejoin="round"/>
<path d="M18.9033 31.1273H31.0968" stroke="#8E8E8E" stroke-width="2" stroke-miterlimit="10" stroke-linecap="round" stroke-linejoin="round"/>
<path d="M20.8318 25.0019H29.2294" stroke="white" stroke-width="2" stroke-miterlimit="10" stroke-linecap="round" stroke-linejoin="round"/>
</svg>
