<svg width="50" height="50" viewBox="0 0 50 50" fill="none" xmlns="http://www.w3.org/2000/svg">
<path d="M37.6166 17.2573C37.6166 19.9765 37.6166 22.174 37.6166 22.174C37.6166 22.174 37.6166 24.3715 37.6166 27.0907C37.6166 32.5829 41.4152 33.9872 41.4152 33.9872V22.174V10.3608C41.4152 10.3608 37.6166 11.7651 37.6166 17.2573Z" fill="#4C5062"/>
<path d="M41.4152 10H8V34.351H21.5664L22.6845 36.2831L24.7091 39.7895L26.7336 36.2831L27.8487 34.351H41.4152V10Z" stroke="#A3ACB9" stroke-width="2" stroke-miterlimit="10" stroke-linecap="round" stroke-linejoin="round"/>
<path d="M16.5125 19.7703H22.3416C22.5474 19.7703 22.7173 19.9403 22.7173 20.146V26.0735C22.7173 26.1033 22.7113 26.1301 22.6994 26.151C22.6785 26.1987 22.6457 26.2405 22.601 26.2673L18.4476 29.6843C18.4059 29.7111 18.3611 29.723 18.3134 29.723C18.2657 29.723 18.215 29.7081 18.1733 29.6813C18.0898 29.6276 18.0481 29.5292 18.066 29.4308L18.7428 26.3538H16.5125C16.3068 26.3538 16.1368 26.1838 16.1368 25.9781V20.149C16.1368 19.9403 16.3068 19.7703 16.5125 19.7703Z" stroke="white" stroke-width="2" stroke-miterlimit="10" stroke-linecap="round" stroke-linejoin="round"/>
<path d="M27.0734 19.7703H32.9025C33.1083 19.7703 33.2782 19.9403 33.2782 20.146V26.0735C33.2782 26.1033 33.2723 26.1301 33.2603 26.151C33.2395 26.1987 33.2067 26.2405 33.1619 26.2673L29.0085 29.6843C28.9668 29.7111 28.9221 29.723 28.8743 29.723C28.8266 29.723 28.776 29.7081 28.7342 29.6813C28.6507 29.6276 28.609 29.5292 28.6269 29.4308L29.3037 26.3538H27.0734C26.8677 26.3538 26.6978 26.1838 26.6978 25.9781V20.149C26.6978 19.9403 26.8677 19.7703 27.0734 19.7703Z" stroke="white" stroke-width="2" stroke-miterlimit="10" stroke-linecap="round" stroke-linejoin="round"/>
<path d="M14.6044 14.8057H34.8109" stroke="#8E8E8E" stroke-width="2" stroke-miterlimit="10" stroke-linecap="round" stroke-linejoin="round"/>
</svg>
