<svg width="50" height="50" viewBox="0 0 50 50" fill="none" xmlns="http://www.w3.org/2000/svg">
<path d="M40.5828 21.8098C40.1768 19.8204 39.3898 17.9184 38.2717 16.2288L39.5647 14.1144L35.8794 10.4292L33.7651 11.7221C32.0754 10.6072 30.1735 9.81704 28.1872 9.41104L27.6063 7H22.3907L21.8098 9.41104C19.8235 9.81704 17.9184 10.6041 16.2319 11.7221L14.1176 10.4292L10.4292 14.1176L11.7221 16.2319C10.6072 17.9215 9.81704 19.8235 9.41104 21.8129L7 22.3938V27.6094L9.41104 28.1903C9.81704 30.1766 10.6041 32.0817 11.7221 33.7682L10.4292 35.8825L14.1176 39.5709L16.2319 38.2779C17.9215 39.396 19.8235 40.183 21.8098 40.589L22.3907 43.0001H27.6063L28.1872 40.589C30.1735 40.183 32.0754 39.396 33.7651 38.2779L35.8794 39.5709L39.5678 35.8825L38.2748 33.7682C39.3898 32.0786 40.1799 30.1766 40.5859 28.1903L42.997 27.6094V22.3938L40.5828 21.8098Z" stroke="#402B91" stroke-width="2" stroke-miterlimit="10" stroke-linecap="round" stroke-linejoin="round"/>
<path d="M24.9985 35.1736C30.618 35.1736 35.1735 30.618 35.1735 24.9985C35.1735 19.3789 30.618 14.8234 24.9985 14.8234C19.3789 14.8234 14.8234 19.3789 14.8234 24.9985C14.8234 30.618 19.3789 35.1736 24.9985 35.1736Z" stroke="#94D1BE" stroke-width="2" stroke-miterlimit="10" stroke-linecap="round" stroke-linejoin="round"/>
<path d="M21.7317 24.9985H14.0582" stroke="#736DB1" stroke-width="2" stroke-miterlimit="10" stroke-linecap="round" stroke-linejoin="round"/>
<path d="M16.5099 27.4283L14.0582 24.9766L16.4661 22.5687" stroke="#736DB1" stroke-width="2" stroke-miterlimit="10" stroke-linecap="round" stroke-linejoin="round"/>
<path d="M28.2621 24.9985H35.9356" stroke="#736DB1" stroke-width="2" stroke-miterlimit="10" stroke-linecap="round" stroke-linejoin="round"/>
<path d="M33.4872 27.4283L35.9357 24.9766L33.5278 22.5687" stroke="#736DB1" stroke-width="2" stroke-miterlimit="10" stroke-linecap="round" stroke-linejoin="round"/>
<path d="M24.9985 28.2621V35.9356" stroke="#736DB1" stroke-width="2" stroke-miterlimit="10" stroke-linecap="round" stroke-linejoin="round"/>
<path d="M27.4283 33.4871L24.9766 35.9356L22.5687 33.5277" stroke="#736DB1" stroke-width="2" stroke-miterlimit="10" stroke-linecap="round" stroke-linejoin="round"/>
<path d="M24.9985 21.7317V14.0582" stroke="#736DB1" stroke-width="2" stroke-miterlimit="10" stroke-linecap="round" stroke-linejoin="round"/>
<path d="M27.4283 16.5099L24.9766 14.0582L22.5687 16.4661" stroke="#736DB1" stroke-width="2" stroke-miterlimit="10" stroke-linecap="round" stroke-linejoin="round"/>
<path d="M24.9985 28.2621C26.801 28.2621 28.2622 26.8009 28.2622 24.9985C28.2622 23.196 26.801 21.7348 24.9985 21.7348C23.196 21.7348 21.7349 23.196 21.7349 24.9985C21.7349 26.8009 23.196 28.2621 24.9985 28.2621Z" stroke="#92B5D8" stroke-width="2" stroke-miterlimit="10" stroke-linecap="round" stroke-linejoin="round"/>
</svg>
