<svg width="50" height="50" viewBox="0 0 50 50" fill="none" xmlns="http://www.w3.org/2000/svg">
<path d="M15.5474 12.8741L20.4215 8H36.0754C37.2008 8 38.1217 8.92082 38.1217 10.0463V36.3465C38.1217 37.4719 37.2008 38.3927 36.0754 38.3927H33.5744" stroke="#94D1BE" stroke-width="2" stroke-miterlimit="10" stroke-dasharray="3.41 3.41"/>
<path d="M18.1818 39.0692C20.589 39.0692 22.533 39.0692 22.533 39.0692C22.533 39.0692 24.4798 39.0692 26.8842 39.0692C31.7469 39.0692 32.9889 42.4597 32.9889 42.4597H22.533H12.0771C12.0771 42.4597 13.3191 39.0692 18.1818 39.0692Z" fill="#92B5D8"/>
<path d="M33.5771 20.3003V40.8937C33.5771 42.0192 32.6563 42.94 31.5309 42.94H13.0463C11.9208 42.94 11 42.0192 11 40.8937V17.4213L15.8741 12.5472H26.4124" stroke="#402B91" stroke-width="2" stroke-miterlimit="10" stroke-linecap="round" stroke-linejoin="round"/>
<path d="M16.5988 12.5472V17.8334H11" stroke="#402B91" stroke-width="2" stroke-miterlimit="10" stroke-linecap="round" stroke-linejoin="round"/>
<path d="M29.0384 22.0539H16.0276" stroke="#736DB1" stroke-width="2" stroke-miterlimit="10" stroke-linecap="round" stroke-linejoin="round"/>
<path d="M29.0384 26.2999H16.0276" stroke="#736DB1" stroke-width="2" stroke-miterlimit="10" stroke-linecap="round" stroke-linejoin="round"/>
<path d="M29.0384 30.5459H16.0276" stroke="#736DB1" stroke-width="2" stroke-miterlimit="10" stroke-linecap="round" stroke-linejoin="round"/>
<path d="M29.0384 34.7891H16.0276" stroke="#736DB1" stroke-width="2" stroke-miterlimit="10" stroke-linecap="round" stroke-linejoin="round"/>
<path d="M28.2881 17.8334L33.5771 12.5472" stroke="#94D1BE" stroke-width="2" stroke-miterlimit="10" stroke-linecap="round" stroke-linejoin="round"/>
<path d="M29.9651 12.5472H33.5773V16.87" stroke="#94D1BE" stroke-width="2" stroke-miterlimit="10" stroke-linecap="round" stroke-linejoin="round"/>
</svg>
