<svg width="50" height="50" viewBox="0 0 50 50" fill="none" xmlns="http://www.w3.org/2000/svg">
<path d="M33.5371 35.6136C30.199 35.6136 27.5007 35.6136 27.5007 35.6136C27.5007 35.6136 24.8024 35.6136 21.4643 35.6136C14.7186 35.6136 12.9982 38.668 12.9982 38.668H27.5037H42.0093C42.0032 38.668 40.2798 35.6136 33.5371 35.6136Z" fill="#4C5062"/>
<path d="M10.9186 38.997H40.3522C41.2607 38.997 42.0032 38.2545 42.0032 37.346V19.5385C42.0032 18.6301 41.2607 17.8876 40.3522 17.8876H33.353" stroke="#A3ACB9" stroke-width="2" stroke-miterlimit="10" stroke-linecap="round" stroke-linejoin="round"/>
<path d="M34.3732 13.6892H20.2328C19.6624 13.1128 18.9742 12.4186 18.5789 12.0202C17.8213 11.2535 17.4229 11 16.7589 11C16.3001 11 13.6471 11 12.0414 11H10.81H9.79282C8.80586 11 8 11.8059 8 12.7928V27.241C8 27.3044 8.00302 27.3678 8.00905 27.4282C8.00604 27.4946 8 27.5579 8 27.6243V36.0814C8 37.6871 9.31292 39 10.9186 39C12.5243 39 13.8372 37.6871 13.8372 36.0814V27.6213C13.8372 27.5549 13.8312 27.4915 13.8282 27.4251C13.8342 27.3648 13.8372 27.3014 13.8372 27.238V17.8876H36.166V15.4821C36.163 14.4951 35.3571 13.6892 34.3732 13.6892Z" stroke="#A3ACB9" stroke-width="2" stroke-miterlimit="10" stroke-linecap="round" stroke-linejoin="round"/>
<path d="M24.89 28.4423H17.4712" stroke="white" stroke-width="2" stroke-miterlimit="10" stroke-linecap="round" stroke-linejoin="round"/>
<path d="M19.8405 30.7905L17.4712 28.4212L19.7982 26.0941" stroke="white" stroke-width="2" stroke-miterlimit="10" stroke-linecap="round" stroke-linejoin="round"/>
<path d="M31.198 28.4423H38.6168" stroke="white" stroke-width="2" stroke-miterlimit="10" stroke-linecap="round" stroke-linejoin="round"/>
<path d="M36.2474 30.7905L38.6167 28.4212L36.2897 26.0941" stroke="white" stroke-width="2" stroke-miterlimit="10" stroke-linecap="round" stroke-linejoin="round"/>
<path d="M28.0439 31.5963C29.7859 31.5963 31.198 30.1842 31.198 28.4423C31.198 26.7004 29.7859 25.2883 28.0439 25.2883C26.302 25.2883 24.8899 26.7004 24.8899 28.4423C24.8899 30.1842 26.302 31.5963 28.0439 31.5963Z" stroke="#8E8E8E" stroke-width="2" stroke-miterlimit="10" stroke-linecap="round" stroke-linejoin="round"/>
</svg>
