<svg width="50" height="50" viewBox="0 0 50 50" fill="none" xmlns="http://www.w3.org/2000/svg">
<path fill-rule="evenodd" clip-rule="evenodd" d="M15.6568 33.75H10.125V31.125C10.1251 30.7885 9.9323 30.4818 9.62903 30.336C9.32576 30.1903 8.96578 30.2313 8.70312 30.4416L4.32812 33.9416C4.11665 34.1119 3.99557 34.3702 4 34.6416C4.00342 34.8078 4.0541 34.9696 4.14612 35.108C4.172 35.147 4.20128 35.1836 4.23362 35.2174C4.26766 35.2544 4.30484 35.2883 4.34475 35.3189L8.704 38.8075C8.96655 39.0172 9.32596 39.058 9.62883 38.9125C9.93169 38.767 10.1245 38.461 10.125 38.125V35.5H15.6568C16.1401 35.5 16.5318 35.1082 16.5318 34.625C16.5318 34.1418 16.1401 33.75 15.6568 33.75Z" fill="#D9DEE6"/>
<path fill-rule="evenodd" clip-rule="evenodd" d="M45.125 33.75H33.2482V35.5H45.125C45.6082 35.5 46 35.1082 46 34.625C46 34.1418 45.6082 33.75 45.125 33.75Z" fill="#D9DEE6"/>
<path fill-rule="evenodd" clip-rule="evenodd" d="M16.5318 14.5H4.875C4.39175 14.5 4 14.8918 4 15.375C4 15.8582 4.39175 16.25 4.875 16.25H16.5318V14.5Z" fill="#A3ACB9"/>
<path fill-rule="evenodd" clip-rule="evenodd" d="M45.9799 15.1895C45.9374 14.9931 45.8286 14.8173 45.6719 14.6916L41.2969 11.1916C41.0342 10.9813 40.6742 10.9403 40.371 11.086C40.0677 11.2318 39.8749 11.5385 39.875 11.875V14.5H34.1232C33.64 14.5 33.2482 14.8918 33.2482 15.375C33.2482 15.8583 33.64 16.25 34.1232 16.25H39.875V18.875C39.8745 19.2116 40.0672 19.5187 40.3706 19.6647C40.6739 19.8106 41.0341 19.7696 41.2969 19.5593L45.6561 16.075C45.869 15.9124 45.9958 15.6612 46 15.3934C46.0013 15.3249 45.9945 15.2564 45.9799 15.1895Z" fill="#A3ACB9"/>
<path d="M25 38.125C32.2487 38.125 38.125 32.2487 38.125 25C38.125 17.7513 32.2487 11.875 25 11.875C17.7513 11.875 11.875 17.7513 11.875 25C11.875 32.2487 17.7513 38.125 25 38.125Z" stroke="#A3ACB9" stroke-width="2"/>
<path fill-rule="evenodd" clip-rule="evenodd" d="M29.526 21.6041C29.7879 21.3002 30.0249 20.9539 30.25 20.5462L29.0251 19.9149C28.8278 20.2494 28.612 20.5296 28.3837 20.748C28.0406 21.0762 27.6789 21.2674 27.3088 21.3163C26.5958 21.4106 26.0957 21.1823 25.3677 20.6988C24.6031 20.1909 23.7363 19.6154 22.5062 19.7781C21.7596 19.8769 21.0759 20.2811 20.474 20.9797C20.2123 21.2835 19.9752 21.6298 19.75 22.0375L20.9749 22.6689C21.1721 22.3342 21.3877 22.0538 21.6158 21.8352C21.9534 21.5116 22.3151 21.3224 22.6908 21.2727C22.7987 21.2584 22.9016 21.2514 23.0011 21.2514C23.5644 21.2514 24.0172 21.4764 24.6323 21.885C25.3468 22.3596 26.2359 22.9502 27.4942 22.7838C28.2546 22.6832 28.9382 22.2863 29.526 21.6041ZM29.526 25.3958C29.7878 25.0919 30.0249 24.7456 30.25 24.3379L29.0251 23.7066C28.8278 24.0411 28.612 24.3212 28.3837 24.5396C28.0406 24.8678 27.6789 25.059 27.3088 25.108C26.5958 25.2022 26.0957 24.974 25.3677 24.4904C24.6031 23.9826 23.7364 23.4071 22.5062 23.5697C21.7596 23.6685 21.0759 24.0728 20.474 24.7713C20.2123 25.0751 19.9752 25.4214 19.75 25.8292L20.9749 26.4605C21.1721 26.1259 21.3877 25.8455 21.6158 25.6268C21.9534 25.3033 22.3151 25.114 22.6908 25.0643C22.7987 25.0501 22.9016 25.043 23.0011 25.043C23.5644 25.043 24.0171 25.2681 24.6323 25.6767C25.3469 26.1512 26.2362 26.7419 27.4942 26.5754C28.2546 26.4748 28.9382 26.078 29.526 25.3958ZM29.526 29.0416C29.7879 28.7377 30.0249 28.3914 30.25 27.9838L29.0251 27.3524C28.8278 27.6869 28.612 27.9671 28.3837 28.1855C28.0406 28.5137 27.6789 28.7049 27.3088 28.7538C26.5958 28.8482 26.0957 28.6199 25.3677 28.1363C24.6031 27.6285 23.7364 27.0529 22.5062 27.2156C21.7596 27.3143 21.0759 27.7186 20.474 28.4172C20.2122 28.721 19.9752 29.0673 19.75 29.475L20.9749 30.1064C21.1721 29.7717 21.3877 29.4913 21.6158 29.2727C21.9534 28.9491 22.3151 28.7599 22.6908 28.7101C22.7987 28.6959 22.9016 28.6889 23.0011 28.6889C23.5644 28.6889 24.0171 28.9139 24.6323 29.3225C25.3469 29.7971 26.2362 30.3877 27.4942 30.2213C28.2546 30.1207 28.9382 29.7238 29.526 29.0416Z" fill="white"/>
</svg>
