<svg width="50" height="50" viewBox="0 0 50 50" fill="none" xmlns="http://www.w3.org/2000/svg">
<path d="M25 43.5C35.2173 43.5 43.5 35.2173 43.5 25C43.5 14.7827 35.2173 6.5 25 6.5C14.7827 6.5 6.5 14.7827 6.5 25C6.5 35.2173 14.7827 43.5 25 43.5Z" stroke="#402B91" stroke-width="2"/>
<path fill-rule="evenodd" clip-rule="evenodd" d="M16.9565 19.7373C16.9565 15.295 20.5577 11.6938 25 11.6938C29.4423 11.6938 33.0435 15.295 33.0435 19.7373V26.9712C33.0435 28.751 31.6017 30.1938 29.8267 30.1938H20.1733C18.3967 30.1938 16.9565 28.7509 16.9565 26.9712V19.7373Z" stroke="#402B91" stroke-width="2"/>
<path fill-rule="evenodd" clip-rule="evenodd" d="M19.6327 37.9245C15.5294 37.1751 18.1026 32.3634 18.1026 32.3634L14.2949 33.9721C13.0941 34.5725 12.1304 36.1316 12.1304 37.4605V38.2834C15.4605 41.5104 17.1211 43.5 22.1244 43.5C27.1277 43.5 23.736 38.6739 19.6327 37.9245Z" fill="#92B5D8"/>
<path fill-rule="evenodd" clip-rule="evenodd" d="M35.7051 33.9721L29.0217 30.6304C29.0217 30.6304 27.413 32.2391 25 32.2391C22.587 32.2391 20.9783 30.6304 20.9783 30.6304L14.2949 33.9721C13.0941 34.5725 12.1304 36.1316 12.1304 37.4605V38.2834C15.4605 41.5104 19.9967 43.5 25 43.5C30.0033 43.5 34.5395 41.5104 37.8696 38.2834V37.4605C37.8696 36.1335 36.9005 34.5698 35.7051 33.9721Z" stroke="#402B91" stroke-width="2"/>
<path fill-rule="evenodd" clip-rule="evenodd" d="M18.5652 20.9804V22.1504C18.5652 25.6983 21.4521 28.5852 25 28.5852C28.5479 28.5852 31.4348 25.6983 31.4348 22.1504V20.9804C31.4348 20.0112 30.6491 19.2255 29.6798 19.2255C27.6424 19.2255 25.8753 18.0681 25 16.375C24.1247 18.0681 22.3576 19.2255 20.3202 19.2255C19.3509 19.2255 18.5652 20.0112 18.5652 20.9804Z" stroke="#736BB6" stroke-width="2"/>
</svg>
