<?xml version="1.0" encoding="UTF-8"?>
<svg width="26px" height="28px" viewBox="0 0 26 28" version="1.1" xmlns="http://www.w3.org/2000/svg" xmlns:xlink="http://www.w3.org/1999/xlink">
    <title>Group 12</title>
    <defs>
        <polygon id="path-1" points="0 0.459094047 6.42262059 0.459094047 6.42262059 6.8808 0 6.8808"></polygon>
    </defs>
    <g id="---Developers" stroke="none" stroke-width="1" fill="none" fill-rule="evenodd">
        <g id="Documentation---Core-Contributors---Coding-Guidelines-Dark-Mode" transform="translate(-137.000000, -1318.000000)">
            <g id="Group-12" transform="translate(137.000000, 1317.999800)">
                <path d="M14.331,4.258 C14.205,5.163 13.557,5.983 12.378,5.983 C11.289,5.983 10.657,5.284 10.467,4.466 L8.427,5.416 C8.775,7.099 10.273,8.373 12.055,8.373 L13.039,8.373 C14.822,8.373 16.322,7.096 16.669,5.411 L14.331,4.258 Z" id="Fill-1" fill="#A3ACBA"></path>
                <path d="M12.5185,21.9338 C13.6465,21.9338 14.2885,22.6828 14.4525,23.5388 L16.7145,22.4848 C16.3665,20.8018 14.8685,19.5278 13.0865,19.5278 L12.1025,19.5278 C10.3195,19.5278 8.8195,20.8048 8.4725,22.4898 L10.5865,23.5328 C10.7535,22.6788 11.3945,21.9338 12.5185,21.9338" id="Fill-3" fill="#A3ACBA"></path>
                <path d="M12.5048,6.1399 C12.2918,6.1399 12.1028,6.1049 11.9238,6.0559 L11.9238,11.2059 L13.2168,11.2059 L13.2168,6.0139 C13.0038,6.0889 12.7718,6.1399 12.5048,6.1399" id="Fill-5" fill="#A3ACBA"></path>
                <path d="M12.5995,22.2629 C12.8275,22.2629 13.0285,22.3029 13.2165,22.3589 L13.2165,16.5619 L11.9235,16.5619 L11.9235,22.3769 C12.1265,22.3099 12.3475,22.2629 12.5995,22.2629" id="Fill-7" fill="#A3ACBA"></path>
                <path d="M5.7275,9.3987 C5.6515,9.8357 5.4455,10.2397 5.1215,10.5407 L9.9125,13.1647 L10.5335,12.0307 L5.7275,9.3987 Z" id="Fill-9" fill="#A3ACBA"></path>
                <path d="M20.5009,17.4914 L15.2299,14.6024 L14.6079,15.7364 L19.8319,18.5994 C19.9319,18.1684 20.1519,17.7714 20.5009,17.4914" id="Fill-11" fill="#A3ACBA"></path>
                <path d="M5.5703,18.7522 L10.5913,15.7992 L9.9343,14.6852 L4.9323,17.6282 C5.2693,17.9182 5.4823,18.3182 5.5703,18.7522" id="Fill-13" fill="#A3ACBA"></path>
                <path d="M19.4003,9.1164 L14.5493,11.9704 L15.2063,13.0844 L20.0543,10.2314 C19.7123,9.9464 19.4953,9.5494 19.4003,9.1164" id="Fill-15" fill="#A3ACBA"></path>
                <path d="M5.6669,7.9221 L10.5389,5.1091 C10.2529,4.7701 10.1009,4.3351 10.0679,3.8881 L5.0339,6.7931 C5.3689,7.0861 5.5809,7.4871 5.6669,7.9221" id="Fill-17" fill="#A3ACBA"></path>
                <path d="M10.707,22.9436 L5.878,20.1556 C5.772,20.5856 5.549,20.9796 5.195,21.2556 L10.094,24.0836 C10.173,23.6466 10.38,23.2436 10.707,22.9436" id="Fill-19" fill="#A3ACBA"></path>
                <path d="M20.2148,6.8567 L15.5658,4.1717 C15.4788,4.6067 15.2668,5.0067 14.9318,5.2997 L19.4108,7.8857 C19.5518,7.4637 19.8228,7.0977 20.2148,6.8567" id="Fill-21" fill="#A3ACBA"></path>
                <path d="M21.791,11.3723 C21.602,11.3723 21.43,11.3463 21.268,11.3073 L21.268,17.3603 C21.491,17.2743 21.74,17.2193 22.026,17.2193 C22.221,17.2193 22.395,17.2473 22.561,17.2873 L22.561,11.2263 C22.334,11.3153 22.081,11.3723 21.791,11.3723" id="Fill-23" fill="#A3ACBA"></path>
                <path d="M19.4404,20.053 L14.4724,22.921 C14.7924,23.227 14.9954,23.634 15.0664,24.072 L19.8694,21.299 C19.5984,20.946 19.4554,20.504 19.4404,20.053" id="Fill-25" fill="#A3ACBA"></path>
                <path d="M3.1249,16.8889 C3.4069,16.8889 3.6519,16.9439 3.8739,17.0279 L3.8739,11.3589 C3.6759,11.4219 3.4619,11.4659 3.2189,11.4659 C2.9819,11.4659 2.7749,11.4239 2.5809,11.3649 L2.5809,16.9609 C2.7489,16.9179 2.9269,16.8889 3.1249,16.8889" id="Fill-27" fill="#A3ACBA"></path>
                <path d="M21.9345,17.4211 C21.2695,17.4211 20.6225,17.7671 20.2705,18.3841 C19.7485,19.2991 20.0685,20.4681 20.9835,20.9901 C21.8985,21.5121 23.0675,21.1921 23.5895,20.2781 C24.1125,19.3631 23.7925,18.1941 22.8775,17.6711 C22.5805,17.5011 22.2545,17.4211 21.9345,17.4211 M21.9245,22.5411 C21.3855,22.5411 20.8395,22.4051 20.3385,22.1191 C18.8015,21.2421 18.2645,19.2771 19.1415,17.7391 C20.0195,16.2031 21.9845,15.6641 23.5225,16.5421 C25.0595,17.4201 25.5965,19.3861 24.7185,20.9231 C24.1265,21.9591 23.0405,22.5411 21.9245,22.5411" id="Fill-29" fill="#A3ACBA"></path>
                <g id="Group-33" transform="translate(0.000000, 4.976800)">
                    <mask id="mask-2" fill="white">
                        <use xlink:href="#path-1"></use>
                    </mask>
                    <g id="Clip-32"></g>
                    <path d="M3.2138,1.7588 C2.5488,1.7588 1.9028,2.1048 1.5508,2.7218 C1.0278,3.6368 1.3488,4.8058 2.2638,5.3278 C2.7058,5.5818 3.2228,5.6468 3.7138,5.5118 C4.2068,5.3778 4.6168,5.0598 4.8698,4.6158 C5.1228,4.1728 5.1888,3.6568 5.0538,3.1648 C4.9188,2.6728 4.6018,2.2628 4.1578,2.0098 C3.8598,1.8398 3.5338,1.7588 3.2138,1.7588 M3.2058,6.8808 C2.6538,6.8808 2.1098,6.7378 1.6188,6.4568 C0.0808,5.5788 -0.4562,3.6138 0.4218,2.0768 C1.2998,0.5408 3.2648,0.0028 4.8028,0.8808 C5.5468,1.3058 6.0818,1.9948 6.3078,2.8218 C6.5338,3.6498 6.4238,4.5158 5.9988,5.2608 C5.5738,6.0058 4.8838,6.5398 4.0568,6.7668 C3.7758,6.8428 3.4888,6.8808 3.2058,6.8808" id="Fill-31" fill="#A3ACBB" mask="url(#mask-2)"></path>
                </g>
                <path d="M12.5663,11.6399 C12.1793,11.6399 11.7883,11.7399 11.4303,11.9469 C10.9083,12.2499 10.5343,12.7409 10.3803,13.3259 C10.2263,13.9099 10.3083,14.5199 10.6133,15.0419 C10.9173,15.5669 11.4073,15.9389 11.9923,16.0939 C12.5793,16.2489 13.1883,16.1649 13.7093,15.8619 C14.7893,15.2329 15.1563,13.8429 14.5283,12.7649 C14.1083,12.0419 13.3463,11.6399 12.5663,11.6399 M12.5763,17.4629 C12.2703,17.4629 11.9633,17.4239 11.6623,17.3439 C10.7433,17.1009 9.9733,16.5149 9.4953,15.6929 C9.0183,14.8729 8.8873,13.9149 9.1303,12.9949 C9.3733,12.0769 9.9593,11.3079 10.7813,10.8289 C12.4753,9.8469 14.6573,10.4199 15.6443,12.1129 C16.1233,12.9349 16.2533,13.8939 16.0103,14.8129 C15.7683,15.7309 15.1813,16.5009 14.3603,16.9779 C13.8093,17.2999 13.1973,17.4629 12.5763,17.4629" id="Fill-38" fill="#A3ACBA"></path>
                <path d="M12.5703,1.301 C11.5163,1.301 10.6603,2.157 10.6603,3.211 C10.6603,4.265 11.5163,5.121 12.5703,5.121 C13.6243,5.121 14.4803,4.265 14.4803,3.211 C14.4803,2.157 13.6243,1.301 12.5703,1.301 M12.5703,6.422 C10.7993,6.422 9.3593,4.982 9.3593,3.211 C9.3593,1.441 10.7993,-2.14939178e-13 12.5703,-2.14939178e-13 C14.3413,-2.14939178e-13 15.7813,1.441 15.7813,3.211 C15.7813,4.982 14.3413,6.422 12.5703,6.422" id="Fill-40" fill="#A3ACBA"></path>
                <path d="M12.5703,22.8557 C11.5163,22.8557 10.6603,23.7117 10.6603,24.7657 C10.6603,25.8197 11.5163,26.6757 12.5703,26.6757 C13.6243,26.6757 14.4803,25.8197 14.4803,24.7657 C14.4803,23.7117 13.6243,22.8557 12.5703,22.8557 M12.5703,27.9767 C10.7993,27.9767 9.3593,26.5367 9.3593,24.7657 C9.3593,22.9957 10.7993,21.5547 12.5703,21.5547 C14.3413,21.5547 15.7813,22.9957 15.7813,24.7657 C15.7813,26.5367 14.3413,27.9767 12.5703,27.9767" id="Fill-42" fill="#A3ACBA"></path>
                <path d="M3.2529,17.5002 C2.9269,17.5002 2.5969,17.5832 2.2949,17.7592 C1.3849,18.2892 1.0749,19.4612 1.6049,20.3712 C2.1339,21.2822 3.3069,21.5942 4.2179,21.0622 C4.6589,20.8052 4.9739,20.3922 5.1039,19.8982 C5.2339,19.4042 5.1639,18.8902 4.9079,18.4492 C4.5539,17.8402 3.9119,17.5002 3.2529,17.5002 M3.2619,22.6202 C2.1549,22.6202 1.0769,22.0492 0.4819,21.0252 C-0.4091,19.4942 0.1109,17.5252 1.6409,16.6362 C3.1709,15.7452 5.1409,16.2652 6.0309,17.7952 C6.9219,19.3252 6.4009,21.2952 4.8719,22.1852 C4.3649,22.4792 3.8099,22.6202 3.2619,22.6202" id="Fill-34" fill="#FFFFFF"></path>
                <g id="Fill-37" transform="translate(18.672704, 5.353599)" fill="#FFFFFF">
                    <path d="M3.20909618,1.30090122 C2.87609618,1.30090122 2.54709618,1.38990122 2.25109618,1.56190122 C1.81009618,1.81890122 1.49509618,2.23190122 1.36409618,2.72490122 C1.23409618,3.21790122 1.30409618,3.73290122 1.56109618,4.17390122 C1.81709618,4.61490122 2.23009618,4.92990122 2.72409618,5.06090122 C3.21809618,5.19190122 3.73109618,5.12090122 4.17309618,4.86390122 C4.61409618,4.60790122 4.92909618,4.19490122 5.06009618,3.69990122 C5.18909618,3.20690122 5.12009618,2.69290122 4.86309618,2.25190122 C4.60609618,1.81090122 4.19309618,1.49590122 3.70009618,1.36490122 C3.53709618,1.32190122 3.37309618,1.30090122 3.20909618,1.30090122 M3.21709618,6.42490122 C2.94209618,6.42490122 2.66509618,6.38990122 2.39209618,6.31790122 C1.56309618,6.09890122 0.868096181,5.56990122 0.438096181,4.82790122 C0.00609618137,4.08690122 -0.110903819,3.22190122 0.107096181,2.39290122 C0.326096181,1.56390122 0.855096181,0.868901224 1.59709618,0.438901224 C2.33709618,0.00590122419 3.19909618,-0.112098776 4.03209618,0.108901224 C4.86109618,0.326901224 5.55609618,0.856901224 5.98609618,1.59790122 C6.41809618,2.33890122 6.53509618,3.20290122 6.31609618,4.03190122 C6.09809618,4.86190122 5.56809618,5.55590122 4.82709618,5.98790122 C4.33009618,6.27790122 3.77709618,6.42490122 3.21709618,6.42490122" id="Fill-36"></path>
                </g>
            </g>
        </g>
    </g>
</svg>
