<?xml version="1.0" encoding="UTF-8"?>
<svg width="26px" height="28px" viewBox="0 0 26 28" version="1.1" xmlns="http://www.w3.org/2000/svg" xmlns:xlink="http://www.w3.org/1999/xlink">
    <title>Icon/Node Operators</title>
    <defs>
        <polygon id="path-1" points="0 0.459094047 6.42262059 0.459094047 6.42262059 6.8808 0 6.8808"></polygon>
    </defs>
    <g id="---Developers" stroke="none" stroke-width="1" fill="none" fill-rule="evenodd">
        <g id="Documentation---Home-Page" transform="translate(-32.000000, -446.000000)">
            <g id="Group">
                <g id="Left-Rail" transform="translate(0.000000, 140.000000)">
                    <g id="Left-TOC" transform="translate(30.000000, 84.000000)">
                        <g id="Developers" transform="translate(0.000000, 82.000000)">
                            <g id="Icon/Node-Operators" transform="translate(0.000000, 139.000000)">
                                <g id="Node-Operators" transform="translate(2.000000, 1.000000)">
                                    <path d="M14.331,4.2578 C14.205,5.1628 13.557,5.9828 12.378,5.9828 C11.289,5.9828 10.657,5.2838 10.467,4.4658 L8.427,5.4158 C8.775,7.0988 10.273,8.3728 12.055,8.3728 L13.039,8.3728 C14.822,8.3728 16.322,7.0958 16.669,5.4108 L14.331,4.2578 Z" id="Fill-1" fill="#91B6D8"></path>
                                    <path d="M12.5185,21.9336 C13.6465,21.9336 14.2885,22.6826 14.4525,23.5386 L16.7145,22.4846 C16.3665,20.8016 14.8685,19.5276 13.0865,19.5276 L12.1025,19.5276 C10.3195,19.5276 8.8195,20.8046 8.4725,22.4896 L10.5865,23.5326 C10.7535,22.6786 11.3945,21.9336 12.5185,21.9336" id="Fill-3" fill="#91B6D8"></path>
                                    <path d="M12.5048,6.1397 C12.2918,6.1397 12.1028,6.1047 11.9238,6.0557 L11.9238,11.2057 L13.2168,11.2057 L13.2168,6.0137 C13.0038,6.0887 12.7718,6.1397 12.5048,6.1397" id="Fill-5" fill="#6F6AAF"></path>
                                    <path d="M12.5995,22.2627 C12.8275,22.2627 13.0285,22.3027 13.2165,22.3587 L13.2165,16.5617 L11.9235,16.5617 L11.9235,22.3767 C12.1265,22.3097 12.3475,22.2627 12.5995,22.2627" id="Fill-7" fill="#6F6AAF"></path>
                                    <path d="M5.7275,9.3985 C5.6515,9.8355 5.4455,10.2395 5.1215,10.5405 L9.9125,13.1645 L10.5335,12.0305 L5.7275,9.3985 Z" id="Fill-9" fill="#6F6AAF"></path>
                                    <path d="M20.5009,17.4912 L15.2299,14.6022 L14.6079,15.7362 L19.8319,18.5992 C19.9319,18.1682 20.1519,17.7712 20.5009,17.4912" id="Fill-11" fill="#6F6AAF"></path>
                                    <path d="M5.5703,18.752 L10.5913,15.799 L9.9343,14.685 L4.9323,17.628 C5.2693,17.918 5.4823,18.318 5.5703,18.752" id="Fill-13" fill="#6F6AAF"></path>
                                    <path d="M19.4003,9.1162 L14.5493,11.9702 L15.2063,13.0842 L20.0543,10.2312 C19.7123,9.9462 19.4953,9.5492 19.4003,9.1162" id="Fill-15" fill="#6F6AAF"></path>
                                    <path d="M5.6669,7.9219 L10.5389,5.1089 C10.2529,4.7699 10.1009,4.3349 10.0679,3.8879 L5.0339,6.7929 C5.3689,7.0859 5.5809,7.4869 5.6669,7.9219" id="Fill-17" fill="#6F6AAF"></path>
                                    <path d="M10.707,22.9434 L5.878,20.1554 C5.772,20.5854 5.549,20.9794 5.195,21.2554 L10.094,24.0834 C10.173,23.6464 10.38,23.2434 10.707,22.9434" id="Fill-19" fill="#6F6AAF"></path>
                                    <path d="M20.2148,6.8565 L15.5658,4.1715 C15.4788,4.6065 15.2668,5.0065 14.9318,5.2995 L19.4108,7.8855 C19.5518,7.4635 19.8228,7.0975 20.2148,6.8565" id="Fill-21" fill="#6F6AAF"></path>
                                    <path d="M21.791,11.3721 C21.602,11.3721 21.43,11.3461 21.268,11.3071 L21.268,17.3601 C21.491,17.2741 21.74,17.2191 22.026,17.2191 C22.221,17.2191 22.395,17.2471 22.561,17.2871 L22.561,11.2261 C22.334,11.3151 22.081,11.3721 21.791,11.3721" id="Fill-23" fill="#6F6AAF"></path>
                                    <path d="M19.4404,20.0528 L14.4724,22.9208 C14.7924,23.2268 14.9954,23.6338 15.0664,24.0718 L19.8694,21.2988 C19.5984,20.9458 19.4554,20.5038 19.4404,20.0528" id="Fill-25" fill="#6F6AAF"></path>
                                    <path d="M3.1249,16.8887 C3.4069,16.8887 3.6519,16.9437 3.8739,17.0277 L3.8739,11.3587 C3.6759,11.4217 3.4619,11.4657 3.2189,11.4657 C2.9819,11.4657 2.7749,11.4237 2.5809,11.3647 L2.5809,16.9607 C2.7489,16.9177 2.9269,16.8887 3.1249,16.8887" id="Fill-27" fill="#6F6AAF"></path>
                                    <path d="M21.9345,17.4209 C21.2695,17.4209 20.6225,17.7669 20.2705,18.3839 C19.7485,19.2989 20.0685,20.4679 20.9835,20.9899 C21.8985,21.5119 23.0675,21.1919 23.5895,20.2779 C24.1125,19.3629 23.7925,18.1939 22.8775,17.6709 C22.5805,17.5009 22.2545,17.4209 21.9345,17.4209 M21.9245,22.5409 C21.3855,22.5409 20.8395,22.4049 20.3385,22.1189 C18.8015,21.2419 18.2645,19.2769 19.1415,17.7389 C20.0195,16.2029 21.9845,15.6639 23.5225,16.5419 C25.0595,17.4199 25.5965,19.3859 24.7185,20.9229 C24.1265,21.9589 23.0405,22.5409 21.9245,22.5409" id="Fill-29" fill="#42308C"></path>
                                    <g id="Group-33" transform="translate(0.000000, 4.976600)">
                                        <mask id="mask-2" fill="white">
                                            <use xlink:href="#path-1"></use>
                                        </mask>
                                        <g id="Clip-32"></g>
                                        <path d="M3.2138,1.7588 C2.5488,1.7588 1.9028,2.1048 1.5508,2.7218 C1.0278,3.6368 1.3488,4.8058 2.2638,5.3278 C2.7058,5.5818 3.2228,5.6468 3.7138,5.5118 C4.2068,5.3778 4.6168,5.0598 4.8698,4.6158 C5.1228,4.1728 5.1888,3.6568 5.0538,3.1648 C4.9188,2.6728 4.6018,2.2628 4.1578,2.0098 C3.8598,1.8398 3.5338,1.7588 3.2138,1.7588 M3.2058,6.8808 C2.6538,6.8808 2.1098,6.7378 1.6188,6.4568 C0.0808,5.5788 -0.4562,3.6138 0.4218,2.0768 C1.2998,0.5408 3.2648,0.0028 4.8028,0.8808 C5.5468,1.3058 6.0818,1.9948 6.3078,2.8218 C6.5338,3.6498 6.4238,4.5158 5.9988,5.2608 C5.5738,6.0058 4.8838,6.5398 4.0568,6.7668 C3.7758,6.8428 3.4888,6.8808 3.2058,6.8808" id="Fill-31" fill="#42308C" mask="url(#mask-2)"></path>
                                    </g>
                                    <path d="M3.2529,17.5 C2.9269,17.5 2.5969,17.583 2.2949,17.759 C1.3849,18.289 1.0749,19.461 1.6049,20.371 C2.1339,21.282 3.3069,21.594 4.2179,21.062 C4.6589,20.805 4.9739,20.392 5.1039,19.898 C5.2339,19.404 5.1639,18.89 4.9079,18.449 C4.5539,17.84 3.9119,17.5 3.2529,17.5 M3.2619,22.62 C2.1549,22.62 1.0769,22.049 0.4819,21.025 C-0.4091,19.494 0.1109,17.525 1.6409,16.636 C3.1709,15.745 5.1409,16.265 6.0309,17.795 C6.9219,19.325 6.4009,21.295 4.8719,22.185 C4.3649,22.479 3.8099,22.62 3.2619,22.62" id="Fill-34" fill="#8ECFB9"></path>
                                    <path d="M21.8818,6.6543 C21.5488,6.6543 21.2198,6.7433 20.9238,6.9153 C20.4828,7.1723 20.1678,7.5853 20.0368,8.0783 C19.9068,8.5713 19.9768,9.0863 20.2338,9.5273 C20.4898,9.9683 20.9028,10.2833 21.3968,10.4143 C21.8908,10.5453 22.4038,10.4743 22.8458,10.2173 C23.2868,9.9613 23.6018,9.5483 23.7328,9.0533 C23.8618,8.5603 23.7928,8.0463 23.5358,7.6053 C23.2788,7.1643 22.8658,6.8493 22.3728,6.7183 C22.2098,6.6753 22.0458,6.6543 21.8818,6.6543 M21.8898,11.7783 C21.6148,11.7783 21.3378,11.7433 21.0648,11.6713 C20.2358,11.4523 19.5408,10.9233 19.1108,10.1813 C18.6788,9.4403 18.5618,8.5753 18.7798,7.7463 C18.9988,6.9173 19.5278,6.2223 20.2698,5.7923 C21.0098,5.3593 21.8718,5.2413 22.7048,5.4623 C23.5338,5.6803 24.2288,6.2103 24.6588,6.9513 C25.0908,7.6923 25.2078,8.5563 24.9888,9.3853 C24.7708,10.2153 24.2408,10.9093 23.4998,11.3413 C23.0028,11.6313 22.4498,11.7783 21.8898,11.7783" id="Fill-36" fill="#8ECFB9"></path>
                                    <path d="M12.5663,11.6397 C12.1793,11.6397 11.7883,11.7397 11.4303,11.9467 C10.9083,12.2497 10.5343,12.7407 10.3803,13.3257 C10.2263,13.9097 10.3083,14.5197 10.6133,15.0417 C10.9173,15.5667 11.4073,15.9387 11.9923,16.0937 C12.5793,16.2487 13.1883,16.1647 13.7093,15.8617 C14.7893,15.2327 15.1563,13.8427 14.5283,12.7647 C14.1083,12.0417 13.3463,11.6397 12.5663,11.6397 M12.5763,17.4627 C12.2703,17.4627 11.9633,17.4237 11.6623,17.3437 C10.7433,17.1007 9.9733,16.5147 9.4953,15.6927 C9.0183,14.8727 8.8873,13.9147 9.1303,12.9947 C9.3733,12.0767 9.9593,11.3077 10.7813,10.8287 C12.4753,9.8467 14.6573,10.4197 15.6443,12.1127 C16.1233,12.9347 16.2533,13.8937 16.0103,14.8127 C15.7683,15.7307 15.1813,16.5007 14.3603,16.9777 C13.8093,17.2997 13.1973,17.4627 12.5763,17.4627" id="Fill-38" fill="#6F6AAF"></path>
                                    <path d="M12.5703,1.3008 C11.5163,1.3008 10.6603,2.1568 10.6603,3.2108 C10.6603,4.2648 11.5163,5.1208 12.5703,5.1208 C13.6243,5.1208 14.4803,4.2648 14.4803,3.2108 C14.4803,2.1568 13.6243,1.3008 12.5703,1.3008 M12.5703,6.4218 C10.7993,6.4218 9.3593,4.9818 9.3593,3.2108 C9.3593,1.4408 10.7993,-0.0002 12.5703,-0.0002 C14.3413,-0.0002 15.7813,1.4408 15.7813,3.2108 C15.7813,4.9818 14.3413,6.4218 12.5703,6.4218" id="Fill-40" fill="#6F6AAF"></path>
                                    <path d="M12.5703,22.8555 C11.5163,22.8555 10.6603,23.7115 10.6603,24.7655 C10.6603,25.8195 11.5163,26.6755 12.5703,26.6755 C13.6243,26.6755 14.4803,25.8195 14.4803,24.7655 C14.4803,23.7115 13.6243,22.8555 12.5703,22.8555 M12.5703,27.9765 C10.7993,27.9765 9.3593,26.5365 9.3593,24.7655 C9.3593,22.9955 10.7993,21.5545 12.5703,21.5545 C14.3413,21.5545 15.7813,22.9955 15.7813,24.7655 C15.7813,26.5365 14.3413,27.9765 12.5703,27.9765" id="Fill-42" fill="#6F6AAF"></path>
                                </g>
                            </g>
                        </g>
                    </g>
                </g>
            </g>
        </g>
    </g>
</svg>
