<svg width="50" height="50" viewBox="0 0 50 50" fill="none" xmlns="http://www.w3.org/2000/svg">
<path d="M27.3738 32.7241C27.3738 32.7241 27.0427 36.5159 25.6435 38.6773C24.2442 40.8386 21.7767 39.8735 21.7767 39.8735L22.6419 43H27.6049L28.5201 37.734L27.3738 32.7241Z" fill="#4C5062"/>
<path d="M40.5856 21.811C40.1796 19.8214 39.3925 17.9193 38.2743 16.2296L39.5674 14.115L35.8818 10.4295L33.7673 11.7225C32.0776 10.6075 30.1754 9.81728 28.189 9.41124L27.608 7H22.392L21.811 9.41124C19.8246 9.81728 17.9193 10.6044 16.2327 11.7225L14.1182 10.4295L10.4295 14.1182L11.7225 16.2327C10.6075 17.9224 9.81728 19.8246 9.41124 21.8142L7 22.3951V27.6111L9.41124 28.1921C9.81728 30.1786 10.6044 32.0838 11.7225 33.7704L10.4295 35.885L14.1182 39.5737L16.2327 38.2806C17.9224 39.3987 19.8246 40.1858 21.811 40.5919L22.392 43.0031H27.608L28.189 40.5919C30.1754 40.1858 32.0776 39.3987 33.7673 38.2806L35.8818 39.5737L39.5705 35.885L38.2775 33.7704C39.3925 32.0807 40.1827 30.1786 40.5888 28.1921L43 27.6111V22.3951L40.5856 21.811Z" stroke="#A3ACB9" stroke-width="2" stroke-miterlimit="10" stroke-linecap="round" stroke-linejoin="round"/>
<path d="M21.7799 36.7064C16.6514 35.3415 12.8721 30.6658 12.8721 25.1093C12.8721 18.4815 18.2443 13.1093 24.8721 13.1093C31.4999 13.1093 36.8721 18.4815 36.8721 25.1093C36.8721 30.5783 33.2146 35.1916 28.211 36.6377" stroke="white" stroke-width="2" stroke-miterlimit="10" stroke-linecap="round" stroke-linejoin="round"/>
<path d="M28.2015 40.5075V32.7709C31.0407 31.4966 33.0178 28.6481 33.0178 25.3342C33.0178 22.0203 31.0407 19.1718 28.2015 17.8974V25.153C28.2015 26.9177 26.7554 28.3639 24.9907 28.3639C23.226 28.3639 21.7799 26.9177 21.7799 25.153V17.7944C18.8127 19.0125 16.7231 21.9266 16.7231 25.3342C16.7231 28.7387 18.8127 31.6559 21.7799 32.874V40.5638" stroke="#A3ACB9" stroke-width="2" stroke-miterlimit="10" stroke-linecap="round" stroke-linejoin="round"/>
</svg>
