<svg width="50" height="50" viewBox="0 0 50 50" fill="none" xmlns="http://www.w3.org/2000/svg">
<path d="M25.5 7C15.2979 7 7 15.2979 7 25.5C7 35.7021 15.2979 44 25.5 44C35.699 44 44 35.7021 44 25.5C44 15.2979 35.699 7 25.5 7ZM25.5 41.6747C16.5797 41.6747 9.32218 34.4172 9.32218 25.4969C9.32218 16.5767 16.5797 9.32218 25.5 9.32218C34.4202 9.32218 41.6778 16.5797 41.6778 25.5C41.6778 34.4202 34.4172 41.6747 25.5 41.6747Z" fill="#A3ACB9"/>
<path d="M32.0238 31.5408C31.3612 32.1507 30.6645 32.5099 29.9524 32.5997C28.5777 32.7762 27.6117 32.3489 26.2091 31.4479C24.7353 30.5004 23.0633 29.4291 20.6916 29.7326C19.2518 29.9152 17.9328 30.6707 16.7717 31.9711C16.2671 32.5378 15.8088 33.1818 15.3753 33.9434L17.7378 35.12C18.1186 34.4977 18.5335 33.9744 18.9732 33.5657C19.6234 32.9619 20.3231 32.609 21.0445 32.5192C21.252 32.4913 21.4501 32.4789 21.6421 32.4789C22.7289 32.4789 23.602 32.8969 24.7879 33.6586C26.1657 34.5441 27.881 35.6433 30.3054 35.3337C31.773 35.1448 33.0889 34.4079 34.2221 33.1353C34.7268 32.5687 35.185 31.9247 35.6185 31.163L33.2561 29.9865C32.8784 30.6119 32.4635 31.1321 32.0238 31.5408Z" fill="#8E8E8E"/>
<path d="M32.0238 17.4715C31.3612 18.0815 30.6645 18.4375 29.9524 18.5304C28.5777 18.7069 27.6117 18.2796 26.2091 17.3786C24.7353 16.4312 23.0633 15.3599 20.6916 15.6633C19.2518 15.846 17.9328 16.6015 16.7717 17.9019C16.2671 18.4685 15.8088 19.1125 15.3753 19.8742L17.7378 21.0507C18.1186 20.4284 18.5335 19.9051 18.9732 19.4964C19.6234 18.8927 20.3231 18.5397 21.0445 18.4499C21.252 18.422 21.4501 18.4097 21.6421 18.4097C22.7289 18.4097 23.602 18.8276 24.7879 19.5893C26.1657 20.4748 27.881 21.574 30.3054 21.2644C31.773 21.0755 33.0889 20.3386 34.2221 19.0661C34.7268 18.4994 35.185 17.8554 35.6185 17.0938L33.2561 15.9172C32.8784 16.5426 32.4635 17.0628 32.0238 17.4715Z" fill="#8E8E8E"/>
<path d="M32.0238 24.5061C31.3612 25.1161 30.6645 25.4721 29.9524 25.565C28.5777 25.7415 27.6117 25.3142 26.2091 24.4132C24.7353 23.4658 23.0633 22.3945 20.6916 22.6979C19.2518 22.8806 17.9328 23.6361 16.7717 24.9365C16.2671 25.5031 15.8088 26.1471 15.3753 26.9088L17.7378 28.0853C18.1186 27.463 18.5335 26.9397 18.9732 26.531C19.6234 25.9273 20.3231 25.5743 21.0445 25.4845C21.252 25.4566 21.4501 25.4443 21.6421 25.4443C22.7289 25.4443 23.602 25.8622 24.7879 26.6239C26.1657 27.5094 27.881 28.6086 30.3054 28.299C31.773 28.1101 33.0889 27.3732 34.2221 26.1007C34.7268 25.534 35.185 24.89 35.6185 24.1284L33.2561 22.9518C32.8784 23.5772 32.4635 24.0974 32.0238 24.5061Z" fill="#8E8E8E"/>
</svg>
