<svg width="50" height="50" viewBox="0 0 50 50" fill="none" xmlns="http://www.w3.org/2000/svg">
<path d="M36.2204 11C36.2204 11 17.296 11 15.2269 11C13.1579 11 11 13.003 11 15.3459C11 17.009 11 39 11 39H33.3833C33.3833 39 33.3833 14.6085 33.3833 13.1599C33.3833 11.7112 34.7731 11 36.2204 11ZM36.2204 11C37.6677 11 39 11.9361 39 13.1599C39 14.3836 39 17.2495 39 18.0915C39 18.9335 38.0648 20.492 36.3614 20.492H33.3833" stroke="#402B91" stroke-width="2" stroke-miterlimit="10" stroke-linejoin="round"/>
<path d="M15.3049 18.5932L17.3374 19.749L20.1745 14.8435" stroke="#8ECFBA" stroke-width="2" stroke-miterlimit="10" stroke-linecap="round" stroke-linejoin="round"/>
<path d="M23.5602 17.5693H29.2344" stroke="#92B5D8" stroke-width="2" stroke-miterlimit="10" stroke-linecap="round" stroke-linejoin="round"/>
<path d="M15.3049 26.4067L17.3374 27.5625L20.1745 22.657" stroke="#8ECFBA" stroke-width="2" stroke-miterlimit="10" stroke-linecap="round" stroke-linejoin="round"/>
<path d="M23.5602 25.3811H29.2344" stroke="#736DB1" stroke-width="2" stroke-miterlimit="10" stroke-linecap="round" stroke-linejoin="round"/>
<path d="M15.3049 34.2202L17.3374 35.376L20.1745 30.4705" stroke="#8ECFBA" stroke-width="2" stroke-miterlimit="10" stroke-linecap="round" stroke-linejoin="round"/>
<path d="M23.5602 33.1946H29.2344" stroke="#92B5D8" stroke-width="2" stroke-miterlimit="10" stroke-linecap="round" stroke-linejoin="round"/>
</svg>
