<svg width="50" height="50" viewBox="0 0 50 50" fill="none" xmlns="http://www.w3.org/2000/svg">
<path d="M33.1198 36.4197C28.6238 36.4197 24.9892 36.4197 24.9892 36.4197C24.9892 36.4197 21.3546 36.4197 16.8585 36.4197C7.77574 36.4197 5.45593 39.8654 5.45593 39.8654H24.9892H44.5224C44.5224 39.8679 42.2026 36.4197 33.1198 36.4197Z" fill="#4C5062"/>
<path d="M44.1748 39.9762H5.90677C5.40804 39.9762 5 39.5681 5 39.0694V20.4555C5 19.9568 5.40804 19.5488 5.90677 19.5488H44.1748C44.6735 19.5488 45.0816 19.9568 45.0816 20.4555V39.0719C45.0816 39.5681 44.6735 39.9762 44.1748 39.9762Z" stroke="#A3ACB9" stroke-width="2" stroke-miterlimit="10" stroke-linecap="round" stroke-linejoin="round"/>
<path d="M41.0516 23.5789H9.03015V35.9461H41.0516V23.5789Z" stroke="#8E8E8E" stroke-width="2" stroke-miterlimit="10" stroke-linecap="round" stroke-linejoin="round"/>
<path d="M11.287 19.5488L23.0523 13.952" stroke="#A3ACB9" stroke-width="2" stroke-miterlimit="10" stroke-linecap="round" stroke-linejoin="round"/>
<path d="M38.7442 19.5488L26.9789 13.952" stroke="#A3ACB9" stroke-width="2" stroke-miterlimit="10" stroke-linecap="round" stroke-linejoin="round"/>
<path d="M25.0396 15.292C26.2248 15.292 27.1856 14.3312 27.1856 13.146C27.1856 11.9608 26.2248 11 25.0396 11C23.8544 11 22.8936 11.9608 22.8936 13.146C22.8936 14.3312 23.8544 15.292 25.0396 15.292Z" fill="white"/>
<path d="M24.9892 15.292C26.1744 15.292 27.1352 14.3312 27.1352 13.146C27.1352 11.9608 26.1744 11 24.9892 11C23.8039 11 22.8431 11.9608 22.8431 13.146C22.8431 14.3312 23.8039 15.292 24.9892 15.292Z" fill="white"/>
<path d="M25.0396 15.292C26.2248 15.292 27.1856 14.3312 27.1856 13.146C27.1856 11.9608 26.2248 11 25.0396 11C23.8544 11 22.8936 11.9608 22.8936 13.146C22.8936 14.3312 23.8544 15.292 25.0396 15.292Z" stroke="#A3ACB9" stroke-width="2" stroke-miterlimit="10" stroke-linecap="round" stroke-linejoin="round"/>
<path d="M14.9871 28.0119H35.0946" stroke="white" stroke-width="2" stroke-miterlimit="10" stroke-linecap="round" stroke-linejoin="round"/>
<path d="M14.9871 31.8506H35.0946" stroke="white" stroke-width="2" stroke-miterlimit="10" stroke-linecap="round" stroke-linejoin="round"/>
</svg>
