<svg width="50" height="50" viewBox="0 0 50 50" fill="none" xmlns="http://www.w3.org/2000/svg">
<path d="M36.375 37.8572C38.475 37.8572 38.475 37 39 37L39 38.7143L36.375 40L18 40L18.525 37.8571C18.875 37.7143 34.275 37.8572 36.375 37.8572Z" fill="#8DB7DC"/>
<path d="M17.9167 35.625V37.0417C17.9167 40.2292 14.375 40.5833 14.375 40.5833C14.375 40.5833 35.382 40.5833 35.625 40.5833C37.5807 40.5833 39.1667 38.9974 39.1667 37.0417V35.625H17.9167Z" stroke="#402B91" stroke-width="2" stroke-miterlimit="10" stroke-linecap="round" stroke-linejoin="round"/>
<path d="M34.9167 32.0833V9.41666H10.8333V37.0417C10.8333 38.9974 12.4193 40.5833 14.375 40.5833" stroke="#402B91" stroke-width="2" stroke-miterlimit="10" stroke-linecap="round" stroke-linejoin="round"/>
<path d="M16.5 16.5H29.25" stroke="#7367B4" stroke-width="2" stroke-miterlimit="10" stroke-linecap="round" stroke-linejoin="round"/>
<path d="M16.5 22.1667H29.25" stroke="#7367B4" stroke-width="2" stroke-miterlimit="10" stroke-linecap="round" stroke-linejoin="round"/>
<path d="M16.5 27.8333H29.25" stroke="#7367B4" stroke-width="2" stroke-miterlimit="10" stroke-linecap="round" stroke-linejoin="round"/>
</svg>
