<svg width="50" height="51" viewBox="0 0 50 51" fill="none" xmlns="http://www.w3.org/2000/svg">
<path fill-rule="evenodd" clip-rule="evenodd" d="M19.1851 16.0195L7.00001 16.0195V11L24.2046 11C24.2046 13.7722 21.9573 16.0195 19.1851 16.0195Z" fill="#4C5062"/>
<path d="M41.9732 11H8C7.44772 11 7 11.4477 7 12V38.3193C7 38.8716 7.44772 39.3193 8 39.3193H41.9732C42.5255 39.3193 42.9732 38.8716 42.9732 38.3193V12C42.9732 11.4477 42.5255 11 41.9732 11Z" stroke="#A3ACB9" stroke-width="2"/>
<path d="M7 15.6545H42.9732" stroke="#A3ACB9" stroke-width="2"/>
<path d="M36.2969 30.491L39.1149 27.791C39.3798 27.5372 39.3888 27.1166 39.135 26.8516C39.1339 26.8505 39.1328 26.8494 39.1318 26.8483L36.525 24.1653" stroke="white" stroke-width="2" stroke-linecap="round"/>
<path d="M13.3196 30.491L10.5016 27.791C10.2366 27.5372 10.2276 27.1166 10.4815 26.8516C10.4826 26.8505 10.4836 26.8494 10.4847 26.8483L13.0914 24.1653" stroke="white" stroke-width="2" stroke-linecap="round"/>
<path d="M21.1659 31.6207C21.1659 31.6207 21.1659 31.0655 21.1659 29.7885C21.1659 28.5114 21.9144 27.7141 23.2403 27.7141C24.5661 27.7141 24.8082 27.7141 26.616 27.7141C28.4239 27.7141 28.9324 26.6281 28.9324 25.3977C28.9324 24.1674 28.9324 22.817 28.9324 22.022C28.9324 21.2269 27.6532 20.1653 25.2191 20.1653C22.785 20.1653 21.4813 21.1292 21.4813 21.9509C21.4813 22.7726 21.5057 23.7121 21.5057 23.7121C21.5057 23.7121 20.3486 23.7121 19.7446 23.7121C19.1405 23.7121 17.5725 24.3139 17.5725 27.4499C17.5725 30.5858 18.7296 31.6229 19.3803 31.6229C20.0311 31.6229 21.1659 31.6207 21.1659 31.6207Z" stroke="#8E8E8E" stroke-width="2" stroke-miterlimit="10" stroke-linecap="round" stroke-linejoin="round"/>
<path d="M21.5034 23.7098H24.9769" stroke="#8E8E8E" stroke-width="2" stroke-miterlimit="10" stroke-linecap="round" stroke-linejoin="round"/>
<path d="M28.9325 23.7099C28.9325 23.7099 28.9325 24.2651 28.9325 25.5421C28.9325 26.8191 28.184 27.6164 26.8581 27.6164C25.5323 27.6164 25.2902 27.6164 23.4824 27.6164C21.6745 27.6164 21.166 28.7025 21.166 29.9328C21.166 31.1632 21.166 32.5135 21.166 33.3086C21.166 34.1037 22.4452 35.1653 24.8793 35.1653C27.3134 35.1653 28.6171 34.2014 28.6171 33.3797C28.6171 32.5602 28.5927 31.6185 28.5927 31.6185C28.5927 31.6185 29.7498 31.6185 30.3538 31.6185C30.9557 31.6185 32.5237 31.0166 32.5237 27.8807C32.5237 24.7448 31.3666 23.7076 30.7159 23.7076C30.0651 23.7076 28.9325 23.7099 28.9325 23.7099Z" stroke="#8E8E8E" stroke-width="2" stroke-miterlimit="10" stroke-linecap="round" stroke-linejoin="round"/>
<path d="M28.5949 31.6207H25.1214" stroke="#8E8E8E" stroke-width="2" stroke-miterlimit="10" stroke-linecap="round" stroke-linejoin="round"/>
</svg>
