<svg width="50" height="51" viewBox="0 0 50 51" fill="none" xmlns="http://www.w3.org/2000/svg">
<path d="M14.699 22.1725C13.4557 22.8 12.699 23.6307 12.699 24.5417C12.699 26.4977 16.1874 28.0833 20.4906 28.0833C23.6501 28.0833 26.3704 27.2286 27.5932 26" stroke="#94D1BE" stroke-width="2" stroke-miterlimit="10" stroke-linecap="round" stroke-linejoin="round"/>
<path d="M28.2823 27V29.5C28.2823 31.4557 24.7938 33.0417 20.4906 33.0417C16.1875 33.0417 12.699 31.4557 12.699 29.5V24.5417" stroke="#94D1BE" stroke-width="2" stroke-miterlimit="10" stroke-linecap="round" stroke-linejoin="round"/>
<path d="M28.2823 29.5V34.4583C28.2823 36.414 24.7938 38 20.4906 38C16.1875 38 12.699 36.414 12.699 34.4583V29.5" stroke="#94D1BE" stroke-width="2" stroke-miterlimit="10" stroke-linecap="round" stroke-linejoin="round"/>
<path d="M28.2823 34.4583V39.4167C28.2823 41.3724 24.7938 42.9583 20.4906 42.9583C16.1875 42.9583 12.699 41.3724 12.699 39.4167V34.4583" stroke="#94D1BE" stroke-width="2" stroke-miterlimit="10" stroke-linecap="round" stroke-linejoin="round"/>
<path d="M20.6749 24.3498C25.4659 24.3498 29.3498 20.4659 29.3498 15.6749C29.3498 10.8839 25.4659 7 20.6749 7C15.8839 7 12 10.8839 12 15.6749C12 20.4659 15.8839 24.3498 20.6749 24.3498Z" stroke="#402B91" stroke-width="2.04164" stroke-miterlimit="10" stroke-linecap="round" stroke-linejoin="round"/>
<path d="M20.6746 20.2664C23.2104 20.2664 25.2662 18.2107 25.2662 15.6749C25.2662 13.139 23.2104 11.0833 20.6746 11.0833C18.1387 11.0833 16.083 13.139 16.083 15.6749C16.083 18.2107 18.1387 20.2664 20.6746 20.2664Z" stroke="#736DB1" stroke-width="2.04164" stroke-miterlimit="10" stroke-linecap="round" stroke-linejoin="round"/>
<path d="M27.6916 21.1112L29.4391 22.8587L28.0167 24.2782L26.2692 22.5307" stroke="#402B91" stroke-width="2.04164" stroke-miterlimit="10" stroke-linecap="round" stroke-linejoin="round"/>
<path d="M30.5374 21.7603L26.919 25.3787L28.6987 27.1584L32.3171 23.54L30.5374 21.7603Z" stroke="#402B91" stroke-width="2.04164" stroke-miterlimit="10" stroke-linecap="round" stroke-linejoin="round"/>
<path d="M37.95 32.7921C36.951 33.791 35.3317 33.791 34.3327 32.7921L28.6966 27.1589L32.3139 23.5416L37.947 29.1748C38.949 30.1708 38.949 31.7931 37.95 32.7921Z" stroke="#402B91" stroke-width="2.04164" stroke-miterlimit="10" stroke-linecap="round" stroke-linejoin="round"/>
</svg>
