<svg width="50" height="50" viewBox="0 0 50 50" fill="none" xmlns="http://www.w3.org/2000/svg">
<path fill-rule="evenodd" clip-rule="evenodd" d="M18.6949 41.4707C19.7214 40.3282 22.1614 39.525 25.0083 39.525C27.8386 39.525 30.2665 40.3194 31.305 41.4505L25.7675 44.569L22.7308 43.308" fill="#E5E5E5" fill-opacity="0.25"/>
<path fill-rule="evenodd" clip-rule="evenodd" d="M31.305 8.9976C30.2771 10.1401 27.8386 10.9421 24.9916 10.9421C22.1614 10.9421 19.732 10.1489 18.6949 9.01778L24.2325 5.89804L27.2692 7.15905" fill="#E5E5E5" fill-opacity="0.25"/>
<path fill-rule="evenodd" clip-rule="evenodd" d="M17.8543 9.89124V17.8776L25 21.8708L32.1457 17.8776V9.89124L25 5.89804L17.8543 9.89124Z" stroke="#8E8E8E" stroke-width="2"/>
<path fill-rule="evenodd" clip-rule="evenodd" d="M7.7662 15.7759V23.7623L14.9119 27.7555L22.0576 23.7623V15.7759L14.9119 11.7827L7.7662 15.7759Z" stroke="#4F4F4F" stroke-width="2"/>
<path fill-rule="evenodd" clip-rule="evenodd" d="M27.9424 15.7759V23.7623L35.0881 27.7555L42.2338 23.7623V15.7759L35.0881 11.7827L27.9424 15.7759Z" stroke="white" stroke-width="2"/>
<path fill-rule="evenodd" clip-rule="evenodd" d="M7.7662 26.7047V34.6911L14.9119 38.6843L22.0576 34.6911V26.7047L14.9119 22.7115L7.7662 26.7047Z" stroke="#DBDBDB" stroke-width="2"/>
<path fill-rule="evenodd" clip-rule="evenodd" d="M27.9424 26.7047V34.6911L35.0881 38.6843L42.2338 34.6911V26.7047L35.0881 22.7115L27.9424 26.7047Z" stroke="#DBDBDB" stroke-width="2"/>
<path fill-rule="evenodd" clip-rule="evenodd" d="M17.8543 32.5894V40.5758L25 44.569L32.1457 40.5758V32.5894L25 28.5962L17.8543 32.5894Z" stroke="#8E8E8E" stroke-width="2"/>
</svg>
