<svg width="50" height="50" viewBox="0 0 50 50" fill="none" xmlns="http://www.w3.org/2000/svg">
<path d="M11.0069 26.4118C11.0069 37.7594 24.9967 43 24.9967 43H25V37.9115C10.2349 34.453 11.0069 16 11.0069 16C11.0069 18.784 11.0069 22.2821 11.0069 26.4118Z" fill="#92B5D8"/>
<path d="M35.7727 8H25.0017H14.2273C14.2273 9.79238 12.7818 11.2464 11 11.2464C11 14.2985 11 19.4076 11 26.1918C11 37.6899 25.0017 43 25.0017 43C25.0017 43 39 37.6899 39 26.1918C39 19.4076 39 14.2985 39 11.2464C37.2182 11.2464 35.7727 9.79238 35.7727 8Z" stroke="#402B91" stroke-width="1.99777" stroke-miterlimit="10" stroke-linecap="round" stroke-linejoin="round"/>
<path d="M32.1091 13H17.8909C17.8909 14.0389 17.0433 14.8828 16 14.8828V25.8823C16 31.7032 22.0514 35.4976 25.0016 37C27.9583 35.5008 34 31.7224 34 25.8823V14.8828C32.9567 14.8828 32.1091 14.0421 32.1091 13Z" stroke="#736DB1" stroke-width="1.99777" stroke-miterlimit="10" stroke-linecap="round" stroke-linejoin="round"/>
<path d="M25 28C27.7614 28 30 25.7614 30 23C30 20.2386 27.7614 18 25 18C22.2386 18 20 20.2386 20 23C20 25.7614 22.2386 28 25 28Z" stroke="#402B91" stroke-width="1.99777" stroke-miterlimit="10" stroke-linecap="round" stroke-linejoin="round"/>
<path d="M23 22.5577L24.5664 24L30 19" stroke="#94D1BE" stroke-width="1.99777" stroke-miterlimit="10" stroke-linecap="round" stroke-linejoin="round"/>
</svg>
