<svg width="50" height="50" viewBox="0 0 50 50" fill="none" xmlns="http://www.w3.org/2000/svg">
<path d="M35.418 20.9979V32.2432C35.418 32.8795 34.8973 33.4002 34.261 33.4002H33.5M14.4796 20.9979V32.2432C14.4796 32.8795 15.0003 33.4002 15.6366 33.4002H16.5" stroke="#736DB1" stroke-width="2" stroke-miterlimit="10" stroke-linecap="round" stroke-linejoin="round"/>
<path d="M38.9661 10H10.6969L9.12213 16.3217H9.12534C9.04499 16.6366 9 16.9612 9 17.3019C9 19.5034 10.7837 21.2903 12.9884 21.2903C15.1899 21.2903 16.9768 19.5066 16.9768 17.3019C16.9768 17.2248 16.9704 17.1476 16.964 17.0705H16.9865C16.9833 17.1476 16.9736 17.2248 16.9736 17.3019C16.9736 19.5034 18.7573 21.2903 20.962 21.2903C23.1635 21.2903 24.9504 19.5066 24.9504 17.3019C24.9504 17.2248 24.944 17.1476 24.9376 17.0705H24.9601C24.9569 17.1476 24.9472 17.2248 24.9472 17.3019C24.9472 19.5034 26.7309 21.2903 28.9356 21.2903C31.1371 21.2903 32.924 19.5066 32.924 17.3019C32.924 17.2248 32.9176 17.1476 32.9112 17.0705H32.9337C32.9305 17.1476 32.9208 17.2248 32.9208 17.3019C32.9208 19.5034 34.7045 21.2903 36.9092 21.2903C39.1107 21.2903 40.8977 19.5066 40.8977 17.3019C40.8977 16.987 40.8559 16.6816 40.7884 16.3892L38.9661 10Z" stroke="#402B91" stroke-width="2" stroke-miterlimit="10" stroke-linecap="round" stroke-linejoin="round"/>
<path d="M12.802 13.3006H37.0956" stroke="#94D1BE" stroke-width="2" stroke-miterlimit="10" stroke-linecap="round" stroke-linejoin="round"/>
<path d="M39.1589 20.8372V37.8675C39.1589 39.2109 38.0597 40.31 36.7163 40.31H13.1844C11.841 40.31 10.7418 39.2109 10.7418 37.8675V20.7601" stroke="#402B91" stroke-width="2" stroke-miterlimit="10" stroke-linecap="round" stroke-linejoin="round"/>
<path fill-rule="evenodd" clip-rule="evenodd" d="M24.9982 33.4538C23.3677 33.4538 22.0439 32.1315 22.0439 30.4994C22.0439 28.8673 23.3677 27.545 24.9982 27.545C26.6288 27.545 27.9526 28.8673 27.9526 30.4994C27.9526 32.1315 26.6288 33.4538 24.9982 33.4538ZM31.4993 31.7994V29.2006L29.9391 28.8094C29.8747 28.6146 29.8103 28.4198 29.6799 28.2249L30.5252 26.7951L28.7042 24.9757L27.2744 25.8194C27.078 25.755 26.8847 25.6246 26.6899 25.5602L26.3002 24H23.6984L23.3087 25.5602C23.1139 25.689 22.9206 25.755 22.7258 25.8194L21.2945 24.9757L19.4735 26.7951L20.3188 28.2249C20.2543 28.4198 20.1239 28.6146 20.0595 28.8094L18.5009 29.2006V31.7994L20.0595 32.189C20.1239 32.3854 20.1899 32.5802 20.3188 32.7751L19.4735 34.2049L21.2945 36.0243L22.7258 35.1806C22.9206 35.245 23.1139 35.3738 23.3087 35.4398L23.6984 37H26.3002L26.6899 35.4398C26.8847 35.3738 27.078 35.3094 27.2744 35.1806L28.7042 36.0243L30.5252 34.2049L29.6799 32.7751C29.7443 32.5802 29.8747 32.3854 29.9391 32.189L31.4993 31.7994Z" fill="#92B5D8"/>
</svg>
