<svg fill="none" height="50" viewBox="0 0 50 50" width="50" xmlns="http://www.w3.org/2000/svg"><path d="m39.1667 33.5-14.1667 6.375-9.5-4.875v-16.5l13-6.5 10.6667 4.5z" fill="#e5e5e5" fill-opacity=".25"/><path d="m10.8333 16.5 14.1667 6.375 14.1667-6.375" stroke="#a3acb9" stroke-linecap="round" stroke-linejoin="round" stroke-miterlimit="10" stroke-width="2"/><path d="m25 22.875v17" stroke="#a3acb9" stroke-linecap="round" stroke-linejoin="round" stroke-miterlimit="10" stroke-width="2"/><g fill="#868b9d"><path d="m14.7292 24.6458c.7824 0 1.4166-.7928 1.4166-1.7708s-.6342-1.7708-1.4166-1.7708-1.4167.7928-1.4167 1.7708.6343 1.7708 1.4167 1.7708z"/><path d="m21.1042 35.2708c.7824 0 1.4166-.7928 1.4166-1.7708s-.6342-1.7708-1.4166-1.7708-1.4167.7928-1.4167 1.7708.6343 1.7708 1.4167 1.7708z"/><path d="m17.9167 29.9583c.7824 0 1.4166-.7928 1.4166-1.7708s-.6342-1.7708-1.4166-1.7708-1.4167.7928-1.4167 1.7708.6343 1.7708 1.4167 1.7708z"/></g><path d="m32.0834 29.9583c.7824 0 1.4166-.7928 1.4166-1.7708s-.6342-1.7708-1.4166-1.7708c-.7825 0-1.4167.7928-1.4167 1.7708s.6342 1.7708 1.4167 1.7708z" fill="#bcbcbc"/><path d="m21.1042 17.5625c.978 0 1.7708-.4757 1.7708-1.0625s-.7928-1.0625-1.7708-1.0625-1.7709.4757-1.7709 1.0625.7929 1.0625 1.7709 1.0625z" fill="#868b9d"/><path d="m28.8958 17.5625c.978 0 1.7709-.4757 1.7709-1.0625s-.7929-1.0625-1.7709-1.0625-1.7708.4757-1.7708 1.0625.7928 1.0625 1.7708 1.0625z" fill="#868b9d"/><path d="m39.1667 33.5-14.1667 6.375-14.1667-6.375v-17l14.1667-6.375 14.1667 6.375z" stroke="#a3acb9" stroke-linecap="round" stroke-linejoin="round" stroke-miterlimit="10" stroke-width="2"/></svg>
