<svg width="50" height="50" viewBox="0 0 50 50" fill="none" xmlns="http://www.w3.org/2000/svg">
<path d="M14.7629 25.0065L12.1571 34.7457V37.806L16.8795 41.3294L25.2769 44.697L25.7227 44.7143C25.727 44.7143 13.3951 39.2214 14.7629 25.0065Z" fill="#4C5062"/>
<path d="M34.1893 20.6477C34.1893 20.6477 28.3068 20.8815 25.0085 17.2152C21.7102 20.8815 15.8277 20.6477 15.8277 20.6477C15.8277 20.6477 11.075 35.1223 12.1614 37.806C13.2479 40.4897 25.0085 45 25.0085 45C25.0085 45 36.7691 40.4897 37.8556 37.806C38.942 35.1223 34.1893 20.6477 34.1893 20.6477Z" stroke="#A3ACB9" stroke-width="2" stroke-miterlimit="10" stroke-linecap="round" stroke-linejoin="round"/>
<path d="M29.2158 28.8546C29.2158 26.5215 27.3242 24.6343 24.9955 24.6343C22.6667 24.6343 20.7751 26.5258 20.7751 28.8546C20.7751 30.4994 21.7188 31.9235 23.0952 32.6204V37.3342H26.9043V32.6204C28.2722 31.9235 29.2158 30.5038 29.2158 28.8546Z" stroke="#8E8E8E" stroke-width="2" stroke-miterlimit="10" stroke-linecap="round" stroke-linejoin="round"/>
<path d="M28.3112 19.2366V13.3368C28.3112 11.5059 26.8265 10.0212 24.9956 10.0212C23.1646 10.0212 21.6799 11.5059 21.6799 13.3368V19.2799" stroke="#A3ACB9" stroke-width="2" stroke-miterlimit="10" stroke-linecap="round" stroke-linejoin="round"/>
<path d="M32.0987 20.2235V13.1074C32.0987 9.19012 28.9129 6 24.9912 6C21.0739 6 17.8838 9.18579 17.8838 13.1074V20.3144" stroke="#A3ACB9" stroke-width="2" stroke-miterlimit="10" stroke-linecap="round" stroke-linejoin="round"/>
<path d="M32.0986 26.3311C32.0986 26.3311 33.4188 29.8631 33.8387 33.8107" stroke="white" stroke-width="2" stroke-miterlimit="10" stroke-linecap="round" stroke-linejoin="round"/>
</svg>
