<svg width="50" height="50" viewBox="0 0 50 50" fill="none" xmlns="http://www.w3.org/2000/svg">
<path d="M8.27051 21.3268C9.56092 14.6717 14.8453 9.43814 21.53 8.22812" stroke="#A3ACB9" stroke-width="2" stroke-miterlimit="10" stroke-linecap="round" stroke-linejoin="round"/>
<path d="M21.5427 40.7676C14.786 39.5449 9.45937 34.2225 8.23242 27.47" stroke="#A3ACB9" stroke-width="2" stroke-miterlimit="10" stroke-linecap="round" stroke-linejoin="round"/>
<path d="M40.7677 27.4658C39.5407 34.214 34.2183 39.5364 27.4701 40.7634" stroke="#A3ACB9" stroke-width="2" stroke-miterlimit="10" stroke-linecap="round" stroke-linejoin="round"/>
<path d="M27.4573 8.22391C34.2182 9.44662 39.5491 14.7775 40.7718 21.5426" stroke="#A3ACB9" stroke-width="2" stroke-miterlimit="10" stroke-linecap="round" stroke-linejoin="round"/>
<path d="M24.5 10.9401C26.1403 10.9401 27.47 9.61038 27.47 7.97006C27.47 6.32974 26.1403 5 24.5 5C22.8596 5 21.5299 6.32974 21.5299 7.97006C21.5299 9.61038 22.8596 10.9401 24.5 10.9401Z" stroke="#A3ACB9" stroke-width="2" stroke-miterlimit="10" stroke-linecap="round" stroke-linejoin="round"/>
<path d="M24.5 44C26.1403 44 27.47 42.6703 27.47 41.0299C27.47 39.3896 26.1403 38.0599 24.5 38.0599C22.8596 38.0599 21.5299 39.3896 21.5299 41.0299C21.5299 42.6703 22.8596 44 24.5 44Z" stroke="#A3ACB9" stroke-width="2" stroke-miterlimit="10" stroke-linecap="round" stroke-linejoin="round"/>
<path d="M7.97006 27.4701C9.61038 27.4701 10.9401 26.1403 10.9401 24.5C10.9401 22.8597 9.61038 21.5299 7.97006 21.5299C6.32974 21.5299 5 22.8597 5 24.5C5 26.1403 6.32974 27.4701 7.97006 27.4701Z" stroke="white" stroke-width="2" stroke-miterlimit="10" stroke-linecap="round" stroke-linejoin="round"/>
<path d="M41.03 27.4701C42.6703 27.4701 44.0001 26.1403 44.0001 24.5C44.0001 22.8597 42.6703 21.5299 41.03 21.5299C39.3897 21.5299 38.0599 22.8597 38.0599 24.5C38.0599 26.1403 39.3897 27.4701 41.03 27.4701Z" stroke="white" stroke-width="2" stroke-miterlimit="10" stroke-linecap="round" stroke-linejoin="round"/>
<path d="M14.219 24.4957H34.7809" stroke="#8E8E8E" stroke-width="2" stroke-miterlimit="10" stroke-linecap="round" stroke-linejoin="round"/>
<path d="M15.9156 19.3045H33.0802" stroke="#8E8E8E" stroke-width="2" stroke-miterlimit="10" stroke-linecap="round" stroke-linejoin="round"/>
<path d="M15.9156 29.6659H33.0802" stroke="#8E8E8E" stroke-width="2" stroke-miterlimit="10" stroke-linecap="round" stroke-linejoin="round"/>
<path d="M22.6426 14.5871C22.6426 14.5871 19.3087 18.5895 19.3087 24.6227C19.3087 30.6559 22.6426 34.6583 22.6426 34.6583" stroke="#8E8E8E" stroke-width="2" stroke-miterlimit="10" stroke-linecap="round" stroke-linejoin="round"/>
<path d="M24.4366 14.2148V34.7767" stroke="#8E8E8E" stroke-width="2" stroke-miterlimit="10" stroke-linecap="round" stroke-linejoin="round"/>
<path d="M26.2897 14.5871C26.2897 14.5871 29.6236 18.5895 29.6236 24.6227C29.6236 30.6559 26.2897 34.6583 26.2897 34.6583" stroke="#8E8E8E" stroke-width="2" stroke-miterlimit="10" stroke-linecap="round" stroke-linejoin="round"/>
<path d="M24.5 34.7767C30.178 34.7767 34.7809 30.1738 34.7809 24.4958C34.7809 18.8177 30.178 14.2148 24.5 14.2148C18.8219 14.2148 14.219 18.8177 14.219 24.4958C14.219 30.1738 18.8219 34.7767 24.5 34.7767Z" stroke="#A3ACB9" stroke-width="2" stroke-miterlimit="10" stroke-linecap="round" stroke-linejoin="round"/>
</svg>
