<svg width="50" height="50" viewBox="0 0 50 50" fill="none" xmlns="http://www.w3.org/2000/svg">
<path d="M8.27051 22.3268C9.56092 15.6717 14.8453 10.4381 21.53 9.22809" stroke="#402B91" stroke-width="2" stroke-miterlimit="10" stroke-linecap="round" stroke-linejoin="round"/>
<path d="M21.5427 41.7676C14.786 40.5449 9.45937 35.2225 8.23242 28.47" stroke="#402B91" stroke-width="2" stroke-miterlimit="10" stroke-linecap="round" stroke-linejoin="round"/>
<path d="M40.7677 28.4658C39.5407 35.214 34.2183 40.5364 27.4701 41.7634" stroke="#402B91" stroke-width="2" stroke-miterlimit="10" stroke-linecap="round" stroke-linejoin="round"/>
<path d="M27.4573 9.22394C34.2182 10.4467 39.5491 15.7775 40.7718 22.5427" stroke="#402B91" stroke-width="2" stroke-miterlimit="10" stroke-linecap="round" stroke-linejoin="round"/>
<path d="M24.5 11.9401C26.1403 11.9401 27.47 10.6104 27.47 8.97006C27.47 7.32974 26.1403 6 24.5 6C22.8596 6 21.5299 7.32974 21.5299 8.97006C21.5299 10.6104 22.8596 11.9401 24.5 11.9401Z" stroke="#402B91" stroke-width="2" stroke-miterlimit="10" stroke-linecap="round" stroke-linejoin="round"/>
<path d="M24.5 45C26.1403 45 27.47 43.6703 27.47 42.0299C27.47 40.3896 26.1403 39.0599 24.5 39.0599C22.8596 39.0599 21.5299 40.3896 21.5299 42.0299C21.5299 43.6703 22.8596 45 24.5 45Z" stroke="#402B91" stroke-width="2" stroke-miterlimit="10" stroke-linecap="round" stroke-linejoin="round"/>
<path d="M7.97006 28.47C9.61038 28.47 10.9401 27.1403 10.9401 25.5C10.9401 23.8596 9.61038 22.5299 7.97006 22.5299C6.32974 22.5299 5 23.8596 5 25.5C5 27.1403 6.32974 28.47 7.97006 28.47Z" stroke="#94D1BE" stroke-width="2" stroke-miterlimit="10" stroke-linecap="round" stroke-linejoin="round"/>
<path d="M41.03 28.47C42.6703 28.47 44.0001 27.1403 44.0001 25.5C44.0001 23.8596 42.6703 22.5299 41.03 22.5299C39.3897 22.5299 38.0599 23.8596 38.0599 25.5C38.0599 27.1403 39.3897 28.47 41.03 28.47Z" stroke="#94D1BE" stroke-width="2" stroke-miterlimit="10" stroke-linecap="round" stroke-linejoin="round"/>
<path d="M14.219 25.4957H34.7809" stroke="#736DB1" stroke-width="2" stroke-miterlimit="10" stroke-linecap="round" stroke-linejoin="round"/>
<path d="M15.9156 20.3045H33.0802" stroke="#736DB1" stroke-width="2" stroke-miterlimit="10" stroke-linecap="round" stroke-linejoin="round"/>
<path d="M15.9156 30.6659H33.0802" stroke="#736DB1" stroke-width="2" stroke-miterlimit="10" stroke-linecap="round" stroke-linejoin="round"/>
<path d="M22.6426 15.5871C22.6426 15.5871 19.3087 19.5895 19.3087 25.6227C19.3087 31.6559 22.6426 35.6583 22.6426 35.6583" stroke="#736DB1" stroke-width="2" stroke-miterlimit="10" stroke-linecap="round" stroke-linejoin="round"/>
<path d="M24.4366 15.2148V35.7767" stroke="#736DB1" stroke-width="2" stroke-miterlimit="10" stroke-linecap="round" stroke-linejoin="round"/>
<path d="M26.2897 15.5871C26.2897 15.5871 29.6236 19.5895 29.6236 25.6227C29.6236 31.6559 26.2897 35.6583 26.2897 35.6583" stroke="#736DB1" stroke-width="2" stroke-miterlimit="10" stroke-linecap="round" stroke-linejoin="round"/>
<path d="M24.5 35.7767C30.178 35.7767 34.7809 31.1738 34.7809 25.4958C34.7809 19.8177 30.178 15.2148 24.5 15.2148C18.8219 15.2148 14.219 19.8177 14.219 25.4958C14.219 31.1738 18.8219 35.7767 24.5 35.7767Z" stroke="#402B91" stroke-width="2" stroke-miterlimit="10" stroke-linecap="round" stroke-linejoin="round"/>
</svg>
