<svg width="50" height="50" viewBox="0 0 50 50" fill="none" xmlns="http://www.w3.org/2000/svg">
<path d="M25 41.0014C33.9631 41.0014 41.2292 33.8221 41.2292 24.9659C41.2292 16.1097 33.9631 8.93036 25 8.93036C16.0369 8.93036 8.7708 16.1097 8.7708 24.9659C8.7708 33.8221 16.0369 41.0014 25 41.0014Z" stroke="#736BB6" stroke-width="2"/>
<path d="M25 10.2951C25.9535 10.2951 26.7265 9.53135 26.7265 8.58921C26.7265 7.64706 25.9535 6.8833 25 6.8833C24.0465 6.8833 23.2735 7.64706 23.2735 8.58921C23.2735 9.53135 24.0465 10.2951 25 10.2951Z" fill="white" stroke="#92B5D8" stroke-width="2"/>
<path d="M25 43.0485C25.9535 43.0485 26.7265 42.2847 26.7265 41.3426C26.7265 40.4004 25.9535 39.6367 25 39.6367C24.0465 39.6367 23.2735 40.4004 23.2735 41.3426C23.2735 42.2847 24.0465 43.0485 25 43.0485Z" fill="white" stroke="#9CD5C2" stroke-width="2"/>
<path d="M37.7465 17.4874C38.2498 18.3592 39.3688 18.6555 40.2458 18.1491C41.1228 17.6428 41.4257 16.5256 40.9224 15.6538C40.4191 14.782 39.3001 14.4858 38.4231 14.9921C37.5461 15.4985 37.2431 16.6157 37.7465 17.4874Z" fill="white" stroke="#9CD5C2" stroke-width="2"/>
<path d="M9.07758 33.8419C9.58089 34.7137 10.6999 35.0099 11.5769 34.5036C12.4539 33.9972 12.7569 32.88 12.2535 32.0083C11.7502 31.1365 10.6312 30.8403 9.75422 31.3466C8.8772 31.853 8.57426 32.9701 9.07758 33.8419Z" fill="white" stroke="#92B5D8" stroke-width="2"/>
<path d="M37.7465 32.0083C37.2431 32.88 37.5461 33.9972 38.4231 34.5036C39.3001 35.0099 40.4191 34.7137 40.9224 33.8419C41.4258 32.9701 41.1228 31.853 40.2458 31.3466C39.3688 30.8403 38.2498 31.1365 37.7465 32.0083Z" fill="white" stroke="#92B5D8" stroke-width="2"/>
<path d="M9.07758 15.6538C8.57426 16.5255 8.87721 17.6427 9.75423 18.1491C10.6312 18.6554 11.7502 18.3592 12.2535 17.4874C12.7569 16.6156 12.4539 15.4985 11.5769 14.9921C10.6999 14.4858 9.5809 14.782 9.07758 15.6538Z" fill="white" stroke="#9CD5C2" stroke-width="2"/>
<path fill-rule="evenodd" clip-rule="evenodd" d="M31.1512 22.8256C31.1512 27.1744 24.8256 33.5 24.8256 33.5C24.8256 33.5 18.5 27.1744 18.5 22.8256C18.5 18.8227 21.7687 16.5 24.8256 16.5C27.8824 16.5 31.1512 18.8227 31.1512 22.8256Z" stroke="#402B91" stroke-width="2" stroke-linecap="round" stroke-linejoin="round"/>
<path d="M24.8256 24.8023C25.9173 24.8023 26.8023 23.9173 26.8023 22.8256C26.8023 21.7338 25.9173 20.8488 24.8256 20.8488C23.7338 20.8488 22.8488 21.7338 22.8488 22.8256C22.8488 23.9173 23.7338 24.8023 24.8256 24.8023Z" stroke="#402B91" stroke-width="2" stroke-linecap="round" stroke-linejoin="round"/>
</svg>
