<svg width="50" height="50" viewBox="0 0 50 50" fill="none" xmlns="http://www.w3.org/2000/svg">
<path d="M31.7527 37.1579C28.184 37.1579 25.301 37.1579 25.301 37.1579C25.301 37.1579 22.4151 37.1579 18.8493 37.1579C11.6418 37.1579 9.80054 39.7666 9.80054 39.7666H25.301H40.8014C40.8014 39.7666 38.9602 37.1579 31.7527 37.1579Z" fill="#4C5062"/>
<path d="M17.2151 26.9974L8 23.5483V15.0219H42.6134V23.5483L33.2787 27.0411" stroke="#A3ACB9" stroke-width="2" stroke-miterlimit="10" stroke-linecap="round" stroke-linejoin="round"/>
<path d="M41.0318 24.5112V40H9.57861V24.5112" stroke="#A3ACB9" stroke-width="2" stroke-miterlimit="10" stroke-linecap="round" stroke-linejoin="round"/>
<path d="M16.2112 14.4149V12.101C16.2112 10.9454 17.1566 10 18.3121 10H32.2981C33.4537 10 34.3991 10.9454 34.3991 12.101V14.4149" stroke="#A3ACB9" stroke-width="2" stroke-miterlimit="10" stroke-linecap="round" stroke-linejoin="round"/>
<path d="M25.3066 34.2223C29.5595 34.2223 33.0072 30.7746 33.0072 26.5217C33.0072 22.2688 29.5595 18.8211 25.3066 18.8211C21.0536 18.8211 17.606 22.2688 17.606 26.5217C17.606 30.7746 21.0536 34.2223 25.3066 34.2223Z" stroke="white" stroke-width="2" stroke-miterlimit="10" stroke-linecap="round" stroke-linejoin="round"/>
<path d="M21.7702 24.8089L20.2236 26.3525L21.9277 28.0567" stroke="white" stroke-width="2" stroke-miterlimit="10" stroke-linecap="round" stroke-linejoin="round"/>
<path d="M28.5982 24.8089L30.1419 26.3525L28.4377 28.0567" stroke="white" stroke-width="2" stroke-miterlimit="10" stroke-linecap="round" stroke-linejoin="round"/>
<path d="M26.4009 24.0356L24.0403 29.3493" stroke="white" stroke-width="2" stroke-miterlimit="10" stroke-linecap="round" stroke-linejoin="round"/>
</svg>
