<?xml version="1.0" encoding="UTF-8"?>
<svg width="19px" height="22px" viewBox="0 0 19 22" version="1.1" xmlns="http://www.w3.org/2000/svg" xmlns:xlink="http://www.w3.org/1999/xlink">
    <title>Group 14</title>
    <g id="Symbols" stroke="none" stroke-width="1" fill="none" fill-rule="evenodd">
        <g id="Group-14">
            <path d="M12.1252155,18 L18.3285094,18 L18.3285094,18 L18.4,20.125 L10.030261,20.125 C10.0137846,18.9679886 10.9383709,18.0166888 12.0953823,18.0002124 C12.1053261,18.0000708 12.1152707,18 12.1252155,18 Z" id="Rectangle" fill="#93B3DE" transform="translate(14.200000, 19.062500) rotate(-360.000000) translate(-14.200000, -19.062500) "></path>
            <g id="Group-12">
                <polyline id="Stroke-19" stroke="#6FD4B9" stroke-linecap="round" stroke-linejoin="round" points="10.0909091 6.059 6.69840909 11.059 5.09090909 9.39319756"></polyline>
                <g id="noun_security-lock_2933200" fill-rule="nonzero">
                    <g id="Group">
                        <path d="M5.89,19.36 C2.3915433,16.6005108 0.356072483,12.3857587 0.369918812,7.93 L0.369918812,4.73 C0.362554596,3.90061771 0.867794643,3.15270331 1.64,2.85 L7.75,0.41 C8.23106532,0.215399496 8.76893468,0.215399496 9.25,0.41 L15.36,2.85 C16.1322054,3.15270331 16.6374454,3.90061771 16.6300812,4.73 L16.6300812,8 L15.63,8 L15.63,4.73 C15.6590354,4.29238806 15.3995387,3.8869245 14.99,3.73 L8.88,1.34 C8.63653864,1.23998198 8.36346136,1.23998198 8.12,1.34 L2,3.78 C1.59046127,3.9369245 1.3309646,4.34238806 1.36,4.78 L1.36,7.98 C1.3491384,12.1304656 3.24385424,16.0562873 6.5,18.63 L5.89,19.36 Z" id="Path" fill="#4E3D95"></path>
                        <path d="M17.5,21 L9.5,21 C8.67157288,21 8,20.3284271 8,19.5 L8,13.5 C8,12.6715729 8.67157288,12 9.5,12 L17.5,12 C18.3284271,12 19,12.6715729 19,13.5 L19,19.5 C19,20.3284271 18.3284271,21 17.5,21 Z M9.5,13 C9.22385763,13 9,13.2238576 9,13.5 L9,19.5 C9,19.7761424 9.22385763,20 9.5,20 L17.5,20 C17.7761424,20 18,19.7761424 18,19.5 L18,13.5 C18,13.2238576 17.7761424,13 17.5,13 L9.5,13 Z" id="Shape" fill="#7363B8"></path>
                        <path d="M15.5,13 L11.5,13 C11.2238576,13 11,12.7761424 11,12.5 L11,10.5 C11,9.11928813 12.1192881,8 13.5,8 C14.8807119,8 16,9.11928813 16,10.5 L16,12.5 C16,12.7761424 15.7761424,13 15.5,13 Z M12,12 L15,12 L15,10.5 C15,9.67157288 14.3284271,9 13.5,9 C12.6715729,9 12,9.67157288 12,10.5 L12,12 Z" id="Shape" fill="#7363B8"></path>
                        <path d="M13.5,17.5 C12.9477153,17.5 12.5,17.0522847 12.5,16.5 C12.5,15.9477153 12.9477153,15.5 13.5,15.5 C14.0522847,15.5 14.5,15.9477153 14.5,16.5 C14.5,17.0522847 14.0522847,17.5 13.5,17.5 Z" id="Path" fill="#6FD4B9"></path>
                    </g>
                </g>
            </g>
        </g>
    </g>
</svg>
