<svg width="50" height="50" viewBox="0 0 50 50" fill="none" xmlns="http://www.w3.org/2000/svg">
<path d="M11 39.0001L14.286 35.7141" stroke="#A3ACB9" stroke-width="2" stroke-miterlimit="10" stroke-linecap="round" stroke-linejoin="round"/>
<path d="M22.3333 23.6667L19.6667 26.3334" stroke="#A3ACB9" stroke-width="2" stroke-miterlimit="10" stroke-linecap="round" stroke-linejoin="round"/>
<path d="M26.3333 27.6667L23.6667 30.3334" stroke="#A3ACB9" stroke-width="2" stroke-miterlimit="10" stroke-linecap="round" stroke-linejoin="round"/>
<path d="M18.5 33.5C13.286 32.5 12.345 26.8923 12.354 30.994C12.3579 32.757 13.0599 34.4467 14.3066 35.6934C15.5533 36.9401 17.243 37.6421 19.006 37.646C20.7691 37.6499 22.4619 36.9552 23.714 35.714L26.3807 33.0473C26.3807 33.0473 23.714 34.5 18.5 33.5Z" fill="#E5E5E5" fill-opacity="0.25"/>
<path d="M16.9527 23.6194L14.286 26.2861C13.0448 27.5382 12.3501 29.231 12.354 30.994C12.3579 32.7571 13.0599 34.4468 14.3066 35.6935C15.5533 36.9401 17.243 37.6422 19.006 37.6461C20.7691 37.6499 22.4619 36.9552 23.714 35.7141L26.3807 33.0474L16.9527 23.6194Z" stroke="#A3ACB9" stroke-width="2" stroke-miterlimit="10" stroke-linecap="round" stroke-linejoin="round"/>
<path d="M39.0267 10.5834L35.7407 13.8694" stroke="white" stroke-width="2" stroke-miterlimit="10" stroke-linecap="round" stroke-linejoin="round"/>
<path d="M33.0741 25.9641L35.7407 23.2974C36.9819 22.0453 37.6766 20.3525 37.6727 18.5894C37.6689 16.8264 36.9668 15.1367 35.7201 13.89C34.4735 12.6433 32.7837 11.9413 31.0207 11.9374C29.2576 11.9335 27.5648 12.6282 26.3127 13.8694L23.6461 16.5361L33.0741 25.9641Z" fill="#A3ACB9" stroke="white" stroke-width="2" stroke-miterlimit="10" stroke-linecap="round" stroke-linejoin="round"/>
</svg>
