<svg width="50" height="50" viewBox="0 0 50 50" fill="none" xmlns="http://www.w3.org/2000/svg">
<path fill-rule="evenodd" clip-rule="evenodd" d="M18.8883 15.8542L6.70319 15.8542V10.8347L23.9078 10.8347C23.9078 13.6069 21.6605 15.8542 18.8883 15.8542Z" fill="#E5E5E5" fill-opacity="0.25"/>
<path d="M41.6764 10.8347H7.70319C7.1509 10.8347 6.70319 11.2824 6.70319 11.8347V38.1541C6.70319 38.7063 7.1509 39.1541 7.70319 39.1541H41.6764C42.2287 39.1541 42.6764 38.7063 42.6764 38.1541V11.8347C42.6764 11.2824 42.2287 10.8347 41.6764 10.8347Z" stroke="#A3ACB9" stroke-width="2"/>
<path d="M6.70319 15.4893H42.6764" stroke="#A3ACB9" stroke-width="2"/>
<path d="M27.5612 21.7831L21.5617 31.3037" stroke="#EEEFF0" stroke-width="2" stroke-linecap="round"/>
<path d="M19.4918 21.7831L15.2506 25.8467C14.8518 26.2288 14.8382 26.8618 15.2203 27.2606C15.2219 27.2623 15.2235 27.2639 15.2252 27.2656L19.1484 31.3037" stroke="#EEEFF0" stroke-width="2" stroke-linecap="round"/>
<path d="M30.164 31.3036L34.4052 27.24C34.804 26.8579 34.8175 26.2249 34.4354 25.8261C34.4338 25.8245 34.4322 25.8228 34.4306 25.8211L30.5074 21.7831" stroke="#EEEFF0" stroke-width="2" stroke-linecap="round"/>
</svg>
