<svg width="50" height="50" viewBox="0 0 50 50" fill="none" xmlns="http://www.w3.org/2000/svg">
<path d="M28.1791 36.8721C25.6494 36.8721 23.6064 36.8721 23.6064 36.8721C23.6064 36.8721 21.5605 36.8721 19.0338 36.8721C13.9235 36.8721 12.6183 40.4352 12.6183 40.4352H23.6064H34.5946C34.5916 40.4352 33.2864 36.8721 28.1791 36.8721Z" fill="#92B5D8"/>
<path d="M35.7265 23.7783V14.1222L30.6013 9H14.1504C12.9677 9 12 9.9677 12 11.1504V38.7896C12 39.9723 12.9677 40.94 14.1504 40.94H33.5761C34.7588 40.94 35.7265 39.9723 35.7265 38.7896V29.6651" stroke="#402B91" stroke-width="2" stroke-miterlimit="10" stroke-linecap="round" stroke-linejoin="round"/>
<path d="M29.8428 9V14.5553H35.7266" stroke="#402B91" stroke-width="2" stroke-miterlimit="10" stroke-linecap="round" stroke-linejoin="round"/>
<path d="M15.838 19.0383H29.9473" stroke="#736DB1" stroke-width="2" stroke-miterlimit="10" stroke-linecap="round" stroke-linejoin="round"/>
<path d="M15.838 22.9719H25.7569" stroke="#736DB1" stroke-width="2" stroke-miterlimit="10" stroke-linecap="round" stroke-linejoin="round"/>
<path d="M15.838 26.9054H25.7569" stroke="#736DB1" stroke-width="2" stroke-miterlimit="10" stroke-linecap="round" stroke-linejoin="round"/>
<path d="M15.838 30.8389H25.7569" stroke="#736DB1" stroke-width="2" stroke-miterlimit="10" stroke-linecap="round" stroke-linejoin="round"/>
<path d="M23.8243 36.8721H29.6395" stroke="#402B91" stroke-width="2" stroke-miterlimit="10" stroke-linecap="round" stroke-linejoin="round"/>
<path d="M41.927 22.5478L39.887 20.5079C39.7377 20.3585 39.4928 20.3585 39.3435 20.5079L29.5888 30.2625C29.5321 30.3193 29.4962 30.388 29.4813 30.4656L29.0243 32.9625C29.0004 33.0879 29.0422 33.2134 29.1319 33.303C29.2215 33.3926 29.3499 33.4314 29.4723 33.4105L31.9692 32.9535C32.0469 32.9386 32.1156 32.9028 32.1723 32.846L41.927 23.0914C42.0793 22.9421 42.0763 22.6971 41.927 22.5478Z" stroke="#94D1BE" stroke-width="2" stroke-miterlimit="10" stroke-linecap="round" stroke-linejoin="round"/>
</svg>
