<svg fill="none" height="50" viewBox="0 0 50 50" width="50" xmlns="http://www.w3.org/2000/svg"><path d="m36.5 19h-23c-4 0-4.5 3-4.5 3h32s-.5-3-4.5-3z" fill="#92b5d8"/><g stroke-linecap="round" stroke-linejoin="round" stroke-miterlimit="10" stroke-width="2"><path d="m41.5 10h-33v12h33z" stroke="#402b91"/><path d="m41.5 28h-33v12h33z" fill="#94d1be" stroke="#074957"/><path d="m16 16h-3" stroke="#736db1"/><path d="m16 34h-3" stroke="#074957"/><path d="m23.5 16h-3" stroke="#736db1"/><path d="m23.5 34h-3" stroke="#074957"/><path d="m35.5 17.5c.8284 0 1.5-.6716 1.5-1.5s-.6716-1.5-1.5-1.5-1.5.6716-1.5 1.5.6716 1.5 1.5 1.5z" stroke="#402b91"/><path d="m35.5 35.5c.8284 0 1.5-.6716 1.5-1.5s-.6716-1.5-1.5-1.5-1.5.6716-1.5 1.5.6716 1.5 1.5 1.5z" fill="#94d1be" stroke="#074957"/><path d="m13 22v3" stroke="#402b91"/><path d="m37 22v3" stroke="#402b91"/></g></svg>
