<svg width="50" height="50" viewBox="0 0 50 50" fill="none" xmlns="http://www.w3.org/2000/svg">
<path d="M25.3577 29.7999C28.5922 29.7999 31.2142 27.1778 31.2142 23.9434C31.2142 20.7089 28.5922 18.0869 25.3577 18.0869C22.1233 18.0869 19.5012 20.7089 19.5012 23.9434C19.5012 27.1778 22.1233 29.7999 25.3577 29.7999Z" stroke="#A3ACB9" stroke-width="2" stroke-miterlimit="10" stroke-linecap="round" stroke-linejoin="round"/>
<path d="M20.7242 33.1259C22.1165 33.8294 23.6893 34.2272 25.3578 34.2272C31.0375 34.2272 35.638 29.6231 35.638 23.947C35.638 18.271 31.0339 13.6668 25.3578 13.6668C19.6818 13.6668 15.0776 18.271 15.0776 23.947C15.0776 25.6856 15.5086 27.3247 16.271 28.7612" stroke="white" stroke-width="2" stroke-miterlimit="10" stroke-linecap="round" stroke-linejoin="round"/>
<path d="M20.2969 25.0999L7.8398 37.6933C7.83612 37.697 7.83243 37.7006 7.82875 37.7043L7.82507 37.708C7.31308 38.2237 7 38.9309 7 39.7154C7 41.2919 8.27812 42.57 9.85459 42.57C10.6502 42.57 11.3684 42.2459 11.8841 41.7192L24.3559 29.1148L26.4628 23.0299L20.2969 25.0999Z" stroke="#A3ACB9" stroke-width="2" stroke-miterlimit="10" stroke-linecap="round" stroke-linejoin="round"/>
<path d="M8.74219 36.7798L12.7386 40.8572" stroke="#A3ACB9" stroke-width="2" stroke-miterlimit="10" stroke-linecap="round" stroke-linejoin="round"/>
<path d="M40.2015 19.6191C40.1352 19.4939 40.0725 19.365 40.0026 19.2434C40.0099 19.3392 40.0136 19.4386 40.0173 19.5381C40.0799 19.5639 40.1388 19.5896 40.2015 19.6191Z" fill="#4C5062"/>
<path d="M41.8151 25.704C41.7708 24.4479 41.5609 23.2177 41.1999 22.0354L40.0286 21.7517C40.0249 21.7223 40.0176 21.6928 40.0139 21.667C39.9255 22.9083 39.7008 24.1606 39.3141 25.4019C36.6142 34.0688 27.4021 38.9087 18.7316 36.2088C18.6432 36.1831 18.5621 36.1499 18.4774 36.1204V36.9787C19.3393 37.7116 20.297 38.3452 21.3431 38.8645C21.1405 38.5956 20.9416 38.3231 20.7611 38.0431C21.553 38.301 22.3597 38.4925 23.1737 38.6141L23.4389 39.7154C23.4426 39.7154 23.4462 39.7191 23.4462 39.7191C24.6728 40.1021 25.9104 40.3047 27.1369 40.3489L27.5532 38.6141C29.9068 38.2641 32.1905 37.3507 34.1869 35.8663L36.1832 37.0892L37.3435 35.9289L38.5037 34.7687L37.2809 32.7723C38.7616 30.7759 39.6787 28.4922 40.0286 26.1386L41.8151 25.704Z" fill="#4C5062"/>
<path d="M13.0371 32.2051C11.7885 30.3487 11.0076 28.2676 10.6909 26.1349L8.41455 25.5861V23.9434V22.3006L10.6909 21.7518C11.0408 19.3981 11.9542 17.1144 13.4386 15.1181L12.2158 13.1217L13.376 11.9615L14.5363 10.8012L16.5326 12.0241C18.529 10.5434 20.8127 9.62622 23.1663 9.2763L23.7151 7H25.3579H27.0007L27.5495 9.2763C29.9031 9.62622 32.1868 10.5397 34.1832 12.0241L36.1796 10.8012L37.3398 11.9615L38.5001 13.1217L37.2772 15.1181C38.7579 17.1144 39.675 19.3981 40.025 21.7518L42.3013 22.3006V23.9434V25.5861L40.025 26.1349C39.675 28.4886 38.7579 30.7723 37.2772 32.7686L38.5001 34.765L37.3398 35.9253L36.1796 37.0855L34.1832 35.8626C32.1868 37.3433 29.9031 38.2605 27.5495 38.6104L27.0007 40.8867H25.3579H23.7151L23.1663 38.6104C21.2105 38.3194 19.3025 37.638 17.5676 36.5662" stroke="#A3ACB9" stroke-width="2" stroke-miterlimit="10" stroke-linecap="round" stroke-linejoin="round"/>
</svg>
