<svg width="50" height="50" viewBox="0 0 50 50" fill="none" xmlns="http://www.w3.org/2000/svg">
<path d="M14.4546 14.7092H12.4826C11.4456 14.7092 10.5969 15.5579 10.5969 16.5949V40.8244C10.5969 41.8613 11.4456 42.71 12.4826 42.71H29.512C30.549 42.71 31.3977 41.8613 31.3977 40.8244V38.8554" stroke="#8E8E8E" stroke-width="2" stroke-miterlimit="10" stroke-linecap="round" stroke-linejoin="round" stroke-dasharray="1.85 2.47"/>
<path d="M32.4901 31.4332C30.2742 31.4332 28.4812 31.4332 28.4812 31.4332C28.4812 31.4332 26.6881 31.4332 24.4722 31.4332C19.9942 31.4332 18.8492 34.5564 18.8492 34.5564H28.4812H38.1131C38.1131 34.5564 36.9712 31.4332 32.4901 31.4332Z" fill="#4C5062"/>
<path d="M34.6165 7H20.1949C19.1579 7 18.3092 7.8487 18.3092 8.88565V33.1151C18.3092 34.1521 19.1579 35.0008 20.1949 35.0008H37.2243C38.2613 35.0008 39.11 34.1521 39.11 33.1151V11.4904L34.6165 7Z" stroke="#A3ACB9" stroke-width="2" stroke-miterlimit="10" stroke-linecap="round" stroke-linejoin="round"/>
<path d="M18.3092 10.8546H16.3402C15.3033 10.8546 14.4546 11.7033 14.4546 12.7403V36.9697C14.4546 38.0067 15.3033 38.8554 16.3402 38.8554H33.3697C34.4066 38.8554 35.2553 38.0067 35.2553 36.9697V35.0008" stroke="#A3ACB9" stroke-width="2" stroke-miterlimit="10" stroke-linecap="round" stroke-linejoin="round"/>
<path d="M33.95 7V11.87H39.1069" stroke="#A3ACB9" stroke-width="2" stroke-miterlimit="10" stroke-linecap="round" stroke-linejoin="round"/>
<path d="M28.7096 26.9335C31.7213 26.9335 34.1629 24.492 34.1629 21.4803C34.1629 18.4685 31.7213 16.027 28.7096 16.027C25.6979 16.027 23.2563 18.4685 23.2563 21.4803C23.2563 24.492 25.6979 26.9335 28.7096 26.9335Z" stroke="white" stroke-width="2" stroke-miterlimit="10" stroke-linecap="round" stroke-linejoin="round"/>
<path d="M28.7097 18.928V24.0356" stroke="white" stroke-width="2" stroke-miterlimit="10" stroke-linecap="round" stroke-linejoin="round"/>
<path d="M31.2619 21.4803H26.1543" stroke="white" stroke-width="2" stroke-miterlimit="10" stroke-linecap="round" stroke-linejoin="round"/>
</svg>
