<?xml version="1.0" encoding="UTF-8"?>
<svg width="28px" height="29px" viewBox="0 0 28 29" version="1.1" xmlns="http://www.w3.org/2000/svg" xmlns:xlink="http://www.w3.org/1999/xlink">
    <title>Icon/Terminology</title>
    <defs>
        <polygon id="path-1" points="0 0.4997 28 0.4997 28 27.4997 0 27.4997"></polygon>
    </defs>
    <g id="---Developers" stroke="none" stroke-width="1" fill="none" fill-rule="evenodd">
        <g id="Documentation---Core-Contributors---Coding-Guidelines-Dark-Mode" transform="translate(-123.000000, -1415.000000)">
            <g id="Left-Rail" transform="translate(0.000000, 1013.000000)">
                <g id="Left-TOC" transform="translate(30.000000, 88.000000)">
                    <g id="Support" transform="translate(0.000000, 314.000000)">
                        <g id="Icon/Terminology" transform="translate(93.000000, 0.000000)">
                            <polygon id="Fill-1" fill="#A3ACBC" points="20.7243 23.757 23.5993 26.513 23.5993 23.009"></polygon>
                            <g id="Group-16" transform="translate(0.000000, 0.293100)">
                                <path d="M26.4243,23.4841 L20.7243,23.4841 L8.6473,23.4841 C8.6473,22.0081 10.2263,20.8111 12.1733,20.8111 L22.8993,20.8111 C24.8463,20.8111 26.4243,22.0081 26.4243,23.4841" id="Fill-2" fill="#A3ACBA"></path>
                                <g id="Group-6">
                                    <mask id="mask-2" fill="white">
                                        <use xlink:href="#path-1"></use>
                                    </mask>
                                    <g id="Clip-5"></g>
                                    <path d="M0.9986,3.2068 C0.9986,2.6548 1.4466,2.2068 1.9986,2.2068 L16.9946,2.2068 C17.5456,2.2068 17.9946,2.6548 17.9946,3.2068 L17.9946,14.0788 C17.9946,14.6298 17.5456,15.0778 16.9946,15.0778 L6.6896,15.0778 C6.5686,15.0778 6.4516,15.1228 6.3596,15.2028 L3.9746,17.3028 L3.9746,15.5778 C3.9746,15.3018 3.7516,15.0778 3.4746,15.0778 L1.9986,15.0778 C1.4466,15.0778 0.9986,14.6298 0.9986,14.0788 L0.9986,3.2068 Z M9.0896,22.1698 L9.0896,16.0778 L16.9936,16.0778 C18.0966,16.0778 18.9936,15.1818 18.9936,14.0788 L18.9936,10.2978 L25.0856,10.2978 C25.6366,10.2978 26.0856,10.7468 26.0856,11.2978 L26.0856,22.1698 C26.0856,22.7218 25.6366,23.1698 25.0856,23.1698 L23.6086,23.1698 C23.3326,23.1698 23.1086,23.3938 23.1086,23.6698 L23.1086,25.3938 L20.7246,23.2948 C20.6326,23.2148 20.5156,23.1698 20.3936,23.1698 L10.0896,23.1698 C9.5386,23.1698 9.0906,22.7218 9.0896,22.1698 L9.0896,22.1698 Z M-0.000401669223,14.0788 C-0.000401669223,15.1818 0.8966,16.0778 1.99959833,16.0778 L2.9766,16.0778 L2.9766,18.4088 C2.9766,18.6038 3.0916,18.7828 3.2696,18.8638 C3.3366,18.8948 3.4056,18.9088 3.4756,18.9088 C3.5946,18.9088 3.7136,18.8658 3.8066,18.7838 L6.8796,16.0778 L8.0906,16.0778 L8.0906,22.1698 C8.0906,23.2728 8.9876,24.1698 10.0896,24.1698 L20.2046,24.1698 L23.2776,26.8758 C23.3716,26.9568 23.4896,26.9998 23.6086,26.9998 C23.6786,26.9998 23.7486,26.9858 23.8136,26.9558 C23.9926,26.8748 24.1086,26.6968 24.1086,26.4998 L24.1086,24.1698 L25.0846,24.1698 C26.1866,24.1698 27.0846,23.2728 27.0846,22.1698 L27.0846,11.2978 C27.0846,10.1948 26.1866,9.2988 25.0846,9.2988 L18.9936,9.2988 L18.9936,3.2068 C18.9936,2.1038 18.0976,1.2068 16.9946,1.2068 L1.9986,1.2068 C0.8956,1.2068 -0.0014,2.1038 -0.000401669223,3.2068 L-0.000401669223,14.0788 Z" id="Fill-4" fill="#A3ACBB" mask="url(#mask-2)"></path>
                                </g>
                                <path d="M4.3198,6.0525 C3.9688,6.0525 3.6828,5.7685 3.6828,5.4155 C3.6828,5.0645 3.9688,4.7805 4.3198,4.7805 L14.8228,4.7805 C15.1748,4.7805 15.4598,5.0645 15.4598,5.4155 C15.4598,5.7685 15.1748,6.0525 14.8228,6.0525 L4.3198,6.0525 Z" id="Fill-10" fill="#F1F1F1"></path>
                                <path d="M12.0523,9.3767 L4.3203,9.3767 C3.9683,9.3767 3.6833,9.0917 3.6833,8.7397 C3.6833,8.3887 3.9683,8.1037 4.3203,8.1037 L12.0523,8.1037 C12.4053,8.1037 12.6893,8.3887 12.6893,8.7397 C12.6893,9.0917 12.4053,9.3767 12.0523,9.3767" id="Fill-12" fill="#F1F1F1"></path>
                                <path d="M9.2827,12.492 L4.3197,12.492 C3.9687,12.492 3.6827,12.208 3.6827,11.856 C3.6827,11.504 3.9687,11.22 4.3197,11.22 L9.2827,11.22 C9.6347,11.22 9.9187,11.504 9.9187,11.856 C9.9187,12.208 9.6347,12.492 9.2827,12.492" id="Fill-14" fill="#F1F1F1"></path>
                            </g>
                        </g>
                    </g>
                </g>
            </g>
        </g>
    </g>
</svg>
