<?xml version="1.0" encoding="UTF-8"?>
<svg width="28px" height="27px" viewBox="0 0 28 27" version="1.1" xmlns="http://www.w3.org/2000/svg" xmlns:xlink="http://www.w3.org/1999/xlink">
    <title>Icon/Terminology</title>
    <defs>
        <polygon id="path-1" points="0 0.207 27.084 0.207 27.084 25.9998 0 25.9998"></polygon>
        <polygon id="path-3" points="0.0907 0.2986 19.084 0.2986 19.084 17.9996 0.0907 17.9996"></polygon>
    </defs>
    <g id="---Developers" stroke="none" stroke-width="1" fill="none" fill-rule="evenodd">
        <g id="Documentation---Home-Page" transform="translate(-31.000000, -549.000000)">
            <g id="Group">
                <g id="Left-Rail" transform="translate(0.000000, 140.000000)">
                    <g id="Left-TOC" transform="translate(30.000000, 84.000000)">
                        <g id="Support" transform="translate(0.000000, 321.000000)">
                            <g id="Icon/Terminology" transform="translate(0.000000, 2.000000)">
                                <g id="Terminology" transform="translate(1.000000, 1.500000)">
                                    <polygon id="Fill-1" fill="#91B6D8" points="20.7243 23.257 23.5993 26.013 23.5993 22.509"></polygon>
                                    <g id="Group-16" transform="translate(0.000000, 0.793100)">
                                        <path d="M26.4243,22.4841 L20.7243,22.4841 L8.6473,22.4841 C8.6473,21.0081 10.2263,19.8111 12.1733,19.8111 L22.8993,19.8111 C24.8463,19.8111 26.4243,21.0081 26.4243,22.4841" id="Fill-2" fill="#91B6D8"></path>
                                        <g id="Group-6">
                                            <mask id="mask-2" fill="white">
                                                <use xlink:href="#path-1"></use>
                                            </mask>
                                            <g id="Clip-5"></g>
                                            <path d="M0.9986,2.2068 C0.9986,1.6548 1.4466,1.2068 1.9986,1.2068 L16.9946,1.2068 C17.5456,1.2068 17.9946,1.6548 17.9946,2.2068 L17.9946,13.0788 C17.9946,13.6298 17.5456,14.0778 16.9946,14.0778 L6.6896,14.0778 C6.5686,14.0778 6.4516,14.1228 6.3596,14.2028 L3.9746,16.3028 L3.9746,14.5778 C3.9746,14.3018 3.7516,14.0778 3.4746,14.0778 L1.9986,14.0778 C1.4466,14.0778 0.9986,13.6298 0.9986,13.0788 L0.9986,2.2068 Z M9.0896,21.1698 L9.0896,15.0778 L16.9936,15.0778 C18.0966,15.0778 18.9936,14.1818 18.9936,13.0788 L18.9936,9.2978 L25.0856,9.2978 C25.6366,9.2978 26.0856,9.7468 26.0856,10.2978 L26.0856,21.1698 C26.0856,21.7218 25.6366,22.1698 25.0856,22.1698 L23.6086,22.1698 C23.3326,22.1698 23.1086,22.3938 23.1086,22.6698 L23.1086,24.3938 L20.7246,22.2948 C20.6326,22.2148 20.5156,22.1698 20.3936,22.1698 L10.0896,22.1698 C9.5386,22.1698 9.0906,21.7218 9.0896,21.1698 L9.0896,21.1698 Z M-0.000400835309,2.2068 L-0.000400835309,13.0788 C-0.000400835309,14.1818 0.8966,15.0778 1.99959916,15.0778 L2.9766,15.0778 L2.9766,17.4088 C2.9766,17.6038 3.0916,17.7828 3.2696,17.8638 C3.3366,17.8948 3.4056,17.9088 3.4756,17.9088 C3.5946,17.9088 3.7136,17.8658 3.8066,17.7838 L6.8796,15.0778 L8.0906,15.0778 L8.0906,21.1698 C8.0906,22.2728 8.9876,23.1698 10.0896,23.1698 L20.2046,23.1698 L23.2776,25.8758 C23.3716,25.9568 23.4896,25.9998 23.6086,25.9998 C23.6786,25.9998 23.7486,25.9858 23.8136,25.9558 C23.9926,25.8748 24.1086,25.6968 24.1086,25.4998 L24.1086,23.1698 L25.0846,23.1698 C26.1866,23.1698 27.0846,22.2728 27.0846,21.1698 L27.0846,10.2978 C27.0846,9.1948 26.1866,8.2988 25.0846,8.2988 L18.9936,8.2988 L18.9936,2.2068 C18.9936,1.1038 18.0976,0.2068 16.9946,0.2068 L1.9986,0.2068 C0.8956,0.2068 -0.0014,1.1038 -0.000400835309,2.2068 L-0.000400835309,2.2068 Z" id="Fill-4" fill="#42308C" mask="url(#mask-2)"></path>
                                        </g>
                                        <g id="Group-9" transform="translate(8.000000, 8.000000)">
                                            <mask id="mask-4" fill="white">
                                                <use xlink:href="#path-3"></use>
                                            </mask>
                                            <g id="Clip-8"></g>
                                            <path d="M10.9937,1.2976 L17.0857,1.2976 C17.6367,1.2976 18.0857,1.7466 18.0857,2.2976 L18.0857,13.1696 C18.0857,13.7216 17.6367,14.1696 17.0857,14.1696 L15.6087,14.1696 C15.3327,14.1696 15.1087,14.3936 15.1087,14.6696 L15.1087,16.3946 L12.7237,14.2946 C12.6327,14.2146 12.5147,14.1696 12.3927,14.1696 L2.0897,14.1696 C1.5387,14.1696 1.0907,13.7216 1.0897,13.1696 L1.0897,7.0776 L0.0907,7.0776 L0.0907,13.1696 C0.0907,14.2746 0.9857,15.1696 2.0897,15.1696 L12.2047,15.1696 L15.2777,17.8756 C15.3717,17.9566 15.4897,17.9996 15.6087,17.9996 C15.6787,17.9996 15.7487,17.9856 15.8137,17.9556 C15.9927,17.8746 16.1087,17.6966 16.1087,17.4996 L16.1087,15.1696 L17.0847,15.1696 C18.1887,15.1696 19.0847,14.2746 19.0847,13.1696 L19.0847,2.2976 C19.0847,1.1936 18.1887,0.2986 17.0847,0.2986 L10.9937,0.2986" id="Fill-7" fill="#6F6AAF" mask="url(#mask-4)"></path>
                                        </g>
                                        <path d="M14.8228,5.0525 L4.3198,5.0525 C3.9688,5.0525 3.6828,4.7685 3.6828,4.4155 C3.6828,4.0645 3.9688,3.7805 4.3198,3.7805 L14.8228,3.7805 C15.1748,3.7805 15.4598,4.0645 15.4598,4.4155 C15.4598,4.7685 15.1748,5.0525 14.8228,5.0525" id="Fill-10" fill="#8ECFB9"></path>
                                        <path d="M12.0523,8.3767 L4.3203,8.3767 C3.9683,8.3767 3.6833,8.0917 3.6833,7.7397 C3.6833,7.3887 3.9683,7.1037 4.3203,7.1037 L12.0523,7.1037 C12.4053,7.1037 12.6893,7.3887 12.6893,7.7397 C12.6893,8.0917 12.4053,8.3767 12.0523,8.3767" id="Fill-12" fill="#8ECFB9"></path>
                                        <path d="M9.2827,11.492 L4.3197,11.492 C3.9687,11.492 3.6827,11.208 3.6827,10.856 C3.6827,10.504 3.9687,10.22 4.3197,10.22 L9.2827,10.22 C9.6347,10.22 9.9187,10.504 9.9187,10.856 C9.9187,11.208 9.6347,11.492 9.2827,11.492" id="Fill-14" fill="#8ECFB9"></path>
                                    </g>
                                </g>
                            </g>
                        </g>
                    </g>
                </g>
            </g>
        </g>
    </g>
</svg>
