<?xml version="1.0" encoding="UTF-8"?>
<svg width="14px" height="15px" viewBox="0 0 14 15" version="1.1" xmlns="http://www.w3.org/2000/svg" xmlns:xlink="http://www.w3.org/1999/xlink">
    <title>28AAB65C-78CA-4907-8B16-ECE31CA085BF@3x</title>
    <g id="---Developers" stroke="none" stroke-width="1" fill="none" fill-rule="evenodd">
        <g id="Documentation---Home-Page" transform="translate(-560.000000, -2002.000000)" fill="#5D6675" fill-rule="nonzero">
            <path d="M568.53123,2016.24994 C569.023416,2016.24994 569.433571,2016.13145 569.761695,2015.89447 C570.253882,2015.52989 570.499975,2014.9101 570.499975,2014.0351 C570.499975,2013.70697 570.445288,2013.37885 570.335913,2013.05073 C570.262996,2012.86843 570.135393,2012.61323 569.953101,2012.2851 C569.752581,2011.90229 569.634091,2011.61974 569.597633,2011.43745 L569.597633,2011.43745 L572.359346,2011.43745 C572.815074,2011.43745 573.202442,2011.27794 573.521452,2010.95893 C573.840462,2010.63992 573.999967,2010.27078 573.999967,2009.85152 C573.999967,2009.59631 573.949837,2009.35021 573.849576,2009.11324 C573.749316,2008.87626 573.626269,2008.67574 573.480437,2008.51167 L573.480437,2008.51167 L573.453093,2008.51167 C573.598926,2008.16532 573.653613,2007.79162 573.617155,2007.39058 C573.580697,2006.98954 573.443979,2006.63407 573.207,2006.32418 C573.316375,2005.97783 573.325489,2005.61324 573.234343,2005.23043 C573.143198,2004.84762 572.98825,2004.52861 572.769501,2004.2734 C572.878876,2003.79945 572.815074,2003.38929 572.578095,2003.04294 C572.341116,2002.69658 571.903617,2002.46872 571.265598,2002.35935 C570.882787,2002.28643 570.29034,2002.24997 569.488259,2002.24997 L569.488259,2002.24997 L569.406228,2002.24997 C568.822896,2002.24997 568.221335,2002.35023 567.601544,2002.55075 C567.236962,2002.66013 566.740218,2002.85609 566.111314,2003.13864 C565.482409,2003.42119 565.013009,2003.56247 564.703114,2003.56247 C564.611968,2003.56247 564.534494,2003.59437 564.470692,2003.65817 C564.406891,2003.72197 564.37499,2003.79945 564.37499,2003.89059 L564.37499,2003.89059 L564.37499,2009.74214 C564.37499,2009.83329 564.411448,2009.9062 564.484364,2009.96089 C564.848947,2010.3437 565.29556,2010.91792 565.824205,2011.68354 C566.261704,2012.32156 566.626286,2012.77729 566.917952,2013.05073 C567.100244,2013.23302 567.246076,2013.47911 567.355451,2013.78901 C567.428368,2013.9713 567.510399,2014.26296 567.601544,2014.664 L567.601544,2014.664 L567.601544,2014.69135 C567.710919,2015.11062 567.811179,2015.42963 567.902325,2015.64838 C568.084616,2016.04942 568.294251,2016.24994 568.53123,2016.24994 Z M562.843743,2010.99995 C563.026035,2010.99995 563.180982,2010.93615 563.308586,2010.80854 C563.43619,2010.68094 563.5,2010.52599 563.5,2010.3437 L563.5,2010.3437 L563.5,2003.78122 C563.5,2003.59893 563.43619,2003.44398 563.308586,2003.31637 C563.180982,2003.18877 563.026035,2003.12497 562.843743,2003.12497 L562.843743,2003.12497 L560.656248,2003.12497 C560.473957,2003.12497 560.31901,2003.18877 560.191406,2003.31637 C560.063802,2003.44398 560,2003.59893 560,2003.78122 L560,2003.78122 L560,2010.3437 C560,2010.52599 560.063802,2010.68094 560.191406,2010.80854 C560.31901,2010.93615 560.473957,2010.99995 560.656248,2010.99995 L560.656248,2010.99995 L562.843743,2010.99995 Z M561.749996,2009.9062 C561.567704,2009.9062 561.412757,2009.8424 561.285153,2009.7148 C561.157549,2009.58719 561.093747,2009.43225 561.093747,2009.24995 C561.093747,2009.06766 561.157549,2008.91272 561.285153,2008.78511 C561.412757,2008.65751 561.567704,2008.59371 561.749996,2008.59371 C561.932287,2008.59371 562.087234,2008.65751 562.214838,2008.78511 C562.342442,2008.91272 562.406244,2009.06766 562.406244,2009.24995 C562.406244,2009.43225 562.342442,2009.58719 562.214838,2009.7148 C562.087234,2009.8424 561.932287,2009.9062 561.749996,2009.9062 Z" id="t"></path>
        </g>
    </g>
</svg>
