<?xml version="1.0" encoding="UTF-8"?>
<svg width="14px" height="14px" viewBox="0 0 14 14" version="1.1" xmlns="http://www.w3.org/2000/svg" xmlns:xlink="http://www.w3.org/1999/xlink">
    <title>514BA1C0-D575-45BF-945A-62592AED69C1@3x</title>
    <g id="---Developers" stroke="none" stroke-width="1" fill="none" fill-rule="evenodd">
        <g id="Documentation---Home-Page" transform="translate(-533.000000, -2001.000000)" fill="#5D6675" fill-rule="nonzero">
            <path d="M542.488259,2014.99997 C543.29034,2014.99997 543.882787,2014.96351 544.265598,2014.89059 C544.903617,2014.78122 545.341116,2014.55335 545.578095,2014.207 C545.815074,2013.86065 545.878876,2013.45049 545.769501,2012.97653 C545.98825,2012.72133 546.143198,2012.40232 546.234343,2012.0195 C546.325489,2011.63669 546.316375,2011.27211 546.207,2010.92576 C546.443979,2010.61586 546.580697,2010.26039 546.617155,2009.85935 C546.653613,2009.45831 546.598926,2009.08462 546.453093,2008.73826 L546.453093,2008.73826 L546.480437,2008.73826 C546.626269,2008.5742 546.749316,2008.37368 546.849576,2008.1367 C546.949837,2007.89972 546.999967,2007.65363 546.999967,2007.39842 C546.999967,2006.97915 546.840462,2006.61001 546.521452,2006.291 C546.202442,2005.97199 545.815074,2005.81249 545.359346,2005.81249 L545.359346,2005.81249 L542.597633,2005.81249 C542.634091,2005.6302 542.752581,2005.34765 542.953101,2004.96483 C543.135393,2004.63671 543.262996,2004.3815 543.335913,2004.19921 C543.445288,2003.87109 543.499975,2003.54296 543.499975,2003.21484 C543.499975,2002.33984 543.253882,2001.72005 542.761695,2001.35547 C542.433571,2001.11849 542.023416,2001 541.53123,2001 C541.294251,2001 541.084616,2001.20052 540.902325,2001.60156 C540.811179,2001.82031 540.710919,2002.13932 540.601544,2002.55859 L540.601544,2002.55859 L540.601544,2002.58593 C540.510399,2002.98697 540.428368,2003.27864 540.355451,2003.46093 C540.246076,2003.77083 540.100244,2004.01692 539.917952,2004.19921 C539.626286,2004.47265 539.261704,2004.92838 538.824205,2005.5664 C538.29556,2006.33202 537.848947,2006.90624 537.484364,2007.28905 C537.411448,2007.34373 537.37499,2007.41665 537.37499,2007.5078 L537.37499,2007.5078 L537.37499,2013.35935 C537.37499,2013.45049 537.406891,2013.52797 537.470692,2013.59177 C537.534494,2013.65557 537.611968,2013.68747 537.703114,2013.68747 C538.013009,2013.68747 538.482409,2013.82875 539.111314,2014.1113 C539.740218,2014.39385 540.236962,2014.58981 540.601544,2014.69919 C541.221335,2014.89971 541.822896,2014.99997 542.406228,2014.99997 L542.406228,2014.99997 L542.488259,2014.99997 Z M535.843743,2014.99997 C536.026035,2014.99997 536.180982,2014.93616 536.308586,2014.80856 C536.43619,2014.68096 536.5,2014.52601 536.5,2014.34372 L536.5,2014.34372 L536.5,2007.78123 C536.5,2007.59894 536.43619,2007.444 536.308586,2007.31639 C536.180982,2007.18879 536.026035,2007.12499 535.843743,2007.12499 L535.843743,2007.12499 L533.656248,2007.12499 C533.473957,2007.12499 533.31901,2007.18879 533.191406,2007.31639 C533.063802,2007.444 533,2007.59894 533,2007.78123 L533,2007.78123 L533,2014.34372 C533,2014.52601 533.063802,2014.68096 533.191406,2014.80856 C533.31901,2014.93616 533.473957,2014.99997 533.656248,2014.99997 L533.656248,2014.99997 L535.843743,2014.99997 Z M534.749996,2013.90622 C534.567704,2013.90622 534.412757,2013.84242 534.285153,2013.71481 C534.157549,2013.58721 534.093747,2013.43226 534.093747,2013.24997 C534.093747,2013.06768 534.157549,2012.91273 534.285153,2012.78513 C534.412757,2012.65752 534.567704,2012.59372 534.749996,2012.59372 C534.932287,2012.59372 535.087234,2012.65752 535.214838,2012.78513 C535.342442,2012.91273 535.406244,2013.06768 535.406244,2013.24997 C535.406244,2013.43226 535.342442,2013.58721 535.214838,2013.71481 C535.087234,2013.84242 534.932287,2013.90622 534.749996,2013.90622 Z" id="t"></path>
        </g>
    </g>
</svg>
