<svg width="50" height="50" viewBox="0 0 50 50" fill="none" xmlns="http://www.w3.org/2000/svg">
<path d="M35.2223 17.6373V14.1807C35.2223 14.1807 31.6159 13.6406 29.2116 16.0832C26.8074 18.5258 28.1768 22.0938 28.1768 22.0938" stroke="#8E8E8E" stroke-width="2" stroke-miterlimit="10" stroke-linecap="round" stroke-linejoin="round"/>
<path d="M17.8349 27.6584C17.5526 27.742 17.2495 27.7873 16.9324 27.7873C16.2216 27.7873 13.9916 27.7873 13.9916 27.7873C13.9916 27.7873 13.9916 24.6688 13.9916 23.7524C13.9916 22.1286 15.3087 20.8115 16.9324 20.8115C18.5562 20.8115 19.8733 22.1286 19.8733 23.7524C19.8733 23.7977 19.8733 24.066 19.8698 24.3656" stroke="#8E8E8E" stroke-width="2" stroke-miterlimit="10" stroke-linecap="round" stroke-linejoin="round"/>
<path d="M27.4451 24.1914C27.5426 24.512 27.5949 24.8534 27.5949 25.2089C27.5949 27.0242 26.2325 28.4947 24.5565 28.4947C22.8805 28.4947 21.5181 27.0242 21.5181 25.2089C21.5181 24.8918 21.5599 24.5851 21.6365 24.2959" stroke="white" stroke-width="2" stroke-miterlimit="10" stroke-linecap="round" stroke-linejoin="round"/>
<path d="M23.0198 28.0417V31.6977" stroke="white" stroke-width="2" stroke-miterlimit="10" stroke-linecap="round" stroke-linejoin="round"/>
<path d="M26.1071 28.0417V31.6977" stroke="white" stroke-width="2" stroke-miterlimit="10" stroke-linecap="round" stroke-linejoin="round"/>
<path d="M17.1351 35.1541C17.1351 35.1541 18.5359 29.586 18.2153 28.8648C17.1351 26.3978 19.2571 23.7357 21.5011 24.1364C23.1039 24.4953 26.9089 24.8577 27.5919 23.7775C28.2748 22.6974 27.7905 21.5754 29.8742 19.53C32.2366 17.1676 36.6862 17.6868 36.6862 17.6868V25.2584C36.6862 25.2584 35.7663 25.2584 35.1635 25.2584C33.1216 25.2584 33.6408 22.4151 33.6408 22.4151C33.6408 22.4151 28.6337 25.2201 32.1599 35.1541" stroke="#A3ACB9" stroke-width="2" stroke-miterlimit="10" stroke-linecap="round" stroke-linejoin="round"/>
<path d="M19.8768 36.3521C20.3298 33.5401 22.2462 31.4286 24.5425 31.4286C26.891 31.4286 28.8422 33.6377 29.236 36.5472" stroke="#A3ACB9" stroke-width="2" stroke-miterlimit="10" stroke-linecap="round" stroke-linejoin="round"/>
<path d="M13.9916 33.6481C13.9916 33.6481 18.0196 37.697 24.5563 37.697C31.0931 37.697 35.2221 33.6481 35.2221 33.6481" stroke="#A3ACB9" stroke-width="2" stroke-miterlimit="10" stroke-linecap="round" stroke-linejoin="round"/>
<path d="M8.33473 29.0397C8.96057 17.9624 18.4585 8.7369 29.5542 8.43871C30.7359 8.40557 31.8845 8.48288 33 8.64854C30.7212 7.5294 28.1148 6.92934 25.3096 7.00665C15.7527 7.26434 7.56532 15.2124 7.02784 24.7583C6.86954 27.5598 7.3923 30.181 8.44149 32.4892C8.30896 31.3737 8.26847 30.2214 8.33473 29.0397Z" fill="#4C5062"/>
<path d="M25.0105 43.0089C34.9462 43.0089 43.0006 34.9545 43.0006 25.0188C43.0006 15.0832 34.9462 7.02881 25.0105 7.02881C15.0749 7.02881 7.02051 15.0832 7.02051 25.0188C7.02051 34.9545 15.0749 43.0089 25.0105 43.0089Z" stroke="#A3ACB9" stroke-width="2" stroke-miterlimit="10" stroke-linecap="round" stroke-linejoin="round"/>
</svg>
