<svg width="50" height="50" viewBox="0 0 50 50" fill="none" xmlns="http://www.w3.org/2000/svg">
<path d="M15.1101 20.3333C18.2397 20.3333 20.7767 17.7963 20.7767 14.6667C20.7767 11.5371 18.2397 9.00002 15.1101 9.00002C11.9804 9.00002 9.44339 11.5371 9.44339 14.6667C9.44339 17.7963 11.9804 20.3333 15.1101 20.3333Z" fill="#A3ACB9" stroke="white" stroke-width="2" stroke-miterlimit="10" stroke-linecap="round" stroke-linejoin="round"/>
<path d="M34.9434 40.1667C38.073 40.1667 40.6101 37.6296 40.6101 34.5C40.6101 31.3704 38.073 28.8334 34.9434 28.8334C31.8138 28.8334 29.2767 31.3704 29.2767 34.5C29.2767 37.6296 31.8138 40.1667 34.9434 40.1667Z" fill="#A3ACB9" stroke="white" stroke-width="2" stroke-miterlimit="10" stroke-linecap="round" stroke-linejoin="round"/>
<path d="M26.4167 15.0833H32.0833C35.2127 15.0833 37.75 17.6206 37.75 20.75V23.5833" stroke="#A3ACB9" stroke-width="2" stroke-miterlimit="10" stroke-linecap="round" stroke-linejoin="round"/>
<path d="M23.5833 34.9167H17.9167C14.7872 34.9167 12.25 32.3794 12.25 29.25V26.4167" stroke="#A3ACB9" stroke-width="2" stroke-miterlimit="10" stroke-linecap="round" stroke-linejoin="round"/>
<path d="M30.6667 10.8333L26.4167 15.0833L30.6667 19.3333" stroke="#A3ACB9" stroke-width="2" stroke-miterlimit="10" stroke-linecap="round" stroke-linejoin="round"/>
<path d="M19.3333 30.6667L23.5833 34.9167L19.3333 39.1667" stroke="#A3ACB9" stroke-width="2" stroke-miterlimit="10" stroke-linecap="round" stroke-linejoin="round"/>
</svg>
