<svg width="50" height="50" viewBox="0 0 50 50" fill="none" xmlns="http://www.w3.org/2000/svg">
<path fill-rule="evenodd" clip-rule="evenodd" d="M32.4644 14.0544L24.5072 6.09714C24.4452 6.03481 24.3606 6 24.2728 6H18.3048C18.1218 6 17.9733 6.14854 17.9733 6.33155V12.2995C17.9733 12.3873 18.0081 12.4719 18.0704 12.5339L26.0277 20.4911C26.0923 20.5558 26.1772 20.5883 26.2621 20.5883C26.3469 20.5883 26.4318 20.5558 26.4965 20.4911L32.4644 14.5232C32.594 14.3936 32.594 14.184 32.4644 14.0544Z" fill="#94D1BE" stroke="#074957" stroke-width="2"/>
<path fill-rule="evenodd" clip-rule="evenodd" d="M21.2888 8.32086C20.7404 8.32086 20.2941 8.76713 20.2941 9.31552C20.2941 9.8639 20.7404 10.3102 21.2888 10.3102C21.8372 10.3102 22.2834 9.8639 22.2834 9.31552C22.2834 8.76713 21.8372 8.32086 21.2888 8.32086Z" fill="white"/>
<path d="M24.9754 19.076V43.5567" stroke="#402B91" stroke-width="2" stroke-linecap="round" stroke-linejoin="round"/>
<path d="M37.9808 29.0212V39.7315L24.9754 43.5567L11.9701 39.7315V29.0212" stroke="#402B91" stroke-width="2" stroke-linecap="round" stroke-linejoin="round"/>
<path fill-rule="evenodd" clip-rule="evenodd" d="M26.8664 24.0486H30.2509C33.1738 24.0486 35.8559 22.4283 37.2158 19.841L24.9754 19.076L12.7351 19.841C14.0423 22.4219 16.6896 24.0486 19.5827 24.0486H23.4527L24.9754 19.076L26.8664 24.0486Z" fill="#92B5D8"/>
<path d="M24.9754 19.076L28.0355 29.0212H41.0409L37.2158 20.606L24.9754 19.076ZM24.9754 19.076L12.7351 20.606L8.90997 29.0212H21.9153L24.9754 19.076Z" stroke="#402B91" stroke-width="2" stroke-linecap="round" stroke-linejoin="round"/>
</svg>
