<svg width="50" height="50" viewBox="0 0 50 50" fill="none" xmlns="http://www.w3.org/2000/svg">
<path fill-rule="evenodd" clip-rule="evenodd" d="M32.4911 13.6377L24.5339 5.68049C24.4719 5.61816 24.3873 5.58334 24.2995 5.58334H18.3316C18.1485 5.58334 18 5.73188 18 5.9149V11.8828C18 11.9707 18.0348 12.0552 18.0971 12.1172L26.0544 20.0745C26.119 20.1391 26.2039 20.1716 26.2888 20.1716C26.3737 20.1716 26.4586 20.1391 26.5232 20.0745L32.4911 14.1066C32.6208 13.9769 32.6208 13.7674 32.4911 13.6377Z" fill="#A3ACB9" stroke="white" stroke-width="2"/>
<path fill-rule="evenodd" clip-rule="evenodd" d="M21.2888 8.32086C20.7404 8.32086 20.2941 8.76713 20.2941 9.31552C20.2941 9.8639 20.7404 10.3102 21.2888 10.3102C21.8372 10.3102 22.2834 9.8639 22.2834 9.31552C22.2834 8.76713 21.8372 8.32086 21.2888 8.32086Z" fill="white"/>
<path d="M24.9754 19.076V43.5567" stroke="#A3ACB9" stroke-width="2" stroke-linecap="round" stroke-linejoin="round"/>
<path d="M37.9808 29.0212V39.7315L24.9754 43.5567L11.9701 39.7315V29.0212" stroke="#A3ACB9" stroke-width="2" stroke-linecap="round" stroke-linejoin="round"/>
<path fill-rule="evenodd" clip-rule="evenodd" d="M26.8664 24.0486H30.2509C33.1738 24.0486 35.8559 22.4283 37.2158 19.841L24.9754 19.076L12.7351 19.841C14.0423 22.4219 16.6896 24.0486 19.5827 24.0486H23.4527L24.9754 19.076L26.8664 24.0486Z" fill="#E5E5E5" fill-opacity="0.25"/>
<path d="M24.9754 19.076L28.0355 29.0212H41.0409L37.2158 20.606L24.9754 19.076ZM24.9754 19.076L12.7351 20.606L8.90997 29.0212H21.9153L24.9754 19.076Z" stroke="#A3ACB9" stroke-width="2" stroke-linecap="round" stroke-linejoin="round"/>
</svg>
