<svg width="50" height="50" viewBox="0 0 50 50" fill="none" xmlns="http://www.w3.org/2000/svg">
<path d="M14.5251 39.4148V40.8249C14.5251 41.9882 15.4769 42.94 16.6402 42.94H35.7465C36.9098 42.94 37.8616 41.9882 37.8616 40.8249V16.5631L34.3364 13.038" stroke="white" stroke-width="2" stroke-miterlimit="10" stroke-linecap="round" stroke-linejoin="round"/>
<path d="M26.9131 35.4138C24.425 35.4138 22.4156 35.4138 22.4156 35.4138C22.4156 35.4138 20.4034 35.4138 17.9182 35.4138C12.8919 35.4138 11.6082 38.9184 11.6082 38.9184H22.4156H33.2231C33.2202 38.9184 31.9365 35.4138 26.9131 35.4138Z" fill="#4C5062"/>
<path d="M29.2955 8H13.1151C11.9518 8 11 8.95179 11 10.1151V37.2998C11 38.4631 11.9518 39.4149 13.1151 39.4149H32.2213C33.3846 39.4149 34.3364 38.4631 34.3364 37.2998V13.038L29.2955 8Z" stroke="#A3ACB9" stroke-width="2" stroke-miterlimit="10" stroke-linecap="round" stroke-linejoin="round"/>
<path d="M28.5493 8V13.464H34.3364" stroke="#A3ACB9" stroke-width="2" stroke-miterlimit="10" stroke-linecap="round" stroke-linejoin="round"/>
<path d="M22.063 17.8263H30.4646" stroke="#8E8E8E" stroke-width="2" stroke-miterlimit="10" stroke-linecap="round" stroke-linejoin="round"/>
<path d="M18.1531 15.9933H14.9951V19.1512H18.1531V15.9933Z" stroke="#8E8E8E" stroke-width="2" stroke-miterlimit="10" stroke-linecap="round" stroke-linejoin="round"/>
<path d="M22.063 24.5946H30.4646" stroke="#8E8E8E" stroke-width="2" stroke-miterlimit="10" stroke-linecap="round" stroke-linejoin="round"/>
<path d="M18.1531 22.7586H14.9951V25.9165H18.1531V22.7586Z" stroke="#8E8E8E" stroke-width="2" stroke-miterlimit="10" stroke-linecap="round" stroke-linejoin="round"/>
<path d="M22.063 31.2571H30.4646" stroke="#8E8E8E" stroke-width="2" stroke-miterlimit="10" stroke-linecap="round" stroke-linejoin="round"/>
<path d="M18.1531 29.424H14.9951V32.582H18.1531V29.424Z" stroke="#8E8E8E" stroke-width="2" stroke-miterlimit="10" stroke-linecap="round" stroke-linejoin="round"/>
</svg>
