<svg width="50" height="50" viewBox="0 0 50 50" fill="none" xmlns="http://www.w3.org/2000/svg">
<path d="M33.6719 38.7312C30.4468 38.7312 27.84 38.7312 27.84 38.7312C27.84 38.7312 25.2331 38.7312 22.008 38.7312C15.4908 38.7312 13.8287 41.6822 13.8287 41.6822H27.837H41.8512C41.8512 41.6822 40.1862 38.7312 33.6719 38.7312Z" fill="#92B5D8"/>
<path d="M11.8197 42H40.2562C41.1339 42 41.8512 41.2827 41.8512 40.405V23.2007C41.8512 22.323 41.1339 21.6057 40.2562 21.6057H33.4941" stroke="#402B91" stroke-width="2" stroke-miterlimit="10" stroke-linecap="round" stroke-linejoin="round"/>
<path d="M26.2479 17.5496H20.8184C20.2673 16.9927 19.6025 16.322 19.2205 15.9371C18.4886 15.1964 18.1036 14.9515 17.4621 14.9515C17.0189 14.9515 14.4558 14.9515 12.9045 14.9515H11.7148H10.7321C9.77856 14.9515 9 15.73 9 16.6836V30.6423C9 30.7035 9.00292 30.7648 9.00875 30.8231C9.00583 30.8872 9 30.9485 9 31.0126V39.1802C9 40.7315 10.2684 42 11.8197 42C13.371 42 14.6395 40.7315 14.6395 39.1802V31.0097C14.6395 30.9456 14.6336 30.8843 14.6307 30.8202C14.6366 30.7619 14.6395 30.7006 14.6395 30.6394V21.6057H36.2118V19.2817C36.2118 18.3282 35.4332 17.5496 34.4797 17.5496" stroke="#402B91" stroke-width="2" stroke-miterlimit="10" stroke-linecap="round" stroke-linejoin="round"/>
<path d="M20.8621 26.662H35.9172" stroke="#736DB1" stroke-width="2" stroke-miterlimit="10" stroke-linecap="round" stroke-linejoin="round"/>
<path d="M20.8621 30.6132H35.9172" stroke="#94D1BE" stroke-width="2" stroke-miterlimit="10" stroke-linecap="round" stroke-linejoin="round"/>
<path d="M20.8621 34.5614H35.9172" stroke="#736DB1" stroke-width="2" stroke-miterlimit="10" stroke-linecap="round" stroke-linejoin="round"/>
<path d="M31.1146 21.4366L33.0625 18.8006L35.9172 14.9369H32.2169V9H28.1987V14.9369H24.4983L27.353 18.8006L29.3009 21.4366" stroke="#402B91" stroke-width="2" stroke-miterlimit="10" stroke-linecap="round" stroke-linejoin="round"/>
</svg>
