<svg width="50" height="50" viewBox="0 0 50 50" fill="none" xmlns="http://www.w3.org/2000/svg">
<path fill-rule="evenodd" clip-rule="evenodd" d="M39.2961 27.5393L39.3207 27.5817C39.8536 28.4887 39.6507 29.6482 38.8415 30.3202L33.2844 34.9072C32.952 35.1821 32.5589 35.3738 32.1377 35.4665L21.5945 37.8093C20.8659 37.971 20.1028 37.8284 19.4818 37.4143C16.4352 34.6741 15.0314 33.8384 15.2703 34.9072C23.7879 34.8895 29.413 33.9824 32.1457 32.1858C36.2448 29.491 38.7193 26.5451 39.2961 27.5393Z" fill="#92B5D8"/>
<path d="M33.4617 28.4848L36.4501 26.7732C37.448 26.2029 38.7193 26.5451 39.2961 27.5393L39.3207 27.5817C39.8536 28.4887 39.6507 29.6482 38.8415 30.3202L33.2844 34.9072C32.952 35.1821 32.5589 35.3738 32.1377 35.4665L21.5945 37.8093C20.8659 37.971 20.1028 37.8284 19.4818 37.4143L12.9286 33.0525C12.4787 32.7526 11.9501 32.5925 11.4094 32.5925H9.5V24.377L14.3608 23.8369C15.2164 23.7417 16.0825 23.8498 16.8884 24.1525L20.6299 25.5553C20.9685 25.6825 21.3189 25.7756 21.676 25.8332L28.6755 26.969C29.8294 27.0523 30.723 28.0125 30.7232 29.1694C30.723 30.3265 29.829 31.2868 28.6749 31.3697L21.1385 31.9079" stroke="#402B91" stroke-width="2" stroke-linecap="round" stroke-linejoin="round"/>
<path d="M27.9848 22.3232C31.3877 22.3232 34.1463 19.5645 34.1463 16.1616C34.1463 12.7586 31.3877 10 27.9848 10C24.5818 10 21.8232 12.7586 21.8232 16.1616C21.8232 19.5645 24.5818 22.3232 27.9848 22.3232Z" fill="#94D1BE" stroke="#074957" stroke-width="2" stroke-linecap="round" stroke-linejoin="round"/>
<path fill-rule="evenodd" clip-rule="evenodd" d="M25.2469 16.1617L27.9855 13.4232L30.7241 16.1617L27.9855 18.9003L25.2469 16.1617Z" fill="white"/>
</svg>
