<svg width="50" height="50" viewBox="0 0 50 50" fill="none" xmlns="http://www.w3.org/2000/svg">
<path d="M33.1251 28.2132L25.7176 17.6581C25.5545 17.4233 25.2871 17.2863 25 17.2863C24.7163 17.2863 24.4455 17.4265 24.2824 17.6581L16.8749 28.2132C16.7021 28.4611 16.6662 28.784 16.7869 29.0613L20.2117 37.0494C20.3487 37.3723 20.6651 37.581 21.0174 37.581H28.9892C29.3382 37.581 29.6546 37.3723 29.7949 37.0494L33.2197 29.0613C33.3339 28.7808 33.3013 28.4611 33.1251 28.2132Z" stroke="#402B91" stroke-width="2" stroke-miterlimit="10" stroke-linecap="round" stroke-linejoin="round"/>
<path d="M25 17.283V26.5171" stroke="#402B91" stroke-width="2" stroke-miterlimit="10" stroke-linecap="round" stroke-linejoin="round"/>
<path d="M28.8913 40.1579C26.7385 40.1579 25 40.1579 25 40.1579C25 40.1579 23.2614 40.1579 21.1087 40.1579C16.7607 40.1579 15.6484 42.601 15.6484 42.601H25H34.3515C34.3515 42.601 33.2392 40.1579 28.8913 40.1579Z" fill="#92B5D8"/>
<path d="M34.3515 37.5811H15.6484V42.7347H34.3515V37.5811Z" stroke="#402B91" stroke-width="2" stroke-miterlimit="10" stroke-linecap="round" stroke-linejoin="round"/>
<path d="M27.5247 10.6519C33.2165 11.6761 37.7242 16.1088 38.8659 21.7582" stroke="#402B91" stroke-width="2" stroke-miterlimit="10" stroke-linecap="round" stroke-linejoin="round"/>
<path d="M22.4918 10.6486C16.7967 11.6663 12.2824 16.0958 11.1343 21.7452" stroke="#402B91" stroke-width="2" stroke-miterlimit="10" stroke-linecap="round" stroke-linejoin="round"/>
<path d="M25 32.1764C26.5637 32.1764 27.8313 30.9088 27.8313 29.3451C27.8313 27.7815 26.5637 26.5139 25 26.5139C23.4364 26.5139 22.1688 27.7815 22.1688 29.3451C22.1688 30.9088 23.4364 32.1764 25 32.1764Z" stroke="#94D1BE" stroke-width="2" stroke-miterlimit="10" stroke-linecap="round" stroke-linejoin="round"/>
<path d="M27.4267 8H22.5699V12.8568H27.4267V8Z" stroke="#736DB1" stroke-width="2" stroke-miterlimit="10" stroke-linecap="round" stroke-linejoin="round"/>
<path d="M10.8537 27.4076C12.4173 27.4076 13.6849 26.14 13.6849 24.5764C13.6849 23.0128 12.4173 21.7452 10.8537 21.7452C9.29004 21.7452 8.02246 23.0128 8.02246 24.5764C8.02246 26.14 9.29004 27.4076 10.8537 27.4076Z" stroke="#736DB1" stroke-width="2" stroke-miterlimit="10" stroke-linecap="round" stroke-linejoin="round"/>
<path d="M39.1463 27.4076C40.7099 27.4076 41.9775 26.14 41.9775 24.5764C41.9775 23.0128 40.7099 21.7452 39.1463 21.7452C37.5826 21.7452 36.3151 23.0128 36.3151 24.5764C36.3151 26.14 37.5826 27.4076 39.1463 27.4076Z" stroke="#736DB1" stroke-width="2" stroke-miterlimit="10" stroke-linecap="round" stroke-linejoin="round"/>
</svg>
