<?xml version="1.0" encoding="UTF-8"?>
<svg width="22px" height="22px" viewBox="0 0 22 22" version="1.1" xmlns="http://www.w3.org/2000/svg" xmlns:xlink="http://www.w3.org/1999/xlink">
    <!-- Generator: Sketch 63.1 (92452) - https://sketch.com -->
    <title>Ellipse</title>
    <desc>Created with Sketch.</desc>
    <g id="Member-Portal" stroke="none" stroke-width="1" fill="none" fill-rule="evenodd">
        <g id="Member-Portal-Mobile-Nav---Closed" transform="translate(-14.000000, -17.000000)">
            <g id="UHF---Mobile-Default">
                <g id="Ellipse" transform="translate(14.000000, 17.000000)">
                    <circle id="Oval" fill="#D8D8D8" opacity="0.0134254211" cx="11" cy="11" r="11"></circle>
                    <path d="M7.99999881,7.75002921 C8.82811826,7.75002921 9.49999881,7.07814866 9.49999881,6.25002921 C9.49999881,5.4219026 8.82811826,4.75002921 7.99999881,4.75002921 C7.17187221,4.75002921 6.49999881,5.4219026 6.49999881,6.25002921 C6.49999881,7.07814866 7.17187221,7.75002921 7.99999881,7.75002921 Z M7.99999881,12.5000179 C8.82811826,12.5000179 9.49999881,11.8281373 9.49999881,11.0000179 C9.49999881,10.1718913 8.82811826,9.50001788 7.99999881,9.50001788 C7.17187221,9.50001788 6.49999881,10.1718913 6.49999881,11.0000179 C6.49999881,11.8281373 7.17187221,12.5000179 7.99999881,12.5000179 Z M7.99999881,17.2500066 C8.82811826,17.2500066 9.49999881,16.578126 9.49999881,15.7500066 C9.49999881,14.92188 8.82811826,14.2500066 7.99999881,14.2500066 C7.17187221,14.2500066 6.49999881,14.92188 6.49999881,15.7500066 C6.49999881,16.578126 7.17187221,17.2500066 7.99999881,17.2500066 Z" id="" fill="#39298C" fill-rule="nonzero"></path>
                </g>
            </g>
        </g>
    </g>
</svg>
