<svg width="50" height="50" viewBox="0 0 50 50" fill="none" xmlns="http://www.w3.org/2000/svg">
<path d="M19.3333 30.6667V33.5H30.6667V17.9167H13.6667V33.5" stroke="white" stroke-width="2" stroke-miterlimit="10" stroke-linecap="round" stroke-linejoin="round"/>
<path d="M38 13C38 11 37 11 37 10.5H39L40.5 13V30.5L38 30C37.8333 29.6667 38 15 38 13Z" fill="#E5E5E5" fill-opacity="0.25"/>
<path d="M22.875 17.9167V25H19.3333" stroke="white" stroke-width="2" stroke-miterlimit="10" stroke-linecap="round" stroke-linejoin="round"/>
<path d="M40.5833 33.5V13.6667C40.5833 12.5395 40.1356 11.4585 39.3385 10.6615C38.5415 9.86444 37.4605 9.41667 36.3333 9.41667H34.9167V29.25H36.3333C37.4605 29.25 38.5415 29.6978 39.3385 30.4948C40.1356 31.2918 40.5833 32.3728 40.5833 33.5ZM40.5833 33.5C40.5833 34.6272 40.1356 35.7082 39.3385 36.5052C38.5415 37.3022 37.4605 37.75 36.3333 37.75H9.41667V13.6667H31.375" stroke="#A3ACB9" stroke-width="2" stroke-miterlimit="10" stroke-linecap="round" stroke-linejoin="round"/>
</svg>
