<svg width="50" height="50" viewBox="0 0 50 50" fill="none" xmlns="http://www.w3.org/2000/svg">
<path d="M15.5715 15.5211H12.9496C11.5017 15.5211 10.3277 16.6951 10.3277 18.143C10.3277 19.5909 11.5017 20.7648 12.9496 20.7648" stroke="#402B91" stroke-width="2" stroke-miterlimit="10" stroke-linecap="round" stroke-linejoin="round"/>
<path fill-rule="evenodd" clip-rule="evenodd" d="M27.6903 36.1683H10V37.5013C10 40.0234 11.7166 42.0675 13.8345 42.0675H35.5632L34.9263 40.883C33.3469 37.9453 30.6195 36.1683 27.6903 36.1683Z" fill="#92B5D8"/>
<path fill-rule="evenodd" clip-rule="evenodd" d="M19.0618 13.8992H16.5714V20.7648C16.5714 21.3171 16.1237 21.7648 15.5714 21.7648C15.0192 21.7648 14.5714 21.3171 14.5714 20.7648V12.8992C14.5714 12.3469 15.0192 11.8992 15.5714 11.8992H20.2165L19.0618 13.8992ZM30.4342 13.8992H32.9245V20.7648C32.9245 21.3171 33.3722 21.7648 33.9245 21.7648C34.4768 21.7648 34.9245 21.3171 34.9245 20.7648V12.8992C34.9245 12.3469 34.4768 11.8992 33.9245 11.8992H29.2795L30.4342 13.8992Z" fill="#8ECFBA"/>
<path d="M36.5464 28.6297V20.7648H12.9496C11.5017 20.7648 10.3277 19.5909 10.3277 18.1429V37.8069C10.3277 39.9791 12.0883 41.7397 14.2605 41.7397H36.5464V33.8741" stroke="#402B91" stroke-width="2" stroke-miterlimit="10" stroke-linecap="round" stroke-linejoin="round"/>
<path d="M39.1682 33.8741H33.2691C31.8211 33.8741 30.6472 32.7002 30.6472 31.2522C30.6472 29.8043 31.8211 28.6304 33.2691 28.6304H39.1682V33.8741Z" fill="#736DB1"/>
<path fill-rule="evenodd" clip-rule="evenodd" d="M28.2603 13.0835L24.748 7L21.2357 13.0835H23.3961V17.8152H26.0999V13.0835H28.2603Z" fill="#8ECFBA"/>
<path fill-rule="evenodd" clip-rule="evenodd" d="M28.3362 28.5482L24.748 34.7632L21.1598 28.5482L23.3669 28.5482L23.3669 23.7144L26.1291 23.7144L26.1291 28.5482L28.3362 28.5482Z" fill="#8ECFBA"/>
</svg>
