<?xml version="1.0" encoding="UTF-8"?>
<svg width="19px" height="27px" viewBox="0 0 19 27" version="1.1" xmlns="http://www.w3.org/2000/svg" xmlns:xlink="http://www.w3.org/1999/xlink">
    <title>Group 11</title>
    <g id="---Developers" stroke="none" stroke-width="1" fill="none" fill-rule="evenodd">
        <g id="Documentation---Core-Contributors---Coding-Guidelines-Dark-Mode" transform="translate(-36.000000, -1251.000000)">
            <g id="Left-Rail" transform="translate(0.000000, 1013.000000)">
                <g id="Left-TOC" transform="translate(30.000000, 88.000000)">
                    <g id="Developers" transform="translate(2.000000, 87.000000)">
                        <g id="Group-11" transform="translate(4.478161, 64.658428)">
                            <polyline id="Path-2" stroke="#FFFFFF" stroke-width="0.75" points="6 10.1254519 4 12.3438102 6 14.4871344"></polyline>
                            <polyline id="Path-2" stroke="#FFFFFF" stroke-width="0.75" transform="translate(11.521839, 12.345432) rotate(-180.000000) translate(-11.521839, -12.345432) " points="12.5218389 10.1645905 10.5218389 12.3829488 12.5218389 14.526273"></polyline>
                            <line x1="9.50903464" y1="10" x2="6.96449272" y2="14.5210791" id="Path-5" stroke="#FFFFFF" stroke-width="0.75"></line>
                            <path d="M16.0514389,24.3415716 L0.992878922,24.3415716 C0.732398922,24.3415716 0.521838922,23.9147608 0.521838922,23.3880581 L0.521838922,1.29508512 C0.521838922,0.768382422 0.732398922,0.341571611 0.992878922,0.341571611 L16.0514389,0.341571611 C16.3112789,0.341571611 16.5218389,0.768382422 16.5218389,1.29508512 L16.5218389,23.3880581 C16.5218389,23.9147608 16.3112789,24.3415716 16.0514389,24.3415716 Z" id="Stroke-5" stroke="#A3ACB9"></path>
                            <line x1="1.02729219" y1="4.06996064" x2="16.0345949" y2="4.06996064" id="Path-4" stroke="#A3ACB9"></line>
                            <line x1="1.0115373" y1="20.3415716" x2="16.0433538" y2="20.3415716" id="Path-4" stroke="#A3ACB9"></line>
                            <path d="M1.93174754,0.341571611 L15.0354795,0.341571611 C15.5877643,0.341571611 16.0354795,0.789286862 16.0354795,1.34157161 C16.0354795,1.36322578 16.0347762,1.38487424 16.0333706,1.40648274 L15.9896458,2.07867224 L15.9896458,2.07867224 L0.961972099,2.07867224 L0.932637314,1.38374691 C0.909344539,0.83195357 1.3377789,0.36575416 1.88957224,0.342461385 C1.90362285,0.341868269 1.91768441,0.341571611 1.93174754,0.341571611 Z" id="Rectangle" fill="#A3ACB9" transform="translate(8.495643, 1.210122) rotate(-180.000000) translate(-8.495643, -1.210122) "></path>
                            <path d="M1.93174754,20.3415716 L15.0354795,20.3415716 C15.5877643,20.3415716 16.0354795,20.7892869 16.0354795,21.3415716 C16.0354795,21.3632258 16.0347762,21.3848742 16.0333706,21.4064827 L15.9896458,22.0786722 L15.9896458,22.0786722 L0.961972099,22.0786722 L0.932637314,21.3837469 C0.909344539,20.8319536 1.3377789,20.3657542 1.88957224,20.3424614 C1.90362285,20.3418683 1.91768441,20.3415716 1.93174754,20.3415716 Z" id="Rectangle" fill="#A3ACB9" transform="translate(8.495643, 21.210122) rotate(-180.000000) translate(-8.495643, -21.210122) "></path>
                        </g>
                    </g>
                </g>
            </g>
        </g>
    </g>
</svg>
