<?xml version="1.0" encoding="UTF-8"?>
<svg width="43px" height="44px" viewBox="0 0 43 44" version="1.1" xmlns="http://www.w3.org/2000/svg" xmlns:xlink="http://www.w3.org/1999/xlink">
    <title>Group 26</title>
    <defs>
        <polygon id="path-1" points="2.32590177e-05 0.032 42.435 0.032 42.435 42.1877 2.32590177e-05 42.1877"></polygon>
    </defs>
    <g id="---Developers" stroke="none" stroke-width="1" fill="none" fill-rule="evenodd">
        <g id="Icons" transform="translate(-835.000000, -1324.000000)">
            <g id="Group-26" transform="translate(835.000000, 1324.000000)">
                <path d="M37.4007,12.4629 L8.8727,40.9899 L8.6387,40.7569 C7.5247,39.6429 7.5247,37.8349 8.6387,36.7209 L33.1307,12.2289 C34.2457,11.1139 36.0517,11.1139 37.1667,12.2289 L37.4007,12.4629 Z" id="Fill-1" fill="#A3ACBD"></path>
                <polygon id="Fill-3" fill="#FFFFFF" points="8.9031 9.6328 7.8281 8.5578 11.1761 5.2088 12.2511 6.2838"></polygon>
                <polygon id="Fill-5" fill="#FFFFFF" points="12.2513 12.9805 11.1763 11.9055 14.5243 8.5575 15.5993 9.6325"></polygon>
                <polygon id="Fill-7" fill="#FFFFFF" points="15.5989 16.3282 14.5239 15.2522 17.8719 11.9052 18.9469 12.9802"></polygon>
                <path d="M12.8519,23.583 L0.8399,11.572 C0.0919,10.822 0.0919,9.604 0.8399,8.855 L7.0099,2.685 C7.7349,1.959 9.0009,1.959 9.7269,2.685 L21.8629,14.821 L20.7889,15.896 L8.6519,3.761 C8.4999,3.608 8.2359,3.609 8.0849,3.76 L1.9149,9.93 C1.7589,10.086 1.7589,10.341 1.9149,10.497 L13.9269,22.508 L12.8519,23.583 Z" id="Fill-9" fill="#A3ACBD"></path>
                <polygon id="Fill-11" fill="#FFFFFF" points="28.991 29.7198 27.916 28.6448 31.263 25.2968 32.338 26.3718"></polygon>
                <polygon id="Fill-13" fill="#FFFFFF" points="32.3382 33.0684 31.2632 31.9924 34.6112 28.6444 35.6862 29.7194"></polygon>
                <polygon id="Fill-15" fill="#FFFFFF" points="35.6863 36.416 34.6113 35.34 37.9593 31.992 39.0343 33.068"></polygon>
                <path d="M32.675,43.4068 L19.546,30.2788 L20.621,29.2018 L33.749,42.3308 C33.906,42.4888 34.16,42.4888 34.317,42.3308 L40.487,36.1608 C40.562,36.0858 40.604,35.9858 40.604,35.8778 C40.604,35.7708 40.562,35.6698 40.487,35.5948 L27.358,22.4658 L28.433,21.3908 L41.561,34.5198 C41.924,34.8818 42.124,35.3638 42.124,35.8778 C42.124,36.3908 41.924,36.8728 41.561,37.2368 L35.391,43.4068 C35.017,43.7808 34.525,43.9678 34.033,43.9678 C33.541,43.9678 33.05,43.7808 32.675,43.4068 Z" id="Fill-17" fill="#A3ACBD"></path>
                <polygon id="Fill-19" fill="#A3ACBE" points="36.8431 12.9805 30.4541 6.5915 31.5301 5.5155 37.9181 11.9055"></polygon>
                <polygon id="Fill-21" fill="#A3ACBE" points="8.9446 40.8789 2.5556 34.4909 3.6306 33.4149 10.0196 39.8039"></polygon>
                <g id="Group-25" transform="translate(0.000000, 0.967800)">
                    <mask id="mask-2" fill="white">
                        <use xlink:href="#path-1"></use>
                    </mask>
                    <g id="Clip-24"></g>
                    <path d="M3.4749,33.6797 L1.6829,40.5247 L8.7999,38.9817 L40.7689,7.0117 L35.4559,1.6987 L3.4749,33.6797 Z M1.0939,42.1877 C0.8199,42.1877 0.5249,42.0697 0.3079,41.8437 C0.0179,41.5417 -0.0761,41.1097 0.0639,40.7137 L2.1079,32.8957 L34.6299,0.3727 C35.0869,-0.0823 35.8279,-0.0813 36.2819,0.3727 L42.0939,6.1847 C42.5489,6.6397 42.5489,7.3817 42.0939,7.8367 L41.5569,7.2987 L42.0939,7.8367 L9.5589,40.3717 L1.3599,42.1477 C1.2759,42.1737 1.1859,42.1877 1.0939,42.1877 L1.0939,42.1877 Z" id="Fill-23" fill="#FFFFFF" mask="url(#mask-2)"></path>
                </g>
            </g>
        </g>
    </g>
</svg>
