<?xml version="1.0" encoding="UTF-8"?>
<svg width="32px" height="32px" viewBox="0 0 32 32" version="1.1" xmlns="http://www.w3.org/2000/svg" xmlns:xlink="http://www.w3.org/1999/xlink">
    <title>8AE69F01-B07E-44B6-89C2-D96740668B80</title>
    <g id="---Developers" stroke="none" stroke-width="1" fill="none" fill-rule="evenodd">
        <g id="Documentation---Wallets" transform="translate(-910.000000, -1296.000000)">
            <g id="Admin" transform="translate(911.000000, 1297.000000)">
                <path d="M24,25.5 C21.6,25.5 19,23.8333 18,23 L21,27 L25,29 L27.5,28 L28.5,25.5 L28.5,23 C28,23.8333 26.4,25.5 24,25.5 Z" id="Path" fill="#92B5D8" fill-rule="nonzero"></path>
                <path d="M24.9167,19.0871 L27.7422,21.6371 C28.177,22.0298 28.5273,22.5069 28.7719,23.0393 C29.0166,23.5716 29.1504,24.1482 29.1652,24.7339 C29.18,25.3196 29.0756,25.9022 28.8583,26.4462 C28.6409,26.9903 28.3152,27.4845 27.9009,27.8988 L27.9009,27.8988 C27.4866,28.3131 26.9925,28.6388 26.4484,28.8561 C25.9043,29.0735 25.3217,29.1779 24.736,29.1631 C24.1503,29.1482 23.5738,29.0144 23.0414,28.7698 C22.509,28.5252 22.032,28.1748 21.6392,27.7401 L17.8079,23.5" id="Path" stroke="#402B91" stroke-width="2" stroke-linecap="round" stroke-linejoin="round"></path>
                <polyline id="Path" stroke="#402B91" stroke-width="2" stroke-linecap="round" stroke-linejoin="round" points="13.7427 11.2388 8.625 6.1203 8.625 4.375 4.375 0.125 0.125 4.375 4.375 8.625 6.1203 8.625 11.1112 13.6159"></polyline>
                <path d="M29.5309,5.3607 L25.4665,9.4244 L20.579,4.5369 L24.6427,0.4725 C23.7023,0.1953 22.7204,0.0859 21.742,0.1495 C19.9364,0.2989 18.2423,1.0839 16.9611,2.365 C15.6799,3.6461 14.8947,5.3401 14.7451,7.1457 C14.6811,8.1252 14.7907,9.1084 15.0688,10.0498 L0.8335,22.9018 C0.6179,23.0967 0.4443,23.3333 0.323,23.5973 C0.2017,23.8613 0.1354,24.1472 0.1281,24.4376 C0.1207,24.7281 0.1725,25.017 0.2802,25.2868 C0.388,25.5566 0.5494,25.8017 0.7548,26.0072 L3.9955,29.2478 C4.201,29.4527 4.4461,29.6137 4.7158,29.7211 C4.9855,29.8285 5.2742,29.8799 5.5644,29.8724 C5.8545,29.8648 6.1402,29.7984 6.4039,29.6772 C6.6676,29.5559 6.904,29.3824 7.0987,29.167 L19.9585,14.9345 C20.8999,15.2126 21.8831,15.3222 22.8626,15.2582 C24.6682,15.1086 26.3622,14.3234 27.6433,13.0422 C28.9244,11.761 29.7094,10.0669 29.8588,8.2613 C29.9207,7.2827 29.8097,6.3008 29.5309,5.3607 Z" id="Path" stroke="#074957" stroke-width="2" fill="#94D1BE" fill-rule="nonzero" stroke-linecap="round" stroke-linejoin="round"></path>
            </g>
        </g>
    </g>
</svg>
