<?xml version="1.0" encoding="UTF-8"?>
<svg width="71px" height="83px" viewBox="0 0 71 83" version="1.1" xmlns="http://www.w3.org/2000/svg" xmlns:xlink="http://www.w3.org/1999/xlink">
    <title>5538120D-2B08-4D77-AB61-CE51C2AD7FE9</title>
    <defs>
        <polygon id="path-1" points="0.1369 0.032 68.7139 0.032 68.7139 23.7298 0.1369 23.7298"></polygon>
    </defs>
    <g id="---Developers" stroke="none" stroke-width="1" fill="none" fill-rule="evenodd">
        <g id="Documentation---Wallet-/-App-Overview" transform="translate(-453.000000, -403.000000)">
            <g id="Group-12" transform="translate(453.000000, 403.000000)">
                <path d="M66.3537,59.7529 L35.4327,77.6059 L4.5117,59.7529 L4.5117,24.0479 L35.4327,6.1949 L66.3537,24.0479 L66.3537,59.7529 Z M70.8117,22.4189 C70.8117,22.2439 70.8387,22.0729 70.8537,21.8999 L70.8537,21.4499 L70.8477,21.4459 C70.3327,21.2319 69.8647,20.9609 69.4487,20.6389 L35.4327,0.9999 L0.0117,21.4499 L0.0117,62.3509 L35.4327,82.8009 L70.8537,62.3509 L70.8537,23.1599 C70.8277,22.9139 70.8117,22.6669 70.8117,22.4189 L70.8117,22.4189 Z" id="Fill-1" fill="#7468AB"></path>
                <path d="M70.8303,22.749 L66.3533,22.749 L66.3533,59.753 L34.3083,78.255 L36.5583,82.151 L70.8533,62.351 L70.8533,23.16 C70.8393,23.023 70.8363,22.887 70.8303,22.749" id="Fill-3" fill="#8ECFBA"></path>
                <g id="Group-7" transform="translate(1.000000, 0.967800)">
                    <mask id="mask-2" fill="white">
                        <use xlink:href="#path-1"></use>
                    </mask>
                    <g id="Clip-6"></g>
                    <path d="M68.4489,19.6718 L34.4329,0.0318 L0.1369,19.8328 L2.3869,23.7298 L34.4329,5.2278 L66.4789,23.7298 L68.7139,19.8588 C68.6249,19.7968 68.5339,19.7368 68.4489,19.6718" id="Fill-5" fill="#92B5D8" mask="url(#mask-2)"></path>
                </g>
                <path d="M2.2341,20.1679 C2.0651,20.2949 1.8801,20.3959 1.6781,20.4679 C1.6061,20.5249 1.5341,20.5839 1.4491,20.6299 L1.4251,20.6419 C1.3071,20.7299 1.1881,20.8159 1.0671,20.8979 C0.7391,21.1189 0.3841,21.2919 0.0361,21.4779 C0.0251,21.4839 0.0121,21.4859 0.0001,21.4919 C0.0281,22.3119 0.0551,23.1309 0.0561,23.9509 C0.0561,24.0019 0.0451,24.0489 0.0421,24.0989 L34.3221,43.5549 L36.5441,39.6409 L2.2341,20.1679 Z" id="Fill-8" fill="#7468AB"></path>
                <path d="M33.1828,81.4697 L33.1828,40.3007 L68.3168,19.9597 L70.9328,21.0977 L70.9118,23.6567 L37.6828,42.8947 L37.6828,81.5057 L36.2488,82.4427 C36.0298,82.6087 35.8178,82.7817 35.6038,82.9537 C35.5968,82.9587 35.5898,82.9627 35.5838,82.9677" id="Fill-10" fill="#8ECFBA"></path>
            </g>
        </g>
    </g>
</svg>
