<?xml version="1.0" encoding="UTF-8"?>
<svg width="53px" height="54px" viewBox="0 0 53 54" version="1.1" xmlns="http://www.w3.org/2000/svg" xmlns:xlink="http://www.w3.org/1999/xlink">
    <title>1A481A41-BA3A-4A60-BED2-631C62F60B23</title>
    <defs>
        <polygon id="path-1" points="0 0.276174986 17.4176501 0.276174986 17.4176501 17.6943001 0 17.6943001"></polygon>
        <polygon id="path-3" points="0.305849945 0.581874986 17.72385 0.581874986 17.72385 18 0.305849945 18"></polygon>
    </defs>
    <g id="---Developers" stroke="none" stroke-width="1" fill="none" fill-rule="evenodd">
        <g id="Documentation---Wallet-/-App-Overview" transform="translate(-897.000000, -1125.000000)">
            <g id="Group-24" transform="translate(897.000000, 1125.000000)">
                <polygon id="Fill-1" fill="#432C85" points="21.792 38.852 20.546 40.098 12.932 32.484 14.178 31.238"></polygon>
                <polygon id="Fill-2" fill="#432C85" points="39.8354 33.1313 32.1764 40.7903 30.9294 39.5443 38.5884 31.8843"></polygon>
                <polygon id="Fill-3" fill="#432C85" points="39.0981 21.5463 37.8521 22.7923 30.2381 15.1773 31.4831 13.9323"></polygon>
                <polygon id="Fill-4" fill="#432C85" points="21.7925 15.1782 14.1775 22.7922 12.9315 21.5462 20.5455 13.9312"></polygon>
                <g id="Group-23" transform="translate(0.000000, 0.029700)">
                    <g id="Group-7" transform="translate(0.000000, 18.000000)">
                        <mask id="mask-2" fill="white">
                            <use xlink:href="#path-1"></use>
                        </mask>
                        <g id="Clip-6"></g>
                        <path d="M3.7944,4.0703 C1.0844,6.7803 1.0844,11.1893 3.7944,13.9003 C6.5034,16.6103 10.9134,16.6103 13.6234,13.8993 C16.3334,11.1893 16.3344,6.7803 13.6244,4.0703 C10.9134,1.3603 6.5044,1.3603 3.7944,4.0703 M14.8704,15.1463 C11.4724,18.5443 5.9444,18.5433 2.5474,15.1453 C-0.8496,11.7493 -0.8496,6.2213 2.5474,2.8243 C5.9444,-0.5737 11.4724,-0.5727 14.8694,2.8243 C18.2664,6.2213 18.2674,11.7493 14.8704,15.1463" id="Fill-5" fill="#8ECFBA" mask="url(#mask-2)"></path>
                    </g>
                    <path d="M6.5635,24.8399 C5.3795,26.0229 5.3795,27.9479 6.5635,29.1309 C7.7465,30.3149 9.6715,30.3149 10.8545,29.1309 C12.0385,27.9469 12.0385,26.0229 10.8555,24.8389 C9.6715,23.6559 7.7465,23.6559 6.5635,24.8399 M12.1015,30.3769 C10.2305,32.2469 7.1875,32.2469 5.3165,30.3769 C3.4465,28.5069 3.4465,25.4629 5.3165,23.5929 C7.1875,21.7229 10.2305,21.7229 12.1005,23.5929 C13.9715,25.4639 13.9715,28.5069 12.1015,30.3769" id="Fill-8" fill="#6C67A8"></path>
                    <path d="M23.8691,7.5332 C22.6861,8.7172 22.6861,10.6422 23.8691,11.8252 C25.0521,13.0082 26.9771,13.0082 28.1611,11.8252 C29.3441,10.6412 29.3441,8.7162 28.1611,7.5332 C26.9781,6.3502 25.0531,6.3502 23.8691,7.5332 M29.4071,13.0712 C27.5371,14.9412 24.4941,14.9412 22.6231,13.0712 C20.7521,11.2002 20.7521,8.1572 22.6221,6.2872 C24.4931,4.4172 27.5361,4.4172 29.4071,6.2872 C31.2771,8.1582 31.2771,11.2012 29.4071,13.0712" id="Fill-10" fill="#8ECFBA"></path>
                    <path d="M41.1753,24.8399 C39.9913,26.0229 39.9913,27.9479 41.1753,29.1309 C42.3583,30.3149 44.2833,30.3149 45.4663,29.1309 C46.6503,27.9469 46.6503,26.0229 45.4673,24.8389 C44.2833,23.6559 42.3583,23.6559 41.1753,24.8399 M46.7133,30.3769 C44.8423,32.2469 41.7993,32.2469 39.9293,30.3769 C38.0583,28.5069 38.0583,25.4629 39.9283,23.5929 C41.7993,21.7229 44.8423,21.7229 46.7133,23.5929 C48.5833,25.4639 48.5833,28.5069 46.7133,30.3769" id="Fill-12" fill="#432C85"></path>
                    <path d="M23.8691,42.1455 C22.6861,43.3295 22.6861,45.2535 23.8691,46.4375 C25.0521,47.6205 26.9771,47.6205 28.1611,46.4365 C29.3441,45.2525 29.3441,43.3285 28.1611,42.1455 C26.9781,40.9615 25.0531,40.9615 23.8691,42.1455 M29.4071,47.6835 C27.5371,49.5535 24.4941,49.5535 22.6231,47.6825 C20.7521,45.8125 20.7521,42.7695 22.6221,40.8985 C24.4931,39.0285 27.5361,39.0285 29.4071,40.8995 C31.2771,42.7695 31.2771,45.8135 29.4071,47.6835" id="Fill-14" fill="#92B5D8"></path>
                    <path d="M21.1001,4.7647 C18.3901,7.4747 18.3901,11.8837 21.1001,14.5937 C23.8101,17.3047 28.2191,17.3037 30.9301,14.5937 C33.6401,11.8837 33.6401,7.4747 30.9301,4.7647 C28.2201,2.0537 23.8101,2.0547 21.1001,4.7647 M32.1761,15.8407 C28.7791,19.2377 23.2511,19.2377 19.8541,15.8397 C16.4571,12.4437 16.4561,6.9147 19.8531,3.5177 C23.2511,0.1207 28.7791,0.1207 32.1761,3.5187 C35.5731,6.9147 35.5731,12.4437 32.1761,15.8407" id="Fill-16" fill="#6C67A8"></path>
                    <path d="M38.4062,22.0703 C35.6962,24.7803 35.6962,29.1893 38.4062,31.9003 C41.1162,34.6103 45.5252,34.6103 48.2352,31.8993 C50.9462,29.1893 50.9462,24.7803 48.2362,22.0703 C45.5262,19.3603 41.1162,19.3603 38.4062,22.0703 M49.4822,33.1463 C46.0852,36.5443 40.5572,36.5433 37.1602,33.1453 C33.7632,29.7493 33.7622,24.2213 37.1592,20.8243 C40.5572,17.4263 46.0852,17.4273 49.4822,20.8243 C52.8792,24.2213 52.8792,29.7493 49.4822,33.1463" id="Fill-18" fill="#92B5D8"></path>
                    <g id="Group-22" transform="translate(17.000000, 35.000000)">
                        <mask id="mask-4" fill="white">
                            <use xlink:href="#path-3"></use>
                        </mask>
                        <g id="Clip-21"></g>
                        <path d="M4.1001,4.377 C1.3901,7.087 1.3901,11.496 4.1001,14.206 C6.8101,16.916 11.2191,16.916 13.9301,14.206 C16.6401,11.495 16.6401,7.086 13.9301,4.376 C11.2201,1.666 6.8101,1.666 4.1001,4.377 M15.1761,15.452 C11.7791,18.85 6.2511,18.849 2.8541,15.452 C-0.5429,12.055 -0.5439,6.527 2.8531,3.13 C6.2511,-0.268 11.7791,-0.267 15.1761,3.13 C18.5731,6.527 18.5731,12.055 15.1761,15.452" id="Fill-20" fill="#432C85" mask="url(#mask-4)"></path>
                    </g>
                </g>
            </g>
        </g>
    </g>
</svg>
