<?xml version="1.0" encoding="UTF-8"?>
<svg width="83px" height="77px" viewBox="0 0 83 77" version="1.1" xmlns="http://www.w3.org/2000/svg" xmlns:xlink="http://www.w3.org/1999/xlink">
    <title>E21C597A-1BF7-495E-B0A4-852C841E5A98</title>
    <defs>
        <polygon id="path-1" points="0 0.267605634 78.4479091 0.267605634 78.4479091 38.5352113 0 38.5352113"></polygon>
    </defs>
    <g id="---Developers" stroke="none" stroke-width="1" fill="none" fill-rule="evenodd">
        <g id="Documentation---Wallet-/-App-Overview" transform="translate(-705.000000, -407.000000)">
            <g id="Group-8" transform="translate(705.000000, 407.000000)">
                <path d="M32.5574215,47.1538462 L50.8651138,47.1538462 L50.8651138,28.8461538 L32.5574215,28.8461538 L32.5574215,47.1538462 Z M27.7112676,52 L55.7112676,52 L55.7112676,24 L27.7112676,24 L27.7112676,52 Z" id="Fill-1" fill="#FFFFFF"></path>
                <g id="Group-7" transform="translate(0.711268, 0.000000)">
                    <path d="M40.5694468,4.81690141 C53.5531351,4.81690141 65.1481481,12.3430423 70.6059403,23.8961127 L64.8851091,26.3505915 L76.5876805,31.0775775 L81.2904338,19.3125634 L75.0403299,21.9939718 C68.8317584,8.67470423 55.4902519,0 40.5694468,0 C19.5774468,0 2.49801818,17.1674366 2.49801818,38.2676056 L7.29022597,38.2676056 C7.29022597,19.8231549 22.2195506,4.81690141 40.5694468,4.81690141" id="Fill-2" fill="#92B5D8"></path>
                    <g id="Group-6" transform="translate(0.000000, 37.464789)">
                        <mask id="mask-2" fill="white">
                            <use xlink:href="#path-1"></use>
                        </mask>
                        <g id="Clip-5"></g>
                        <path d="M40.3764805,33.7183099 C27.3161169,33.7183099 15.6316494,26.0765634 10.2207143,14.3864789 L16.2535714,11.6451268 L4.45196104,7.16969014 L-0.000532467532,19.0321127 L5.83744156,16.3796056 C12.0161948,29.7834366 25.4173377,38.5352113 40.3764805,38.5352113 C61.3684805,38.5352113 78.4479091,21.3677746 78.4479091,0.267605634 L73.6557013,0.267605634 C73.6557013,18.7120563 58.7263766,33.7183099 40.3764805,33.7183099" id="Fill-4" fill="#8ECFBA" mask="url(#mask-2)"></path>
                    </g>
                </g>
            </g>
        </g>
    </g>
</svg>
