<svg version="1.1" viewBox="0.0 0.0 960.0 540.0" fill="none" stroke="none" stroke-linecap="square" stroke-miterlimit="10" xmlns:xlink="http://www.w3.org/1999/xlink" xmlns="http://www.w3.org/2000/svg"><clipPath id="gac6ecddb3e_0_0.0"><path d="m0 0l960.0 0l0 540.0l-960.0 0l0 -540.0z" clip-rule="nonzero"/></clipPath><g clip-path="url(#gac6ecddb3e_0_0.0)"><path fill="#f3f4fb" d="m0 0l960.0 0l0 540.0l-960.0 0z" fill-rule="evenodd"/><path fill="#c8f1ff" d="m29.495564 103.699844l0 0c0 -7.0320053 28.695415 -12.732567 64.093 -12.732567l0 0c35.397583 0 64.093 5.7005615 64.093 12.732567l0 0c0 7.0319977 -28.69542 12.732559 -64.093 12.732559l0 0c-35.397583 0 -64.093 -5.7005615 -64.093 -12.732559z" fill-rule="evenodd"/><path fill="#c8f1ff" d="m29.802467 65.63265l0 0c0 -0.77880096 0.63134384 -1.4101486 1.4101467 -1.4101486l124.74869 0c0.37399292 0 0.732666 0.1485672 0.99713135 0.4130249c0.26445007 0.26445007 0.41300964 0.6231308 0.41300964 0.9971237l0 39.198364c0 0.77880096 -0.6313324 1.4101486 -1.410141 1.4101486l-124.74869 0c-0.7788029 0 -1.4101467 -0.63134766 -1.4101467 -1.4101486z" fill-rule="evenodd"/><path fill="#4a729c" d="m61.74189 98.172455q-1.078125 0 -2.09375 -0.3125q-1.0 -0.3125 -1.578125 -0.8125l0.59375 -1.34375q0.578125 0.453125 1.40625 0.734375q0.84375 0.28125 1.671875 0.28125q1.046875 0 1.546875 -0.328125q0.515625 -0.328125 0.515625 -0.875q0 -0.40625 -0.28125 -0.65625q-0.28125 -0.265625 -0.71875 -0.40625q-0.4375 -0.15625 -1.203125 -0.34375q-1.0625 -0.25 -1.734375 -0.5q-0.65625 -0.25 -1.125 -0.78125q-0.46875 -0.546875 -0.46875 -1.46875q0 -0.78125 0.40625 -1.40625q0.421875 -0.640625 1.265625 -1.015625q0.859375 -0.375 2.078125 -0.375q0.859375 0 1.6875 0.21875q0.828125 0.21875 1.421875 0.609375l-0.546875 1.34375q-0.609375 -0.359375 -1.28125 -0.546875q-0.671875 -0.1875 -1.296875 -0.1875q-1.015625 0 -1.515625 0.359375q-0.5 0.34375 -0.5 0.921875q0 0.390625 0.28125 0.65625q0.28125 0.25 0.71875 0.390625q0.453125 0.140625 1.203125 0.328125q1.046875 0.25 1.703125 0.515625q0.671875 0.25 1.140625 0.78125q0.484375 0.53125 0.484375 1.4375q0 0.78125 -0.421875 1.40625q-0.421875 0.625 -1.28125 1.0q-0.84375 0.375 -2.078125 0.375zm9.617737 -0.53125q-0.296875 0.25 -0.71875 0.375q-0.421875 0.109375 -0.890625 0.109375q-1.171875 0 -1.8125 -0.609375q-0.640625 -0.625 -0.640625 -1.796875l0 -3.421875l-1.171875 0l0 -1.328125l1.171875 0l0 -1.625l1.671875 0l0 1.625l1.90625 0l0 1.328125l-1.90625 0l0 3.390625q0 0.515625 0.25 0.796875q0.25 0.265625 0.734375 0.265625q0.5625 0 0.9375 -0.296875l0.46875 1.1875zm4.088608 -6.8125q1.578125 0 2.40625 0.765625q0.828125 0.75 0.828125 2.265625l0 4.171875l-1.5625 0l0 -0.859375q-0.3125 0.453125 -0.890625 0.703125q-0.5625 0.25 -1.359375 0.25q-0.796875 0 -1.40625 -0.265625q-0.59375 -0.28125 -0.921875 -0.765625q-0.3125 -0.484375 -0.3125 -1.109375q0 -0.953125 0.703125 -1.53125q0.71875 -0.578125 2.25 -0.578125l1.84375 0l0 -0.109375q0 -0.75 -0.453125 -1.140625q-0.453125 -0.40625 -1.328125 -0.40625q-0.59375 0 -1.171875 0.1875q-0.578125 0.1875 -0.984375 0.515625l-0.65625 -1.203125q0.5625 -0.4375 1.34375 -0.65625q0.796875 -0.234375 1.671875 -0.234375zm-0.234375 6.078125q0.640625 0 1.125 -0.28125q0.484375 -0.28125 0.6875 -0.8125l0 -0.828125l-1.71875 0q-1.453125 0 -1.453125 0.9375q0 0.453125 0.359375 0.71875q0.375 0.265625 1.0 0.265625zm9.887024 0.734375q-0.296875 0.25 -0.71875 0.375q-0.421875 0.109375 -0.890625 0.109375q-1.171875 0 -1.8125 -0.609375q-0.640625 -0.625 -0.640625 -1.796875l0 -3.421875l-1.171875 0l0 -1.328125l1.171875 0l0 -1.625l1.671875 0l0 1.625l1.90625 0l0 1.328125l-1.90625 0l0 3.390625q0 0.515625 0.25 0.796875q0.25 0.265625 0.734375 0.265625q0.5625 0 0.9375 -0.296875l0.46875 1.1875zm7.8173523 -3.125q0 0.171875 -0.03125 0.484375l-5.578125 0q0.140625 0.796875 0.765625 1.265625q0.625 0.453125 1.546875 0.453125q1.171875 0 1.921875 -0.78125l0.890625 1.03125q-0.46875 0.5625 -1.203125 0.859375q-0.734375 0.296875 -1.65625 0.296875q-1.171875 0 -2.0625 -0.46875q-0.890625 -0.46875 -1.390625 -1.296875q-0.484375 -0.828125 -0.484375 -1.890625q0 -1.03125 0.46875 -1.859375q0.484375 -0.84375 1.3125 -1.3125q0.84375 -0.46875 1.90625 -0.46875q1.03125 0 1.84375 0.46875q0.828125 0.453125 1.28125 1.296875q0.46875 0.828125 0.46875 1.921875zm-3.59375 -2.34375q-0.796875 0 -1.359375 0.46875q-0.546875 0.46875 -0.671875 1.265625l4.046875 0q-0.109375 -0.78125 -0.65625 -1.25q-0.546875 -0.484375 -1.359375 -0.484375zm8.243195 6.0q-1.078125 0 -2.09375 -0.3125q-1.0 -0.3125 -1.578125 -0.8125l0.59375 -1.34375q0.578125 0.453125 1.40625 0.734375q0.84375 0.28125 1.671875 0.28125q1.046875 0 1.546875 -0.328125q0.515625 -0.328125 0.515625 -0.875q0 -0.40625 -0.28125 -0.65625q-0.28125 -0.265625 -0.71875 -0.40625q-0.4375 -0.15625 -1.203125 -0.34375q-1.0625 -0.25 -1.734375 -0.5q-0.65625 -0.25 -1.125 -0.78125q-0.46875 -0.546875 -0.46875 -1.46875q0 -0.78125 0.40625 -1.40625q0.421875 -0.640625 1.265625 -1.015625q0.859375 -0.375 2.078125 -0.375q0.859375 0 1.6875 0.21875q0.828125 0.21875 1.421875 0.609375l-0.546875 1.34375q-0.609375 -0.359375 -1.28125 -0.546875q-0.671875 -0.1875 -1.296875 -0.1875q-1.015625 0 -1.515625 0.359375q-0.5 0.34375 -0.5 0.921875q0 0.390625 0.28125 0.65625q0.28125 0.25 0.71875 0.390625q0.453125 0.140625 1.203125 0.328125q1.046875 0.25 1.703125 0.515625q0.671875 0.25 1.140625 0.78125q0.484375 0.53125 0.484375 1.4375q0 0.78125 -0.421875 1.40625q-0.421875 0.625 -1.28125 1.0q-0.84375 0.375 -2.078125 0.375zm9.617737 -0.53125q-0.296875 0.25 -0.71875 0.375q-0.421875 0.109375 -0.890625 0.109375q-1.171875 0 -1.8125 -0.609375q-0.640625 -0.625 -0.640625 -1.796875l0 -3.421875l-1.171875 0l0 -1.328125l1.171875 0l0 -1.625l1.671875 0l0 1.625l1.90625 0l0 1.328125l-1.90625 0l0 3.390625q0 0.515625 0.25 0.796875q0.25 0.265625 0.734375 0.265625q0.5625 0 0.9375 -0.296875l0.46875 1.1875zm4.3329773 0.484375q-1.078125 0 -1.953125 -0.46875q-0.859375 -0.46875 -1.359375 -1.296875q-0.484375 -0.828125 -0.484375 -1.890625q0 -1.046875 0.484375 -1.875q0.5 -0.828125 1.359375 -1.296875q0.875 -0.46875 1.953125 -0.46875q1.09375 0 1.953125 0.46875q0.875 0.46875 1.359375 1.296875q0.484375 0.828125 0.484375 1.875q0 1.0625 -0.484375 1.890625q-0.484375 0.828125 -1.359375 1.296875q-0.859375 0.46875 -1.953125 0.46875zm0 -1.421875q0.921875 0 1.515625 -0.609375q0.59375 -0.625 0.59375 -1.625q0 -1.0 -0.59375 -1.609375q-0.59375 -0.609375 -1.515625 -0.609375q-0.921875 0 -1.515625 0.609375q-0.59375 0.609375 -0.59375 1.609375q0 1.0 0.59375 1.625q0.59375 0.609375 1.515625 0.609375zm6.9716034 -4.75q0.734375 -1.125 2.546875 -1.125l0 1.59375q-0.21875 -0.046875 -0.390625 -0.046875q-0.96875 0 -1.515625 0.578125q-0.546875 0.5625 -0.546875 1.625l0 3.453125l-1.671875 0l0 -7.125l1.578125 0l0 1.046875zm10.573845 2.5625q0 0.171875 -0.03125 0.484375l-5.5781326 0q0.140625 0.796875 0.765625 1.265625q0.625 0.453125 1.546875 0.453125q1.171875 0 1.921875 -0.78125l0.8906326 1.03125q-0.46875 0.5625 -1.2031326 0.859375q-0.734375 0.296875 -1.65625 0.296875q-1.171875 0 -2.0625 -0.46875q-0.890625 -0.46875 -1.390625 -1.296875q-0.484375 -0.828125 -0.484375 -1.890625q0 -1.03125 0.46875 -1.859375q0.484375 -0.84375 1.3125 -1.3125q0.84375 -0.46875 1.90625 -0.46875q1.03125 0 1.84375 0.46875q0.8281326 0.453125 1.2812576 1.296875q0.46875 0.828125 0.46875 1.921875zm-3.5937576 -2.34375q-0.796875 0 -1.359375 0.46875q-0.546875 0.46875 -0.671875 1.265625l4.046875 0q-0.109375 -0.78125 -0.65625 -1.25q-0.546875 -0.484375 -1.359375 -0.484375z" fill-rule="nonzero"/><path fill="#bceeff" d="m29.495564 64.93719l0 0c0 -2.0426483 6.752636 -4.0016365 18.772404 -5.4460106c12.019772 -1.4443703 28.322075 -2.2558098 45.320595 -2.2558098l0 0c35.397583 0 64.093 3.448223 64.093 7.7018204l0 0c0 4.253601 -28.69542 7.701828 -64.093 7.701828l0 0c-35.397583 0 -64.093 -3.448227 -64.093 -7.701828z" fill-rule="evenodd"/><path fill="#c8f1ff" d="m290.48636 103.405495l0 0c0 -6.9071884 28.468079 -12.506569 63.585236 -12.506569l0 0c35.117188 0 63.585266 5.5993805 63.585266 12.506569l0 0c0 6.907196 -28.468079 12.506577 -63.585266 12.506577l0 0c-35.117157 0 -63.585236 -5.5993805 -63.585236 -12.506577z" fill-rule="evenodd"/><path fill="#c8f1ff" d="m290.79083 66.01397l0 0c0 -0.7649765 0.6201477 -1.3851166 1.3851318 -1.3851166l123.78812 0c0.3673401 0 0.7196655 0.14592743 0.97943115 0.40569305c0.2597351 0.259758 0.40567017 0.6120682 0.40567017 0.9794235l0 38.502625c0 0.76498413 -0.6201172 1.3851166 -1.3851013 1.3851166l-123.78812 0c-0.76498413 0 -1.3851318 -0.62013245 -1.3851318 -1.3851166z" fill-rule="evenodd"/><path fill="#4a729c" d="m324.54172 96.61215l0 1.453125l-7.0 0l0 -9.328125l6.8125 0l0 1.453125l-5.078125 0l0 2.421875l4.5 0l0 1.421875l-4.5 0l0 2.578125l5.265625 0zm8.336456 -5.671875l-3.046875 7.125l-1.71875 0l-3.046875 -7.125l1.734375 0l2.203125 5.28125l2.28125 -5.28125l1.59375 0zm7.5348816 3.609375q0 0.171875 -0.03125 0.484375l-5.578125 0q0.140625 0.796875 0.765625 1.265625q0.625 0.453125 1.546875 0.453125q1.171875 0 1.921875 -0.78125l0.890625 1.03125q-0.46875 0.5625 -1.203125 0.859375q-0.734375 0.296875 -1.65625 0.296875q-1.171875 0 -2.0625 -0.46875q-0.890625 -0.46875 -1.390625 -1.296875q-0.484375 -0.828125 -0.484375 -1.890625q0 -1.03125 0.46875 -1.859375q0.484375 -0.84375 1.3125 -1.3125q0.84375 -0.46875 1.90625 -0.46875q1.03125 0 1.84375 0.46875q0.828125 0.453125 1.28125 1.296875q0.46875 0.828125 0.46875 1.921875zm-3.59375 -2.34375q-0.796875 0 -1.359375 0.46875q-0.546875 0.46875 -0.671875 1.265625l4.046875 0q-0.109375 -0.78125 -0.65625 -1.25q-0.546875 -0.484375 -1.359375 -0.484375zm9.22757 -1.34375q1.359375 0 2.171875 0.796875q0.8125 0.78125 0.8125 2.328125l0 4.078125l-1.671875 0l0 -3.859375q0 -0.9375 -0.4375 -1.40625q-0.4375 -0.484375 -1.25 -0.484375q-0.921875 0 -1.453125 0.5625q-0.53125 0.546875 -0.53125 1.59375l0 3.59375l-1.671875 0l0 -7.125l1.578125 0l0 0.921875q0.421875 -0.484375 1.046875 -0.734375q0.625 -0.265625 1.40625 -0.265625zm9.37973 6.8125q-0.296875 0.25 -0.71875 0.375q-0.421875 0.109375 -0.890625 0.109375q-1.171875 0 -1.8125 -0.609375q-0.640625 -0.625 -0.640625 -1.796875l0 -3.421875l-1.171875 0l0 -1.328125l1.171875 0l0 -1.625l1.671875 0l0 1.625l1.90625 0l0 1.328125l-1.90625 0l0 3.390625q0 0.515625 0.25 0.796875q0.25 0.265625 0.734375 0.265625q0.5625 0 0.9375 -0.296875l0.46875 1.1875zm4.416748 0.53125q-1.078125 0 -2.09375 -0.3125q-1.0 -0.3125 -1.578125 -0.8125l0.59375 -1.34375q0.578125 0.453125 1.40625 0.734375q0.84375 0.28125 1.671875 0.28125q1.046875 0 1.546875 -0.328125q0.515625 -0.328125 0.515625 -0.875q0 -0.40625 -0.28125 -0.65625q-0.28125 -0.265625 -0.71875 -0.40625q-0.4375 -0.15625 -1.203125 -0.34375q-1.0625 -0.25 -1.734375 -0.5q-0.65625 -0.25 -1.125 -0.78125q-0.46875 -0.546875 -0.46875 -1.46875q0 -0.78125 0.40625 -1.40625q0.421875 -0.640625 1.265625 -1.015625q0.859375 -0.375 2.078125 -0.375q0.859375 0 1.6875 0.21875q0.828125 0.21875 1.421875 0.609375l-0.546875 1.34375q-0.609375 -0.359375 -1.28125 -0.546875q-0.671875 -0.1875 -1.296875 -0.1875q-1.015625 0 -1.515625 0.359375q-0.5 0.34375 -0.5 0.921875q0 0.390625 0.28125 0.65625q0.28125 0.25 0.71875 0.390625q0.453125 0.140625 1.203125 0.328125q1.046875 0.25 1.703125 0.515625q0.671875 0.25 1.140625 0.78125q0.484375 0.53125 0.484375 1.4375q0 0.78125 -0.421875 1.40625q-0.421875 0.625 -1.28125 1.0q-0.84375 0.375 -2.078125 0.375zm9.617737 -0.53125q-0.296875 0.25 -0.71875 0.375q-0.421875 0.109375 -0.890625 0.109375q-1.171875 0 -1.8125 -0.609375q-0.640625 -0.625 -0.640625 -1.796875l0 -3.421875l-1.171875 0l0 -1.328125l1.171875 0l0 -1.625l1.671875 0l0 1.625l1.90625 0l0 1.328125l-1.90625 0l0 3.390625q0 0.515625 0.25 0.796875q0.25 0.265625 0.734375 0.265625q0.5625 0 0.9375 -0.296875l0.46875 1.1875zm4.3329773 0.484375q-1.078125 0 -1.953125 -0.46875q-0.859375 -0.46875 -1.359375 -1.296875q-0.484375 -0.828125 -0.484375 -1.890625q0 -1.046875 0.484375 -1.875q0.5 -0.828125 1.359375 -1.296875q0.875 -0.46875 1.953125 -0.46875q1.09375 0 1.953125 0.46875q0.875 0.46875 1.359375 1.296875q0.484375 0.828125 0.484375 1.875q0 1.0625 -0.484375 1.890625q-0.484375 0.828125 -1.359375 1.296875q-0.859375 0.46875 -1.953125 0.46875zm0 -1.421875q0.921875 0 1.515625 -0.609375q0.59375 -0.625 0.59375 -1.625q0 -1.0 -0.59375 -1.609375q-0.59375 -0.609375 -1.515625 -0.609375q-0.921875 0 -1.515625 0.609375q-0.59375 0.609375 -0.59375 1.609375q0 1.0 0.59375 1.625q0.59375 0.609375 1.515625 0.609375zm6.971588 -4.75q0.734375 -1.125 2.546875 -1.125l0 1.59375q-0.21875 -0.046875 -0.390625 -0.046875q-0.96875 0 -1.515625 0.578125q-0.546875 0.5625 -0.546875 1.625l0 3.453125l-1.671875 0l0 -7.125l1.578125 0l0 1.046875zm10.573853 2.5625q0 0.171875 -0.03125 0.484375l-5.578125 0q0.140625 0.796875 0.765625 1.265625q0.625 0.453125 1.546875 0.453125q1.171875 0 1.921875 -0.78125l0.890625 1.03125q-0.46875 0.5625 -1.203125 0.859375q-0.734375 0.296875 -1.65625 0.296875q-1.171875 0 -2.0625 -0.46875q-0.890625 -0.46875 -1.390625 -1.296875q-0.484375 -0.828125 -0.484375 -1.890625q0 -1.03125 0.46875 -1.859375q0.484375 -0.84375 1.3125 -1.3125q0.84375 -0.46875 1.90625 -0.46875q1.03125 0 1.84375 0.46875q0.828125 0.453125 1.28125 1.296875q0.46875 0.828125 0.46875 1.921875zm-3.59375 -2.34375q-0.796875 0 -1.359375 0.46875q-0.546875 0.46875 -0.671875 1.265625l4.046875 0q-0.109375 -0.78125 -0.65625 -1.25q-0.546875 -0.484375 -1.359375 -0.484375z" fill-rule="nonzero"/><path fill="#bceeff" d="m290.48636 65.33085l0 0c0 -2.0063934 6.6991577 -3.9306107 18.623688 -5.349346c11.924561 -1.4187355 28.097717 -2.2157745 44.961548 -2.2157745l0 0c35.117188 0 63.585266 3.38702 63.585266 7.5651207l0 0c0 4.1781006 -28.468079 7.5651245 -63.585266 7.5651245l0 0c-35.117157 0 -63.585236 -3.387024 -63.585236 -7.5651245z" fill-rule="evenodd"/><path fill="#92b4d8" d="m379.6146 174.46709l0 0c0 -1.4247284 1.1549683 -2.5796967 2.579712 -2.5796967l410.77762 0c0.68414307 0 1.340332 0.27178955 1.8240967 0.7555847c0.48376465 0.4837799 0.7555542 1.1399384 0.7555542 1.8241119l0 43.313034c0 1.4247437 -1.1549683 2.579712 -2.5796509 2.579712l-410.77762 0c-1.4247437 0 -2.579712 -1.1549683 -2.579712 -2.579712z" fill-rule="evenodd"/><path fill="#497f6d" d="m596.9932 207.16296l0 -1.203125l1.203125 0l0 1.203125l-1.203125 0zm4.0 0l0 -1.203125l1.203125 0l0 1.203125l-1.203125 0zm4.0 0l0 -1.203125l1.203125 0l0 1.203125l-1.203125 0zm4.0 0l0 -1.203125l1.203125 0l0 1.203125l-1.203125 0zm4.0 0l0 -1.203125l1.203125 0l0 1.203125l-1.203125 0zm4.0 0l0 -1.203125l1.203125 0l0 1.203125l-1.203125 0zm3.6875 0l0 -1.203125l1.203125 0l0 1.203125l-1.203125 0zm3.3339844 0l0 -1.203125l1.203125 0l0 1.203125l-1.203125 0z" fill-rule="nonzero"/><path fill="#92b4d8" d="m334.59558 304.98752l0 0c0 -4.030731 3.267517 -7.2982483 7.2982483 -7.2982483l252.3641 0c1.9356079 0 3.7919312 0.7689209 5.1606445 2.1376038c1.3687134 1.3686829 2.1376343 3.2250366 2.1376343 5.1606445l0 122.53732c0 4.030731 -3.2675781 7.298279 -7.298279 7.298279l-252.3641 0c-4.030731 0 -7.2982483 -3.2675476 -7.2982483 -7.298279z" fill-rule="evenodd"/><path fill="#92b4d8" d="m443.65402 377.1866l0 0c0 -1.1960449 0.9696045 -2.1656494 2.16568 -2.1656494l130.72375 0c0.57440186 0 1.1252441 0.22814941 1.5313721 0.63430786c0.40612793 0.40612793 0.6343384 0.9569702 0.6343384 1.5313416l0 36.361572c0 1.1960754 -0.9696045 2.16568 -2.1657104 2.16568l-130.72375 0l0 0c-1.1960754 0 -2.16568 -0.9696045 -2.16568 -2.16568z" fill-rule="evenodd"/><path stroke="#6fa8dc" stroke-width="1.0" stroke-linejoin="round" stroke-linecap="butt" d="m443.65402 377.1866l0 0c0 -1.1960449 0.9696045 -2.1656494 2.16568 -2.1656494l130.72375 0c0.57440186 0 1.1252441 0.22814941 1.5313721 0.63430786c0.40612793 0.40612793 0.6343384 0.9569702 0.6343384 1.5313416l0 36.361572c0 1.1960754 -0.9696045 2.16568 -2.1657104 2.16568l-130.72375 0l0 0c-1.1960754 0 -2.16568 -0.9696045 -2.16568 -2.16568z" fill-rule="evenodd"/><path fill="#ffffff" d="m470.9209 403.7859l-3.6875 1.375l3.6875 1.375l0 1.109375l-4.921875 -1.90625l0 -1.15625l4.921875 -1.90625l0 1.109375zm3.9903564 5.21875q-0.859375 0 -1.671875 -0.25q-0.796875 -0.25 -1.265625 -0.640625l0.484375 -1.078125q0.453125 0.359375 1.109375 0.59375q0.671875 0.21875 1.34375 0.21875q0.828125 0 1.234375 -0.265625q0.421875 -0.265625 0.421875 -0.703125q0 -0.3125 -0.234375 -0.515625q-0.234375 -0.21875 -0.59375 -0.328125q-0.34375 -0.125 -0.9375 -0.28125q-0.859375 -0.1875 -1.390625 -0.390625q-0.515625 -0.203125 -0.90625 -0.640625q-0.375 -0.4375 -0.375 -1.171875q0 -0.609375 0.328125 -1.109375q0.34375 -0.515625 1.015625 -0.8125q0.6875 -0.296875 1.65625 -0.296875q0.6875 0 1.34375 0.171875q0.671875 0.171875 1.140625 0.484375l-0.4375 1.078125q-0.484375 -0.28125 -1.015625 -0.4375q-0.53125 -0.15625 -1.03125 -0.15625q-0.828125 0 -1.234375 0.28125q-0.390625 0.28125 -0.390625 0.734375q0 0.328125 0.21875 0.53125q0.234375 0.203125 0.578125 0.328125q0.359375 0.109375 0.96875 0.25q0.828125 0.1875 1.359375 0.40625q0.546875 0.203125 0.921875 0.640625q0.375 0.421875 0.375 1.140625q0 0.625 -0.34375 1.125q-0.328125 0.5 -1.015625 0.796875q-0.671875 0.296875 -1.65625 0.296875zm9.6091 -2.921875q0 0.140625 -0.015625 0.390625l-4.46875 0q0.125 0.625 0.609375 1.0q0.5 0.359375 1.234375 0.359375q0.9375 0 1.546875 -0.609375l0.71875 0.8125q-0.390625 0.46875 -0.984375 0.703125q-0.578125 0.234375 -1.3125 0.234375q-0.9375 0 -1.65625 -0.375q-0.703125 -0.375 -1.09375 -1.03125q-0.390625 -0.671875 -0.390625 -1.515625q0 -0.828125 0.375 -1.5q0.375 -0.671875 1.046875 -1.03125q0.671875 -0.375 1.515625 -0.375q0.828125 0 1.484375 0.375q0.65625 0.359375 1.015625 1.03125q0.375 0.65625 0.375 1.53125zm-2.875 -1.875q-0.640625 0 -1.078125 0.375q-0.4375 0.375 -0.546875 1.015625l3.234375 0q-0.078125 -0.625 -0.515625 -1.0q-0.4375 -0.390625 -1.09375 -0.390625zm5.4251404 -0.171875q0.578125 -0.890625 2.03125 -0.890625l0 1.265625q-0.171875 -0.03125 -0.3125 -0.03125q-0.78125 0 -1.21875 0.453125q-0.4375 0.453125 -0.4375 1.296875l0 2.765625l-1.328125 0l0 -5.6875l1.265625 0l0 0.828125zm3.1567078 -0.828125l1.328125 0l0 5.6875l-1.328125 0l0 -5.6875zm0.65625 -0.9375q-0.359375 0 -0.609375 -0.234375q-0.234375 -0.234375 -0.234375 -0.5625q0 -0.34375 0.234375 -0.578125q0.25 -0.234375 0.609375 -0.234375q0.375 0 0.609375 0.21875q0.25 0.21875 0.25 0.5625q0 0.34375 -0.25 0.59375q-0.234375 0.234375 -0.609375 0.234375zm4.5953064 0.875q1.265625 0 1.921875 0.609375q0.671875 0.59375 0.671875 1.8125l0 3.328125l-1.265625 0l0 -0.6875q-0.234375 0.375 -0.6875 0.578125q-0.453125 0.1875 -1.09375 0.1875q-0.640625 0 -1.125 -0.21875q-0.484375 -0.21875 -0.75 -0.609375q-0.25 -0.390625 -0.25 -0.875q0 -0.765625 0.5625 -1.234375q0.578125 -0.46875 1.796875 -0.46875l1.484375 0l0 -0.078125q0 -0.59375 -0.359375 -0.90625q-0.359375 -0.328125 -1.0625 -0.328125q-0.484375 0 -0.953125 0.15625q-0.453125 0.140625 -0.78125 0.40625l-0.515625 -0.96875q0.453125 -0.34375 1.078125 -0.515625q0.625 -0.1875 1.328125 -0.1875zm-0.1875 4.859375q0.515625 0 0.890625 -0.234375q0.390625 -0.234375 0.5625 -0.65625l0 -0.65625l-1.375 0q-1.15625 0 -1.15625 0.75q0 0.359375 0.28125 0.578125q0.296875 0.21875 0.796875 0.21875zm4.4840393 -7.015625l1.328125 0l0 7.90625l-1.328125 0l0 -7.90625zm3.0796814 2.21875l1.328125 0l0 5.6875l-1.328125 0l0 -5.6875zm0.65625 -0.9375q-0.359375 0 -0.609375 -0.234375q-0.234375 -0.234375 -0.234375 -0.5625q0 -0.34375 0.234375 -0.578125q0.25 -0.234375 0.609375 -0.234375q0.375 0 0.609375 0.21875q0.25 0.21875 0.25 0.5625q0 0.34375 -0.25 0.59375q-0.234375 0.234375 -0.609375 0.234375zm6.8609314 5.5625l0 1.0625l-4.90625 0l0 -0.84375l3.125 -3.78125l-3.0625 0l0 -1.0625l4.765625 0l0 0.84375l-3.140625 3.78125l3.21875 0zm6.490143 -1.75q0 0.140625 -0.015625 0.390625l-4.46875 0q0.125 0.625 0.609375 1.0q0.5 0.359375 1.234375 0.359375q0.9375 0 1.546875 -0.609375l0.71875 0.8125q-0.390625 0.46875 -0.984375 0.703125q-0.578125 0.234375 -1.3125 0.234375q-0.9375 0 -1.65625 -0.375q-0.7031555 -0.375 -1.0937805 -1.03125q-0.390625 -0.671875 -0.390625 -1.515625q0 -0.828125 0.375 -1.5q0.375 -0.671875 1.0469055 -1.03125q0.671875 -0.375 1.515625 -0.375q0.828125 0 1.484375 0.375q0.65625 0.359375 1.015625 1.03125q0.375 0.65625 0.375 1.53125zm-2.875 -1.875q-0.640625 0 -1.078125 0.375q-0.4375 0.375 -0.546875 1.015625l3.234375 0q-0.078125 -0.625 -0.515625 -1.0q-0.4375 -0.390625 -1.09375 -0.390625zm9.73761 -3.21875l0 7.90625l-1.28125 0l0 -0.734375q-0.328125 0.40625 -0.8125 0.609375q-0.484375 0.203125 -1.078125 0.203125q-0.8125 0 -1.46875 -0.359375q-0.65625 -0.375 -1.03125 -1.03125q-0.375 -0.671875 -0.375 -1.53125q0 -0.859375 0.375 -1.515625q0.375 -0.671875 1.03125 -1.03125q0.65625 -0.359375 1.46875 -0.359375q0.5625 0 1.03125 0.1875q0.46875 0.1875 0.796875 0.578125l0 -2.921875l1.34375 0zm-3.015625 6.84375q0.484375 0 0.859375 -0.21875q0.390625 -0.21875 0.609375 -0.625q0.234375 -0.40625 0.234375 -0.9375q0 -0.53125 -0.234375 -0.9375q-0.21875 -0.40625 -0.609375 -0.625q-0.375 -0.21875 -0.859375 -0.21875q-0.46875 0 -0.859375 0.21875q-0.390625 0.21875 -0.609375 0.625q-0.21875 0.40625 -0.21875 0.9375q0 0.53125 0.21875 0.9375q0.21875 0.40625 0.609375 0.625q0.390625 0.21875 0.859375 0.21875zm14.68396 1.0625l-0.015625 -4.9375l-2.453125 4.078125l-0.609375 0l-2.453125 -4.015625l0 4.875l-1.328125 0l0 -7.453125l1.140625 0l2.96875 4.9375l2.90625 -4.9375l1.140625 0l0.015625 7.453125l-1.3125 0zm5.754944 0.078125q-0.875 0 -1.5625 -0.375q-0.6875 -0.375 -1.078125 -1.03125q-0.390625 -0.671875 -0.390625 -1.515625q0 -0.84375 0.390625 -1.5q0.390625 -0.671875 1.078125 -1.03125q0.6875 -0.375 1.5625 -0.375q0.875 0 1.5625 0.375q0.6875 0.359375 1.078125 1.03125q0.390625 0.65625 0.390625 1.5q0 0.84375 -0.390625 1.515625q-0.390625 0.65625 -1.078125 1.03125q-0.6875 0.375 -1.5625 0.375zm0 -1.140625q0.734375 0 1.203125 -0.484375q0.484375 -0.5 0.484375 -1.296875q0 -0.796875 -0.484375 -1.28125q-0.46875 -0.5 -1.203125 -0.5q-0.734375 0 -1.21875 0.5q-0.46875 0.484375 -0.46875 1.28125q0 0.796875 0.46875 1.296875q0.484375 0.484375 1.21875 0.484375zm9.478943 -4.625l-2.4375 5.6875l-1.375 0l-2.4375 -5.6875l1.375 0l1.765625 4.21875l1.828125 -4.21875l1.28125 0zm6.0150146 2.875q0 0.140625 -0.015625 0.390625l-4.46875 0q0.125 0.625 0.609375 1.0q0.5 0.359375 1.234375 0.359375q0.9375 0 1.546875 -0.609375l0.71875 0.8125q-0.390625 0.46875 -0.984375 0.703125q-0.578125 0.234375 -1.3125 0.234375q-0.9375 0 -1.65625 -0.375q-0.703125 -0.375 -1.09375 -1.03125q-0.390625 -0.671875 -0.390625 -1.515625q0 -0.828125 0.375 -1.5q0.375 -0.671875 1.046875 -1.03125q0.671875 -0.375 1.515625 -0.375q0.828125 0 1.484375 0.375q0.65625 0.359375 1.015625 1.03125q0.375 0.65625 0.375 1.53125zm-2.875 -1.875q-0.640625 0 -1.078125 0.375q-0.4375 0.375 -0.546875 1.015625l3.234375 0q-0.078125 -0.625 -0.515625 -1.0q-0.4375 -0.390625 -1.09375 -0.390625z" fill-rule="nonzero"/><path fill="#ffffff" d="m500.55853 414.44214l-3.25 7.453125l-1.375 0l-3.25 -7.453125l1.5 0l2.484375 5.75l2.5 -5.75l1.390625 0zm2.4005432 1.703125q1.265625 0 1.921875 0.609375q0.671875 0.59375 0.671875 1.8125l0 3.328125l-1.265625 0l0 -0.6875q-0.234375 0.375 -0.6875 0.578125q-0.453125 0.1875 -1.09375 0.1875q-0.640625 0 -1.125 -0.21875q-0.484375 -0.21875 -0.75 -0.609375q-0.25 -0.390625 -0.25 -0.875q0 -0.765625 0.5625 -1.234375q0.578125 -0.46875 1.796875 -0.46875l1.484375 0l0 -0.078125q0 -0.59375 -0.359375 -0.90625q-0.359375 -0.328125 -1.0625 -0.328125q-0.484375 0 -0.953125 0.15625q-0.453125 0.140625 -0.78125 0.40625l-0.515625 -0.96875q0.453125 -0.34375 1.078125 -0.515625q0.625 -0.1875 1.328125 -0.1875zm-0.1875 4.859375q0.515625 0 0.890625 -0.234375q0.390625 -0.234375 0.5625 -0.65625l0 -0.65625l-1.375 0q-1.15625 0 -1.15625 0.75q0 0.359375 0.28125 0.578125q0.296875 0.21875 0.796875 0.21875zm4.4840393 -7.015625l1.328125 0l0 7.90625l-1.328125 0l0 -7.90625zm8.595337 2.21875l0 5.6875l-1.28125 0l0 -0.71875q-0.3125 0.375 -0.796875 0.59375q-0.46875 0.203125 -1.03125 0.203125q-1.1406555 0 -1.7969055 -0.625q-0.65625 -0.640625 -0.65625 -1.890625l0 -3.25l1.328125 0l0 3.0625q0 0.765625 0.34375 1.15625q0.35940552 0.375 1.0000305 0.375q0.703125 0 1.125 -0.4375q0.421875 -0.453125 0.421875 -1.28125l0 -2.875l1.34375 0zm7.085083 2.875q0 0.140625 -0.015625 0.390625l-4.46875 0q0.125 0.625 0.609375 1.0q0.5 0.359375 1.234375 0.359375q0.9375 0 1.546875 -0.609375l0.71875 0.8125q-0.390625 0.46875 -0.984375 0.703125q-0.578125 0.234375 -1.3125 0.234375q-0.9375 0 -1.65625 -0.375q-0.703125 -0.375 -1.09375 -1.03125q-0.390625 -0.671875 -0.390625 -1.515625q0 -0.828125 0.375 -1.5q0.375 -0.671875 1.046875 -1.03125q0.671875 -0.375 1.515625 -0.375q0.828125 0 1.484375 0.375q0.65625 0.359375 1.015625 1.03125q0.375 0.65625 0.375 1.53125zm-2.875 -1.875q-0.640625 0 -1.078125 0.375q-0.4375 0.375 -0.546875 1.015625l3.234375 0q-0.078125 -0.625 -0.515625 -1.0q-0.4375 -0.390625 -1.09375 -0.390625zm8.89386 0.375l0 1.15625l-4.921875 1.90625l0 -1.109375l3.6875 -1.375l-3.6875 -1.375l0 -1.109375l4.921875 1.90625z" fill-rule="nonzero"/><path fill="#8885f7" fill-opacity="0.7821" d="m128.40851 163.77933l0 0c0 -4.928131 3.9950562 -8.923172 8.923187 -8.923172l101.208755 0c2.3665771 0 4.636215 0.94010925 6.3096466 2.6135406c1.6734161 1.6734161 2.6135406 3.9430542 2.6135406 6.3096313l0 212.45285c0 4.928131 -3.9950562 8.923187 -8.923187 8.923187l-101.208755 0c-4.928131 0 -8.923187 -3.9950562 -8.923187 -8.923187z" fill-rule="evenodd"/><path fill="#000000" fill-opacity="0.0" d="m340.9357 310.71472l124.91339 0l0 64.31494l-124.91339 0z" fill-rule="evenodd"/><path fill="#ffffff" d="m353.13882 327.5172l-1.0 0.9375l0 1.5l-1.328125 0l0 -7.90625l1.328125 0l0 4.765625l2.765625 -2.546875l1.59375 0l-2.375 2.390625l2.59375 3.296875l-1.609375 0l-1.96875 -2.4375zm9.558411 -0.375q0 0.140625 -0.015625 0.390625l-4.46875 0q0.125 0.625 0.609375 1.0q0.5 0.359375 1.234375 0.359375q0.9375 0 1.546875 -0.609375l0.71875 0.8125q-0.390625 0.46875 -0.984375 0.703125q-0.578125 0.234375 -1.3125 0.234375q-0.9375 0 -1.65625 -0.375q-0.703125 -0.375 -1.09375 -1.03125q-0.390625 -0.671875 -0.390625 -1.515625q0 -0.828125 0.375 -1.5q0.375 -0.671875 1.046875 -1.03125q0.671875 -0.375 1.515625 -0.375q0.828125 0 1.484375 0.375q0.65625 0.359375 1.015625 1.03125q0.375 0.65625 0.375 1.53125zm-2.875 -1.875q-0.640625 0 -1.078125 0.375q-0.4375 0.375 -0.546875 1.015625l3.234375 0q-0.078125 -0.625 -0.515625 -1.0q-0.4375 -0.390625 -1.09375 -0.390625zm9.380951 -1.0l-2.671875 6.140625q-0.359375 0.9375 -0.90625 1.3125q-0.53125 0.375 -1.28125 0.375q-0.421875 0 -0.84375 -0.140625q-0.421875 -0.140625 -0.6875 -0.375l0.546875 -0.984375q0.1875 0.1875 0.4375 0.28125q0.265625 0.109375 0.53125 0.109375q0.359375 0 0.578125 -0.1875q0.234375 -0.171875 0.421875 -0.59375l0.09375 -0.234375l-2.46875 -5.703125l1.375 0l1.796875 4.203125l1.796875 -4.203125l1.28125 0z" fill-rule="nonzero"/><path fill="#ffffff" d="m352.5607 343.03284q-0.6875 0 -1.34375 -0.171875q-0.65625 -0.1875 -1.0625 -0.46875l0.515625 -1.015625q0.390625 0.25 0.921875 0.40625q0.53125 0.15625 1.0625 0.15625q1.1875 0 1.1875 -0.625q0 -0.296875 -0.3125 -0.40625q-0.296875 -0.125 -0.96875 -0.234375q-0.703125 -0.109375 -1.140625 -0.25q-0.4375 -0.140625 -0.765625 -0.484375q-0.328125 -0.34375 -0.328125 -0.953125q0 -0.8125 0.671875 -1.296875q0.6875 -0.484375 1.84375 -0.484375q0.578125 0 1.15625 0.140625q0.59375 0.125 0.96875 0.34375l-0.515625 1.015625q-0.71875 -0.421875 -1.625 -0.421875q-0.59375 0 -0.90625 0.171875q-0.296875 0.171875 -0.296875 0.46875q0 0.3125 0.328125 0.453125q0.328125 0.125 1.015625 0.25q0.671875 0.09375 1.109375 0.234375q0.4375 0.140625 0.75 0.46875q0.328125 0.328125 0.328125 0.9375q0 0.796875 -0.703125 1.28125q-0.6875 0.484375 -1.890625 0.484375zm9.081787 -2.890625q0 0.140625 -0.015625 0.390625l-4.46875 0q0.125 0.625 0.609375 1.0q0.5 0.359375 1.234375 0.359375q0.9375 0 1.546875 -0.609375l0.71875 0.8125q-0.390625 0.46875 -0.984375 0.703125q-0.578125 0.234375 -1.3125 0.234375q-0.9375 0 -1.65625 -0.375q-0.703125 -0.375 -1.09375 -1.03125q-0.390625 -0.671875 -0.390625 -1.515625q0 -0.828125 0.375 -1.5q0.375 -0.671875 1.046875 -1.03125q0.671875 -0.375 1.515625 -0.375q0.828125 0 1.484375 0.375q0.65625 0.359375 1.015625 1.03125q0.375 0.65625 0.375 1.53125zm-2.875 -1.875q-0.640625 0 -1.078125 0.375q-0.4375 0.375 -0.546875 1.015625l3.234375 0q-0.078125 -0.625 -0.515625 -1.0q-0.4375 -0.390625 -1.09375 -0.390625zm9.721985 -1.0l0 7.75l-1.328125 0l0 -2.75q-0.671875 0.765625 -1.828125 0.765625q-0.828125 0 -1.484375 -0.359375q-0.65625 -0.375 -1.03125 -1.03125q-0.359375 -0.65625 -0.359375 -1.53125q0 -0.859375 0.375 -1.515625q0.375 -0.671875 1.015625 -1.03125q0.65625 -0.359375 1.484375 -0.359375q0.59375 0 1.078125 0.203125q0.484375 0.203125 0.8125 0.609375l0 -0.75l1.265625 0zm-3.0 4.625q0.734375 0 1.203125 -0.484375q0.484375 -0.5 0.484375 -1.296875q0 -0.796875 -0.484375 -1.28125q-0.46875 -0.5 -1.203125 -0.5q-0.734375 0 -1.21875 0.5q-0.46875 0.484375 -0.46875 1.28125q0 0.796875 0.46875 1.296875q0.484375 0.484375 1.21875 0.484375zm10.263397 -4.625l0 5.6875l-1.28125 0l0 -0.71875q-0.3125 0.375 -0.796875 0.59375q-0.46875 0.203125 -1.03125 0.203125q-1.140625 0 -1.796875 -0.625q-0.65625 -0.640625 -0.65625 -1.890625l0 -3.25l1.328125 0l0 3.0625q0 0.765625 0.34375 1.15625q0.359375 0.375 1.0 0.375q0.703125 0 1.125 -0.4375q0.421875 -0.453125 0.421875 -1.28125l0 -2.875l1.34375 0zm7.085083 2.875q0 0.140625 -0.015625 0.390625l-4.46875 0q0.125 0.625 0.609375 1.0q0.5 0.359375 1.234375 0.359375q0.9375 0 1.546875 -0.609375l0.71875 0.8125q-0.390625 0.46875 -0.984375 0.703125q-0.578125 0.234375 -1.3125 0.234375q-0.9375 0 -1.65625 -0.375q-0.703125 -0.375 -1.09375 -1.03125q-0.390625 -0.671875 -0.390625 -1.515625q0 -0.828125 0.375 -1.5q0.375 -0.671875 1.046875 -1.03125q0.671875 -0.375 1.515625 -0.375q0.828125 0 1.484375 0.375q0.65625 0.359375 1.015625 1.03125q0.375 0.65625 0.375 1.53125zm-2.875 -1.875q-0.640625 0 -1.078125 0.375q-0.4375 0.375 -0.546875 1.015625l3.234375 0q-0.078125 -0.625 -0.515625 -1.0q-0.4375 -0.390625 -1.09375 -0.390625zm7.3938904 -1.0625q1.0625 0 1.71875 0.625q0.65625 0.625 0.65625 1.859375l0 3.265625l-1.34375 0l0 -3.09375q0 -0.75 -0.359375 -1.125q-0.34375 -0.375 -0.984375 -0.375q-0.734375 0 -1.171875 0.453125q-0.421875 0.4375 -0.421875 1.265625l0 2.875l-1.328125 0l0 -5.6875l1.265625 0l0 0.734375q0.328125 -0.390625 0.828125 -0.59375q0.5 -0.203125 1.140625 -0.203125zm6.727936 5.828125q-0.890625 0 -1.59375 -0.375q-0.703125 -0.375 -1.09375 -1.03125q-0.390625 -0.671875 -0.390625 -1.515625q0 -0.84375 0.390625 -1.5q0.390625 -0.671875 1.09375 -1.03125q0.703125 -0.375 1.59375 -0.375q0.84375 0 1.46875 0.34375q0.640625 0.328125 0.96875 0.96875l-1.03125 0.59375q-0.25 -0.390625 -0.625 -0.578125q-0.359375 -0.203125 -0.796875 -0.203125q-0.734375 0 -1.234375 0.484375q-0.484375 0.484375 -0.484375 1.296875q0 0.8125 0.484375 1.296875q0.484375 0.484375 1.234375 0.484375q0.4375 0 0.796875 -0.1875q0.375 -0.203125 0.625 -0.609375l1.03125 0.609375q-0.34375 0.625 -0.984375 0.984375q-0.625 0.34375 -1.453125 0.34375zm8.840393 -2.890625q0 0.140625 -0.015625 0.390625l-4.46875 0q0.125 0.625 0.609375 1.0q0.5 0.359375 1.234375 0.359375q0.9375 0 1.546875 -0.609375l0.71875 0.8125q-0.390625 0.46875 -0.984375 0.703125q-0.578125 0.234375 -1.3125 0.234375q-0.9375 0 -1.65625 -0.375q-0.703125 -0.375 -1.09375 -1.03125q-0.390625 -0.671875 -0.390625 -1.515625q0 -0.828125 0.375 -1.5q0.375 -0.671875 1.046875 -1.03125q0.671875 -0.375 1.515625 -0.375q0.828125 0 1.484375 0.375q0.65625 0.359375 1.015625 1.03125q0.375 0.65625 0.375 1.53125zm-2.875 -1.875q-0.640625 0 -1.078125 0.375q-0.4375 0.375 -0.546875 1.015625l3.234375 0q-0.078125 -0.625 -0.515625 -1.0q-0.4375 -0.390625 -1.09375 -0.390625zm6.225647 4.6875l5.328125 0l0 0.8125l-5.328125 0l0 -0.8125zm9.437561 -5.75q1.0625 0 1.71875 0.625q0.65625 0.625 0.65625 1.859375l0 3.265625l-1.34375 0l0 -3.09375q0 -0.75 -0.359375 -1.125q-0.34375 -0.375 -0.984375 -0.375q-0.734375 0 -1.171875 0.453125q-0.421875 0.4375 -0.421875 1.265625l0 2.875l-1.328125 0l0 -5.6875l1.265625 0l0 0.734375q0.328125 -0.390625 0.828125 -0.59375q0.5 -0.203125 1.140625 -0.203125zm9.580872 0.0625l0 5.6875l-1.28125 0l0 -0.71875q-0.3125 0.375 -0.796875 0.59375q-0.46875 0.203125 -1.03125 0.203125q-1.140625 0 -1.796875 -0.625q-0.65625 -0.640625 -0.65625 -1.890625l0 -3.25l1.328125 0l0 3.0625q0 0.765625 0.34375 1.15625q0.359375 0.375 1.0 0.375q0.703125 0 1.125 -0.4375q0.421875 -0.453125 0.421875 -1.28125l0 -2.875l1.34375 0zm8.928833 -0.0625q1.0625 0 1.6875 0.625q0.640625 0.625 0.640625 1.859375l0 3.265625l-1.328125 0l0 -3.09375q0 -0.75 -0.34375 -1.125q-0.328125 -0.375 -0.9375 -0.375q-0.671875 0 -1.078125 0.453125q-0.40625 0.4375 -0.40625 1.25l0 2.890625l-1.328125 0l0 -3.09375q0 -0.75 -0.328125 -1.125q-0.328125 -0.375 -0.953125 -0.375q-0.6875 0 -1.09375 0.4375q-0.390625 0.4375 -0.390625 1.265625l0 2.890625l-1.328125 0l0 -5.6875l1.265625 0l0 0.71875q0.328125 -0.375 0.796875 -0.578125q0.484375 -0.203125 1.0625 -0.203125q0.640625 0 1.140625 0.234375q0.5 0.234375 0.78125 0.703125q0.359375 -0.4375 0.90625 -0.6875q0.5625 -0.25 1.234375 -0.25zm7.189911 0q0.828125 0 1.484375 0.359375q0.65625 0.359375 1.03125 1.03125q0.375 0.65625 0.375 1.515625q0 0.859375 -0.375 1.53125q-0.375 0.65625 -1.03125 1.03125q-0.65625 0.359375 -1.484375 0.359375q-0.59375 0 -1.078125 -0.203125q-0.484375 -0.203125 -0.8125 -0.609375l0 0.734375l-1.265625 0l0 -7.90625l1.328125 0l0 2.90625q0.34375 -0.375 0.796875 -0.5625q0.46875 -0.1875 1.03125 -0.1875zm-0.15625 4.6875q0.734375 0 1.203125 -0.484375q0.484375 -0.5 0.484375 -1.296875q0 -0.796875 -0.484375 -1.28125q-0.46875 -0.5 -1.203125 -0.5q-0.46875 0 -0.859375 0.21875q-0.390625 0.21875 -0.609375 0.625q-0.21875 0.40625 -0.21875 0.9375q0 0.53125 0.21875 0.9375q0.21875 0.40625 0.609375 0.625q0.390625 0.21875 0.859375 0.21875zm9.653992 -1.75q0 0.140625 -0.015625 0.390625l-4.46875 0q0.125 0.625 0.609375 1.0q0.5 0.359375 1.234375 0.359375q0.9375 0 1.546875 -0.609375l0.71875 0.8125q-0.390625 0.46875 -0.984375 0.703125q-0.578125 0.234375 -1.3125 0.234375q-0.9375 0 -1.65625 -0.375q-0.703125 -0.375 -1.09375 -1.03125q-0.390625 -0.671875 -0.390625 -1.515625q0 -0.828125 0.375 -1.5q0.375 -0.671875 1.046875 -1.03125q0.671875 -0.375 1.515625 -0.375q0.828125 0 1.484375 0.375q0.65625 0.359375 1.015625 1.03125q0.375 0.65625 0.375 1.53125zm-2.875 -1.875q-0.640625 0 -1.078125 0.375q-0.4375 0.375 -0.546875 1.015625l3.234375 0q-0.078125 -0.625 -0.515625 -1.0q-0.4375 -0.390625 -1.09375 -0.390625zm5.4251404 -0.171875q0.578125 -0.890625 2.03125 -0.890625l0 1.265625q-0.171875 -0.03125 -0.3125 -0.03125q-0.78125 0 -1.21875 0.453125q-0.4375 0.453125 -0.4375 1.296875l0 2.765625l-1.328125 0l0 -5.6875l1.265625 0l0 0.828125z" fill-rule="nonzero"/><path fill="#ffffff" d="m352.45132 349.67346l-2.46875 0l0 -1.171875l6.328125 0l0 1.171875l-2.46875 0l0 6.28125l-1.390625 0l0 -6.28125zm9.750641 0.59375l-2.671875 6.140625q-0.359375 0.9375 -0.90625 1.3125q-0.53125 0.375 -1.28125 0.375q-0.421875 0 -0.84375 -0.140625q-0.421875 -0.140625 -0.6875 -0.375l0.546875 -0.984375q0.1875 0.1875 0.4375 0.28125q0.265625 0.109375 0.53125 0.109375q0.359375 0 0.578125 -0.1875q0.234375 -0.171875 0.421875 -0.59375l0.09375 -0.234375l-2.46875 -5.703125l1.375 0l1.796875 4.203125l1.796875 -4.203125l1.28125 0zm3.9874878 -0.0625q0.828125 0 1.484375 0.359375q0.65625 0.359375 1.03125 1.03125q0.375 0.65625 0.375 1.515625q0 0.859375 -0.375 1.53125q-0.375 0.65625 -1.03125 1.03125q-0.65625 0.359375 -1.484375 0.359375q-1.15625 0 -1.828125 -0.765625l0 2.75l-1.328125 0l0 -7.75l1.265625 0l0 0.75q0.328125 -0.40625 0.8125 -0.609375q0.484375 -0.203125 1.078125 -0.203125zm-0.15625 4.6875q0.734375 0 1.203125 -0.484375q0.484375 -0.5 0.484375 -1.296875q0 -0.796875 -0.484375 -1.28125q-0.46875 -0.5 -1.203125 -0.5q-0.46875 0 -0.859375 0.21875q-0.390625 0.21875 -0.609375 0.625q-0.21875 0.40625 -0.21875 0.9375q0 0.53125 0.21875 0.9375q0.21875 0.40625 0.609375 0.625q0.390625 0.21875 0.859375 0.21875zm9.654022 -1.75q0 0.140625 -0.015625 0.390625l-4.46875 0q0.125 0.625 0.609375 1.0q0.5 0.359375 1.234375 0.359375q0.9375 0 1.546875 -0.609375l0.71875 0.8125q-0.390625 0.46875 -0.984375 0.703125q-0.578125 0.234375 -1.3125 0.234375q-0.9375 0 -1.65625 -0.375q-0.703125 -0.375 -1.09375 -1.03125q-0.390625 -0.671875 -0.390625 -1.515625q0 -0.828125 0.375 -1.5q0.375 -0.671875 1.046875 -1.03125q0.671875 -0.375 1.515625 -0.375q0.828125 0 1.484375 0.375q0.65625 0.359375 1.015625 1.03125q0.375 0.65625 0.375 1.53125zm-2.875 -1.875q-0.640625 0 -1.078125 0.375q-0.4375 0.375 -0.546875 1.015625l3.234375 0q-0.078125 -0.625 -0.515625 -1.0q-0.4375 -0.390625 -1.09375 -0.390625zm3.2098389 4.6875l5.328125 0l0 0.8125l-5.328125 0l0 -0.8125zm9.411713 -0.3125q-0.234375 0.1875 -0.578125 0.296875q-0.328125 0.09375 -0.703125 0.09375q-0.9375 0 -1.453125 -0.484375q-0.5 -0.5 -0.5 -1.4375l0 -2.734375l-0.9375 0l0 -1.0625l0.9375 0l0 -1.3125l1.328125 0l0 1.3125l1.515625 0l0 1.0625l-1.515625 0l0 2.703125q0 0.421875 0.203125 0.640625q0.203125 0.21875 0.578125 0.21875q0.453125 0 0.75 -0.234375l0.375 0.9375zm3.2683105 -5.4375q1.265625 0 1.921875 0.609375q0.671875 0.59375 0.671875 1.8125l0 3.328125l-1.265625 0l0 -0.6875q-0.234375 0.375 -0.6875 0.578125q-0.453125 0.1875 -1.09375 0.1875q-0.640625 0 -1.125 -0.21875q-0.484375 -0.21875 -0.75 -0.609375q-0.25 -0.390625 -0.25 -0.875q0 -0.765625 0.5625 -1.234375q0.578125 -0.46875 1.796875 -0.46875l1.484375 0l0 -0.078125q0 -0.59375 -0.359375 -0.90625q-0.359375 -0.328125 -1.0625 -0.328125q-0.484375 0 -0.953125 0.15625q-0.453125 0.140625 -0.78125 0.40625l-0.515625 -0.96875q0.453125 -0.34375 1.078125 -0.515625q0.625 -0.1875 1.328125 -0.1875zm-0.1875 4.859375q0.515625 0 0.890625 -0.234375q0.390625 -0.234375 0.5625 -0.65625l0 -0.65625l-1.375 0q-1.15625 0 -1.15625 0.75q0 0.359375 0.28125 0.578125q0.296875 0.21875 0.796875 0.21875zm10.1779785 -4.796875l0 4.828125q0 3.0 -3.0625 3.0q-0.828125 0 -1.5625 -0.21875q-0.734375 -0.203125 -1.203125 -0.59375l0.59375 -1.0q0.375 0.3125 0.9375 0.5q0.578125 0.1875 1.15625 0.1875q0.9375 0 1.375 -0.4375q0.4375 -0.421875 0.4375 -1.296875l0 -0.296875q-0.34375 0.375 -0.828125 0.578125q-0.484375 0.1875 -1.078125 0.1875q-0.8125 0 -1.46875 -0.34375q-0.65625 -0.359375 -1.03125 -0.984375q-0.375 -0.625 -0.375 -1.4375q0 -0.8125 0.375 -1.4375q0.375 -0.625 1.03125 -0.953125q0.65625 -0.34375 1.46875 -0.34375q0.625 0 1.125 0.203125q0.5 0.203125 0.84375 0.609375l0 -0.75l1.265625 0zm-3.03125 4.296875q0.75 0 1.234375 -0.453125q0.5 -0.453125 0.5 -1.171875q0 -0.71875 -0.5 -1.15625q-0.484375 -0.453125 -1.234375 -0.453125q-0.765625 0 -1.25 0.453125q-0.484375 0.4375 -0.484375 1.15625q0 0.71875 0.484375 1.171875q0.484375 0.453125 1.25 0.453125z" fill-rule="nonzero"/><path fill="#ffffff" d="m356.15445 405.1422q0 0.140625 -0.015625 0.390625l-4.46875 0q0.125 0.625 0.609375 1.0q0.5 0.359375 1.234375 0.359375q0.9375 0 1.546875 -0.609375l0.71875 0.8125q-0.390625 0.46875 -0.984375 0.703125q-0.578125 0.234375 -1.3125 0.234375q-0.9375 0 -1.65625 -0.375q-0.703125 -0.375 -1.09375 -1.03125q-0.390625 -0.671875 -0.390625 -1.515625q0 -0.828125 0.375 -1.5q0.375 -0.671875 1.046875 -1.03125q0.671875 -0.375 1.515625 -0.375q0.828125 0 1.484375 0.375q0.65625 0.359375 1.015625 1.03125q0.375 0.65625 0.375 1.53125zm-2.875 -1.875q-0.640625 0 -1.078125 0.375q-0.4375 0.375 -0.546875 1.015625l3.234375 0q-0.078125 -0.625 -0.515625 -1.0q-0.4375 -0.390625 -1.09375 -0.390625zm9.380951 -1.0l-2.4375 5.6875l-1.375 0l-2.4375 -5.6875l1.375 0l1.765625 4.21875l1.828125 -4.21875l1.28125 0zm6.0150146 2.875q0 0.140625 -0.015625 0.390625l-4.46875 0q0.125 0.625 0.609375 1.0q0.5 0.359375 1.234375 0.359375q0.9375 0 1.546875 -0.609375l0.71875 0.8125q-0.390625 0.46875 -0.984375 0.703125q-0.578125 0.234375 -1.3125 0.234375q-0.9375 0 -1.65625 -0.375q-0.703125 -0.375 -1.09375 -1.03125q-0.390625 -0.671875 -0.390625 -1.515625q0 -0.828125 0.375 -1.5q0.375 -0.671875 1.046875 -1.03125q0.671875 -0.375 1.515625 -0.375q0.828125 0 1.484375 0.375q0.65625 0.359375 1.015625 1.03125q0.375 0.65625 0.375 1.53125zm-2.875 -1.875q-0.640625 0 -1.078125 0.375q-0.4375 0.375 -0.546875 1.015625l3.234375 0q-0.078125 -0.625 -0.515625 -1.0q-0.4375 -0.390625 -1.09375 -0.390625zm7.39386 -1.0625q1.0625 0 1.71875 0.625q0.65625 0.625 0.65625 1.859375l0 3.265625l-1.34375 0l0 -3.09375q0 -0.75 -0.359375 -1.125q-0.34375 -0.375 -0.984375 -0.375q-0.734375 0 -1.171875 0.453125q-0.421875 0.4375 -0.421875 1.265625l0 2.875l-1.328125 0l0 -5.6875l1.265625 0l0 0.734375q0.328125 -0.390625 0.828125 -0.59375q0.5 -0.203125 1.140625 -0.203125zm7.4871216 5.4375q-0.234375 0.1875 -0.578125 0.296875q-0.328125 0.09375 -0.703125 0.09375q-0.9375 0 -1.453125 -0.484375q-0.5 -0.5 -0.5 -1.4375l0 -2.734375l-0.9375 0l0 -1.0625l0.9375 0l0 -1.3125l1.328125 0l0 1.3125l1.515625 0l0 1.0625l-1.515625 0l0 2.703125q0 0.421875 0.203125 0.640625q0.203125 0.21875 0.578125 0.21875q0.453125 0 0.75 -0.234375l0.375 0.9375zm0.54141235 0.3125l5.328125 0l0 0.8125l-5.328125 0l0 -0.8125zm11.514648 -7.90625l0 7.90625l-1.28125 0l0 -0.734375q-0.328125 0.40625 -0.8125 0.609375q-0.484375 0.203125 -1.078125 0.203125q-0.8125 0 -1.46875 -0.359375q-0.65625 -0.375 -1.03125 -1.03125q-0.375 -0.671875 -0.375 -1.53125q0 -0.859375 0.375 -1.515625q0.375 -0.671875 1.03125 -1.03125q0.65625 -0.359375 1.46875 -0.359375q0.5625 0 1.03125 0.1875q0.46875 0.1875 0.796875 0.578125l0 -2.921875l1.34375 0zm-3.015625 6.84375q0.484375 0 0.859375 -0.21875q0.390625 -0.21875 0.609375 -0.625q0.234375 -0.40625 0.234375 -0.9375q0 -0.53125 -0.234375 -0.9375q-0.21875 -0.40625 -0.609375 -0.625q-0.375 -0.21875 -0.859375 -0.21875q-0.46875 0 -0.859375 0.21875q-0.390625 0.21875 -0.609375 0.625q-0.21875 0.40625 -0.21875 0.9375q0 0.53125 0.21875 0.9375q0.21875 0.40625 0.609375 0.625q0.390625 0.21875 0.859375 0.21875zm6.930298 -4.6875q1.265625 0 1.921875 0.609375q0.671875 0.59375 0.671875 1.8125l0 3.328125l-1.265625 0l0 -0.6875q-0.234375 0.375 -0.6875 0.578125q-0.453125 0.1875 -1.09375 0.1875q-0.640625 0 -1.125 -0.21875q-0.484375 -0.21875 -0.75 -0.609375q-0.25 -0.390625 -0.25 -0.875q0 -0.765625 0.5625 -1.234375q0.578125 -0.46875 1.796875 -0.46875l1.484375 0l0 -0.078125q0 -0.59375 -0.359375 -0.90625q-0.359375 -0.328125 -1.0625 -0.328125q-0.484375 0 -0.953125 0.15625q-0.453125 0.140625 -0.78125 0.40625l-0.515625 -0.96875q0.453125 -0.34375 1.078125 -0.515625q0.625 -0.1875 1.328125 -0.1875zm-0.1875 4.859375q0.515625 0 0.890625 -0.234375q0.390625 -0.234375 0.5625 -0.65625l0 -0.65625l-1.375 0q-1.15625 0 -1.15625 0.75q0 0.359375 0.28125 0.578125q0.296875 0.21875 0.796875 0.21875zm7.9059143 0.578125q-0.234375 0.1875 -0.578125 0.296875q-0.328125 0.09375 -0.703125 0.09375q-0.9375 0 -1.453125 -0.484375q-0.5 -0.5 -0.5 -1.4375l0 -2.734375l-0.9375 0l0 -1.0625l0.9375 0l0 -1.3125l1.328125 0l0 1.3125l1.515625 0l0 1.0625l-1.515625 0l0 2.703125q0 0.421875 0.203125 0.640625q0.203125 0.21875 0.578125 0.21875q0.453125 0 0.75 -0.234375l0.375 0.9375zm3.2683105 -5.4375q1.265625 0 1.921875 0.609375q0.671875 0.59375 0.671875 1.8125l0 3.328125l-1.265625 0l0 -0.6875q-0.234375 0.375 -0.6875 0.578125q-0.453125 0.1875 -1.09375 0.1875q-0.640625 0 -1.125 -0.21875q-0.484375 -0.21875 -0.75 -0.609375q-0.25 -0.390625 -0.25 -0.875q0 -0.765625 0.5625 -1.234375q0.578125 -0.46875 1.796875 -0.46875l1.484375 0l0 -0.078125q0 -0.59375 -0.359375 -0.90625q-0.359375 -0.328125 -1.0625 -0.328125q-0.484375 0 -0.953125 0.15625q-0.453125 0.140625 -0.78125 0.40625l-0.515625 -0.96875q0.453125 -0.34375 1.078125 -0.515625q0.625 -0.1875 1.328125 -0.1875zm-0.1875 4.859375q0.515625 0 0.890625 -0.234375q0.390625 -0.234375 0.5625 -0.65625l0 -0.65625l-1.375 0q-1.15625 0 -1.15625 0.75q0 0.359375 0.28125 0.578125q0.296875 0.21875 0.796875 0.21875z" fill-rule="nonzero"/><path fill="#000000" fill-opacity="0.0" d="m340.9357 272.32336l124.91339 0l0 13.700806l-124.91339 0z" fill-rule="evenodd"/><path fill="#000000" d="m355.51382 289.90228q-1.390625 0 -2.515625 -0.609375q-1.109375 -0.609375 -1.75 -1.6875q-0.625 -1.09375 -0.625 -2.453125q0 -1.34375 0.625 -2.421875q0.640625 -1.09375 1.765625 -1.703125q1.125 -0.609375 2.5 -0.609375q1.046875 0 1.921875 0.34375q0.890625 0.34375 1.5 1.015625l-0.625 0.625q-1.09375 -1.109375 -2.765625 -1.109375q-1.109375 0 -2.015625 0.515625q-0.90625 0.5 -1.421875 1.390625q-0.5 0.875 -0.5 1.953125q0 1.09375 0.5 1.984375q0.515625 0.875 1.421875 1.390625q0.90625 0.5 2.015625 0.5q1.6875 0 2.765625 -1.125l0.625 0.625q-0.609375 0.671875 -1.5 1.03125q-0.890625 0.34375 -1.921875 0.34375zm7.8855896 -0.015625q-1.015625 0 -1.828125 -0.453125q-0.8125 -0.46875 -1.28125 -1.28125q-0.46875 -0.8125 -0.46875 -1.828125q0 -1.03125 0.46875 -1.84375q0.46875 -0.8125 1.28125 -1.265625q0.8125 -0.453125 1.828125 -0.453125q1.015625 0 1.828125 0.453125q0.8125 0.453125 1.265625 1.265625q0.46875 0.8125 0.46875 1.84375q0 1.015625 -0.46875 1.828125q-0.453125 0.8125 -1.265625 1.28125q-0.8125 0.453125 -1.828125 0.453125zm0 -0.828125q0.75 0 1.34375 -0.34375q0.59375 -0.34375 0.921875 -0.96875q0.328125 -0.625 0.328125 -1.421875q0 -0.8125 -0.328125 -1.4375q-0.328125 -0.625 -0.921875 -0.953125q-0.59375 -0.34375 -1.34375 -0.34375q-0.75 0 -1.34375 0.34375q-0.59375 0.328125 -0.9375 0.953125q-0.328125 0.625 -0.328125 1.4375q0 0.796875 0.328125 1.421875q0.34375 0.625 0.9375 0.96875q0.59375 0.34375 1.34375 0.34375zm9.059845 -6.296875q1.3125 0 2.09375 0.765625q0.78125 0.765625 0.78125 2.234375l0 4.0625l-0.9375 0l0 -3.96875q0 -1.09375 -0.546875 -1.65625q-0.546875 -0.578125 -1.5625 -0.578125q-1.140625 0 -1.796875 0.671875q-0.65625 0.671875 -0.65625 1.859375l0 3.671875l-0.953125 0l0 -7.015625l0.90625 0l0 1.296875q0.390625 -0.640625 1.078125 -0.984375q0.6875 -0.359375 1.59375 -0.359375zm9.148102 6.640625q-0.265625 0.234375 -0.671875 0.359375q-0.390625 0.125 -0.8125 0.125q-0.984375 0 -1.515625 -0.53125q-0.53125 -0.53125 -0.53125 -1.5l0 -4.234375l-1.25 0l0 -0.8125l1.25 0l0 -1.53125l0.9375 0l0 1.53125l2.140625 0l0 0.8125l-2.140625 0l0 4.171875q0 0.625 0.3125 0.953125q0.3125 0.328125 0.90625 0.328125q0.296875 0 0.5625 -0.09375q0.28125 -0.09375 0.46875 -0.265625l0.34375 0.6875zm2.6143188 -5.21875q0.34375 -0.703125 1.0 -1.0625q0.65625 -0.359375 1.625 -0.359375l0 0.921875l-0.21875 -0.015625q-1.109375 0 -1.734375 0.6875q-0.625 0.671875 -0.625 1.890625l0 3.578125l-0.953125 0l0 -7.015625l0.90625 0l0 1.375zm6.7714233 -1.421875q1.375 0 2.109375 0.6875q0.734375 0.6875 0.734375 2.03125l0 4.34375l-0.90625 0l0 -1.09375q-0.3125 0.546875 -0.9375 0.859375q-0.625 0.296875 -1.46875 0.296875q-1.171875 0 -1.875 -0.546875q-0.6875 -0.5625 -0.6875 -1.484375q0 -0.890625 0.640625 -1.4375q0.65625 -0.546875 2.0625 -0.546875l2.234375 0l0 -0.4375q0 -0.90625 -0.515625 -1.375q-0.5 -0.46875 -1.484375 -0.46875q-0.65625 0 -1.28125 0.21875q-0.609375 0.21875 -1.046875 0.609375l-0.421875 -0.71875q0.53125 -0.453125 1.28125 -0.6875q0.75 -0.25 1.5625 -0.25zm-0.328125 6.375q0.796875 0 1.375 -0.359375q0.578125 -0.359375 0.859375 -1.0625l0 -1.140625l-2.203125 0q-1.796875 0 -1.796875 1.25q0 0.609375 0.453125 0.96875q0.46875 0.34375 1.3125 0.34375zm8.671509 0.75q-1.03125 0 -1.859375 -0.453125q-0.8125 -0.453125 -1.28125 -1.265625q-0.46875 -0.828125 -0.46875 -1.84375q0 -1.03125 0.46875 -1.84375q0.46875 -0.8125 1.28125 -1.265625q0.828125 -0.453125 1.859375 -0.453125q0.90625 0 1.625 0.359375q0.71875 0.34375 1.125 1.03125l-0.703125 0.46875q-0.34375 -0.515625 -0.890625 -0.765625q-0.53125 -0.265625 -1.15625 -0.265625q-0.75 0 -1.359375 0.34375q-0.609375 0.328125 -0.953125 0.953125q-0.328125 0.625 -0.328125 1.4375q0 0.8125 0.328125 1.4375q0.34375 0.609375 0.953125 0.953125q0.609375 0.34375 1.359375 0.34375q0.625 0 1.15625 -0.25q0.546875 -0.265625 0.890625 -0.78125l0.703125 0.484375q-0.40625 0.671875 -1.125 1.03125q-0.71875 0.34375 -1.625 0.34375zm8.380585 -0.484375q-0.265625 0.234375 -0.671875 0.359375q-0.390625 0.125 -0.8125 0.125q-0.984375 0 -1.515625 -0.53125q-0.53125 -0.53125 -0.53125 -1.5l0 -4.234375l-1.25 0l0 -0.8125l1.25 0l0 -1.53125l0.9375 0l0 1.53125l2.140625 0l0 0.8125l-2.140625 0l0 4.171875q0 0.625 0.3125 0.953125q0.3125 0.328125 0.90625 0.328125q0.296875 0 0.5625 -0.09375q0.28125 -0.09375 0.46875 -0.265625l0.34375 0.6875zm8.504944 -0.4375l0 0.859375l-6.59375 0l0 -9.328125l6.40625 0l0 0.84375l-5.421875 0l0 3.328125l4.828125 0l0 0.84375l-4.828125 0l0 3.453125l5.609375 0zm7.863556 -6.15625l-3.109375 7.015625l-0.96875 0l-3.109375 -7.015625l0.984375 0l2.625 5.96875l2.65625 -5.96875l0.921875 0zm7.242584 3.796875l-5.859375 0q0.078125 1.09375 0.828125 1.78125q0.765625 0.671875 1.921875 0.671875q0.65625 0 1.203125 -0.234375q0.546875 -0.234375 0.953125 -0.6875l0.53125 0.609375q-0.46875 0.5625 -1.171875 0.859375q-0.703125 0.28125 -1.53125 0.28125q-1.078125 0 -1.921875 -0.453125q-0.828125 -0.46875 -1.296875 -1.28125q-0.46875 -0.8125 -0.46875 -1.828125q0 -1.03125 0.4375 -1.84375q0.453125 -0.8125 1.234375 -1.265625q0.78125 -0.453125 1.75 -0.453125q0.984375 0 1.75 0.453125q0.78125 0.453125 1.21875 1.265625q0.4375 0.796875 0.4375 1.84375l-0.015625 0.28125zm-3.390625 -3.03125q-1.0 0 -1.6875 0.65625q-0.6875 0.640625 -0.78125 1.671875l4.96875 0q-0.09375 -1.03125 -0.78125 -1.671875q-0.6875 -0.65625 -1.71875 -0.65625zm8.909515 -0.8125q1.3125 0 2.09375 0.765625q0.78125 0.765625 0.78125 2.234375l0 4.0625l-0.9375 0l0 -3.96875q0 -1.09375 -0.546875 -1.65625q-0.546875 -0.578125 -1.5625 -0.578125q-1.140625 0 -1.796875 0.671875q-0.65625 0.671875 -0.65625 1.859375l0 3.671875l-0.953125 0l0 -7.015625l0.90625 0l0 1.296875q0.390625 -0.640625 1.078125 -0.984375q0.6875 -0.359375 1.59375 -0.359375zm9.148102 6.640625q-0.265625 0.234375 -0.671875 0.359375q-0.390625 0.125 -0.8125 0.125q-0.984375 0 -1.515625 -0.53125q-0.53125 -0.53125 -0.53125 -1.5l0 -4.234375l-1.25 0l0 -0.8125l1.25 0l0 -1.53125l0.9375 0l0 1.53125l2.140625 0l0 0.8125l-2.140625 0l0 4.171875q0 0.625 0.3125 0.953125q0.3125 0.328125 0.90625 0.328125q0.296875 0 0.5625 -0.09375q0.28125 -0.09375 0.46875 -0.265625l0.34375 0.6875z" fill-rule="nonzero"/><path fill="#000000" fill-opacity="0.0" d="m128.45795 129.34209l124.913376 0l0 13.70079l-124.913376 0z" fill-rule="evenodd"/><path fill="#000000" d="m138.97357 137.51474l0.984375 0l0 8.46875l5.234375 0l0 0.859375l-6.21875 0l0 -9.328125zm7.64711 2.3125l0.953125 0l0 7.015625l-0.953125 0l0 -7.015625zm0.484375 -1.53125q-0.296875 0 -0.5 -0.1875q-0.1875 -0.203125 -0.1875 -0.484375q0 -0.265625 0.1875 -0.46875q0.203125 -0.203125 0.5 -0.203125q0.296875 0 0.484375 0.203125q0.203125 0.1875 0.203125 0.453125q0 0.296875 -0.203125 0.5q-0.1875 0.1875 -0.484375 0.1875zm6.725876 1.484375q0.984375 0 1.78125 0.453125q0.796875 0.4375 1.25 1.25q0.453125 0.8125 0.453125 1.859375q0 1.03125 -0.453125 1.84375q-0.453125 0.8125 -1.25 1.265625q-0.796875 0.453125 -1.78125 0.453125q-0.890625 0 -1.59375 -0.375q-0.6875 -0.375 -1.125 -1.078125l0 1.390625l-0.90625 0l0 -9.890625l0.953125 0l0 4.21875q0.4375 -0.6875 1.125 -1.03125q0.6875 -0.359375 1.546875 -0.359375zm-0.078125 6.296875q0.734375 0 1.328125 -0.34375q0.609375 -0.34375 0.953125 -0.96875q0.34375 -0.625 0.34375 -1.421875q0 -0.8125 -0.34375 -1.4375q-0.34375 -0.625 -0.953125 -0.953125q-0.59375 -0.34375 -1.328125 -0.34375q-0.734375 0 -1.328125 0.34375q-0.59375 0.328125 -0.9375 0.953125q-0.34375 0.625 -0.34375 1.4375q0 0.796875 0.34375 1.421875q0.34375 0.625 0.9375 0.96875q0.59375 0.34375 1.328125 0.34375zm6.395813 -4.875q0.34375 -0.703125 1.0 -1.0625q0.65625 -0.359375 1.625 -0.359375l0 0.921875l-0.21875 -0.015625q-1.109375 0 -1.734375 0.6875q-0.625 0.671875 -0.625 1.890625l0 3.578125l-0.953125 0l0 -7.015625l0.90625 0l0 1.375zm6.7714386 -1.421875q1.375 0 2.109375 0.6875q0.734375 0.6875 0.734375 2.03125l0 4.34375l-0.90625 0l0 -1.09375q-0.3125 0.546875 -0.9375 0.859375q-0.625 0.296875 -1.46875 0.296875q-1.171875 0 -1.875 -0.546875q-0.6875 -0.5625 -0.6875 -1.484375q0 -0.890625 0.640625 -1.4375q0.65625 -0.546875 2.0625 -0.546875l2.234375 0l0 -0.4375q0 -0.90625 -0.515625 -1.375q-0.5 -0.46875 -1.484375 -0.46875q-0.65625 0 -1.28125 0.21875q-0.609375 0.21875 -1.046875 0.609375l-0.421875 -0.71875q0.53125 -0.453125 1.28125 -0.6875q0.75 -0.25 1.5625 -0.25zm-0.328125 6.375q0.796875 0 1.375 -0.359375q0.578125 -0.359375 0.859375 -1.0625l0 -1.140625l-2.203125 0q-1.796875 0 -1.796875 1.25q0 0.609375 0.453125 0.96875q0.46875 0.34375 1.3125 0.34375zm11.801071 -1.8125l-5.203125 0l-1.125 2.5l-1.015625 0l4.265625 -9.328125l0.96875 0l4.265625 9.328125l-1.046875 0l-1.109375 -2.5zm-0.359375 -0.796875l-2.25 -5.0l-2.234375 5.0l4.484375 0zm6.692688 3.359375q-1.03125 0 -1.859375 -0.453125q-0.8125 -0.453125 -1.28125 -1.265625q-0.46875 -0.828125 -0.46875 -1.84375q0 -1.03125 0.46875 -1.84375q0.46875 -0.8125 1.28125 -1.265625q0.828125 -0.453125 1.859375 -0.453125q0.90625 0 1.625 0.359375q0.71875 0.34375 1.125 1.03125l-0.703125 0.46875q-0.34375 -0.515625 -0.890625 -0.765625q-0.53125 -0.265625 -1.15625 -0.265625q-0.75 0 -1.359375 0.34375q-0.609375 0.328125 -0.953125 0.953125q-0.328125 0.625 -0.328125 1.4375q0 0.8125 0.328125 1.4375q0.34375 0.609375 0.953125 0.953125q0.609375 0.34375 1.359375 0.34375q0.625 0 1.15625 -0.25q0.546875 -0.265625 0.890625 -0.78125l0.703125 0.484375q-0.40625 0.671875 -1.125 1.03125q-0.71875 0.34375 -1.625 0.34375zm7.383713 0q-1.03125 0 -1.859375 -0.453125q-0.8125 -0.453125 -1.28125 -1.265625q-0.46875 -0.828125 -0.46875 -1.84375q0 -1.03125 0.46875 -1.84375q0.46875 -0.8125 1.28125 -1.265625q0.828125 -0.453125 1.859375 -0.453125q0.90625 0 1.625 0.359375q0.71875 0.34375 1.125 1.03125l-0.703125 0.46875q-0.34375 -0.515625 -0.890625 -0.765625q-0.53125 -0.265625 -1.15625 -0.265625q-0.75 0 -1.359375 0.34375q-0.609375 0.328125 -0.953125 0.953125q-0.328125 0.625 -0.328125 1.4375q0 0.8125 0.328125 1.4375q0.34375 0.609375 0.953125 0.953125q0.609375 0.34375 1.359375 0.34375q0.625 0 1.15625 -0.25q0.546875 -0.265625 0.890625 -0.78125l0.703125 0.484375q-0.40625 0.671875 -1.125 1.03125q-0.71875 0.34375 -1.625 0.34375zm7.352463 0q-1.015625 0 -1.828125 -0.453125q-0.8125 -0.46875 -1.28125 -1.28125q-0.46875 -0.8125 -0.46875 -1.828125q0 -1.03125 0.46875 -1.84375q0.46875 -0.8125 1.28125 -1.265625q0.8125 -0.453125 1.828125 -0.453125q1.015625 0 1.828125 0.453125q0.8125 0.453125 1.265625 1.265625q0.46875 0.8125 0.46875 1.84375q0 1.015625 -0.46875 1.828125q-0.453125 0.8125 -1.265625 1.28125q-0.8125 0.453125 -1.828125 0.453125zm0 -0.828125q0.75 0 1.34375 -0.34375q0.59375 -0.34375 0.921875 -0.96875q0.328125 -0.625 0.328125 -1.421875q0 -0.8125 -0.328125 -1.4375q-0.328125 -0.625 -0.921875 -0.953125q-0.59375 -0.34375 -1.34375 -0.34375q-0.75 0 -1.34375 0.34375q-0.59375 0.328125 -0.9375 0.953125q-0.328125 0.625 -0.328125 1.4375q0 0.796875 0.328125 1.421875q0.34375 0.625 0.9375 0.96875q0.59375 0.34375 1.34375 0.34375zm11.80983 -6.25l0 7.015625l-0.90625 0l0 -1.28125q-0.375 0.640625 -1.03125 1.0q-0.65625 0.34375 -1.484375 0.34375q-1.375 0 -2.171875 -0.765625q-0.796875 -0.765625 -0.796875 -2.25l0 -4.0625l0.953125 0l0 3.984375q0 1.09375 0.546875 1.671875q0.546875 0.578125 1.5625 0.578125q1.09375 0 1.734375 -0.671875q0.640625 -0.671875 0.640625 -1.875l0 -3.6875l0.953125 0zm6.2197876 -0.046875q1.3125 0 2.09375 0.765625q0.78125 0.765625 0.78125 2.234375l0 4.0625l-0.9375 0l0 -3.96875q0 -1.09375 -0.546875 -1.65625q-0.546875 -0.578125 -1.5625 -0.578125q-1.140625 0 -1.796875 0.671875q-0.65625 0.671875 -0.65625 1.859375l0 3.671875l-0.953125 0l0 -7.015625l0.90625 0l0 1.296875q0.390625 -0.640625 1.078125 -0.984375q0.6875 -0.359375 1.59375 -0.359375zm9.148102 6.640625q-0.265625 0.234375 -0.671875 0.359375q-0.390625 0.125 -0.8125 0.125q-0.984375 0 -1.515625 -0.53125q-0.53125 -0.53125 -0.53125 -1.5l0 -4.234375l-1.25 0l0 -0.8125l1.25 0l0 -1.53125l0.9375 0l0 1.53125l2.140625 0l0 0.8125l-2.140625 0l0 4.171875q0 0.625 0.3125 0.953125q0.3125 0.328125 0.90625 0.328125q0.296875 0 0.5625 -0.09375q0.28125 -0.09375 0.46875 -0.265625l0.34375 0.6875z" fill-rule="nonzero"/><path fill="#000000" fill-opacity="0.0" d="m140.82368 206.52339l0 0c0 -0.7433777 0.6026306 -1.3460083 1.3460083 -1.3460083l101.33948 0c0.35697937 0 0.6993408 0.14181519 0.95176697 0.39424133c0.25242615 0.2524109 0.39424133 0.59477234 0.39424133 0.95176697l0 22.59932c0 0.7433777 -0.6026306 1.3460083 -1.3460083 1.3460083l-101.33948 0c-0.7433777 0 -1.3460083 -0.6026306 -1.3460083 -1.3460083z" fill-rule="evenodd"/><path fill="#ffffff" d="m171.13866 221.99911q0 0.140625 -0.015625 0.390625l-4.46875 0q0.125 0.625 0.609375 1.0q0.5 0.359375 1.234375 0.359375q0.9375 0 1.546875 -0.609375l0.71875 0.8125q-0.390625 0.46875 -0.984375 0.703125q-0.578125 0.234375 -1.3125 0.234375q-0.9375 0 -1.65625 -0.375q-0.703125 -0.375 -1.09375 -1.03125q-0.390625 -0.671875 -0.390625 -1.515625q0 -0.828125 0.375 -1.5q0.375 -0.671875 1.046875 -1.03125q0.671875 -0.375 1.515625 -0.375q0.828125 0 1.484375 0.375q0.65625 0.359375 1.015625 1.03125q0.375 0.65625 0.375 1.53125zm-2.875 -1.875q-0.640625 0 -1.078125 0.375q-0.4375 0.375 -0.546875 1.015625l3.234375 0q-0.078125 -0.625 -0.515625 -1.0q-0.4375 -0.390625 -1.09375 -0.390625zm9.380951 -1.0l-2.4375 5.6875l-1.375 0l-2.4375 -5.6875l1.375 0l1.765625 4.21875l1.828125 -4.21875l1.28125 0zm6.0149994 2.875q0 0.140625 -0.015625 0.390625l-4.46875 0q0.125 0.625 0.609375 1.0q0.5 0.359375 1.234375 0.359375q0.9375 0 1.546875 -0.609375l0.71875 0.8125q-0.390625 0.46875 -0.984375 0.703125q-0.578125 0.234375 -1.3125 0.234375q-0.9375 0 -1.65625 -0.375q-0.703125 -0.375 -1.09375 -1.03125q-0.390625 -0.671875 -0.390625 -1.515625q0 -0.828125 0.375 -1.5q0.375 -0.671875 1.046875 -1.03125q0.671875 -0.375 1.515625 -0.375q0.828125 0 1.484375 0.375q0.65625 0.359375 1.015625 1.03125q0.375 0.65625 0.375 1.53125zm-2.875 -1.875q-0.640625 0 -1.078125 0.375q-0.4375 0.375 -0.546875 1.015625l3.234375 0q-0.078125 -0.625 -0.515625 -1.0q-0.4375 -0.390625 -1.09375 -0.390625zm7.393875 -1.0625q1.0625 0 1.71875 0.625q0.65625 0.625 0.65625 1.859375l0 3.265625l-1.34375 0l0 -3.09375q0 -0.75 -0.359375 -1.125q-0.34375 -0.375 -0.984375 -0.375q-0.734375 0 -1.171875 0.453125q-0.421875 0.4375 -0.421875 1.265625l0 2.875l-1.328125 0l0 -5.6875l1.265625 0l0 0.734375q0.328125 -0.390625 0.828125 -0.59375q0.5 -0.203125 1.140625 -0.203125zm7.4871063 5.4375q-0.234375 0.1875 -0.578125 0.296875q-0.328125 0.09375 -0.703125 0.09375q-0.9375 0 -1.453125 -0.484375q-0.5 -0.5 -0.5 -1.4375l0 -2.734375l-0.9375 0l0 -1.0625l0.9375 0l0 -1.3125l1.328125 0l0 1.3125l1.515625 0l0 1.0625l-1.515625 0l0 2.703125q0 0.421875 0.203125 0.640625q0.203125 0.21875 0.578125 0.21875q0.453125 0 0.75 -0.234375l0.375 0.9375zm0.5414276 0.3125l5.328125 0l0 0.8125l-5.328125 0l0 -0.8125zm8.531311 -2.4375l-1.0 0.9375l0 1.5l-1.328125 0l0 -7.90625l1.328125 0l0 4.765625l2.765625 -2.546875l1.59375 0l-2.375 2.390625l2.59375 3.296875l-1.609375 0l-1.96875 -2.4375zm9.558411 -0.375q0 0.140625 -0.015625 0.390625l-4.46875 0q0.125 0.625 0.609375 1.0q0.5 0.359375 1.234375 0.359375q0.9375 0 1.546875 -0.609375l0.71875 0.8125q-0.390625 0.46875 -0.984375 0.703125q-0.578125 0.234375 -1.3125 0.234375q-0.9375 0 -1.65625 -0.375q-0.703125 -0.375 -1.09375 -1.03125q-0.390625 -0.671875 -0.390625 -1.515625q0 -0.828125 0.375 -1.5q0.375 -0.671875 1.046875 -1.03125q0.671875 -0.375 1.515625 -0.375q0.828125 0 1.484375 0.375q0.65625 0.359375 1.015625 1.03125q0.375 0.65625 0.375 1.53125zm-2.875 -1.875q-0.640625 0 -1.078125 0.375q-0.4375 0.375 -0.546875 1.015625l3.234375 0q-0.078125 -0.625 -0.515625 -1.0q-0.4375 -0.390625 -1.09375 -0.390625zm9.380951 -1.0l-2.671875 6.140625q-0.359375 0.9375 -0.90625 1.3125q-0.53125 0.375 -1.28125 0.375q-0.421875 0 -0.84375 -0.140625q-0.421875 -0.140625 -0.6875 -0.375l0.546875 -0.984375q0.1875 0.1875 0.4375 0.28125q0.265625 0.109375 0.53125 0.109375q0.359375 0 0.578125 -0.1875q0.234375 -0.171875 0.421875 -0.59375l0.09375 -0.234375l-2.46875 -5.703125l1.375 0l1.796875 4.203125l1.796875 -4.203125l1.28125 0z" fill-rule="nonzero"/><path fill="#ffffff" d="m180.29668 237.88974q-0.890625 0 -1.59375 -0.375q-0.703125 -0.375 -1.09375 -1.03125q-0.390625 -0.671875 -0.390625 -1.515625q0 -0.84375 0.390625 -1.5q0.390625 -0.671875 1.09375 -1.03125q0.703125 -0.375 1.59375 -0.375q0.84375 0 1.46875 0.34375q0.640625 0.328125 0.96875 0.96875l-1.03125 0.59375q-0.25 -0.390625 -0.625 -0.578125q-0.359375 -0.203125 -0.796875 -0.203125q-0.734375 0 -1.234375 0.484375q-0.484375 0.484375 -0.484375 1.296875q0 0.8125 0.484375 1.296875q0.484375 0.484375 1.234375 0.484375q0.4375 0 0.796875 -0.1875q0.375 -0.203125 0.625 -0.609375l1.03125 0.609375q-0.34375 0.625 -0.984375 0.984375q-0.625 0.34375 -1.453125 0.34375zm6.059143 0q-0.875 0 -1.5625 -0.375q-0.6875 -0.375 -1.078125 -1.03125q-0.390625 -0.671875 -0.390625 -1.515625q0 -0.84375 0.390625 -1.5q0.390625 -0.671875 1.078125 -1.03125q0.6875 -0.375 1.5625 -0.375q0.875 0 1.5625 0.375q0.6875 0.359375 1.078125 1.03125q0.390625 0.65625 0.390625 1.5q0 0.84375 -0.390625 1.515625q-0.390625 0.65625 -1.078125 1.03125q-0.6875 0.375 -1.5625 0.375zm0 -1.140625q0.734375 0 1.203125 -0.484375q0.484375 -0.5 0.484375 -1.296875q0 -0.796875 -0.484375 -1.28125q-0.46875 -0.5 -1.203125 -0.5q-0.734375 0 -1.21875 0.5q-0.46875 0.484375 -0.46875 1.28125q0 0.796875 0.46875 1.296875q0.484375 0.484375 1.21875 0.484375zm9.826477 -4.625l0 5.6875l-1.28125 0l0 -0.71875q-0.3125 0.375 -0.796875 0.59375q-0.46875 0.203125 -1.03125 0.203125q-1.140625 0 -1.796875 -0.625q-0.65625 -0.640625 -0.65625 -1.890625l0 -3.25l1.328125 0l0 3.0625q0 0.765625 0.34375 1.15625q0.359375 0.375 1.0 0.375q0.703125 0 1.125 -0.4375q0.421875 -0.453125 0.421875 -1.28125l0 -2.875l1.34375 0zm4.9757233 -0.0625q1.0625 0 1.71875 0.625q0.65625 0.625 0.65625 1.859375l0 3.265625l-1.34375 0l0 -3.09375q0 -0.75 -0.359375 -1.125q-0.34375 -0.375 -0.984375 -0.375q-0.734375 0 -1.171875 0.453125q-0.421875 0.4375 -0.421875 1.265625l0 2.875l-1.328125 0l0 -5.6875l1.265625 0l0 0.734375q0.328125 -0.390625 0.828125 -0.59375q0.5 -0.203125 1.140625 -0.203125zm7.4871063 5.4375q-0.234375 0.1875 -0.578125 0.296875q-0.328125 0.09375 -0.703125 0.09375q-0.9375 0 -1.453125 -0.484375q-0.5 -0.5 -0.5 -1.4375l0 -2.734375l-0.9375 0l0 -1.0625l0.9375 0l0 -1.3125l1.328125 0l0 1.3125l1.515625 0l0 1.0625l-1.515625 0l0 2.703125q0 0.421875 0.203125 0.640625q0.203125 0.21875 0.578125 0.21875q0.453125 0 0.75 -0.234375l0.375 0.9375z" fill-rule="nonzero"/><path fill="#000000" fill-opacity="0.0" d="m136.0081 163.01312l99.49606 0l0 20.566925l-99.49606 0z" fill-rule="evenodd"/><path fill="#ffffff" d="m151.60185 181.09688l0 1.15625l-5.59375 0l0 -7.453125l5.453125 0l0 1.15625l-4.0625 0l0 1.9375l3.59375 0l0 1.140625l-3.59375 0l0 2.0625l4.203125 0zm6.674469 -4.53125l-2.4375 5.6875l-1.375 0l-2.4375 -5.6875l1.375 0l1.765625 4.21875l1.828125 -4.21875l1.28125 0zm6.0149994 2.875q0 0.140625 -0.015625 0.390625l-4.46875 0q0.125 0.625 0.609375 1.0q0.5 0.359375 1.234375 0.359375q0.9375 0 1.546875 -0.609375l0.71875 0.8125q-0.390625 0.46875 -0.984375 0.703125q-0.578125 0.234375 -1.3125 0.234375q-0.9375 0 -1.65625 -0.375q-0.703125 -0.375 -1.09375 -1.03125q-0.390625 -0.671875 -0.390625 -1.515625q0 -0.828125 0.375 -1.5q0.375 -0.671875 1.046875 -1.03125q0.671875 -0.375 1.515625 -0.375q0.828125 0 1.484375 0.375q0.65625 0.359375 1.015625 1.03125q0.375 0.65625 0.375 1.53125zm-2.875 -1.875q-0.640625 0 -1.078125 0.375q-0.4375 0.375 -0.546875 1.015625l3.234375 0q-0.078125 -0.625 -0.515625 -1.0q-0.4375 -0.390625 -1.09375 -0.390625zm7.393875 -1.0625q1.0625 0 1.71875 0.625q0.65625 0.625 0.65625 1.859375l0 3.265625l-1.34375 0l0 -3.09375q0 -0.75 -0.359375 -1.125q-0.34375 -0.375 -0.984375 -0.375q-0.734375 0 -1.171875 0.453125q-0.421875 0.4375 -0.421875 1.265625l0 2.875l-1.328125 0l0 -5.6875l1.265625 0l0 0.734375q0.328125 -0.390625 0.828125 -0.59375q0.5 -0.203125 1.140625 -0.203125zm7.4871063 5.4375q-0.234375 0.1875 -0.578125 0.296875q-0.328125 0.09375 -0.703125 0.09375q-0.9375 0 -1.453125 -0.484375q-0.5 -0.5 -0.5 -1.4375l0 -2.734375l-0.9375 0l0 -1.0625l0.9375 0l0 -1.3125l1.328125 0l0 1.3125l1.515625 0l0 1.0625l-1.515625 0l0 2.703125q0 0.421875 0.203125 0.640625q0.203125 0.21875 0.578125 0.21875q0.453125 0 0.75 -0.234375l0.375 0.9375zm7.8464203 -7.140625l0 7.453125l-1.375 0l0 -3.203125l-3.859375 0l0 3.203125l-1.390625 0l0 -7.453125l1.390625 0l0 3.078125l3.859375 0l0 -3.078125l1.375 0zm4.053528 1.703125q1.265625 0 1.921875 0.609375q0.671875 0.59375 0.671875 1.8125l0 3.328125l-1.265625 0l0 -0.6875q-0.234375 0.375 -0.6875 0.578125q-0.453125 0.1875 -1.09375 0.1875q-0.640625 0 -1.125 -0.21875q-0.484375 -0.21875 -0.75 -0.609375q-0.25 -0.390625 -0.25 -0.875q0 -0.765625 0.5625 -1.234375q0.578125 -0.46875 1.796875 -0.46875l1.484375 0l0 -0.078125q0 -0.59375 -0.359375 -0.90625q-0.359375 -0.328125 -1.0625 -0.328125q-0.484375 0 -0.953125 0.15625q-0.453125 0.140625 -0.78125 0.40625l-0.515625 -0.96875q0.453125 -0.34375 1.078125 -0.515625q0.625 -0.1875 1.328125 -0.1875zm-0.1875 4.859375q0.515625 0 0.890625 -0.234375q0.390625 -0.234375 0.5625 -0.65625l0 -0.65625l-1.375 0q-1.15625 0 -1.15625 0.75q0 0.359375 0.28125 0.578125q0.296875 0.21875 0.796875 0.21875zm7.7184143 -4.859375q1.0625 0 1.71875 0.625q0.65625 0.625 0.65625 1.859375l0 3.265625l-1.34375 0l0 -3.09375q0 -0.75 -0.359375 -1.125q-0.34375 -0.375 -0.984375 -0.375q-0.734375 0 -1.171875 0.453125q-0.421875 0.4375 -0.421875 1.265625l0 2.875l-1.328125 0l0 -5.6875l1.265625 0l0 0.734375q0.328125 -0.390625 0.828125 -0.59375q0.5 -0.203125 1.140625 -0.203125zm9.696686 -2.15625l0 7.90625l-1.28125 0l0 -0.734375q-0.328125 0.40625 -0.8125 0.609375q-0.484375 0.203125 -1.078125 0.203125q-0.8125 0 -1.46875 -0.359375q-0.65625 -0.375 -1.03125 -1.03125q-0.375 -0.671875 -0.375 -1.53125q0 -0.859375 0.375 -1.515625q0.375 -0.671875 1.03125 -1.03125q0.65625 -0.359375 1.46875 -0.359375q0.5625 0 1.03125 0.1875q0.46875 0.1875 0.796875 0.578125l0 -2.921875l1.34375 0zm-3.015625 6.84375q0.484375 0 0.859375 -0.21875q0.390625 -0.21875 0.609375 -0.625q0.234375 -0.40625 0.234375 -0.9375q0 -0.53125 -0.234375 -0.9375q-0.21875 -0.40625 -0.609375 -0.625q-0.375 -0.21875 -0.859375 -0.21875q-0.46875 0 -0.859375 0.21875q-0.390625 0.21875 -0.609375 0.625q-0.21875 0.40625 -0.21875 0.9375q0 0.53125 0.21875 0.9375q0.21875 0.40625 0.609375 0.625q0.390625 0.21875 0.859375 0.21875zm4.758423 -6.84375l1.328125 0l0 7.90625l-1.328125 0l0 -7.90625zm8.423431 5.09375q0 0.140625 -0.015625 0.390625l-4.46875 0q0.125 0.625 0.609375 1.0q0.5 0.359375 1.234375 0.359375q0.9375 0 1.546875 -0.609375l0.71875 0.8125q-0.390625 0.46875 -0.984375 0.703125q-0.578125 0.234375 -1.3125 0.234375q-0.9375 0 -1.65625 -0.375q-0.703125 -0.375 -1.09375 -1.03125q-0.390625 -0.671875 -0.390625 -1.515625q0 -0.828125 0.375 -1.5q0.375 -0.671875 1.046875 -1.03125q0.671875 -0.375 1.515625 -0.375q0.828125 0 1.484375 0.375q0.65625 0.359375 1.015625 1.03125q0.375 0.65625 0.375 1.53125zm-2.875 -1.875q-0.640625 0 -1.078125 0.375q-0.4375 0.375 -0.546875 1.015625l3.234375 0q-0.078125 -0.625 -0.515625 -1.0q-0.4375 -0.390625 -1.09375 -0.390625z" fill-rule="nonzero"/><path fill="#000000" fill-opacity="0.0" d="m93.58856 116.4324l0 0" fill-rule="evenodd"/><path stroke="#595959" stroke-width="1.0" stroke-linejoin="round" stroke-linecap="butt" d="m93.58856 116.4324l0 0" fill-rule="evenodd"/><path fill="#000000" fill-opacity="0.0" d="m93.58856 116.4324l0 153.5748l34.834656 0" fill-rule="evenodd"/><path stroke="#595959" stroke-width="1.0" stroke-linejoin="round" stroke-linecap="butt" d="m93.58856 116.4324l0 153.5748l34.834656 0" fill-rule="evenodd"/><path fill="#000000" fill-opacity="0.0" d="m498.18326 172.22748l0 46.61418" fill-rule="evenodd"/><path stroke="#ffffff" stroke-width="1.0" stroke-linejoin="round" stroke-linecap="butt" d="m498.18326 172.22748l0 46.61418" fill-rule="evenodd"/><path fill="#000000" fill-opacity="0.0" d="m578.7246 172.22748l0 46.61418" fill-rule="evenodd"/><path stroke="#ffffff" stroke-width="1.0" stroke-linejoin="round" stroke-linecap="butt" d="m578.7246 172.22748l0 46.61418" fill-rule="evenodd"/><path fill="#000000" fill-opacity="0.0" d="m734.4512 172.8202l0 46.61418" fill-rule="evenodd"/><path stroke="#ffffff" stroke-width="1.0" stroke-linejoin="round" stroke-linecap="butt" d="m734.4512 172.8202l0 46.61418" fill-rule="evenodd"/><path fill="#000000" fill-opacity="0.0" d="m354.0716 115.91207l0 80.22047l25.543335 0" fill-rule="evenodd"/><path stroke="#595959" stroke-width="1.0" stroke-linejoin="round" stroke-linecap="butt" d="m354.0716 115.91207l0 80.22047l25.543335 0" fill-rule="evenodd"/><path fill="#000000" fill-opacity="0.0" d="m391.66132 297.0042l35.496063 -76.7874" fill-rule="evenodd"/><path stroke="#595959" stroke-width="1.0" stroke-linejoin="round" stroke-linecap="butt" d="m391.66132 297.0042l35.496063 -76.7874" fill-rule="evenodd"/><path fill="#000000" fill-opacity="0.0" d="m515.303 297.68927l-37.417297 -78.86615" fill-rule="evenodd"/><path stroke="#595959" stroke-width="1.0" stroke-linejoin="round" stroke-linecap="butt" d="m515.303 297.68927l-37.417297 -78.86615" fill-rule="evenodd"/></g></svg>
