<?xml version="1.0" encoding="UTF-8"?>
<svg width="45px" height="44px" viewBox="0 0 45 44" version="1.1" xmlns="http://www.w3.org/2000/svg" xmlns:xlink="http://www.w3.org/1999/xlink">
    <title>11B7A2B1-15E3-4CEE-9D90-3A5CEF3B28A9</title>
    <defs>
        <polygon id="path-1" points="0.8382 0.475 44.764 0.475 44.764 21.8907 0.8382 21.8907"></polygon>
    </defs>
    <g id="---Developers" stroke="none" stroke-width="1" fill="none" fill-rule="evenodd">
        <g id="Documentation---Wallet-/-App-Overview" transform="translate(-644.000000, -1300.000000)">
            <g id="Group-12" transform="translate(644.000000, 1300.000000)">
                <path d="M26.4198,22.3916 C26.4198,24.6656 24.5758,26.5096 22.3018,26.5096 C20.0258,26.5096 18.1828,24.6656 18.1828,22.3916 C18.1828,20.1176 20.0258,18.2726 22.3018,18.2726 C24.5758,18.2726 26.4198,20.1176 26.4198,22.3916" id="Fill-1" fill="#92B5D8"></path>
                <path d="M41.704,22.1094 C41.704,32.8964 32.93,41.6714 22.143,41.6714 C14.253,41.6714 7.204,36.9584 4.149,29.7964 L6.667,28.6574 L1.826,26.8314 L0,31.6724 L2.459,30.5594 C5.81,38.3804 13.517,43.5254 22.143,43.5254 C33.952,43.5254 43.558,33.9194 43.558,22.1094 L41.704,22.1094 Z" id="Fill-3" fill="#432C85"></path>
                <g id="Group-7" transform="translate(0.000000, 0.525400)">
                    <mask id="mask-2" fill="white">
                        <use xlink:href="#path-1"></use>
                    </mask>
                    <g id="Clip-6"></g>
                    <path d="M42.1112,13.8867 C38.8642,5.8157 31.0512,0.4747 22.2542,0.4747 C10.4452,0.4747 0.8382,10.0807 0.8382,21.8907 L2.6922,21.8907 C2.6922,11.1037 11.4672,2.3287 22.2542,2.3287 C30.3172,2.3287 37.4722,7.2387 40.4212,14.6517 L38.0972,15.7017 L42.9382,17.5277 L44.7642,12.6867 L42.1112,13.8867 Z" id="Fill-5" fill="#6C67A8" mask="url(#mask-2)"></path>
                </g>
                <path d="M20.3232,32.1045 C20.3232,31.6865 20.0382,31.3375 19.6382,31.2145 C15.8072,30.0395 13.0122,26.4735 13.0122,22.2625 C13.0122,18.0515 15.8072,14.4865 19.6382,13.3105 C20.0382,13.1875 20.3232,12.8385 20.3232,12.4205 C20.3232,11.7975 19.7172,11.3495 19.1202,11.5315 C14.5182,12.9315 11.1582,17.2085 11.1582,22.2625 C11.1582,27.3165 14.5182,31.5935 19.1202,32.9945 C19.7172,33.1755 20.3232,32.7275 20.3232,32.1045" id="Fill-8" fill="#8ECFBA"></path>
                <path d="M24.4413,12.4209 L24.4413,12.4209 C24.4413,12.8389 24.7263,13.1879 25.1263,13.3109 C28.9563,14.4859 31.7523,18.0519 31.7523,22.2629 C31.7523,26.4739 28.9563,30.0389 25.1263,31.2149 C24.7263,31.3379 24.4413,31.6869 24.4413,32.1049 C24.4413,32.7279 25.0473,33.1759 25.6443,32.9939 C30.2463,31.5939 33.6053,27.3169 33.6053,22.2629 C33.6053,17.2089 30.2463,12.9319 25.6443,11.5309 C25.0473,11.3499 24.4413,11.7979 24.4413,12.4209" id="Fill-10" fill="#8ECFBA"></path>
            </g>
        </g>
    </g>
</svg>
