<?xml version="1.0" encoding="UTF-8"?>
<svg width="39px" height="40px" viewBox="0 0 39 40" version="1.1" xmlns="http://www.w3.org/2000/svg" xmlns:xlink="http://www.w3.org/1999/xlink">
    <title>Icon</title>
    <g id="---Developers" stroke="none" stroke-width="1" fill="none" fill-rule="evenodd">
        <g id="Documentation---Home-Page-Copy" transform="translate(-644.000000, -421.000000)">
            <g id="Group" transform="translate(0.000000, 139.000000)">
                <g id="Content" transform="translate(302.000000, 51.000000)">
                    <g id="Use-Case" transform="translate(65.000000, 123.000000)">
                        <g id="Use-Case-Copy" transform="translate(258.000000, 54.000000)">
                            <g id="Group-Copy-4" transform="translate(20.000000, 55.500000)">
                                <g id="Icon">
                                    <g id="Merchant-Solutions-Copy" transform="translate(0.666667, 0.666667)">
                                        <path d="M5.43838913,0.826979381 L29.8022379,0.826979381 C30.8073149,0.826979381 31.6220908,1.6417553 31.6220908,2.64683232 C31.6220908,2.9624157 31.5400248,3.27257508 31.3839494,3.546862 L30.0865109,5.82697938 L30.0865109,5.82697938 L5.08651094,5.82697938 L3.83682459,3.5110405 C3.3595356,2.62652083 3.68966128,1.52255679 4.57418095,1.04526779 C4.83970173,0.90199212 5.13667866,0.826979381 5.43838913,0.826979381 Z" id="Rectangle" fill="#8AB5DC" transform="translate(17.660061, 3.326979) rotate(-180.000000) translate(-17.660061, -3.326979) "></path>
                                        <path d="M11.9002785,35.5741235 L11.9002785,25.7273098 C11.9002785,24.7222327 12.7150544,23.9074568 13.7201314,23.9074568 L21.7470922,23.9074568 C22.7521693,23.9074568 23.5669452,24.7222327 23.5669452,25.7273098 L23.5669452,35.5741235 L23.5669452,35.5741235" id="Path-10" stroke="#074957" stroke-width="1.81985294"></path>
                                        <path d="M2.05346477,9.16031271 L11.9002785,9.16031271 L11.9002785,9.16031271 L11.9002785,13.3269794 C11.9002785,16.5486404 9.28860621,19.1603127 6.06694517,19.1603127 L5.23361183,19.1603127 C2.47218808,19.1603127 0.233611833,16.9217365 0.233611833,14.1603127 L0.233611833,10.9801657 C0.233611833,9.97508863 1.04838775,9.16031271 2.05346477,9.16031271 Z" id="Rectangle" stroke="#8ECFBA" stroke-width="1.81985294"></path>
                                        <path d="M11.9002785,9.16031271 L23.5669452,9.16031271 L23.5669452,13.3269794 C23.5669452,16.5486404 20.9552729,19.1603127 17.7336118,19.1603127 C14.5119508,19.1603127 11.9002785,16.5486404 11.9002785,13.3269794 L11.9002785,9.16031271 L11.9002785,9.16031271 Z" id="Rectangle" stroke="#8ECFBA" stroke-width="1.81985294"></path>
                                        <path d="M23.5669452,9.16031271 L33.4137589,9.16031271 C34.4188359,9.16031271 35.2336118,9.97508863 35.2336118,10.9801657 L35.2336118,14.1603127 C35.2336118,16.9217365 32.9950356,19.1603127 30.2336118,19.1603127 L29.4002785,19.1603127 C26.1786175,19.1603127 23.5669452,16.5486404 23.5669452,13.3269794 L23.5669452,9.16031271 L23.5669452,9.16031271 Z" id="Rectangle" stroke="#8ECFBA" stroke-width="1.81985294"></path>
                                        <path d="" id="Path-11" stroke="#979797" stroke-width="1.81985294"></path>
                                        <line x1="11.9002785" y1="9.16031271" x2="13.4258057" y2="0" id="Path-13" stroke="#8ECFBA" stroke-width="1.81985294"></line>
                                        <line x1="23.5669452" y1="9.16031271" x2="22.0380733" y2="0" id="Path-14" stroke="#8ECFBA" stroke-width="1.81985294"></line>
                                        <rect id="Rectangle" stroke="#074957" stroke-width="1.81985294" x="0.233611833" y="9.16031271" width="35" height="26.6666667" rx="1.81985294"></rect>
                                        <polyline id="Path-12" stroke="#074957" stroke-width="1.81985294" points="0.526250187 9.89636998 5.42668775 0 30.1934367 0 34.9909429 9.97218822"></polyline>
                                    </g>
                                </g>
                            </g>
                        </g>
                    </g>
                </g>
            </g>
        </g>
    </g>
</svg>
