<?xml version="1.0" encoding="UTF-8"?>
<svg width="37px" height="38px" viewBox="0 0 37 38" version="1.1" xmlns="http://www.w3.org/2000/svg" xmlns:xlink="http://www.w3.org/1999/xlink">
    <title>E5E5E5 Merchant Solutions</title>
    <g id="---Developers" stroke="none" stroke-width="1" fill="none" fill-rule="evenodd">
        <g id="Documentation---Home-Page---Dark-Mode" transform="translate(-645.000000, -672.000000)">
            <g id="E5E5E5-Merchant-Solutions" transform="translate(646.000000, 672.000000)">
                <g id="Group-8">
                    <g id="Merchant-Solutions">
                        <path d="M4.02097078,-4.13891144e-13 L30.6132854,-4.13891144e-13 C31.1655702,-4.13956305e-13 31.6132854,0.44771525 31.6132854,1 C31.6132854,1.17341147 31.5681906,1.34384248 31.4824279,1.49456176 L29.5394835,4.90909091 L29.5394835,4.90909091 L4.99402892,4.90909091 L3.14091916,1.47487803 C2.87865127,0.98883894 3.06005366,0.382216272 3.54609275,0.119948378 C3.69199508,0.0412191211 3.85518241,-4.14193756e-13 4.02097078,-4.13891144e-13 Z" id="Rectangle" fill="#A3ACBA" transform="translate(17.338969, 2.454545) rotate(-180.000000) translate(-17.338969, -2.454545) "></path>
                        <path d="M1.22936435,9.99376157 L11.6839098,9.99376157 L11.6839098,9.99376157 L11.6839098,14.0846707 C11.6839098,17.2477561 9.11972246,19.8119434 5.95663707,19.8119434 L5.13845525,19.8119434 C2.42723921,19.8119434 0.229364345,17.6140685 0.229364345,14.9028525 L0.229364345,10.9937616 C0.229364345,10.4414768 0.677079596,9.99376157 1.22936435,9.99376157 Z" id="Rectangle" stroke="#A3ACBB" stroke-width="2"></path>
                        <path d="M11.6839098,9.99376157 L23.1384553,9.99376157 L23.1384553,14.0846707 C23.1384553,17.2477561 20.5742679,19.8119434 17.4111825,19.8119434 C14.2480971,19.8119434 11.6839098,17.2477561 11.6839098,14.0846707 L11.6839098,9.99376157 L11.6839098,9.99376157 Z" id="Rectangle" stroke="#A3ACBB" stroke-width="2"></path>
                        <path d="M23.1384553,9.99376157 L33.5930007,9.99376157 C34.1452855,9.99376157 34.5930007,10.4414768 34.5930007,10.9937616 L34.5930007,14.9028525 C34.5930007,17.6140685 32.3951258,19.8119434 29.6839098,19.8119434 L28.865728,19.8119434 C25.7026426,19.8119434 23.1384553,17.2477561 23.1384553,14.0846707 L23.1384553,9.99376157 L23.1384553,9.99376157 Z" id="Rectangle" stroke="#A3ACBB" stroke-width="2"></path>
                        <path d="" id="Path-11" stroke="#979797"></path>
                        <line x1="11.6839098" y1="9.99376157" x2="13.1817001" y2="1" id="Path-13" stroke="#A3ACBB" stroke-width="2"></line>
                        <line x1="23.1384553" y1="9.99376157" x2="21.637381" y2="1" id="Path-14" stroke="#A3ACBB" stroke-width="2"></line>
                        <rect id="Rectangle" stroke="#A3ACBB" stroke-width="2" x="0.229364345" y="9.99376157" width="34.3636364" height="26.1818182" rx="1"></rect>
                        <polyline id="Path-12" stroke="#A3ACBB" stroke-width="2" points="0.516682002 10.716436 5.3280207 1 29.6444651 1 34.354744 10.7908757"></polyline>
                    </g>
                    <path d="M11.6839098,35.3829105 L11.6839098,25.4727758 C11.6839098,24.920491 12.1316251,24.4727758 12.6839098,24.4727758 L22.1384553,24.4727758 C22.69074,24.4727758 23.1384553,24.920491 23.1384553,25.4727758 L23.1384553,35.3829105 L23.1384553,35.3829105" id="Path-10" stroke="#FFFFFF" stroke-width="2"></path>
                </g>
            </g>
        </g>
    </g>
</svg>
